<svg id="Livello_1" data-name="Livello 1" xmlns="http://www.w3.org/2000/svg" xmlns:xlink="http://www.w3.org/1999/xlink" viewBox="0 0 1587.16 2389.21">
  <defs>
    <style>
      .cls-1 {
        fill: none;
      }

      .cls-2 {
        clip-path: url(#clip-path);
      }
    </style>
    <clipPath id="clip-path" transform="translate(-406.68 -5)">
      <rect class="cls-1" x="403.78" y="320.79" width="1592.67" height="2073.21"/>
    </clipPath>
  </defs>
  <title>time_machine_icon</title>
  <g>
    <path d="M1812.17,1597.69l18.47-1.77a176.68,176.68,0,0,0-3.91-24.16l-18.08,4.29A161.69,161.69,0,0,1,1812.17,1597.69Z" transform="translate(-406.68 -5)"/>
    <path d="M1768.48,1498.63a88.46,88.46,0,0,0-25.5-3.51v18.59a69.63,69.63,0,0,1,20.17,2.73Z" transform="translate(-406.68 -5)"/>
    <path d="M1787.42,1532.4c.42.53.85,1,1.28,1.55l14.48-11.58c-.48-.62-1-1.24-1.5-1.88a68.46,68.46,0,0,0-18.47-15.58L1774,1521A49.69,49.69,0,0,1,1787.42,1532.4Z" transform="translate(-406.68 -5)"/>
    <path d="M1831.74,1634.11c.08-3.43.11-6.89.11-10.35,0-4.45,0-8.93-.24-13.41l-18.56.72c.16,4.19.24,8.43.24,12.69,0,3.32,0,6.65-.1,10Z" transform="translate(-406.68 -5)"/>
    <path d="M1727.86,1496.09a174,174,0,0,0-24.06,4.88l4.91,17.91a149.18,149.18,0,0,1,21.43-4.34Z" transform="translate(-406.68 -5)"/>
    <path d="M1633.49,1530.79l8.9,16.3h0c6.68-3.67,13.46-7.16,20.22-10.43l-8-16.73C1647.52,1523.33,1640.46,1527,1633.49,1530.79Z" transform="translate(-406.68 -5)"/>
    <path d="M1667.6,1514l7.4,17c7.06-3.06,14.08-5.82,21-8.18l-6-17.56Q1678.8,1509.09,1667.6,1514Z" transform="translate(-406.68 -5)"/>
    <path d="M1822.55,1557.44a123,123,0,0,0-10.7-22.68l-15.88,9.65a103.3,103.3,0,0,1,9.06,19.23Z" transform="translate(-406.68 -5)"/>
    <path d="M740.86,1493.32q-10.86-4.26-22.1-8.2l-6.14,17.54c7.24,2.54,14.43,5.2,21.48,8Z" transform="translate(-406.68 -5)"/>
    <path d="M677.79,1491.69c7.29,2,14.59,4.21,21.85,6.57l5.72-17.67q-11.24-3.66-22.66-6.81Z" transform="translate(-406.68 -5)"/>
    <path d="M642.36,1483.56c7.35,1.32,14.78,2.9,22.21,4.7l4.37-18c-7.75-1.9-15.53-3.57-23.28-5Z" transform="translate(-406.68 -5)"/>
    <path d="M571.38,1480.69c3.78-.53,7.65-.91,11.56-1.18,3,7.27,6.19,14.35,9.57,21.24l16.66-8.18q-4.92-10-9.26-20.59l-6.62,2.71-.19-14.21h0l-1.32.08,3.27-1.21c-1.2-3.33-2.33-6.68-3.43-10.08-1.26-3.87-2.33-7.59-3.24-11.19l-18,4.56c1,4,2.22,8.15,3.59,12.36.7,2.2,1.47,4.35,2.23,6.49-2.47.27-4.94.46-7.38.81Z" transform="translate(-406.68 -5)"/>
    <path d="M476.78,1655.62l-18.56.8q.52,12,1.2,23.33l18.53-1.1C477.53,1671.2,477.12,1663.5,476.78,1655.62Z" transform="translate(-406.68 -5)"/>
    <path d="M538.32,1490a111.92,111.92,0,0,1,20.27-6.9l-4.37-18.07a130,130,0,0,0-23.6,8Z" transform="translate(-406.68 -5)"/>
    <path d="M478.41,1583.21,460,1580.56q-1.65,11.34-2.33,23.92l18.53,1C476.67,1597.61,477.42,1590.18,478.41,1583.21Z" transform="translate(-406.68 -5)"/>
    <path d="M754,1498.58l-7.08,17.19c7.19,3,14.24,6,21.08,9.09l7.59-17Q765.06,1503.18,754,1498.58Z" transform="translate(-406.68 -5)"/>
    <path d="M502.55,1518.72l-14.86-11.13A124.8,124.8,0,0,0,474.84,1529l16.76,8A107.29,107.29,0,0,1,502.55,1518.72Z" transform="translate(-406.68 -5)"/>
    <path d="M486.64,1549l-17.48-6.25a186.26,186.26,0,0,0-6.6,23.51l18.18,3.84A163.81,163.81,0,0,1,486.64,1549Z" transform="translate(-406.68 -5)"/>
    <path d="M606.67,1479.33c7.3.35,14.78,1.07,22.34,2.09l2.49-18.4c-8-1.1-16-1.87-23.89-2.25Z" transform="translate(-406.68 -5)"/>
    <path d="M457.68,1642.42l18.56-.61c-.11-2.93-.19-5.85-.27-8.8q-.17-5.31-.16-10.38V1619l-18.56-.21c0,1.26,0,2.55,0,3.83,0,3.57,0,7.22.18,10.94C457.47,1636.52,457.57,1639.47,457.68,1642.42Z" transform="translate(-406.68 -5)"/>
    <path d="M527.16,1496l-9.87-15.74a107.78,107.78,0,0,0-19.73,15.82l13.22,13A90,90,0,0,1,527.16,1496Z" transform="translate(-406.68 -5)"/>
    <path d="M623,1329.56l7,17.21a148.17,148.17,0,0,1,20.78-6.59l-4.37-18A168,168,0,0,0,623,1329.56Z" transform="translate(-406.68 -5)"/>
    <path d="M660.63,1319.18l3.13,18.32c7.3-1.24,14.75-2.15,22.26-2.79l-1.53-18.51C676.5,1316.87,668.51,1317.84,660.63,1319.18Z" transform="translate(-406.68 -5)"/>
    <path d="M735.87,1334.12c8.13.37,15.77,1,22.72,1.61l1.77-18.48c-7.22-.7-15.15-1.29-23.6-1.69Z" transform="translate(-406.68 -5)"/>
    <path d="M578.76,1363.56a75.32,75.32,0,0,0-10.41,24.11l18,4.37a56.68,56.68,0,0,1,7.86-18.23Z" transform="translate(-406.68 -5)"/>
    <path d="M694.39,1610.35q-7.65-8.2-15.47-17L665,1605.63c5.31,6,10.6,11.8,15.77,17.38Z" transform="translate(-406.68 -5)"/>
    <path d="M669.93,1582.94q-7.32-8.6-14.48-17.69l-14.61,11.45c4.93,6.27,9.95,12.39,14.93,18.26Z" transform="translate(-406.68 -5)"/>
    <path d="M588.73,1351.36l13.12,13.17a74.55,74.55,0,0,1,16.57-12.26l-9.07-16.22A94.49,94.49,0,0,0,588.73,1351.36Z" transform="translate(-406.68 -5)"/>
    <path d="M719.92,1637.17q-7.77-8.09-16-16.74l-13.46,12.79q8.33,8.77,16.12,16.82Z" transform="translate(-406.68 -5)"/>
    <path d="M698.79,1315.32l.75,18.56c5.15-.22,10.24-.3,15.26-.3,2.49,0,5,0,7.42.05l.33-18.55c-2.55-.06-5.13-.08-7.75-.08Q706.91,1315,698.79,1315.32Z" transform="translate(-406.68 -5)"/>
    <path d="M647.17,1554.36c-4.46-6-8.83-12.23-13.09-18.64L618.63,1546q6.64,10,13.63,19.39Z" transform="translate(-406.68 -5)"/>
    <path d="M626.73,1524.27q-5.91-9.52-11.34-19.6L599,1513.46c3.81,7.06,7.8,13.92,11.91,20.57Z" transform="translate(-406.68 -5)"/>
    <path d="M565.86,1409.44a121.41,121.41,0,0,0,1.53,18.72l18.34-2.84a102.32,102.32,0,0,1-1.29-15.85c0-1.82.06-3.59.16-5.28L566.07,1403C565.94,1405.13,565.86,1407.27,565.86,1409.44Z" transform="translate(-406.68 -5)"/>
    <g class="cls-2">
      <path d="M787,1516.63l-6.52,14c2.23,1,4.37,2.06,6.52,3.08V1620a725.75,725.75,0,0,0-76.11,32.31,240.84,240.84,0,0,0-230.56,59.21c-.54-6.19-1.05-12.52-1.53-19l-18.5,1.31q.84,12,1.87,23.3l13.84-1.26a240.64,240.64,0,0,0-68.76,186.32c8,112.47,91.93,201.36,198,220.27-.48,2.55-.94,5.09-1.31,7.67H563.44v57.71H604a195.18,195.18,0,0,0,11.66,43.52l-35.15,20.3,28.85,50,35.18-20.33a198.18,198.18,0,0,0,31.83,31.86l-20.32,35.18,50,28.86,20.3-35.16a194.92,194.92,0,0,0,43.49,11.66v40.6H827.5v-40.6A194.68,194.68,0,0,0,871,2342l20.3,35.16,49.93-28.86L921,2313.07a197.78,197.78,0,0,0,31.83-31.86L988,2301.54l28.83-50-35.13-20.3a196.17,196.17,0,0,0,11.67-43.52h27.4v17.94h31a148,148,0,0,0,8.91,33.2l-26.85,15.49,22,38.14,26.84-15.5a153.36,153.36,0,0,0,24.3,24.29l-15.5,26.85,38.13,22,15.47-26.81a151.75,151.75,0,0,0,33.2,8.9v31h44v-31a151.3,151.3,0,0,0,33.2-8.9l15.5,26.81,38.11-22-15.5-26.85a153.3,153.3,0,0,0,24.29-24.29l26.85,15.5,22-38.14-26.81-15.49a150.09,150.09,0,0,0,8.9-33.2h31v-17.94h27.43a195.46,195.46,0,0,0,11.66,43.49l-35.15,20.3,28.85,50,35.19-20.33a197.37,197.37,0,0,0,31.83,31.86l-20.33,35.18,50,28.86,20.3-35.16a194.92,194.92,0,0,0,43.49,11.66v40.58h57.69v-40.58A194.74,194.74,0,0,0,1674.2,2342l20.27,35.16,50-28.86-20.3-35.18a197.78,197.78,0,0,0,31.83-31.86l35.18,20.33,28.83-50-35.13-20.3a195.48,195.48,0,0,0,11.67-43.49h40.57v-57.71h-40.57c-.38-2.6-.83-5.15-1.32-7.72a240,240,0,0,0,101.07-43.61c107-79.29,129.44-230.3,50.2-337.32a242.29,242.29,0,0,0-47.33-48l10.78,5.82c3.78-7,7.43-14,10.89-20.73l-16.52-8.44c-3.27,6.35-6.7,12.87-10.27,19.49a239.93,239.93,0,0,0-63-32.61c.11-2.89.24-5.79.32-8.71l-18.55-.67c0,1.29-.08,2.6-.14,3.89a241.25,241.25,0,0,0-123,.85,732,732,0,0,0-76.1-32.34v-55.83c5.55-3.48,11.21-6.94,17-10.29l-9.3-16.07c-2.61,1.5-5.15,3-7.67,4.56v-92l6.35-2.36-6.35-17.46V815.89c0-179.56-145.54-325.11-325-325.11h-72.75V445.4a61.89,61.89,0,1,0-30.94,0v45.38h-72.73c-179.51,0-325,145.55-325,325.11v504.58c-3.51-.51-7.7-1.1-12.58-1.72l-2.25,18.45c6.11.75,11.07,1.48,14.83,2.07Zm434.45-166.21,22.58,212.36c-24.81.83-49.88,1-74.77.37l22.64-212.73Zm432.09,808.48a51.73,51.73,0,1,1-51.73-51.75A51.74,51.74,0,0,1,1653.58,2158.9Zm-453.3,64.25a39.54,39.54,0,0,1-36-23.27h72A39.46,39.46,0,0,1,1200.28,2223.15ZM850.4,2158.9a51.74,51.74,0,1,1-51.72-51.75A51.74,51.74,0,0,1,850.4,2158.9Zm161.52-374.83,27.32,15.76,6.28-10.86-27.3-15.74a213.14,213.14,0,0,1,69.27-69.26l15.74,27.29,10.86-6.27-15.8-27.33a211.39,211.39,0,0,1,94.64-25.26v58.86h12.52V1672.4a211.2,211.2,0,0,1,94.61,25.26L1284.29,1725l10.83,6.27,15.77-27.29a213.43,213.43,0,0,1,69.27,69.26l-27.3,15.77,6.25,10.83,27.32-15.79a211.25,211.25,0,0,1,25.26,94.66h-58.83l0,12.52h58.86a211.5,211.5,0,0,1-25.26,94.66l-27.32-15.79-6.25,10.86,27.3,15.74a213.81,213.81,0,0,1-69.27,69.29l-15.77-27.29-10.83,6.27,15.77,27.33a212,212,0,0,1-94.64,25.26v-58.86h-12.49v58.86a211.81,211.81,0,0,1-94.64-25.29l15.77-27.3-10.83-6.27L1087.49,2066a213.91,213.91,0,0,1-69.27-69.26l27.3-15.77-6.28-10.83-27.32,15.76a211.82,211.82,0,0,1-25.26-94.66h58.86v-12.49H986.66A211.82,211.82,0,0,1,1011.92,1784.07ZM782.8,2086.26c-1.29.27-2.52.64-3.78,1,.75-.48,1.5-1,2.25-1.53Zm838.6.94c-1.21-.33-2.44-.67-3.68-.94.49-.19,1-.35,1.42-.54C1619.9,2086.23,1620.65,2086.71,1621.4,2087.2ZM546.87,2072.26l15.77-27.3-10.83-6.27L536.07,2066a213.91,213.91,0,0,1-69.27-69.26L494.1,1981l-6.28-10.83-27.3,15.76a211.56,211.56,0,0,1-25.28-94.63H494.1v-12.52H435.24a211.58,211.58,0,0,1,25.28-94.66l27.3,15.76L494.1,1789l-27.3-15.77A213.33,213.33,0,0,1,536.07,1704l15.74,27.29,10.86-6.27-15.8-27.33a211.68,211.68,0,0,1,94.64-25.26v58.89H654V1672.4a211.59,211.59,0,0,1,94.61,25.26L732.87,1725l10.83,6.24L759.47,1704a213.43,213.43,0,0,1,69.27,69.26L801.44,1789l6.25,10.86L835,1784.07a211,211,0,0,1,25.26,94.66H801.41v12.49h58.86A211.5,211.5,0,0,1,835,1985.88l-27.32-15.76L801.44,1981l27.3,15.77A214.3,214.3,0,0,1,759.47,2066l-15.77-27.29L732.87,2045l15.77,27.33A211.61,211.61,0,0,1,654,2097.55v-58.86H641.51v58.86A211.7,211.7,0,0,1,546.87,2072.26Zm251.78,240.49A153.78,153.78,0,0,1,648.43,2126c5.47,0,10.94-.17,16.49-.54A240.83,240.83,0,0,0,748.61,2104a74.37,74.37,0,1,0,105.2,5.09q22.41,6.24,45.94,11.7a325.8,325.8,0,0,0,52.72,37.14c0,.32,0,.64,0,1A153.86,153.86,0,0,1,798.65,2312.75Zm401.6-11.67a117.36,117.36,0,0,1-116.38-102.52c9.27.81,18.66,1.32,28.18,1.32h33.84a56.72,56.72,0,0,0,108.74,0h33.84c9.5,0,18.88-.51,28.19-1.32A117.39,117.39,0,0,1,1200.25,2301.08Zm555.42-142.18a153.81,153.81,0,1,1-307.61,0v-1a326.24,326.24,0,0,0,52.72-37.14q23.54-5.43,45.93-11.7a74.36,74.36,0,1,0,105.2-5.09,242,242,0,0,0,100.22,22.1A155.24,155.24,0,0,1,1755.67,2158.9Zm-9.18-486.5v58.89H1759V1672.4a211.78,211.78,0,0,1,94.63,25.26L1837.86,1725l10.86,6.24,15.77-27.29c5.36,3.32,10.59,6.83,15.6,10.62-1.5,2.68-2.95,5.28-4.53,8l16.09,9.3c1-1.82,2-3.54,3-5.33a214,214,0,0,1,39.07,46.68L1906.43,1789l6.27,10.83,27.33-15.76a211.41,211.41,0,0,1,25.23,94.66h-58.83l0,12.49h58.86a211.87,211.87,0,0,1-25.23,94.66l-27.33-15.76-6.27,10.83,27.29,15.77a213.88,213.88,0,0,1-69.26,69.26l-15.74-27.29-10.86,6.27,15.77,27.33a211.62,211.62,0,0,1-94.61,25.26v-58.86h-12.53v58.86a211.55,211.55,0,0,1-94.6-25.26l15.74-27.33-10.84-6.27L1641.05,2066a213.88,213.88,0,0,1-69.26-69.26l27.3-15.77-6.28-10.83-27.3,15.76a211.54,211.54,0,0,1-25.26-94.63h58.84v-12.52h-58.84a211.63,211.63,0,0,1,25.26-94.66l27.3,15.76,6.28-10.83-27.3-15.77a213.88,213.88,0,0,1,69.26-69.26l15.77,27.29,10.83-6.27-15.76-27.33A211.55,211.55,0,0,1,1746.49,1672.4ZM842.76,815.89c0-148.53,120.81-269.36,269.29-269.36h176.42c148.49,0,269.29,120.83,269.29,269.36v636.25c0,51.64-86.48,85.32-199.24,101l-26.23-246.66V1054.4a178.75,178.75,0,0,1,17.54,19.2c28.77,36.47,65.7,109.68,94.82,248.53a37.14,37.14,0,1,0,72.7-15.28c-32.8-155.49-75.46-240.28-116.86-288.6-20.68-24.08-41.3-38.75-59.32-47.06s-33.12-10.19-42-10.17c-.56,0-1.07,0-1.58.06s-.81-.08-1.21-.08h-19.63a113.57,113.57,0,0,1-187.17,4.39,225.89,225.89,0,0,0-22.15,7.94,280,280,0,0,0-73.37,46c-11.24,10-21.56,21-29.88,34s-14.8,28.53-14.91,47.06a71.63,71.63,0,0,0,13.12,41.16c13,18.29,31.83,30.14,55.21,39.37a278.27,278.27,0,0,0,37.25,11.21c.8-5.23,1.66-10.22,2.55-14.86-9.82-5.41-15.85-15.15-14.48-25.34,1.66-12.25,13.48-21.08,27.7-21.53,1.66-4.13,3.19-7.38,4.47-9.9-20.64-4.56-34.8-9.87-42.77-14.5-5.2-3-7.67-5.34-8.61-6.41.57-2.23,4-9,11.16-16.47,10.89-11.82,29.07-24.88,46.23-34v63.18c10.08,2.1,22.1,4.11,36.44,5.8a46.44,46.44,0,0,1-5.49,92.54,49.71,49.71,0,0,1-5.58-.32c-8.88-1.08-17.3-2.28-25.37-3.62v99.83l-26.41,248.37c-118.93-14.93-212-49.18-212-102.75Z" transform="translate(-406.68 -5)"/>
    </g>
    <path d="M1374.71,824l84.34-84.34,6.87,6.86-84.31,84.37Z" transform="translate(-406.68 -5)"/>
    <path d="M1410,859.26l84.32-84.34,6.89,6.86-84.31,84.37Z" transform="translate(-406.68 -5)"/>
    <path d="M1362.16,871.86l144.73-144.75,6.89,6.86L1369.06,878.75Z" transform="translate(-406.68 -5)"/>
    <path d="M952.84,752.77l84.31-84.36,6.89,6.89-84.33,84.33Z" transform="translate(-406.68 -5)"/>
    <path d="M988.11,788.06l84.33-84.36,6.89,6.89L995,794.92Z" transform="translate(-406.68 -5)"/>
    <path d="M940.27,800.58,1085,655.8l6.89,6.89L947.16,807.47Z" transform="translate(-406.68 -5)"/>
    <path d="M1216,2039.7l13.76-2.17-20.59-131.18,76.5,68.38,12.74-14.24-93.91-83.94-4.85-31L1186,1847.7l2.22,14.24-8.28-7.43-12.72,14.24,25.67,23Z" transform="translate(-406.68 -5)"/>
    <path d="M636,1882.32l-20.57,18.48L628.13,1915l21.15-19,20.84,21.43,10-9.71-20.47-21,86.81-78-12.77-14.21L646.31,1873,544.62,1768.43l-10,9.71Z" transform="translate(-406.68 -5)"/>
    <path d="M1636.52,1839.9l-5.55,18.26,121.88,37.14,105.68,103.83,9.76-10-86.67-85.11,1.42.43,5.58-18.26-36.44-11.11L1729.65,1853l-9.73,9.92,3.49,3.43Z" transform="translate(-406.68 -5)"/>
    <path d="M1107.6,1201.08a35.75,35.75,0,0,0,4.5.27,37.15,37.15,0,0,0,4.4-74c-8.5-1-16.36-2.14-23.65-3.38l.48.38.7.45a4.54,4.54,0,0,0-.3.49c-.32.48-.83,1.31-1.47,2.52-.86,1.61-2,3.91-3.27,6.89,10,5.42,16.06,15.2,14.69,25.45-1.69,12.39-13.78,21.26-28.15,21.53q-1.29,6.64-2.44,14.21C1083.79,1197.84,1095.18,1199.58,1107.6,1201.08Z" transform="translate(-406.68 -5)"/>
    <path d="M1286.14,898.7a106.64,106.64,0,0,1-2,20.41,104.6,104.6,0,0,1-28.62,53.5,102.25,102.25,0,0,1-15.82,13,104.51,104.51,0,0,1-37.65,15.6,104.45,104.45,0,0,1-78.41-15.6,103.41,103.41,0,0,1-28.83-28.83,104.51,104.51,0,0,1-15.6-37.65,104.45,104.45,0,0,1,6-60.39,104.49,104.49,0,0,1,22.63-33.9,104.51,104.51,0,0,1,53.5-28.61,105.87,105.87,0,0,1,40.76,0,104.29,104.29,0,0,1,37.65,15.61,102.38,102.38,0,0,1,15.82,13,104.68,104.68,0,0,1,28.62,53.5A106.41,106.41,0,0,1,1286.14,898.7Z" transform="translate(-406.68 -5)"/>
    <path d="M1094.24,1155.09a14.36,14.36,0,0,1-1.63,6.68,17.56,17.56,0,0,1-4.72,5.66,22.3,22.3,0,0,1-7,3.78,26.85,26.85,0,0,1-16.57,0,22.75,22.75,0,0,1-7-3.78,17.59,17.59,0,0,1-4.69-5.66,14.21,14.21,0,0,1,0-13.33,17.59,17.59,0,0,1,4.69-5.66,22.75,22.75,0,0,1,7-3.78,26.85,26.85,0,0,1,16.57,0,22.3,22.3,0,0,1,7,3.78,17.56,17.56,0,0,1,4.72,5.66A14.36,14.36,0,0,1,1094.24,1155.09Z" transform="translate(-406.68 -5)"/>
    <path d="M1698.52,1403.71l4.77,17.94c7.24-1.91,14.7-3.79,22.29-5.58l-4.27-18.08C1713.56,1399.82,1705.92,1401.72,1698.52,1403.71Z" transform="translate(-406.68 -5)"/>
    <path d="M1758.19,1390.24c-7.78,1.42-15.5,3-23.12,4.62L1739,1413c7.43-1.64,14.94-3.14,22.47-4.51Z" transform="translate(-406.68 -5)"/>
    <path d="M1937.21,1644.73l-16.87-7.78q-4.66,10.1-9.89,20.73l16.65,8.23Q1932.46,1655.05,1937.21,1644.73Z" transform="translate(-406.68 -5)"/>
    <path d="M1690,1425.29l-5-17.88c-7.8,2.22-15.33,4.45-22.49,6.62l5.47,17.78C1674.92,1429.64,1682.3,1427.46,1690,1425.29Z" transform="translate(-406.68 -5)"/>
    <path d="M1882.77,1404.3a146.13,146.13,0,0,1,21,5.65l6.25-17.48a160.07,160.07,0,0,0-23.76-6.41Z" transform="translate(-406.68 -5)"/>
    <path d="M1654.7,1436l-5.68-17.68c-8.13,2.6-15.58,5.13-22.26,7.43l6.11,17.57C1639.42,1441,1646.77,1438.51,1654.7,1436Z" transform="translate(-406.68 -5)"/>
    <path d="M1964.7,1574.47,1947,1569c-2.15,6.92-4.56,14.08-7.3,21.56l17.43,6.38Q1961.34,1585.31,1964.7,1574.47Z" transform="translate(-406.68 -5)"/>
    <path d="M1945.12,1412.29a102.9,102.9,0,0,0-21.24-14l-8.28,16.62a85.72,85.72,0,0,1,17.43,11.45Z" transform="translate(-406.68 -5)"/>
    <path d="M1978.62,1499.12l-18.59-.43a197.4,197.4,0,0,1-1.85,22l18.37,2.58A208,208,0,0,0,1978.62,1499.12Z" transform="translate(-406.68 -5)"/>
    <path d="M1952.31,1452.67l17-7.37a92.35,92.35,0,0,0-13.4-22l-14.3,11.83A73.08,73.08,0,0,1,1952.31,1452.67Z" transform="translate(-406.68 -5)"/>
    <path d="M1833.49,1382.12c-7.83.13-15.77.56-23.76,1.2l1.5,18.53c7.64-.61,15.2-1,22.63-1.15Z" transform="translate(-406.68 -5)"/>
    <path d="M1795.57,1384.72c-7.81.86-15.64,1.93-23.44,3.16l2.9,18.35c7.53-1.18,15.09-2.23,22.6-3.06Z" transform="translate(-406.68 -5)"/>
    <path d="M1926,1624.4l17,7.46c3.27-7.46,6.27-14.7,9.06-21.75l-17.27-6.84Q1930.71,1613.53,1926,1624.4Z" transform="translate(-406.68 -5)"/>
    <path d="M1959.76,1485.6l18.53-1.23a128.32,128.32,0,0,0-3.94-24.65l-17.94,4.8A110.22,110.22,0,0,1,1959.76,1485.6Z" transform="translate(-406.68 -5)"/>
    <path d="M1847.38,1400.73c7.64.19,15.09.7,22.28,1.55l2.2-18.45c-7.8-.93-15.85-1.47-24-1.68Z" transform="translate(-406.68 -5)"/>
    <path d="M1974.16,1537.54l-18.23-3.59c-1.34,7-3.09,14.27-5.15,21.94l17.91,4.9Q1972,1548.69,1974.16,1537.54Z" transform="translate(-406.68 -5)"/>
    <path d="M1884.57,1744l-16-9.44c-3.81,6.49-7.78,13.06-11.88,19.79l15.85,9.68C1876.71,1757.2,1880.71,1750.55,1884.57,1744Z" transform="translate(-406.68 -5)"/>
    <path d="M1738.53,1244.44c8.21-1.23.16-8-4.85-7.26-67.37,10.08-58.11-109,6.35-81.55,2.07.88,9.25,1.93,8.58-2.25-5.79-37.39,15.07-67.66,55.24-59,14,3,27.25,11.19,34.33,23.82,8.79,15.82-1.61,32.71-12.71,44-3.6,3.65,7.16,6.68,9.52,5.76,25.34-9.78,50-4.69,52.42,25.67,1.8,22.63-15.47,40.6-38.05,33.46-5.87-1.87-9.63,3.14-3.24,6.14,19.73,9.26,24.59,28.11,11.53,45.32-17.27,22.77-45.78,16-63.5-1.82-1.5-1.55-5.23-2.2-7.94-1.85a99.65,99.65,0,0,0,10.3-11.72c1.58-2.09-6.87-10.56-6.71-10.75-15.9,21.34-40.46,35.61-66.18,42.58,15.31-16.09,31.56-36.25,31.24-55.59,0-3.46-6.84-9-6.86-10.13.4,25.44-29.1,53-45.81,69.88-1,1.07,5.1,11,6.73,10.78,26.53-3,54-13.84,74.26-32.18a5.54,5.54,0,0,0,1.1,1.55c20.22,20.36,54,31.25,78.22,10.44,20.25-17.35,18-39.18,1.66-53.61,21.89-.7,37.41-18.21,35.37-43.68-2.38-30-29.25-39-54.33-35.8,19.15-29.47-2.76-58.49-37.4-68.3-17.11-4.86-36.9-4-52.4,5.2-18.67,11.15-21.91,33.36-19.79,53.26-30.2-8.45-58.38,5-61.39,40.49C1671,1225.16,1702.65,1249.81,1738.53,1244.44Z" transform="translate(-406.68 -5)"/>
    <path d="M1758.7,1215.56c19-12.2,45.61-5,53.57,17.3,1.72,4.77,8,9.55,5.07,1.31-9.36-26.17-37.41-47.19-64.2-30.06C1750.36,1205.91,1756.44,1217,1758.7,1215.56Z" transform="translate(-406.68 -5)"/>
    <path d="M560.09,1163.38c-16.3,14.43-18.61,36.25,1.64,53.6,24.27,20.79,58,9.93,78.25-10.45a4.92,4.92,0,0,0,1.07-1.53c20.27,18.31,47.73,29.12,74.28,32.18,1.61.16,7.75-9.74,6.71-10.78-16.68-16.87-46.18-44.44-45.81-69.89,0,1.18-6.81,6.68-6.86,10.14-.3,19.33,16,39.5,31.27,55.59-25.75-7-50.31-21.24-66.19-42.58.14.16-8.28,8.66-6.73,10.75a102.47,102.47,0,0,0,10.3,11.72c-2.71-.35-6.41.29-7.94,1.82-17.7,17.86-46.23,24.59-63.5,1.85-13-17.21-8.2-36.07,11.53-45.32,6.39-3,2.66-8-3.21-6.14-22.58,7.13-39.88-10.86-38.06-33.49,2.42-30.33,27.06-35.43,52.43-25.64,2.36.89,13.11-2.14,9.52-5.76-11.1-11.24-21.53-28.13-12.71-44,7-12.63,20.32-20.78,34.3-23.81,40.17-8.74,61.06,21.54,55.24,58.94-.65,4.16,6.51,3.11,8.58,2.26,64.46-27.44,73.72,91.63,6.35,81.52-5-.73-13.06,6.06-4.82,7.29,35.88,5.36,67.47-19.28,64.28-57.14-3-35.45-31.19-48.94-61.39-40.52,2.12-19.9-1.1-42.1-19.79-53.23-15.47-9.23-35.29-10.06-52.4-5.23-34.64,9.84-56.52,38.83-37.4,68.33-25.08-3.22-51.95,5.84-54.33,35.8C522.66,1145.17,538.18,1162.68,560.09,1163.38Z" transform="translate(-406.68 -5)"/>
    <path d="M606.91,1161.42c-2.95,8.21,3.36,3.46,5.05-1.31,8-22.29,34.53-29.53,53.6-17.33,2.23,1.43,8.31-9.65,5.53-11.45C644.3,1114.22,616.25,1135.25,606.91,1161.42Z" transform="translate(-406.68 -5)"/>
    <path d="M1252.65,268.44l90.21-138-63.1-5.2,53.6-110L1307.94,5l-56,137.78,57,.7L1247,265.84Z" transform="translate(-406.68 -5)"/>
    <path d="M1381.34,235.35l-97,63.72,3.09,4.29L1411.64,240l-44.17-30.36,85.6-58.24-14.34-18.19-99,77.61Z" transform="translate(-406.68 -5)"/>
    <path d="M1190.06,154.8,1187.27,269l5.2,0,18.34-136.09L1161.5,151.6l.83-101.92-22.82,1.42,7.4,123.62Z" transform="translate(-406.68 -5)"/>
  </g>
</svg>
