<?xml version="1.0" standalone="no"?>
<!DOCTYPE svg PUBLIC "-//W3C//DTD SVG 20010904//EN"
 "http://www.w3.org/TR/2001/REC-SVG-20010904/DTD/svg10.dtd">
<svg version="1.0" xmlns="http://www.w3.org/2000/svg"
 width="706.000000pt" height="73.000000pt" viewBox="0 0 706.000000 73.000000"
 preserveAspectRatio="xMidYMid meet">

<g transform="translate(0.000000,73.000000) scale(0.100000,-0.100000)"
fill="#000000" stroke="none">
<path d="M2 702 c2 -15 7 -31 13 -35 6 -6 6 -10 -2 -14 -21 -8 -15 -29 10 -30
38 -2 131 18 155 34 13 8 31 12 40 10 14 -4 13 -6 -5 -12 -13 -4 -23 -15 -24
-24 0 -15 -88 -93 -136 -119 -35 -19 -28 -38 30 -76 69 -45 93 -64 135 -108
20 -21 41 -38 47 -38 6 0 19 -14 28 -30 10 -17 23 -30 29 -30 7 0 7 4 1 13 -6
6 -13 22 -16 35 -7 29 17 40 41 19 33 -31 92 -177 92 -231 0 -53 10 -66 52
-66 34 0 39 3 34 18 -6 16 -5 16 8 0 7 -11 27 -18 45 -18 31 0 31 0 31 55 l0
55 -51 28 c-57 31 -120 82 -101 82 6 0 12 -4 12 -10 0 -18 27 -11 41 11 9 13
20 18 31 14 30 -12 96 -113 114 -175 15 -55 19 -60 45 -60 l28 0 -1 107 c-1
90 2 108 17 119 9 7 14 17 11 23 -9 14 38 58 81 76 33 14 38 14 55 -1 10 -10
18 -21 18 -25 0 -12 -66 -49 -88 -49 -11 0 -27 -7 -36 -15 -8 -8 -19 -15 -25
-15 -17 0 -13 -11 14 -36 27 -25 35 -45 10 -24 -8 7 -15 9 -16 4 -17 -150 -17
-159 6 -162 26 -4 59 60 41 78 -8 8 -7 10 5 5 12 -4 27 9 55 47 84 117 98 165
69 235 -23 54 -20 58 41 60 l57 3 -6 -37 c-4 -20 -11 -40 -18 -43 -7 -5 -8
-10 -1 -14 23 -14 -21 -112 -81 -184 -23 -27 -58 -72 -78 -99 l-36 -50 50 -2
c32 -1 53 3 58 11 7 10 11 10 21 0 17 -17 234 -17 271 1 15 6 27 15 27 20 0 4
8 7 18 7 9 0 42 16 72 35 30 19 58 35 62 35 5 0 22 10 38 22 23 16 27 25 19
35 -13 15 2 18 18 2 7 -7 15 -6 26 5 9 9 22 16 30 16 8 0 20 7 27 15 7 8 19
15 26 15 8 0 14 7 14 15 0 8 6 12 13 9 8 -3 25 4 38 15 13 11 18 20 12 21 -7
0 -13 5 -13 11 0 7 11 9 31 5 22 -4 44 2 82 21 29 15 86 42 127 59 l74 32 -41
7 c-69 11 -133 13 -139 4 -8 -13 -24 -11 -22 3 2 6 -6 14 -17 16 -11 2 -17 1
-13 -3 4 -5 3 -14 -3 -21 -8 -9 -4 -16 12 -25 17 -9 24 -9 27 0 7 20 20 11 18
-13 -1 -21 -8 -25 -45 -31 -24 -4 -50 -13 -58 -20 -7 -8 -21 -11 -29 -8 -11 4
-12 8 -4 13 6 4 12 17 13 28 1 12 5 22 10 22 10 0 46 41 47 53 0 5 -6 7 -13 4
-6 -2 -18 3 -24 12 -11 14 -13 14 -19 -4 -10 -34 -85 -75 -137 -75 -25 0 -48
4 -52 9 -3 5 -20 13 -38 16 -17 4 -54 18 -81 31 -27 14 -55 23 -63 20 -7 -3
-13 1 -13 9 0 8 -11 17 -25 21 -14 3 -25 10 -25 15 0 16 -18 9 -23 -8 -3 -13
-5 -11 -6 6 -1 31 -70 98 -82 79 -7 -10 -9 -9 -9 5 0 18 53 21 355 18 l130 -1
47 -51 c45 -49 51 -52 125 -66 43 -7 111 -16 151 -19 l73 -5 -13 23 c-7 13
-11 27 -10 32 2 5 -5 5 -14 2 -10 -4 -21 -1 -25 6 -9 15 -91 18 -101 3 -5 -6
-11 -5 -17 3 -4 7 -14 14 -22 15 -25 4 -39 18 -53 51 -28 68 -29 76 -7 76 22
0 23 0 25 43 2 24 -1 27 -32 27 -29 0 -33 -2 -22 -15 7 -8 17 -12 23 -8 7 4 8
0 4 -11 -4 -10 -7 -20 -7 -22 0 -2 -4 -4 -10 -4 -5 0 -7 7 -4 15 4 10 0 15
-15 15 -12 0 -21 6 -21 15 0 13 -33 15 -235 15 -150 0 -235 -4 -235 -10 0 -5
-5 -10 -11 -10 -5 0 -7 5 -4 10 4 6 -9 10 -31 10 l-37 0 19 -22 c10 -13 25
-29 33 -36 11 -9 12 -15 4 -23 -9 -9 -21 -8 -46 5 -19 9 -47 16 -61 16 -23 0
-25 2 -14 19 7 11 21 24 33 30 13 6 -159 10 -533 9 l-553 0 3 -26z m143 8 c3
-5 -1 -10 -9 -10 -8 0 -18 5 -21 10 -3 6 1 10 9 10 8 0 18 -4 21 -10z m163 1
c11 -7 11 -9 -1 -14 -9 -3 -18 1 -21 9 -6 16 2 18 22 5z m1141 2 c0 -5 -4 -17
-9 -28 -8 -18 -9 -17 -9 8 -1 15 4 27 9 27 6 0 10 -3 9 -7z m108 1 c-3 -3 -12
-4 -19 -1 -8 3 -5 6 6 6 11 1 17 -2 13 -5z m-1303 -20 c5 -14 4 -15 -9 -4 -17
14 -19 20 -6 20 5 0 12 -7 15 -16z m360 -17 c1 -23 -6 -30 -59 -53 -73 -33
-165 -40 -210 -16 l-30 16 30 6 c17 4 45 5 63 4 36 -2 120 28 162 57 32 23 43
20 44 -14z m267 -24 c0 -4 6 -14 11 -21 17 -20 -3 -33 -53 -36 -46 -4 -99 -24
-99 -38 0 -4 -3 -7 -7 -6 -5 1 -30 -5 -58 -15 -49 -16 -180 -26 -192 -14 -3 4
0 8 8 10 103 30 138 42 161 58 14 11 30 19 36 19 5 0 21 11 35 24 14 13 27 22
29 20 2 -2 26 5 54 14 40 15 51 16 62 5 7 -7 13 -16 13 -20z m378 11 c3 -16 1
-17 -13 -5 -9 7 -17 10 -17 5 -1 -5 -2 -15 -3 -23 0 -8 -11 -15 -23 -16 -24
-2 -23 1 16 48 17 21 35 17 40 -9z m281 16 c0 -5 -4 -10 -9 -10 -6 0 -13 5
-16 10 -3 6 1 10 9 10 9 0 16 -4 16 -10z m-595 -9 c3 -5 1 -12 -4 -15 -5 -3
-11 1 -15 9 -6 16 9 21 19 6z m-639 -20 c0 -11 -4 -17 -8 -15 -10 7 -10 34 0
34 4 0 8 -9 8 -19z m1009 -9 c-7 -8 -35 7 -35 18 0 6 7 6 20 -2 10 -7 17 -14
15 -16z m79 19 c3 -5 -8 -11 -25 -13 -29 -5 -45 3 -32 16 9 9 51 7 57 -3z
m161 -12 c10 -14 1 -21 -19 -13 -9 3 -13 10 -10 15 7 12 21 11 29 -2z m-461
-15 c5 -13 3 -14 -6 -6 -7 5 -22 12 -33 15 -16 4 -14 5 6 6 17 1 29 -5 33 -15z
m506 6 c0 -5 -5 -10 -11 -10 -5 0 -7 5 -4 10 3 6 8 10 11 10 2 0 4 -4 4 -10z
m-960 -4 c0 -3 -4 -8 -10 -11 -5 -3 -10 -1 -10 4 0 6 5 11 10 11 6 0 10 -2 10
-4z m625 -15 c-3 -6 -11 -8 -17 -5 -6 4 -5 9 3 15 16 10 23 4 14 -10z m-315
-1 c0 -5 -4 -10 -10 -10 -5 0 -10 5 -10 10 0 6 5 10 10 10 6 0 10 -4 10 -10z
m750 0 c0 -5 -5 -10 -11 -10 -5 0 -7 -4 -4 -10 10 -17 -1 -11 -20 10 -18 20
-17 20 8 20 15 0 27 -4 27 -10z m-640 -9 c0 -5 -9 -7 -20 -4 -11 3 -20 7 -20
9 0 2 9 4 20 4 11 0 20 -4 20 -9z m-1 -63 c23 -28 23 -30 6 -46 -11 -11 -15
-12 -10 -3 6 11 4 13 -8 8 -10 -4 -17 -2 -17 4 0 6 -7 9 -15 6 -8 -4 -17 -2
-20 4 -4 5 -11 7 -16 3 -5 -3 -7 -10 -4 -15 3 -5 -1 -6 -9 -3 -22 8 -20 21 7
48 13 13 21 28 19 35 -7 21 41 -8 67 -41z m596 42 c3 -5 1 -10 -4 -10 -6 0
-11 5 -11 10 0 6 2 10 4 10 3 0 8 -4 11 -10z m-1394 -24 c24 -14 83 -40 131
-60 81 -32 94 -35 175 -31 49 2 114 -1 146 -6 60 -10 197 -65 197 -80 0 -11 7
-12 -71 5 -63 13 -114 14 -127 2 -3 -3 2 -6 11 -6 10 0 17 -4 17 -10 0 -5 -9
-10 -20 -10 -11 0 -20 5 -20 10 0 24 -124 1 -134 -25 -7 -19 -26 -19 -26 0 0
22 -15 18 -33 -7 l-16 -23 0 23 c-1 27 -12 28 -29 2 -16 -26 -30 -25 -35 3 -3
21 -4 21 -15 -6 -14 -33 -32 -27 -33 11 0 27 0 27 -11 5 -16 -34 -38 -29 -38
10 -1 31 -2 31 -31 -23 -16 -30 -29 -48 -28 -40 1 8 1 33 0 54 -1 39 -1 39
-22 20 -17 -16 -22 -16 -29 -4 -6 8 -10 21 -10 28 0 6 -4 12 -10 12 -5 0 -10
-4 -10 -10 0 -21 -26 -9 -67 32 -24 23 -43 47 -43 53 0 5 12 16 28 22 15 7 41
26 57 42 37 37 42 37 96 7z m179 -6 c0 -5 -5 -10 -11 -10 -5 0 -7 5 -4 10 3 6
8 10 11 10 2 0 4 -4 4 -10z m1320 -30 c0 -5 -4 -10 -10 -10 -5 0 -10 5 -10 10
0 6 5 10 10 10 6 0 10 -4 10 -10z m-885 -20 c3 -6 -1 -7 -9 -4 -12 4 -16 0
-17 -17 0 -13 -3 -18 -6 -11 -11 28 17 56 32 32z m845 0 c0 -5 -5 -10 -11 -10
-5 0 -7 5 -4 10 3 6 8 10 11 10 2 0 4 -4 4 -10z m-535 -10 c3 -5 1 -10 -4 -10
-6 0 -11 5 -11 10 0 6 2 10 4 10 3 0 8 -4 11 -10z m619 2 c2 -4 -6 -9 -20 -10
-13 -1 -24 3 -24 8 0 12 37 14 44 2z m71 -2 c-3 -5 -11 -10 -16 -10 -6 0 -7 5
-4 10 3 6 11 10 16 10 6 0 7 -4 4 -10z m-725 -10 c0 -5 9 -10 21 -10 11 0 18
-4 14 -10 -3 -5 0 -18 6 -28 18 -29 -95 -235 -177 -321 -35 -36 -62 -71 -60
-77 3 -7 -3 -10 -15 -7 -10 3 -19 7 -19 10 0 7 22 47 29 53 17 14 119 217 142
283 7 20 23 47 36 59 17 16 20 25 12 39 -6 13 -6 19 1 19 5 0 10 -4 10 -10z
m-200 -15 c10 -12 10 -15 -3 -15 -8 0 -17 7 -21 15 -3 8 -2 15 3 15 5 0 14 -7
21 -15z m995 5 c3 -5 1 -10 -4 -10 -6 0 -11 5 -11 10 0 6 2 10 4 10 3 0 8 -4
11 -10z m-930 -10 c3 -5 1 -10 -4 -10 -6 0 -11 5 -11 10 0 6 2 10 4 10 3 0 8
-4 11 -10z m-135 -20 c0 -5 -4 -10 -10 -10 -5 0 -10 5 -10 10 0 6 5 10 10 10
6 0 10 -4 10 -10z m383 -7 c-4 -10 -9 -11 -19 -2 -18 15 -18 15 5 15 11 0 17
-5 14 -13z m29 -50 c17 -16 17 -17 -4 -28 -24 -12 -58 -9 -58 6 0 8 15 13 32
10 4 0 5 6 2 14 -8 20 5 19 28 -2z m-437 -23 c3 -5 1 -10 -4 -10 -6 0 -11 5
-11 10 0 6 2 10 4 10 3 0 8 -4 11 -10z m560 -26 c11 -9 15 -13 8 -9 -20 9 -58
-21 -76 -62 -10 -21 -27 -49 -40 -63 -40 -46 -244 -160 -285 -160 -10 0 -23
-5 -30 -12 -6 -6 -14 -9 -18 -5 -3 3 7 14 22 24 61 38 230 167 252 191 l23 26
-32 17 -32 16 29 0 c16 0 43 5 59 11 17 6 43 14 58 17 23 5 27 9 21 27 -5 17
-4 19 7 9 8 -6 23 -19 34 -27z m-777 -9 c-3 -3 -9 2 -12 12 -6 14 -5 15 5 6 7
-7 10 -15 7 -18z m32 21 c0 -3 -4 -8 -10 -11 -5 -3 -10 -1 -10 4 0 6 5 11 10
11 6 0 10 -2 10 -4z m800 -12 c0 -8 -4 -12 -10 -9 -5 3 -10 10 -10 16 0 5 5 9
10 9 6 0 10 -7 10 -16z m-210 -14 c0 -5 -7 -10 -15 -10 -8 0 -15 5 -15 10 0 6
7 10 15 10 8 0 15 -4 15 -10z m-780 -10 c0 -5 -2 -10 -4 -10 -3 0 -8 5 -11 10
-3 6 -1 10 4 10 6 0 11 -4 11 -10z m997 -26 c2 -6 -21 -37 -52 -69 -30 -32
-53 -60 -50 -63 2 -3 11 1 20 8 9 7 19 9 23 5 4 -4 1 -10 -5 -12 -7 -3 -13
-13 -13 -23 0 -29 -16 -32 -30 -5 l-13 24 -28 -21 c-16 -12 -32 -18 -36 -14
-4 4 -3 10 3 14 13 9 87 120 101 153 10 24 16 26 44 20 18 -4 34 -11 36 -17z
m-748 -5 c-7 -4 -17 -5 -22 -2 -5 3 -3 9 4 14 7 4 17 5 22 2 5 -3 3 -9 -4 -14z
m808 2 c0 -11 -5 -17 -9 -15 -5 3 -5 11 -1 17 3 7 -3 3 -15 -7 -23 -20 -31 -9
-10 12 18 18 37 14 35 -7z m-1015 -5 c7 4 8 3 4 -4 -10 -16 -18 -15 -42 4 -18
14 -18 15 4 4 12 -6 28 -8 34 -4z m1057 -28 c-17 -11 -34 -17 -37 -14 -3 4 0
6 7 6 7 0 11 6 8 13 -4 10 4 14 24 14 l29 0 -31 -19z m-966 5 c-22 -8 -14 -21
17 -25 25 -4 30 -2 25 11 -5 12 -3 13 6 4 18 -18 3 -29 -34 -25 -19 2 -38 12
-45 23 -11 17 -9 19 15 18 16 0 22 -3 16 -6z m-148 -23 c-3 -5 -13 -10 -21
-10 -8 0 -14 5 -14 10 0 6 9 10 21 10 11 0 17 -4 14 -10z m711 -21 c3 -6 0
-15 -7 -20 -13 -7 -28 5 -29 24 0 11 28 8 36 -4z m-353 -13 c4 -10 1 -13 -9
-9 -7 3 -14 9 -14 14 0 14 17 10 23 -5z m-173 -6 c0 -5 -5 -10 -11 -10 -5 0
-7 5 -4 10 3 6 8 10 11 10 2 0 4 -4 4 -10z m65 -10 c3 -5 -1 -10 -10 -10 -9 0
-13 5 -10 10 3 6 8 10 10 10 2 0 7 -4 10 -10z m185 6 c0 -3 -4 -8 -10 -11 -5
-3 -10 -1 -10 4 0 6 5 11 10 11 6 0 10 -2 10 -4z m233 -3 c-7 -2 -19 -2 -25 0
-7 3 -2 5 12 5 14 0 19 -2 13 -5z m-663 -19 c0 -2 -7 -4 -15 -4 -8 0 -15 4
-15 10 0 5 7 7 15 4 8 -4 15 -8 15 -10z m400 -14 c0 -5 -7 -10 -16 -10 -8 0
-12 5 -9 10 3 6 10 10 16 10 5 0 9 -4 9 -10z m-314 -56 c18 -14 18 -14 -6 -3
-31 14 -36 19 -24 19 6 0 19 -7 30 -16z m-36 -12 c0 -4 -9 -8 -19 -8 -11 0
-17 4 -15 8 3 4 12 8 20 8 8 0 14 -4 14 -8z m672 -60 c-5 -13 -8 -11 -10 11
-2 15 -8 27 -13 27 -5 0 -9 6 -9 13 1 6 9 2 20 -11 12 -14 16 -29 12 -40z m63
18 c-3 -5 -10 -10 -16 -10 -5 0 -9 5 -9 10 0 6 7 10 16 10 8 0 12 -4 9 -10z
m-100 -18 c-3 -3 -11 0 -18 7 -9 10 -8 11 6 5 10 -3 15 -9 12 -12z"/>
<path d="M1770 714 c0 -11 5 -14 16 -10 11 4 14 1 10 -12 -7 -22 34 -42 87
-42 21 0 48 -5 59 -11 18 -9 20 -9 15 4 -3 9 1 18 9 21 8 3 14 12 14 21 0 8 4
15 9 15 17 0 23 -20 11 -35 -10 -12 -10 -15 1 -16 8 0 5 -4 -6 -9 -19 -7 -18
-9 8 -19 31 -12 51 -6 41 11 -4 7 -2 8 4 4 6 -4 9 -13 5 -21 -3 -10 1 -15 11
-15 9 0 24 -4 34 -9 9 -5 25 -12 35 -15 26 -8 20 -33 -10 -42 -16 -4 -32 -6
-38 -4 -5 2 -32 6 -58 10 -58 8 -69 -5 -41 -48 10 -15 18 -30 16 -34 -3 -12
42 -22 46 -10 2 6 9 9 15 6 7 -2 30 2 52 10 22 8 34 15 27 15 -7 1 -10 6 -7
11 5 8 11 8 20 0 10 -9 16 -6 25 10 6 12 10 26 7 33 -2 6 7 21 21 34 13 12 25
28 26 36 1 8 10 22 19 32 10 9 20 29 23 44 5 22 11 26 40 26 22 0 34 -5 34
-13 0 -19 -72 -111 -87 -112 -13 0 -28 -19 -20 -26 8 -8 101 55 107 72 3 9 9
15 13 15 4 -1 22 5 40 12 17 7 49 14 71 15 21 2 41 3 45 4 58 7 78 -17 41 -49
-23 -20 -26 -33 -6 -33 21 0 106 50 106 63 0 5 3 7 6 4 10 -10 44 12 44 28 0
19 15 19 34 0 8 -8 19 -15 25 -15 31 0 -15 -59 -51 -66 -5 -1 -11 -3 -15 -4
-5 -1 -12 -2 -16 -1 -4 1 -18 -4 -30 -11 -39 -20 -99 -27 -114 -13 -7 8 -13
18 -13 24 0 17 -29 1 -35 -20 -4 -10 -14 -19 -23 -19 -15 1 -15 2 2 15 22 17
13 35 -18 35 -23 0 -115 -35 -171 -64 -17 -9 -41 -14 -56 -11 -22 5 -27 2 -31
-20 -6 -31 5 -40 25 -21 8 8 17 13 20 10 2 -3 35 0 73 7 38 6 87 11 109 11 22
-1 43 4 47 11 5 8 8 8 8 1 0 -7 27 -12 71 -13 39 -1 106 -6 148 -12 42 -6 97
-13 123 -15 54 -6 268 -58 295 -72 10 -6 21 -10 26 -11 4 0 23 -8 43 -16 20
-8 42 -15 49 -15 14 0 122 -51 180 -85 22 -13 49 -21 60 -18 15 3 16 2 6 -5
-10 -7 1 -18 45 -44 108 -64 229 -141 268 -171 32 -26 41 -29 57 -19 10 7 19
8 19 3 0 -6 -5 -13 -10 -16 -16 -10 -1 -25 26 -25 31 0 31 17 0 83 -13 29 -28
66 -34 82 -5 17 -20 53 -32 82 -21 47 -25 51 -44 41 -31 -17 -120 -13 -163 7
-46 21 -103 73 -103 94 0 9 -11 27 -25 41 -23 22 -155 214 -155 224 0 5 19 1
45 -9 11 -4 64 -24 117 -45 106 -41 237 -120 294 -177 34 -33 36 -38 26 -69
-8 -26 -7 -36 4 -45 7 -6 28 -40 46 -75 18 -35 36 -64 39 -64 16 0 59 89 52
107 -6 16 -5 16 10 4 10 -7 17 -9 17 -3 0 12 68 38 123 47 27 4 37 10 33 20
-2 7 2 16 10 19 11 4 13 0 8 -18 -6 -24 -6 -24 94 -63 6 -3 12 2 12 10 0 28
96 88 172 107 69 18 72 18 122 0 109 -40 229 -50 293 -27 31 12 91 56 122 90
8 9 21 17 27 17 7 0 14 6 17 13 2 6 8 9 11 5 11 -10 -26 -86 -74 -150 -26 -34
-66 -72 -101 -94 -85 -53 -76 -84 11 -38 14 7 43 29 64 49 21 20 42 32 45 27
19 -31 192 -98 221 -86 8 4 27 6 41 5 14 -1 43 5 65 13 47 19 175 47 185 40 4
-2 11 0 14 6 4 7 12 7 18 2 7 -4 37 -14 67 -22 53 -13 90 -29 90 -40 0 -3 -35
-6 -78 -7 -42 -2 -84 -5 -92 -6 -8 -2 -36 -7 -61 -11 -34 -6 -57 -19 -93 -52
-27 -24 -56 -44 -66 -44 -10 0 -25 -10 -33 -22 -13 -19 -16 -20 -16 -5 -1 23
-17 22 -24 -3 -6 -23 -27 -27 -27 -5 0 23 -15 18 -30 -10 -16 -30 -30 -33 -23
-5 3 11 2 28 -1 37 -6 15 -10 12 -23 -14 -27 -56 -17 -62 94 -59 75 2 105 7
126 21 30 19 47 14 28 -9 -10 -12 -5 -14 33 -13 32 1 45 6 41 15 -2 6 1 12 9
12 7 0 18 11 26 24 7 14 35 34 61 46 27 11 49 25 49 30 0 6 5 10 10 10 6 0 10
-13 10 -30 0 -24 -10 -38 -51 -70 l-51 -40 47 0 c38 0 63 10 143 56 53 31 115
67 137 79 24 14 39 30 37 39 -3 17 13 22 22 7 3 -5 56 17 118 48 62 31 119 57
126 57 38 3 48 5 62 14 13 9 13 11 0 20 -13 8 -13 10 2 10 9 0 18 -5 20 -12 3
-9 19 -8 64 5 172 49 305 63 440 47 163 -19 218 -34 326 -91 26 -13 28 -12 28
19 0 33 -25 50 -79 54 -28 2 -35 8 -36 25 -1 17 3 22 20 21 12 -1 38 6 58 15
35 17 37 21 37 64 l0 45 -40 -41 c-22 -22 -46 -41 -53 -41 -7 0 -17 -4 -23
-10 -5 -5 -30 -11 -53 -12 -39 -1 -48 3 -78 36 l-34 37 25 45 c20 35 24 55 21
90 -4 41 5 58 20 34 11 -19 36 -10 71 24 20 19 48 37 62 39 15 2 -12 5 -60 6
-82 1 -88 0 -88 -19 0 -11 -4 -20 -10 -20 -5 0 -7 7 -4 15 5 11 -1 15 -19 15
-20 0 -24 -4 -19 -25 2 -14 0 -25 -7 -25 -5 0 -8 6 -5 14 6 15 -4 23 -38 34
-13 4 -420 8 -905 9 -841 3 -882 3 -876 -14 11 -33 23 -40 63 -40 54 0 115
-43 124 -85 3 -17 4 -33 2 -36 -3 -2 -23 5 -46 17 -35 18 -41 19 -46 6 -9 -22
-24 -18 -24 5 0 31 -64 26 -145 -10 -74 -33 -107 -37 -125 -15 -7 8 -15 13
-19 11 -4 -3 -8 5 -8 16 -2 20 7 21 63 7 5 -1 28 3 52 10 37 10 42 15 37 34
-4 12 -17 31 -29 42 -13 11 -26 28 -29 38 -6 16 -45 17 -672 17 -467 -1 -665
-4 -665 -12 0 -7 -4 -7 -13 1 -10 7 -146 11 -455 11 -385 0 -442 -2 -442 -15
0 -8 -4 -15 -10 -15 -5 0 -10 7 -10 15 0 12 -12 15 -52 14 -29 0 -47 -3 -40
-6 6 -2 12 -14 12 -25 0 -17 -2 -18 -15 -4 -8 8 -15 19 -15 25 0 8 -103 11
-335 11 -301 0 -335 -2 -335 -16z m345 -4 c3 -5 2 -10 -4 -10 -5 0 -13 5 -16
10 -3 6 -2 10 4 10 5 0 13 -4 16 -10z m2042 4 c-3 -3 -12 -4 -19 -1 -8 3 -5 6
6 6 11 1 17 -2 13 -5z m328 -4 c-3 -5 -12 -10 -18 -10 -7 0 -6 4 3 10 19 12
23 12 15 0z m-2570 -10 c-3 -5 -1 -10 6 -10 10 0 10 -3 1 -12 -10 -10 -15 -10
-22 2 -14 22 -12 30 6 30 8 0 12 -4 9 -10z m945 -6 c0 -8 -5 -12 -10 -9 -6 4
-8 11 -5 16 9 14 15 11 15 -7z m300 -1 c0 -10 -4 -24 -9 -32 -7 -11 -13 -10
-32 8 -25 23 -19 27 13 10 15 -8 19 -8 14 0 -4 6 -4 16 -1 21 9 15 15 12 15
-7z m500 7 c0 -5 -4 -10 -10 -10 -5 0 -10 5 -10 10 0 6 5 10 10 10 6 0 10 -4
10 -10z m226 -17 c-8 -8 -36 5 -36 17 0 7 6 7 21 0 11 -7 18 -14 15 -17z m174
12 c11 -13 10 -14 -4 -9 -9 3 -16 10 -16 15 0 13 6 11 20 -6z m200 -1 c0 -2
-9 -4 -21 -4 -11 0 -18 4 -14 10 5 8 35 3 35 -6z m255 6 c3 -5 1 -10 -4 -10
-6 0 -11 5 -11 10 0 6 2 10 4 10 3 0 8 -4 11 -10z m-1845 -4 c0 -2 -7 -6 -15
-10 -8 -3 -15 -1 -15 4 0 6 7 10 15 10 8 0 15 -2 15 -4z m744 -5 c3 -4 -6 -6
-19 -3 -14 2 -25 6 -25 8 0 8 39 4 44 -5z m2316 -1 c0 -5 -2 -10 -4 -10 -3 0
-8 5 -11 10 -3 6 -1 10 4 10 6 0 11 -4 11 -10z m-1925 -10 c-3 -5 -10 -10 -16
-10 -5 0 -9 5 -9 10 0 6 7 10 16 10 8 0 12 -4 9 -10z m975 1 c0 -5 -13 -16
-30 -25 -38 -18 -40 -2 -2 17 15 8 28 15 30 16 1 1 2 -3 2 -8z m1698 -11 c10
-17 10 -20 -3 -20 -8 0 -15 -7 -15 -15 0 -8 -4 -15 -10 -15 -11 0 -14 53 -3
63 10 11 17 8 31 -13z m-4384 -11 c-3 -5 -10 -7 -15 -3 -5 3 -7 10 -3 15 3 5
10 7 15 3 5 -3 7 -10 3 -15z m712 1 c0 -11 -4 -20 -8 -20 -4 0 -8 9 -8 20 0
11 4 20 8 20 4 0 8 -9 8 -20z m252 6 c18 -11 15 -75 -4 -83 -8 -3 -33 2 -54
12 -44 20 -120 14 -140 -10 -7 -8 -18 -15 -26 -15 -7 0 -25 -5 -41 -12 -37
-16 -93 -18 -87 -4 2 6 24 19 49 29 25 11 45 26 45 34 0 8 4 11 10 8 5 -3 32
7 59 23 42 24 60 28 114 27 35 -1 69 -5 75 -9z m322 4 c0 -5 -2 -10 -4 -10 -3
0 -8 5 -11 10 -3 6 -1 10 4 10 6 0 11 -4 11 -10z m1140 -11 c0 -5 -4 -9 -8 -9
-5 0 -9 7 -9 15 0 8 4 12 9 9 4 -3 8 -9 8 -15z m-2280 2 c0 -5 -13 -14 -29
-19 -24 -8 -32 -7 -43 5 -11 14 -9 15 19 9 18 -4 34 -3 38 3 8 13 15 14 15 2z
m1310 -1 c0 -5 -7 -10 -16 -10 -8 0 -12 5 -9 10 3 6 10 10 16 10 5 0 9 -4 9
-10z m50 6 c0 -11 -19 -15 -25 -6 -3 5 1 10 9 10 9 0 16 -2 16 -4z m514 -11
c-4 -8 -10 -12 -15 -9 -11 6 -2 24 11 24 5 0 7 -7 4 -15z m271 -6 c-10 -15
-25 -10 -19 6 4 8 10 12 15 9 5 -3 7 -10 4 -15z m2161 -16 c-3 -3 -13 0 -22 8
-15 12 -14 14 3 20 17 6 32 -15 19 -28z m-4398 16 c-2 -6 -7 -10 -11 -10 -4 1
-14 1 -23 1 -8 0 -12 5 -9 10 8 13 48 13 43 -1z m2032 -10 c0 -4 -7 -6 -15 -3
-8 4 -15 10 -15 15 0 4 7 6 15 3 8 -4 15 -10 15 -15z m2000 0 c0 -6 -4 -7 -10
-4 -5 3 -10 11 -10 16 0 6 5 7 10 4 6 -3 10 -11 10 -16z m515 11 c-3 -5 -11
-10 -16 -10 -6 0 -7 5 -4 10 3 6 11 10 16 10 6 0 7 -4 4 -10z m-2395 -10 c0
-5 -2 -10 -4 -10 -3 0 -8 5 -11 10 -3 6 -1 10 4 10 6 0 11 -4 11 -10z m-1008
-30 c4 -23 2 -27 -8 -19 -10 8 -26 2 -61 -23 -26 -18 -64 -38 -83 -45 -54 -19
-160 -14 -160 7 0 11 66 33 97 33 13 0 26 3 29 8 3 5 12 9 21 9 9 0 30 11 48
24 17 14 47 26 66 29 19 2 37 5 40 5 4 1 9 -11 11 -28z m2163 20 c-3 -5 -8
-18 -10 -28 -18 -96 -80 -185 -159 -227 -20 -11 -36 -26 -36 -33 0 -7 -5 -10
-11 -7 -5 4 -39 1 -75 -6 -58 -11 -66 -11 -81 4 -16 16 -16 17 1 17 14 0 17 5
12 25 -4 14 -2 25 4 25 5 0 10 -7 10 -15 0 -23 22 -18 104 21 109 51 136 94
101 160 -21 41 -19 50 18 62 42 13 130 15 122 2z m365 0 c0 -5 -4 -10 -10 -10
-5 0 -10 5 -10 10 0 6 5 10 10 10 6 0 10 -4 10 -10z m-1707 -18 l38 -17 -25
-24 c-19 -18 -29 -21 -38 -13 -20 16 -88 17 -133 2 -48 -15 -115 -66 -115 -86
0 -8 -9 -14 -20 -14 -11 0 -20 5 -20 10 0 6 7 10 15 10 11 0 13 8 8 32 -4 22
-2 34 9 42 8 6 20 21 27 34 7 12 16 20 20 17 5 -3 24 2 42 10 45 19 145 18
192 -3z m302 8 c3 -5 -1 -10 -9 -10 -9 0 -16 5 -16 10 0 6 4 10 9 10 6 0 13
-4 16 -10z m205 6 c0 -2 3 -11 6 -20 4 -12 0 -16 -15 -16 -14 0 -21 -6 -21
-20 0 -15 -7 -20 -25 -20 -52 0 -98 -39 -62 -53 7 -4 6 -6 -5 -6 -9 -1 -18 4
-20 10 -3 8 -18 3 -43 -13 -36 -22 -222 -94 -269 -104 -10 -2 -24 -8 -31 -14
-7 -6 -30 -13 -51 -16 -22 -2 -47 -7 -56 -10 -10 -3 -23 -2 -29 2 -15 9 8 24
38 24 12 0 29 7 38 16 9 9 23 13 32 10 19 -8 125 32 118 44 -3 5 3 6 13 3 10
-2 24 3 31 11 8 9 17 16 22 16 7 0 115 77 159 113 15 13 79 33 130 40 14 3 28
5 33 6 4 0 7 -1 7 -3z m70 -12 c0 -8 -5 -12 -10 -9 -6 4 -8 11 -5 16 9 14 15
11 15 -7z m1464 7 c3 -5 -6 -8 -19 -8 -14 0 -25 3 -25 8 0 5 9 9 19 9 11 0 22
-4 25 -9z m-3988 -16 c-3 -8 -1 -15 4 -15 6 0 10 -4 10 -10 0 -5 -4 -10 -9
-10 -12 0 -23 29 -15 41 9 15 17 10 10 -6z m964 5 c0 -5 -4 -10 -10 -10 -5 0
-10 5 -10 10 0 6 5 10 10 10 6 0 10 -4 10 -10z m547 4 c-3 -3 -12 -4 -19 -1
-8 3 -5 6 6 6 11 1 17 -2 13 -5z m1956 -9 c-3 -9 -8 -14 -10 -11 -3 3 -2 9 2
15 9 16 15 13 8 -4z m717 5 c0 -5 -4 -10 -10 -10 -5 0 -10 5 -10 10 0 6 5 10
10 10 6 0 10 -4 10 -10z m-4150 -10 c0 -5 -4 -10 -10 -10 -5 0 -10 5 -10 10 0
6 5 10 10 10 6 0 10 -4 10 -10z m1585 0 c3 -5 1 -10 -5 -10 -6 0 -8 -10 -4
-25 4 -16 2 -25 -6 -25 -6 0 -8 4 -5 10 3 6 -1 7 -9 4 -17 -7 -22 11 -6 21 16
10 12 28 -5 21 -8 -3 -15 -1 -15 4 0 13 47 13 55 0z m2675 1 c0 -5 -7 -11 -15
-15 -15 -5 -20 5 -8 17 9 10 23 9 23 -2z m213 -33 c-8 -24 -22 -51 -31 -62
-22 -23 -99 -63 -149 -75 -21 -6 -58 -15 -82 -21 -25 -6 -54 -9 -65 -7 -25 4
-19 7 71 32 55 16 70 26 120 80 32 35 64 70 71 79 7 9 27 16 46 16 l34 0 -15
-42z m-253 -13 c48 -8 58 -35 28 -76 -24 -33 -25 -33 -97 -19 -63 12 -81 5
-146 -56 -48 -45 -140 -94 -174 -94 -12 1 -10 5 9 19 14 11 64 57 111 103 76
74 173 138 208 138 6 0 12 8 12 18 1 12 3 11 6 -5 3 -16 14 -23 43 -28z
m-3065 7 c-3 -3 -11 0 -18 7 -9 10 -8 11 6 5 10 -3 15 -9 12 -12z m840 8 c3
-5 -1 -10 -9 -10 -8 0 -18 5 -21 10 -3 6 1 10 9 10 8 0 18 -4 21 -10z m93 -3
c15 -17 5 -54 -16 -61 -10 -3 -31 -14 -47 -24 -25 -16 -67 -28 -120 -37 -59
-9 -95 -19 -95 -26 0 -5 -8 -9 -18 -9 -9 0 -35 -16 -57 -35 -23 -20 -51 -35
-65 -34 -25 0 -25 0 -5 17 11 9 36 40 54 68 39 56 72 73 161 80 59 5 109 20
125 38 15 15 48 35 61 35 6 1 16 -5 22 -12z m1532 -2 c7 -8 19 -15 27 -15 11
0 13 -8 8 -32 -9 -43 -15 -49 -62 -54 -26 -3 -55 2 -84 15 -24 11 -48 16 -54
12 -5 -4 -28 -13 -50 -20 -22 -8 -59 -28 -81 -45 -54 -41 -146 -87 -170 -85
-4 0 -10 -5 -15 -12 -4 -8 -11 -10 -15 -6 -8 8 46 53 59 49 5 -1 6 7 2 18 -6
18 -3 20 17 15 19 -5 30 2 55 33 36 44 132 105 201 126 64 20 146 20 162 1z
m234 3 c31 -14 44 -65 26 -108 -7 -16 -10 -31 -9 -33 6 -5 -64 -67 -76 -67 -5
0 -30 -16 -55 -36 -66 -52 -163 -94 -175 -75 -3 6 13 20 37 32 50 25 156 124
169 158 8 19 4 29 -22 58 -28 33 -29 36 -12 48 17 11 69 32 85 34 4 1 18 -4
32 -11z m705 -43 c-1 -61 -7 -67 -72 -79 -29 -5 -41 -14 -49 -34 -10 -25 -11
-26 -18 -7 -14 34 -12 55 6 48 9 -3 19 -1 23 4 3 6 27 24 52 39 25 16 44 35
41 42 -4 13 4 42 12 42 3 0 5 -25 5 -55z m-4374 25 c3 -5 2 -10 -4 -10 -5 0
-13 5 -16 10 -3 6 -2 10 4 10 5 0 13 -4 16 -10z m565 0 c0 -5 -4 -10 -10 -10
-5 0 -10 5 -10 10 0 6 5 10 10 10 6 0 10 -4 10 -10z m387 -7 c3 -10 19 -32 36
-50 42 -44 32 -67 -26 -58 -23 4 -49 14 -59 22 -12 11 -25 12 -50 6 -31 -7
-61 -9 -115 -5 -41 3 -26 29 19 35 24 3 44 10 46 15 1 5 13 7 25 5 12 -2 40 7
62 21 49 30 54 30 62 9z m363 7 c0 -5 -4 -10 -10 -10 -5 0 -10 5 -10 10 0 6 5
10 10 10 6 0 10 -4 10 -10z m1013 -2 c22 1 27 -3 23 -14 -3 -9 -6 -22 -6 -29
0 -20 -88 -15 -93 5 -7 32 5 51 27 44 11 -4 34 -7 49 -6z m817 8 c0 -3 -4 -8
-10 -11 -5 -3 -10 -1 -10 4 0 6 5 11 10 11 6 0 10 -2 10 -4z m610 -11 c-7 -8
-17 -12 -23 -8 -6 4 -3 9 9 14 27 11 28 11 14 -6z m-1130 -5 c0 -5 -2 -10 -4
-10 -3 0 -8 5 -11 10 -3 6 -1 10 4 10 6 0 11 -4 11 -10z m1223 3 c-7 -2 -21
-2 -30 0 -10 3 -4 5 12 5 17 0 24 -2 18 -5z m-1308 -13 c3 -5 -1 -10 -9 -10
-9 0 -16 5 -16 10 0 6 4 10 9 10 6 0 13 -4 16 -10z m-2093 -12 c-9 -9 -15 -9
-24 0 -9 9 -7 12 12 12 19 0 21 -3 12 -12z m2352 -9 c-3 -5 -10 -7 -15 -3 -5
3 -7 10 -3 15 3 5 10 7 15 3 5 -3 7 -10 3 -15z m-3154 7 c0 -3 -4 -8 -10 -11
-5 -3 -10 -1 -10 4 0 6 5 11 10 11 6 0 10 -2 10 -4z m3200 -6 c0 -5 -4 -10
-10 -10 -5 0 -10 5 -10 10 0 6 5 10 10 10 6 0 10 -4 10 -10z m906 -17 c-10
-10 -19 5 -10 18 6 11 8 11 12 0 2 -7 1 -15 -2 -18z m-2371 7 c3 -5 -1 -10 -9
-10 -9 0 -16 5 -16 10 0 6 4 10 9 10 6 0 13 -4 16 -10z m1045 -10 c0 -12 -8
-12 -35 0 -18 8 -17 9 8 9 15 1 27 -3 27 -9z m-245 -10 c3 -5 -1 -10 -10 -10
-9 0 -13 5 -10 10 3 6 8 10 10 10 2 0 7 -4 10 -10z m1595 -10 c0 -5 -4 -10
-10 -10 -5 0 -10 5 -10 10 0 6 5 10 10 10 6 0 10 -4 10 -10z m-1360 -21 c0 11
3 11 15 1 15 -12 11 -35 -5 -25 -4 3 -10 -1 -13 -7 -3 -10 -7 -10 -20 1 -14
11 -15 17 -6 28 10 11 14 11 20 1 7 -10 9 -10 9 1z m395 1 c-3 -5 -10 -10 -16
-10 -5 0 -9 5 -9 10 0 6 7 10 16 10 8 0 12 -4 9 -10z m-1335 -9 c0 -6 -4 -13
-10 -16 -5 -3 -10 1 -10 9 0 9 5 16 10 16 6 0 10 -4 10 -9z m610 -1 c0 -5 -5
-10 -11 -10 -5 0 -7 5 -4 10 3 6 8 10 11 10 2 0 4 -4 4 -10z m940 0 c0 -5 -5
-10 -11 -10 -5 0 -7 5 -4 10 3 6 8 10 11 10 2 0 4 -4 4 -10z m380 -20 c0 -5
-4 -10 -10 -10 -5 0 -10 5 -10 10 0 6 5 10 10 10 6 0 10 -4 10 -10z m-2425 -9
c10 -17 -9 -20 -30 -5 -18 14 -18 14 2 14 12 0 24 -4 28 -9z m105 5 c0 -3 -4
-8 -10 -11 -5 -3 -10 -1 -10 4 0 6 5 11 10 11 6 0 10 -2 10 -4z m2237 -27 c0
-21 -3 -26 -9 -16 -4 9 -5 22 -2 31 9 23 11 20 11 -15z m598 21 c-3 -5 -12
-10 -18 -10 -7 0 -6 4 3 10 19 12 23 12 15 0z m-2003 -15 c0 -5 -5 -11 -11
-13 -6 -2 -11 4 -11 13 0 9 5 15 11 13 6 -2 11 -8 11 -13z m728 5 c0 -5 -4
-10 -10 -10 -5 0 -10 5 -10 10 0 6 5 10 10 10 6 0 10 -4 10 -10z m1810 -16 c0
-8 -5 -12 -10 -9 -6 4 -8 11 -5 16 9 14 15 11 15 -7z m-3368 -26 l33 -23 -27
-3 c-15 -2 -37 2 -50 9 -13 7 -28 12 -35 11 -6 -2 -9 5 -6 16 6 25 42 21 85
-10z m2100 20 c-9 -9 -15 -9 -24 0 -9 9 -7 12 12 12 19 0 21 -3 12 -12z
m-1712 -8 c0 -5 -5 -10 -11 -10 -5 0 -7 5 -4 10 3 6 8 10 11 10 2 0 4 -4 4
-10z m1643 -31 c-23 -8 -27 -4 -19 17 5 14 9 14 22 3 14 -12 14 -14 -3 -20z
m-1536 -16 c-3 -3 -11 -2 -17 2 -8 5 -7 11 2 22 12 15 13 14 16 -1 2 -10 1
-20 -1 -23z m1328 27 c3 -5 1 -10 -4 -10 -6 0 -11 5 -11 10 0 6 2 10 4 10 3 0
8 -4 11 -10z m545 -4 c0 -3 -4 -8 -10 -11 -5 -3 -10 -1 -10 4 0 6 5 11 10 11
6 0 10 -2 10 -4z m-1970 -26 c0 -5 -7 -10 -16 -10 -8 0 -12 5 -9 10 3 6 10 10
16 10 5 0 9 -4 9 -10z m1760 -18 c0 -15 -2 -15 -10 -2 -13 20 -13 33 0 25 6
-3 10 -14 10 -23z m-250 8 c0 -5 -4 -10 -10 -10 -5 0 -10 5 -10 10 0 6 5 10
10 10 6 0 10 -4 10 -10z m305 -8 c-3 -3 -11 0 -18 7 -9 10 -8 11 6 5 10 -3 15
-9 12 -12z m-555 -6 c0 -3 -4 -8 -10 -11 -5 -3 -10 -1 -10 4 0 6 5 11 10 11 6
0 10 -2 10 -4z m170 -6 c0 -5 -4 -10 -10 -10 -5 0 -10 5 -10 10 0 6 5 10 10
10 6 0 10 -4 10 -10z m110 6 c0 -2 -8 -10 -17 -17 -16 -13 -17 -12 -4 4 13 16
21 21 21 13z m-1825 -16 c3 -5 -1 -10 -9 -10 -9 0 -16 5 -16 10 0 6 4 10 9 10
6 0 13 -4 16 -10z m2358 -21 c-6 -6 -15 -4 -23 6 -11 13 -10 14 4 9 10 -4 16
-1 17 7 0 12 2 12 6 1 3 -8 1 -18 -4 -23z m-2402 -7 c-7 -2 -18 1 -23 6 -8 8
-4 9 13 5 13 -4 18 -8 10 -11z m71 -24 c-7 -7 -12 -8 -12 -2 0 14 12 26 19 19
2 -3 -1 -11 -7 -17z m47 10 c-1 -26 -16 -52 -22 -41 -4 7 -3 14 2 18 6 3 8 12
4 20 -3 8 0 15 6 15 6 0 11 -6 10 -12z m104 -28 c39 -23 64 -67 48 -83 -8 -8
-18 -4 -34 11 -13 12 -27 22 -31 22 -4 0 -16 10 -26 23 -13 16 -15 26 -8 35
13 15 11 16 51 -8z m1742 -69 c10 -17 -12 -21 -25 -6 -10 12 -10 15 3 15 9 0
18 -4 22 -9z m-95 -11 c0 -5 -2 -10 -4 -10 -3 0 -8 5 -11 10 -3 6 -1 10 4 10
6 0 11 -4 11 -10z m330 1 c0 -13 -28 -22 -35 -11 -3 4 1 11 7 13 20 8 28 8 28
-2z"/>
<path d="M4843 723 c-20 -7 -15 -23 7 -23 14 0 18 -5 13 -17 -5 -12 -2 -15 9
-10 21 7 31 -3 17 -19 -21 -26 28 -25 59 1 2 2 -7 19 -20 39 -22 35 -49 44
-85 29z"/>
<path d="M1760 661 c0 -22 47 -71 68 -71 16 0 91 -47 104 -64 9 -13 38 12 38
33 0 24 -123 83 -180 86 -8 0 -14 8 -12 18 2 9 -2 17 -8 17 -5 0 -10 -8 -10
-19z m130 -71 c0 -5 -2 -10 -4 -10 -3 0 -8 5 -11 10 -3 6 -1 10 4 10 6 0 11
-4 11 -10z"/>
<path d="M2336 451 c-4 -5 -3 -16 0 -24 3 -8 1 -18 -4 -21 -6 -4 -11 -73 -12
-164 -2 -191 -2 -192 -12 -192 -4 0 -8 -11 -8 -25 0 -14 4 -25 8 -25 13 0 32
23 32 37 0 8 9 32 20 55 16 34 17 42 5 54 -8 9 -15 10 -18 4 -3 -6 -4 -5 -2 2
3 13 9 14 36 3 13 -5 20 2 29 29 6 20 8 41 4 47 -4 7 -3 9 3 6 10 -6 36 61 28
74 -3 4 2 20 10 35 8 16 15 39 15 52 0 36 28 26 36 -13 7 -41 13 -43 39 -12
l20 22 8 -48 9 -48 20 32 c15 25 17 34 7 40 -8 4 -11 10 -8 13 3 3 16 -4 28
-16 19 -17 22 -28 18 -59 -6 -47 2 -49 31 -9 28 37 54 40 48 5 -3 -13 -2 -24
2 -22 4 1 7 -3 7 -8 0 -6 -5 -9 -12 -7 -7 2 -13 -2 -13 -8 0 -5 4 -10 9 -10 5
0 16 -3 25 -6 11 -4 16 -1 16 11 0 9 5 13 10 10 18 -11 11 -22 -25 -39 -35
-17 -39 -35 -7 -37 11 0 13 -2 4 -6 -7 -3 -22 3 -32 12 -18 16 -21 15 -65 -17
-26 -18 -59 -40 -74 -48 -15 -9 -52 -41 -83 -73 -41 -41 -52 -57 -38 -57 18 0
80 62 80 80 0 6 4 10 9 10 6 0 13 -20 17 -45 6 -44 23 -62 25 -27 2 16 4 37 8
56 2 14 38 -28 42 -49 8 -38 25 -25 21 16 -3 32 0 45 17 60 21 20 21 20 21 -1
0 -11 -7 -20 -15 -20 -20 0 -19 -7 4 -36 20 -25 36 -19 25 9 -9 25 35 47 93
47 28 0 55 -4 58 -10 3 -5 17 -10 30 -10 15 0 36 -14 58 -40 35 -41 57 -51 57
-25 0 8 3 15 8 15 4 0 8 23 9 51 1 45 0 49 -18 44 -24 -8 -24 0 1 25 23 23 22
59 -3 109 -9 19 -17 44 -17 55 1 35 57 -40 77 -103 10 -29 19 -47 21 -40 8 25
47 104 55 110 25 18 -58 107 -89 95 -8 -3 -14 -1 -14 5 0 12 -32 24 -83 32
-31 5 -38 3 -33 -8 3 -9 -1 -15 -10 -15 -9 0 -14 7 -12 18 3 15 -6 17 -64 17
-37 0 -62 3 -55 7 20 12 3 17 -70 22 -48 3 -79 0 -97 -9 -15 -8 -26 -10 -26
-4 0 9 -29 10 -154 9 -16 0 -36 -6 -43 -12 -10 -8 -13 -7 -13 6 0 17 -25 22
-34 7z m387 -28 c-3 -7 0 -20 7 -28 8 -10 9 -15 2 -15 -6 0 -16 8 -21 18 -10
16 -10 16 -11 0 0 -26 -15 -22 -28 7 -7 14 -12 27 -12 29 0 1 15 3 34 3 24 0
33 -4 29 -14z m-347 -28 c0 -14 -7 -27 -13 -30 -7 -2 -10 -11 -7 -20 4 -10 0
-15 -10 -15 -13 0 -15 4 -7 19 6 10 7 21 4 25 -3 3 -2 6 4 6 6 0 13 9 16 20 7
28 15 25 13 -5z m211 9 c-3 -3 -12 -4 -19 -1 -8 3 -5 6 6 6 11 1 17 -2 13 -5z
m-167 -19 c7 -9 8 -15 2 -15 -5 0 -12 7 -16 15 -3 8 -4 15 -2 15 2 0 9 -7 16
-15z m428 -25 c7 0 20 -7 29 -16 9 -8 22 -13 30 -10 8 4 11 1 8 -5 -4 -6 0
-18 8 -27 19 -21 41 -99 38 -131 -3 -27 -17 -44 -45 -54 -16 -6 -17 -5 -6 8
11 13 10 14 -4 9 -13 -5 -16 2 -17 42 -1 27 -2 54 -4 59 -1 6 -3 18 -3 28 -1
10 -20 36 -42 59 -21 23 -37 45 -33 50 3 6 10 5 16 -1 6 -6 17 -11 25 -11z
m-408 -4 c0 -3 -4 -8 -10 -11 -5 -3 -10 -1 -10 4 0 6 5 11 10 11 6 0 10 -2 10
-4z m368 -53 c16 -35 15 -43 -2 -43 -8 0 -17 11 -20 25 -4 14 -12 25 -19 25
-8 0 -7 4 3 10 21 14 24 13 38 -17z m226 21 c9 -3 14 -10 11 -15 -7 -10 -35 0
-35 12 0 11 3 11 24 3z m-639 -14 c-3 -5 -12 -10 -18 -10 -7 0 -6 4 3 10 19
12 23 12 15 0z m705 -60 c0 -5 -4 -10 -10 -10 -5 0 -10 5 -10 10 0 6 5 10 10
10 6 0 10 -4 10 -10z m-732 -12 c-2 -6 -10 -14 -16 -16 -7 -2 -10 2 -6 12 7
18 28 22 22 4z m412 -80 c0 -10 2 -10 9 0 6 10 10 10 21 -3 8 -10 9 -15 1 -15
-6 0 -11 -6 -11 -14 0 -9 -7 -12 -20 -9 -21 5 -30 53 -10 53 6 0 10 -6 10 -12z
m-53 -12 c17 3 24 1 21 -8 -8 -22 -52 -16 -55 7 -2 11 0 15 3 8 3 -6 17 -9 31
-7z m143 -8 c0 -11 -12 -10 -30 2 -12 7 -10 9 8 7 12 0 22 -5 22 -9z"/>
<path d="M2273 442 c-37 -3 -43 -6 -43 -25 0 -12 9 -33 19 -46 l18 -24 7 29
c4 16 17 37 29 46 27 21 23 24 -30 20z"/>
<path d="M2180 415 c0 -8 -4 -15 -10 -15 -5 0 -10 4 -10 10 0 14 -51 9 -75 -7
-11 -7 -26 -13 -34 -13 -9 0 -56 -20 -106 -44 -146 -70 -218 -104 -247 -115
-16 -6 -28 -15 -28 -20 0 -6 -6 -8 -13 -5 -7 2 -35 -7 -62 -22 -44 -25 -46
-28 -26 -36 16 -5 36 -1 71 17 27 14 61 25 75 25 14 0 25 5 25 11 0 5 4 7 10
4 11 -7 62 19 95 47 20 17 22 16 50 -7 21 -17 25 -24 14 -25 -9 0 -24 -9 -35
-21 -35 -39 -147 -67 -182 -45 -7 4 -15 0 -18 -9 -5 -12 -10 -13 -20 -4 -8 6
-22 8 -36 3 -13 -4 -47 -8 -76 -9 -40 -1 -56 -5 -63 -18 -6 -9 -17 -17 -24
-17 -8 0 -15 -5 -15 -11 0 -5 -4 -8 -9 -4 -6 3 -14 -3 -20 -12 -6 -10 -11 -14
-11 -10 0 4 -10 2 -22 -4 l-21 -11 24 -14 c13 -7 18 -13 12 -14 -25 0 -13 -20
12 -20 14 0 25 5 25 11 0 6 9 8 21 4 15 -5 22 -2 25 12 9 30 78 71 140 82 69
13 66 13 60 2 -3 -5 1 -14 9 -21 26 -22 -13 -48 -69 -48 -50 1 -69 -8 -46 -22
8 -6 12 -10 7 -10 -4 0 -16 5 -26 12 -16 9 -25 9 -48 -3 -27 -14 -26 -14 46
-17 52 -2 77 1 83 10 8 10 11 10 15 1 3 -8 21 -13 46 -12 23 1 34 3 25 6 -23
6 -23 16 0 36 24 22 31 21 25 -2 -4 -17 1 -19 61 -17 40 0 70 -4 77 -11 17
-17 57 -17 56 0 0 6 1 23 2 37 1 19 3 22 10 11 8 -12 14 -13 36 -3 21 10 24
15 15 31 -15 29 2 33 47 10 56 -28 112 -36 125 -18 7 10 7 7 3 -9 -5 -17 -3
-22 7 -21 7 2 23 -3 36 -10 13 -7 28 -11 33 -9 15 5 -51 87 -105 131 -25 21
-46 42 -46 46 0 5 -16 25 -35 45 -52 56 -46 62 38 39 14 -3 17 2 17 31 0 25 6
38 20 46 14 7 20 7 20 0 0 -5 -5 -10 -12 -10 -6 0 -1 -9 12 -20 30 -26 33 -25
28 10 -2 16 -1 31 2 32 4 2 11 13 14 26 6 16 3 22 -8 22 -9 0 -16 -7 -16 -15z
m-101 -84 c-15 -5 -22 6 -14 19 6 9 10 9 16 -1 5 -8 4 -15 -2 -18z m-86 -15
c-3 -6 -11 -17 -16 -24 -16 -20 -26 6 -13 33 8 17 14 21 23 13 7 -6 10 -15 6
-22z m-93 -36 c8 -5 11 -10 5 -10 -5 0 -17 5 -25 10 -8 5 -10 10 -5 10 6 0 17
-5 25 -10z m73 -37 c-7 -2 -13 -11 -13 -19 0 -8 -7 -14 -15 -14 -12 0 -12 3 2
20 10 11 22 20 28 19 5 0 4 -3 -2 -6z m-28 -53 c-8 -12 -3 -13 29 -1 18 8 28
6 37 -6 11 -13 10 -17 -5 -29 -16 -11 -22 -10 -47 8 -30 22 -37 38 -18 38 5 0
7 -4 4 -10z m-35 -20 c0 -5 -7 -10 -15 -10 -8 0 -15 5 -15 10 0 6 7 10 15 10
8 0 15 -4 15 -10z m180 -16 c0 -14 -4 -23 -10 -19 -5 3 -10 15 -10 26 0 10 5
19 10 19 6 0 10 -12 10 -26z m-40 6 c0 -5 -4 -10 -10 -10 -5 0 -10 5 -10 10 0
6 5 10 10 10 6 0 10 -4 10 -10z m-97 -24 c4 -10 1 -13 -9 -9 -7 3 -14 -1 -14
-8 0 -7 -3 -9 -6 -6 -4 4 -1 13 6 22 15 19 17 19 23 1z m163 -13 c-10 -10 -19
5 -10 18 6 11 8 11 12 0 2 -7 1 -15 -2 -18z m-56 -3 c0 -5 -4 -10 -10 -10 -5
0 -10 5 -10 10 0 6 5 10 10 10 6 0 10 -4 10 -10z m-211 -12 c11 -10 14 -10 18
0 3 6 9 12 14 12 5 0 3 -13 -6 -30 -15 -29 -9 -40 11 -21 5 5 18 5 29 1 19 -8
18 -9 -4 -9 -13 -1 -30 -9 -37 -18 -11 -16 -13 -15 -23 12 -6 17 -16 38 -21
48 -12 20 0 23 19 5z m106 -8 c3 -5 1 -10 -4 -10 -6 0 -11 5 -11 10 0 6 2 10
4 10 3 0 8 -4 11 -10z m-230 -10 c3 -5 1 -10 -4 -10 -6 0 -11 5 -11 10 0 6 2
10 4 10 3 0 8 -4 11 -10z m55 -10 c0 -11 -4 -20 -9 -20 -5 0 -11 9 -14 20 -3
13 0 20 9 20 8 0 14 -9 14 -20z m35 7 c14 -14 8 -30 -11 -34 -7 -1 -11 9 -10
22 1 29 3 30 21 12z m-325 -7 c0 -5 -4 -10 -10 -10 -5 0 -10 5 -10 10 0 6 5
10 10 10 6 0 10 -4 10 -10z m-23 -26 c-3 -3 -12 -4 -19 -1 -8 3 -5 6 6 6 11 1
17 -2 13 -5z"/>
<path d="M4420 350 c-21 -17 -22 -20 -7 -20 17 0 47 22 47 34 0 11 -15 6 -40
-14z"/>
<path d="M12 348 c-15 -15 -16 -50 0 -66 9 -9 9 -12 -1 -12 -7 0 -9 -4 -6 -10
4 -6 16 -3 31 7 22 14 27 14 35 2 5 -8 9 -17 9 -21 0 -13 -18 -9 -24 5 -5 10
-7 10 -12 0 -3 -7 -14 -13 -24 -13 -12 0 -18 -8 -18 -24 0 -20 7 -25 38 -30
52 -8 110 -34 110 -49 0 -7 -16 -19 -36 -26 -35 -13 -37 -12 -66 23 -16 20
-34 36 -39 36 -5 0 -9 -38 -9 -84 l0 -85 180 1 c99 0 180 2 180 4 0 26 -169
214 -192 214 -5 0 -8 7 -8 15 0 9 -7 18 -15 21 -8 4 -15 15 -15 25 0 15 -4 17
-24 9 -27 -10 -43 9 -24 28 6 6 6 12 0 16 -6 3 -13 2 -17 -4 -10 -16 -25 -12
-33 10 -6 16 -10 18 -20 8z m55 -144 c-9 -9 -28 6 -21 18 4 6 10 6 17 -1 6 -6
8 -13 4 -17z m114 -32 c-9 -3 -8 -7 4 -16 15 -11 16 -13 1 -25 -14 -12 -16
-12 -11 1 3 8 -1 21 -10 28 -12 10 -13 15 -3 21 6 4 17 5 22 2 6 -4 5 -8 -3
-11z m41 -71 c-3 -21 -8 -28 -18 -24 -11 4 -12 9 -3 19 9 11 8 14 -2 15 -8 0
-5 4 6 9 11 5 20 9 21 9 0 1 -1 -12 -4 -28z m-192 -31 c0 -5 7 -10 15 -10 8 0
15 -4 15 -10 0 -14 -23 -13 -38 2 -15 15 -16 28 -2 28 6 0 10 -4 10 -10z m90
-24 c0 -5 -7 -3 -15 4 -8 7 -12 17 -9 22 7 10 24 -9 24 -26z m170 0 c0 -2 -11
-6 -25 -8 -13 -3 -22 -1 -19 3 5 9 44 13 44 5z"/>
<path d="M3246 312 c-3 -5 -6 -41 -7 -81 -2 -62 -6 -78 -32 -114 -35 -49 -94
-107 -102 -99 -3 3 -5 0 -5 -6 0 -8 27 -12 85 -12 74 0 85 2 85 18 0 9 -9 23
-21 30 -19 12 -20 11 -14 -7 8 -25 -12 -28 -41 -6 -15 12 -15 14 -2 9 13 -4
19 3 28 35 9 34 13 39 24 29 7 -7 12 -18 9 -24 -5 -14 43 -62 75 -75 33 -13
69 -11 75 4 4 9 6 9 6 0 1 -8 15 -13 37 -13 31 0 35 3 29 18 -4 9 -7 29 -6 45
1 21 -3 27 -19 27 -15 0 -19 -6 -18 -25 1 -14 6 -25 10 -25 4 0 8 -7 8 -15 0
-8 -4 -15 -10 -15 -5 0 -10 7 -10 15 0 8 -5 15 -11 15 -5 0 -7 4 -4 10 4 6 -7
8 -27 5 -22 -4 -27 -3 -14 3 17 7 16 9 -8 25 -15 10 -31 15 -36 12 -6 -3 -10
1 -10 9 0 11 -10 16 -32 16 -24 0 -29 3 -18 9 8 6 18 7 23 4 5 -3 7 5 5 18 -2
19 2 25 20 27 12 2 22 -2 22 -8 0 -7 8 -9 21 -5 14 5 19 3 15 -3 -4 -6 3 -16
14 -22 11 -6 20 -17 20 -25 0 -8 7 -15 16 -15 12 0 14 7 9 30 -4 19 -3 30 4
30 6 0 11 -6 11 -14 0 -8 3 -16 8 -18 11 -5 52 -93 52 -112 0 -9 4 -16 8 -16
8 0 12 15 13 53 0 13 6 9 22 -15 22 -32 25 -33 102 -36 44 -1 75 1 69 5 -16
12 -136 91 -251 166 -56 36 -105 72 -110 79 -12 19 -111 70 -117 60z m77 -66
c4 -10 1 -13 -8 -9 -8 3 -12 9 -9 14 7 12 11 11 17 -5z m47 -46 c0 -5 -5 -10
-11 -10 -5 0 -7 5 -4 10 3 6 8 10 11 10 2 0 4 -4 4 -10z m40 -30 c0 -5 -4 -10
-10 -10 -5 0 -10 5 -10 10 0 6 5 10 10 10 6 0 10 -4 10 -10z m-105 -100 c3 -5
1 -10 -4 -10 -6 0 -11 5 -11 10 0 6 2 10 4 10 3 0 8 -4 11 -10z m30 -30 c3 -5
1 -10 -4 -10 -6 0 -11 5 -11 10 0 6 2 10 4 10 3 0 8 -4 11 -10z m275 6 c0 -2
-7 -7 -16 -10 -8 -3 -12 -2 -9 4 6 10 25 14 25 6z m60 -26 c0 -5 -5 -10 -11
-10 -5 0 -7 5 -4 10 3 6 8 10 11 10 2 0 4 -4 4 -10z"/>
<path d="M4375 300 c-3 -5 19 -22 49 -37 56 -27 64 -43 21 -43 -13 0 -27 -5
-30 -10 -4 -6 -11 -8 -16 -5 -12 8 -49 -4 -49 -16 0 -5 8 -13 19 -17 21 -8 91
-88 91 -104 0 -6 -16 -7 -40 -3 -26 4 -46 3 -55 -5 -8 -6 -19 -8 -26 -4 -8 5
-4 11 11 19 19 10 20 13 6 18 -9 4 -19 6 -21 6 -12 0 -85 94 -91 115 -4 18
-15 25 -42 30 -60 10 -102 7 -102 -6 0 -10 -2 -10 -8 -1 -16 26 -114 -23 -164
-82 -22 -25 -22 -30 1 -79 10 -23 21 -49 24 -58 7 -18 67 -27 67 -10 0 17 37
51 80 73 25 13 54 31 64 41 15 14 23 15 33 6 26 -21 10 -52 -39 -77 -91 -46
-77 -51 137 -51 118 1 195 5 195 10 0 6 5 10 11 10 5 0 7 -5 4 -10 -4 -7 50
-10 157 -9 149 0 161 2 136 15 -21 11 -28 22 -28 44 0 35 -3 37 -30 10 -27
-27 -40 -25 -40 5 0 14 -4 25 -9 25 -5 0 -18 -11 -29 -25 -27 -34 -32 -32 -25
12 l6 38 -30 -27 c-36 -35 -41 -35 -45 0 l-3 27 -20 -32 c-22 -38 -35 -28 -35
30 0 20 -4 37 -10 37 -5 0 -10 -21 -10 -47 -1 -41 -2 -45 -12 -28 -6 11 -24
37 -40 58 l-30 37 39 16 c21 9 48 20 61 25 12 5 22 12 22 17 0 8 -127 72 -143
72 -3 0 -9 -4 -12 -10z m-257 -135 c3 -20 -13 -30 -85 -56 -18 -6 -33 -15 -33
-20 0 -5 -6 -9 -14 -9 -9 0 -12 7 -9 21 4 12 0 25 -8 30 -11 7 -10 9 4 9 9 0
17 7 17 16 0 8 5 12 10 9 6 -4 16 -2 23 3 31 26 91 24 95 -3z m60 -3 c2 -7 -1
-12 -8 -12 -6 0 -9 4 -6 9 4 5 1 12 -4 14 -6 3 -5 4 2 3 6 -1 14 -8 16 -14z
m72 -112 c0 -5 -7 -10 -16 -10 -8 0 -12 5 -9 10 3 6 10 10 16 10 5 0 9 -4 9
-10z m250 4 c0 -3 -7 -12 -15 -20 -12 -13 -15 -13 -15 -1 0 7 3 17 7 20 8 8
23 9 23 1z m80 2 c0 -3 -4 -8 -10 -11 -5 -3 -10 -1 -10 4 0 6 5 11 10 11 6 0
10 -2 10 -4z m-201 -45 c-15 -5 -22 6 -14 19 6 9 10 9 16 -1 5 -8 4 -15 -2
-18z m-114 9 c3 -5 -1 -10 -9 -10 -9 0 -16 5 -16 10 0 6 4 10 9 10 6 0 13 -4
16 -10z m35 0 c0 -5 -5 -10 -11 -10 -5 0 -7 5 -4 10 3 6 8 10 11 10 2 0 4 -4
4 -10z"/>
<path d="M6396 289 c-32 -5 -64 -14 -72 -20 -7 -6 -17 -8 -22 -5 -6 3 -49 -1
-96 -10 -76 -14 -87 -19 -92 -40 -4 -13 -1 -31 6 -39 6 -8 9 -23 5 -34 -4 -15
-3 -19 7 -16 14 6 43 -74 39 -107 -2 -12 5 -18 18 -18 12 0 21 5 21 10 0 6 7
6 19 -1 31 -20 51 -4 53 41 0 22 1 46 2 52 1 14 -52 43 -61 34 -3 -3 0 -13 8
-22 12 -14 11 -16 -6 -12 -14 2 -20 11 -19 27 1 17 -7 27 -35 39 l-36 16 55 7
c62 9 112 -1 209 -40 70 -28 83 -49 50 -82 -18 -18 -21 -18 -50 -3 -35 18 -38
16 -55 -31 l-12 -35 39 0 c37 0 61 12 139 72 19 15 57 36 83 47 104 45 247 12
247 -56 0 -22 -3 -23 -42 -17 -24 4 -53 11 -66 15 -38 14 -115 10 -147 -7 -16
-9 -46 -25 -65 -35 -35 -18 -33 -18 199 -18 203 0 235 2 250 16 15 15 16 15
19 0 2 -12 14 -17 37 -17 l33 0 1 106 c1 68 -2 103 -9 99 -5 -3 -7 0 -4 8 7
20 -46 33 -57 15 -7 -10 -9 -9 -9 3 0 9 -8 20 -17 24 -38 16 -204 42 -209 33
-3 -5 -11 -5 -18 1 -15 13 -252 12 -340 0z m68 -44 c4 -11 -3 -19 -21 -26 -33
-12 -39 -6 -16 20 21 25 29 26 37 6z m436 -10 c0 -29 -12 -32 -31 -9 -10 13
-10 17 2 25 23 14 29 11 29 -16z m-135 -6 c68 -11 203 -65 236 -95 9 -8 22
-14 29 -12 7 2 15 -3 17 -10 3 -8 -1 -10 -11 -6 -11 4 -16 0 -16 -14 0 -25
-28 -31 -89 -18 -27 6 -49 18 -58 33 -8 13 -22 23 -29 23 -8 0 -14 4 -14 10 0
29 -210 86 -307 83 -13 -1 -23 3 -23 7 0 19 146 18 265 -1z m-455 -19 c0 -5
-5 -10 -11 -10 -5 0 -7 5 -4 10 3 6 8 10 11 10 2 0 4 -4 4 -10z m657 -12 c-3
-8 -6 -5 -6 6 -1 11 2 17 5 13 3 -3 4 -12 1 -19z m-417 2 c0 -5 -4 -10 -10
-10 -5 0 -10 5 -10 10 0 6 5 10 10 10 6 0 10 -4 10 -10z m-130 -10 c0 -5 -2
-10 -4 -10 -3 0 -8 5 -11 10 -3 6 -1 10 4 10 6 0 11 -4 11 -10z m106 -87 c-4
-4 -11 -1 -16 7 -16 25 -11 35 7 17 9 -9 13 -20 9 -24z m391 -59 c-3 -3 -12
-4 -19 -1 -8 3 -5 6 6 6 11 1 17 -2 13 -5z m130 -20 c-9 -9 -28 6 -21 18 4 6
10 6 17 -1 6 -6 8 -13 4 -17z m-412 -4 c-3 -5 -11 -10 -16 -10 -6 0 -7 5 -4
10 3 6 11 10 16 10 6 0 7 -4 4 -10z"/>
<path d="M3133 201 c-17 -30 -19 -41 -10 -51 9 -10 9 -11 0 -6 -8 4 -16 -7
-22 -31 -6 -20 -8 -39 -6 -42 12 -11 55 45 61 78 3 20 8 48 10 64 8 38 -7 33
-33 -12z"/>
<path d="M5985 182 c-33 -15 -74 -36 -90 -47 -17 -12 -46 -28 -65 -38 -46 -23
-99 -55 -129 -78 l-24 -19 61 0 c57 0 60 1 55 23 -4 17 -3 19 6 7 9 -13 16
-13 59 3 73 25 116 23 132 -8 9 -17 22 -25 40 -25 l27 0 -1 105 c0 58 -3 105
-6 104 -3 0 -32 -12 -65 -27z m30 -22 c3 -5 -1 -10 -9 -10 -9 0 -16 5 -16 10
0 6 4 10 9 10 6 0 13 -4 16 -10z m-20 -30 c3 -6 -1 -13 -10 -16 -19 -8 -30 0
-20 15 8 14 22 14 30 1z m-55 -60 c0 -5 -4 -10 -9 -10 -6 0 -13 5 -16 10 -3 6
1 10 9 10 9 0 16 -4 16 -10z"/>
<path d="M340 182 c0 -7 6 -25 14 -40 8 -15 17 -53 21 -85 4 -31 11 -57 17
-57 11 0 2 55 -19 125 -16 50 -33 80 -33 57z"/>
<path d="M6080 128 c0 -35 5 -62 14 -70 8 -8 15 -23 17 -33 2 -10 10 -20 17
-23 17 -5 8 61 -15 122 -25 64 -33 65 -33 4z"/>
<path d="M4830 164 c0 -8 95 -133 121 -159 7 -7 8 0 4 20 -7 28 -125 160 -125
139z"/>
<path d="M4960 93 c0 -52 9 -62 63 -72 26 -4 47 -8 48 -7 5 11 4 78 -2 81 -4
3 -16 -7 -27 -22 -25 -34 -47 -26 -56 21 -9 47 -26 46 -26 -1z"/>
<path d="M3040 96 c0 -8 -6 -16 -12 -19 -10 -3 -10 -7 -1 -19 7 -8 10 -18 6
-21 -3 -4 -1 -7 5 -7 7 0 12 16 12 40 0 22 -2 40 -5 40 -3 0 -5 -6 -5 -14z"/>
<path d="M2735 70 c-3 -5 7 -17 22 -27 15 -9 30 -19 33 -21 2 -1 -2 -7 -10
-12 -12 -8 -10 -10 8 -10 28 0 30 36 2 45 -11 3 -20 10 -20 15 0 12 -29 20
-35 10z"/>
<path d="M2350 30 c0 -6 7 -10 15 -10 8 0 15 2 15 4 0 2 -7 6 -15 10 -8 3 -15
1 -15 -4z"/>
<path d="M1320 22 c0 -5 9 -12 21 -15 13 -3 19 -1 16 6 -5 15 -37 22 -37 9z"/>
</g>
</svg>
