<?xml version="1.0" standalone="no"?>
<!DOCTYPE svg PUBLIC "-//W3C//DTD SVG 20010904//EN"
 "http://www.w3.org/TR/2001/REC-SVG-20010904/DTD/svg10.dtd">
<svg version="1.0" xmlns="http://www.w3.org/2000/svg"
 width="95.000000pt" height="1047.000000pt" viewBox="0 0 95.000000 1047.000000"
 preserveAspectRatio="xMidYMid meet">

<g transform="translate(0.000000,1047.000000) scale(0.100000,-0.100000)"
fill="#000000" stroke="none">
<path d="M0 10406 c0 -10 82 -191 91 -200 12 -13 12 -29 -1 -21 -16 10 -12 -1
27 -67 43 -72 85 -158 77 -158 -3 0 4 -15 16 -32 l22 -33 -24 28 c-12 15 -35
42 -50 60 -37 45 -45 28 -14 -30 31 -57 29 -73 -10 -116 -59 -64 -103 -140
-104 -179 0 -15 -4 -30 -10 -33 -13 -8 -13 -149 -1 -192 7 -24 6 -35 -5 -44
-9 -8 -14 -32 -14 -74 0 -57 3 -66 26 -84 36 -28 53 -27 26 2 -12 13 -22 33
-22 45 0 27 8 28 27 5 12 -16 13 -15 6 12 -6 27 -5 29 10 17 13 -11 15 -10 10
9 -5 19 -3 21 20 17 31 -6 35 8 11 38 -14 18 -15 18 -4 -3 10 -21 8 -23 -20
-23 -21 0 -29 4 -24 11 5 8 -1 10 -19 7 -18 -4 -24 -1 -20 9 3 7 9 13 15 13 5
0 6 5 3 11 -15 23 -22 128 -14 196 12 95 40 154 105 221 l54 56 23 -22 c13
-13 30 -35 38 -50 7 -15 20 -36 29 -46 12 -15 8 -15 -17 4 -18 13 -31 26 -28
29 2 4 -12 16 -31 29 -28 18 -34 19 -34 6 0 -20 55 -100 75 -107 8 -4 15 -11
15 -17 0 -8 -6 -8 -20 0 -37 20 -21 -9 22 -41 28 -19 51 -29 65 -26 16 3 23
-1 23 -10 0 -9 -6 -13 -14 -10 -15 6 -71 -31 -62 -40 3 -3 -6 -20 -19 -38 -14
-17 -22 -35 -19 -38 4 -3 -1 -13 -10 -22 -12 -12 -16 -13 -16 -3 -1 9 -4 8
-10 -3 -5 -9 -12 -50 -16 -90 -7 -92 -21 -139 -48 -163 -21 -19 -21 -19 12
-12 55 10 108 59 131 122 12 30 21 64 21 74 0 11 5 20 10 20 6 0 10 -4 10 -8
0 -13 47 -32 79 -32 19 0 32 -8 41 -26 12 -22 20 -25 50 -21 19 2 43 7 52 11
14 6 15 3 11 -16 -6 -20 -4 -21 9 -10 13 10 11 -3 -8 -65 -27 -86 -29 -103
-14 -103 6 0 10 6 10 14 0 8 9 43 20 78 21 69 50 108 80 108 18 0 19 -5 13
-47 -8 -60 -41 -126 -59 -119 -8 3 -13 0 -11 -7 1 -7 -4 -11 -11 -9 -8 1 -11
-2 -8 -7 8 -13 -60 -45 -79 -37 -8 3 -15 2 -15 -2 0 -4 -40 -7 -89 -7 -49 0
-85 3 -79 6 5 3 -3 6 -19 5 -15 0 -39 3 -52 8 -15 5 -21 5 -17 -2 13 -22 134
-45 206 -39 l69 6 -5 -32 -4 -32 14 35 14 35 1 -31 c1 -17 4 -46 7 -63 6 -28
4 -31 -20 -31 -22 0 -26 -4 -25 -27 1 -17 3 -21 6 -10 2 9 9 17 14 17 11 0 11
-3 -1 -36 -9 -22 -8 -25 3 -16 11 9 13 -10 10 -111 -7 -205 -3 -188 -48 -204
-291 -99 -456 -347 -415 -620 7 -42 21 -99 31 -126 10 -26 19 -50 19 -52 0 -3
-22 -5 -50 -5 -42 0 -50 -3 -50 -18 0 -13 17 -25 54 -41 29 -12 64 -34 77 -48
19 -21 20 -24 5 -16 -15 8 -27 6 -50 -8 -17 -10 -42 -19 -56 -19 l-25 -1 25
-14 c14 -8 49 -14 78 -15 29 0 69 -7 90 -16 l37 -16 -49 -25 c-28 -14 -58 -22
-70 -19 -20 5 -20 4 2 -14 13 -10 44 -21 70 -25 110 -13 166 -25 215 -48 l52
-24 -3 -51 -4 -52 34 -1 c18 0 41 -3 50 -7 10 -4 -31 -7 -90 -8 -76 0 -128 -7
-181 -22 -41 -11 -79 -18 -83 -16 -5 3 -8 2 -7 -3 1 -4 -3 -20 -9 -35 -6 -15
-13 -38 -14 -51 -2 -13 -12 -36 -22 -52 -17 -25 -17 -27 -1 -22 9 4 23 7 30 7
7 0 46 30 85 66 94 86 144 109 235 108 42 0 84 -7 105 -17 34 -16 34 -16 5
-10 -124 24 -196 7 -275 -64 -27 -25 -50 -51 -50 -59 0 -13 68 -54 88 -54 6 0
13 16 16 35 7 34 49 95 67 95 5 0 9 -7 9 -16 0 -10 6 -14 15 -10 22 8 26 -22
22 -156 -2 -65 -1 -115 2 -112 5 5 7 24 10 92 0 17 6 32 12 32 5 0 8 -4 5 -9
-3 -5 11 -12 32 -16 20 -3 48 -9 62 -11 20 -5 22 -3 10 5 -8 6 -27 11 -42 11
-15 0 -33 7 -42 15 -8 8 -19 15 -25 15 -7 0 -11 31 -11 85 l0 85 33 0 c75 0
181 -80 259 -196 55 -81 150 -286 161 -344 2 -14 5 0 6 30 1 43 -11 92 -53
217 -100 298 -97 410 13 459 40 17 41 19 41 66 0 26 -3 48 -7 48 -15 0 -78
-43 -99 -67 -40 -46 -57 -117 -51 -207 4 -60 3 -73 -5 -51 -15 49 -10 159 11
219 21 59 59 119 115 179 31 32 36 45 36 84 0 46 0 46 -19 27 -10 -10 -44 -43
-75 -73 -31 -30 -56 -61 -56 -70 0 -11 -4 -9 -16 7 -8 12 -30 29 -47 38 -18 9
-42 26 -54 37 -20 18 -23 18 -23 4 0 -9 5 -17 11 -17 5 0 7 -4 4 -10 -3 -5 2
-26 11 -46 10 -20 21 -53 25 -73 l7 -36 1 33 c0 18 -8 50 -19 72 -11 22 -20
42 -20 45 0 12 80 -36 94 -57 15 -21 14 -24 -8 -48 -13 -14 -26 -33 -29 -43
-4 -10 -11 -16 -16 -13 -5 4 -8 -37 -6 -97 2 -89 6 -108 30 -149 37 -66 24
-60 -22 9 -45 69 -128 151 -278 278 -211 178 -294 280 -346 432 -56 163 -24
348 83 486 44 55 56 45 14 -12 -38 -52 -76 -126 -76 -151 0 -8 16 17 35 55 44
90 102 156 179 205 33 22 55 40 48 40 -7 0 -30 -11 -50 -25 -40 -27 -69 -34
-37 -9 19 15 119 64 131 64 3 0 2 -4 -1 -10 -4 -6 5 -7 23 -4 28 6 29 4 25
-20 -3 -15 -1 -26 6 -26 5 0 8 7 5 15 -9 22 5 38 21 25 11 -9 12 -7 8 9 -3 11
1 21 9 24 7 2 3 2 -9 1 -12 -2 -25 0 -28 6 -3 5 -3 10 2 11 29 2 65 8 67 11 0
2 14 27 29 56 34 64 29 69 -7 7 -15 -25 -33 -45 -41 -45 -12 0 -14 21 -9 128
3 70 9 152 13 182 5 30 6 85 4 121 l-5 66 58 34 c32 18 82 43 112 55 29 11 56
25 60 29 4 5 1 5 -7 0 -10 -6 -12 -4 -6 4 4 7 15 11 24 8 9 -2 22 2 29 10 7 7
17 11 21 9 4 -3 8 1 8 9 0 10 -4 12 -13 5 -10 -9 -71 -29 -142 -47 -21 -5 -22
-3 -12 21 5 15 10 43 10 62 0 24 5 34 15 34 14 0 14 3 2 28 -16 30 -12 52 7
52 20 0 46 34 46 59 0 12 -11 33 -24 46 l-25 25 30 29 c18 18 29 40 29 56 0
22 3 26 18 20 9 -4 31 -13 47 -19 45 -17 55 -25 55 -47 0 -11 4 -18 9 -15 8 5
21 -48 21 -84 0 -13 -1 -13 -10 0 -12 19 -12 13 0 -29 5 -19 6 -39 2 -45 -9
-15 -11 -196 -2 -191 11 7 13 40 14 232 1 155 3 172 19 177 13 3 17 14 17 45
0 26 -5 41 -12 41 -10 0 -10 2 0 9 9 6 -4 15 -42 31 -31 12 -56 27 -56 34 1 6
19 29 40 51 28 29 36 43 29 52 -8 9 -4 14 15 19 17 4 26 13 26 25 0 32 -19 22
-80 -41 l-58 -60 -20 27 c-54 77 -67 146 -36 193 l16 25 -21 -24 c-12 -13 -21
-29 -21 -37 0 -8 -4 -14 -9 -14 -4 0 -12 32 -15 70 -4 40 -11 68 -17 65 -12
-8 -12 -101 1 -144 13 -47 7 -49 -19 -5 -30 50 -35 39 -11 -25 19 -53 19 -53
0 -48 -11 3 -18 1 -14 -4 3 -5 12 -9 20 -9 9 0 35 -16 59 -36 24 -20 49 -33
54 -29 7 4 8 -1 4 -11 -4 -12 -3 -15 5 -10 12 7 29 -20 20 -29 -4 -5 -22 9
-97 74 -21 18 -51 28 -51 18 0 -2 22 -19 50 -38 56 -38 62 -49 26 -49 -43 0
-36 -15 7 -17 64 -2 88 -8 137 -31 l45 -22 -35 4 c-19 2 -48 7 -65 10 -109 23
-139 27 -168 22 l-32 -6 35 14 c19 8 27 15 18 15 -24 1 -68 -20 -68 -33 -1 -6
-8 1 -16 17 -8 15 -20 27 -27 27 -16 0 -20 -40 -5 -57 7 -9 7 -18 -3 -29 -12
-15 -11 -16 9 -10 56 18 113 -25 97 -73 -9 -29 -23 -27 -18 3 6 27 -11 39 -64
49 -25 5 -33 3 -33 -8 0 -9 -6 -12 -15 -9 -11 5 -13 2 -9 -11 6 -15 4 -16 -14
-6 -20 11 -26 8 -24 -11 1 -3 -5 -9 -13 -12 -8 -3 -15 0 -15 7 0 7 -7 3 -15
-7 -11 -15 -18 -17 -26 -9 -8 8 -1 16 26 29 38 18 107 79 99 87 -3 2 -7 20 -9
39 -6 46 -26 97 -32 81 -7 -20 -22 -15 -16 6 3 10 -3 33 -12 51 l-17 33 40 -7
c22 -3 48 -9 58 -13 11 -4 15 -3 11 4 -4 6 -24 14 -44 18 -21 4 -41 11 -44 17
-3 5 -13 10 -22 12 -10 1 -23 10 -31 21 -12 17 -13 17 -18 -8 -3 -15 1 -39 9
-54 7 -15 12 -32 9 -39 -3 -7 4 -36 15 -64 11 -29 18 -54 16 -57 -5 -4 -51
115 -52 132 -1 26 -39 104 -48 98 -6 -3 -7 -1 -3 5 4 6 -5 29 -20 52 -27 41
-49 54 -40 23 3 -10 7 -29 10 -43 2 -14 9 -38 15 -53 15 -38 -3 -25 -19 13 -9
23 -15 28 -21 18 -6 -9 -9 -9 -9 -1 0 6 -3 20 -6 30 -5 15 -4 15 5 3 9 -13 11
-13 11 3 0 33 -80 172 -99 172 -6 0 -41 38 -79 85 -38 47 -76 86 -85 88 -9 2
-17 1 -17 -2z m110 -166 c6 -11 8 -20 6 -20 -3 0 -10 9 -16 20 -6 11 -8 20 -6
20 3 0 10 -9 16 -20z m89 -113 c11 12 15 13 22 1 5 -7 9 -17 9 -23 0 -5 -5 -3
-10 5 -8 12 -11 13 -22 2 -11 -11 -9 -16 6 -28 11 -8 15 -14 9 -14 -11 0 -73
65 -73 77 0 4 10 -3 23 -14 19 -19 24 -20 36 -6z m46 -46 c3 -5 1 -12 -5 -16
-5 -3 -10 1 -10 9 0 18 6 21 15 7z m10 -61 c-3 -4 2 -13 10 -20 12 -10 15 -10
15 1 1 19 15 -7 24 -41 5 -21 3 -20 -9 5 -8 17 -14 23 -15 15 0 -12 -4 -11
-15 4 -8 11 -15 16 -15 11 0 -5 -6 0 -14 11 -10 13 -11 21 -3 26 13 8 29 0 22
-12z m85 -13 c0 -5 -4 -5 -10 -2 -5 3 -10 14 -10 23 0 15 2 15 10 2 5 -8 10
-19 10 -23z m-120 -6 c0 -5 27 -37 60 -70 42 -41 66 -58 78 -55 13 4 14 3 4
-4 -11 -7 -8 -17 12 -47 24 -34 32 -55 22 -55 -2 0 -16 19 -31 43 -34 50 -75
91 -76 74 0 -7 -6 -1 -12 13 -6 14 -22 36 -35 50 -31 34 -46 60 -32 60 5 0 10
-4 10 -9z m137 -68 c18 -37 11 -39 -11 -3 -9 17 -14 30 -9 30 4 0 14 -12 20
-27z m49 -93 c2 -14 7 -31 9 -37 8 -24 -4 -13 -20 17 -8 16 -15 46 -14 67 l1
38 9 -30 c6 -16 12 -41 15 -55z m-89 -55 c15 -29 15 -29 -2 -15 -17 14 -17 13
-11 -10 6 -20 4 -19 -13 8 -12 18 -19 37 -16 42 3 4 -1 10 -9 13 -7 3 -16 15
-19 27 -5 21 -3 20 24 -6 17 -16 38 -42 46 -59z m14 42 c0 -4 8 -23 19 -42 22
-39 25 -49 11 -41 -5 4 -11 3 -14 -1 -2 -5 -2 -2 0 5 1 7 -4 26 -12 43 -9 16
-12 29 -8 29 5 0 1 5 -7 11 -10 7 -11 9 -2 7 8 -2 13 -7 13 -11z m249 -51 c0
-3 -4 -8 -10 -11 -5 -3 -10 -1 -10 4 0 6 5 11 10 11 6 0 10 -2 10 -4z m-113
-31 c21 -18 24 -24 12 -25 -9 0 -24 10 -33 23 l-17 22 6 -27 c2 -14 8 -33 11
-42 3 -9 1 -16 -5 -16 -6 0 -11 6 -11 13 0 8 -10 19 -22 25 -18 8 -19 11 -5
11 10 1 17 9 17 21 0 27 13 25 47 -5z m30 3 c-3 -8 -6 -5 -6 6 -1 11 2 17 5
13 3 -3 4 -12 1 -19z m319 -17 c71 -37 73 -42 17 -37 -29 3 -62 10 -72 16 -28
15 -49 14 -33 -2 14 -14 16 -48 2 -48 -5 0 -7 -7 -3 -16 4 -11 -1 -22 -12 -30
-26 -20 -37 -17 -24 4 14 23 4 85 -16 102 -8 7 -29 14 -47 16 -45 4 -46 5 -18
15 42 14 163 3 206 -20z m-429 -26 c11 -3 24 -13 27 -22 6 -14 4 -14 -17 0
-13 9 -36 14 -50 13 -18 -2 -24 1 -20 11 3 7 13 12 22 9 9 -2 26 -7 38 -11z
m-77 -25 c18 -12 2 -12 -25 0 -13 6 -15 9 -5 9 8 0 22 -4 30 -9z m75 -10 c3
-6 -1 -7 -9 -4 -18 7 -21 14 -7 14 6 0 13 -4 16 -10z m243 -23 c2 -11 -3 -17
-16 -17 -24 0 -32 8 -25 26 7 20 37 13 41 -9z m-238 -17 c0 -5 -4 -10 -9 -10
-6 0 -13 5 -16 10 -3 6 1 10 9 10 9 0 16 -4 16 -10z m175 0 c-3 -5 3 -20 14
-32 12 -12 21 -25 21 -29 0 -4 22 -15 49 -24 49 -16 61 -29 61 -65 0 -31 -18
-32 -36 -1 -9 16 -33 36 -53 46 -35 17 -35 16 12 -25 26 -23 47 -46 47 -51 0
-6 -4 -8 -9 -5 -5 3 -11 -7 -14 -22 -12 -58 -97 -66 -124 -11 l-13 24 0 -27
c0 -15 5 -30 10 -33 19 -12 10 -25 -19 -25 -43 0 -54 20 -36 64 12 27 14 49 8
78 -8 39 -9 40 -25 25 -9 -10 -23 -17 -31 -17 -19 0 -40 26 -32 40 9 15 26 12
39 -6 11 -14 13 -13 29 4 14 15 14 19 2 19 -8 0 -11 -5 -8 -11 3 -6 2 -7 -2
-3 -22 20 -12 33 24 29 28 -3 33 -1 21 8 -12 9 -11 10 6 5 18 -4 22 0 27 25 4
18 13 30 22 30 9 0 13 -4 10 -10z m-132 -35 c-55 -24 -70 -90 -23 -102 27 -7
26 -23 -1 -23 -28 0 -48 27 -49 65 0 37 9 51 40 64 41 16 70 13 33 -4z m-82
-22 c-22 -42 -28 -63 -31 -113 -1 -19 -4 -29 -7 -22 -7 18 -23 15 -23 -5 0
-10 -9 -36 -19 -58 l-18 -40 -8 28 c-16 61 26 176 78 212 29 20 39 19 28 -2z
m333 -214 c-6 -11 -24 -2 -24 11 0 5 7 7 15 4 8 -4 12 -10 9 -15z m-307 -255
c-3 -3 -12 -4 -19 -1 -8 3 -5 6 6 6 11 1 17 -2 13 -5z m66 -1 c-7 -2 -19 -2
-25 0 -7 3 -2 5 12 5 14 0 19 -2 13 -5z m27 -533 c0 -5 -4 -10 -10 -10 -5 0
-10 5 -10 10 0 6 5 10 10 10 6 0 10 -4 10 -10z m-200 -109 c-11 -22 -29 -35
-36 -28 -7 6 27 47 39 47 4 0 3 -9 -3 -19z m293 -1116 c32 -25 55 -50 52 -54
-3 -5 2 -12 11 -15 9 -4 15 -9 12 -11 -2 -3 -22 4 -44 15 -26 14 -31 19 -14
15 22 -4 22 -4 5 5 -11 5 -37 16 -57 24 -30 12 -38 20 -38 40 0 15 3 26 8 26
4 0 33 -20 65 -45z m244 -227 c-3 -8 -6 -5 -6 6 -1 11 2 17 5 13 3 -3 4 -12 1
-19z m1 -53 c-3 -3 -9 2 -12 12 -6 14 -5 15 5 6 7 -7 10 -15 7 -18z m40 -70
c-3 -3 -9 2 -12 12 -6 14 -5 15 5 6 7 -7 10 -15 7 -18z m36 -81 c3 -8 2 -12
-4 -9 -6 3 -10 10 -10 16 0 14 7 11 14 -7z"/>
<path d="M280 9801 c0 -6 4 -12 8 -15 5 -3 9 1 9 9 0 8 -4 15 -9 15 -4 0 -8
-4 -8 -9z"/>
<path d="M540 9591 c0 -6 4 -13 10 -16 6 -3 7 1 4 9 -7 18 -14 21 -14 7z"/>
<path d="M525 9560 c3 -5 8 -10 11 -10 2 0 4 5 4 10 0 6 -5 10 -11 10 -5 0 -7
-4 -4 -10z"/>
<path d="M590 10340 c-11 -11 -20 -29 -20 -40 0 -21 33 -60 50 -60 6 0 10 8
10 19 0 40 61 56 68 17 2 -10 -6 -28 -18 -41 l-21 -23 26 -6 c14 -4 31 -4 37
0 7 4 8 3 4 -4 -10 -16 8 -45 30 -48 11 -2 33 -6 49 -9 23 -4 20 -2 -10 9 -22
9 -41 16 -43 16 -2 0 0 19 3 43 7 47 -6 91 -37 125 -29 30 -99 31 -128 2z m70
-8 c0 -9 -9 -23 -20 -29 -17 -11 -18 -10 -13 5 7 18 23 42 29 42 2 0 4 -8 4
-18z"/>
<path d="M640 10175 c0 -8 -8 -14 -17 -13 -40 3 -93 -3 -93 -10 0 -5 15 -7 33
-5 17 2 44 4 60 3 21 0 27 4 27 20 0 11 -2 20 -5 20 -3 0 -5 -7 -5 -15z"/>
<path d="M837 10130 c-9 -11 -13 -20 -8 -20 4 0 16 9 26 20 10 11 14 20 9 20
-5 0 -17 -9 -27 -20z"/>
<path d="M785 10100 c-3 -6 1 -7 9 -4 18 7 21 14 7 14 -6 0 -13 -4 -16 -10z"/>
<path d="M560 9960 c34 -11 60 -11 35 0 -11 5 -29 8 -40 8 -16 0 -15 -2 5 -8z"/>
<path d="M580 9931 c0 -8 62 -32 68 -27 4 5 -37 29 -55 32 -7 1 -13 -1 -13 -5z"/>
<path d="M275 9620 c3 -5 10 -10 16 -10 5 0 9 5 9 10 0 6 -7 10 -16 10 -8 0
-12 -4 -9 -10z"/>
<path d="M790 9609 c0 -5 5 -7 10 -4 6 3 10 8 10 11 0 2 -4 4 -10 4 -5 0 -10
-5 -10 -11z"/>
<path d="M775 9570 c3 -5 8 -10 11 -10 2 0 4 5 4 10 0 6 -5 10 -11 10 -5 0 -7
-4 -4 -10z"/>
<path d="M845 9317 c-20 -20 -20 -20 3 -8 19 10 22 9 23 -6 0 -10 3 -13 5 -6
3 7 2 19 -3 26 -7 12 -12 11 -28 -6z"/>
<path d="M924 9262 c-14 -26 -26 -37 -42 -36 -18 1 -21 -3 -16 -25 5 -21 3
-23 -6 -11 -10 13 -11 13 -6 -2 2 -9 -8 -41 -24 -70 -32 -57 -40 -84 -15 -52
17 22 20 12 4 -17 -6 -11 -15 -17 -22 -12 -8 4 -7 1 1 -9 11 -14 10 -21 -5
-44 -15 -24 -18 -25 -22 -9 -2 12 -16 -6 -42 -56 -43 -81 -50 -102 -18 -51 12
18 24 30 27 28 8 -8 -48 -87 -57 -81 -5 2 -17 -8 -26 -23 l-18 -27 21 19 c12
11 22 14 22 9 0 -6 -7 -16 -15 -23 -8 -6 -17 -22 -21 -33 -4 -12 -24 -52 -44
-89 -21 -36 -36 -69 -32 -72 3 -3 1 -6 -5 -6 -6 0 -14 -17 -18 -37 -4 -21 -10
-42 -13 -48 -15 -23 -29 -75 -26 -99 1 -14 -4 -38 -11 -53 -8 -15 -11 -32 -7
-37 11 -15 2 -127 -8 -121 -5 3 -12 0 -16 -6 -4 -8 -3 -9 4 -5 15 9 14 20 16
-172 1 -150 3 -165 20 -178 12 -8 15 -14 7 -14 -20 0 -54 42 -40 50 7 5 4 13
-8 25 -10 10 -28 34 -40 54 -12 20 -22 32 -22 26 0 -5 6 -19 14 -29 26 -34 16
-43 -11 -11 l-26 30 17 -30 c10 -16 28 -44 41 -62 13 -17 24 -43 24 -57 0 -15
6 -26 14 -26 10 0 13 -19 11 -82 -3 -116 -2 -110 -25 -96 -24 15 -45 66 -54
131 -4 26 -11 47 -17 47 -5 0 -9 -4 -9 -9 0 -5 -6 -11 -14 -14 -11 -4 -13 3
-11 31 1 20 -4 50 -12 66 -14 28 -16 28 -26 10 -5 -10 -20 -31 -33 -46 -22
-27 -22 -27 -28 -5 -3 12 -6 38 -7 57 0 32 -17 88 -18 65 -1 -5 -12 -22 -24
-37 l-24 -28 -27 55 c-34 70 -46 133 -41 226 l3 74 -13 -50 c-49 -191 68 -451
284 -627 42 -34 114 -96 160 -137 47 -42 87 -76 90 -77 3 0 14 -4 24 -9 15 -6
15 -10 5 -24 -11 -14 -11 -14 4 -3 15 12 15 15 -2 45 -11 18 -53 70 -95 117
l-75 85 0 128 c0 70 2 127 5 127 3 0 16 -6 28 -14 37 -23 122 -38 209 -36 46
1 103 -1 128 -5 38 -6 48 -4 63 13 18 20 18 20 -2 27 -26 8 -27 21 -1 37 11 7
20 17 20 22 0 6 -5 5 -12 -2 -7 -7 -18 -12 -25 -12 -22 0 -14 20 12 32 14 6
25 19 25 30 0 14 -8 18 -41 18 -53 0 -109 -51 -109 -99 0 -39 -22 -51 -93 -51
-41 0 -56 4 -61 16 -5 12 -15 14 -44 10 -25 -4 -45 -1 -62 10 -17 10 -19 13
-5 9 49 -17 56 -14 15 7 l-45 23 -1 145 c0 80 2 190 5 245 l6 100 31 3 c57 6
85 -51 36 -73 -12 -5 -22 -19 -22 -30 0 -29 28 -65 51 -65 16 0 19 -7 19 -40
0 -53 21 -101 55 -128 37 -29 60 -27 119 7 46 27 47 30 28 40 -13 7 -38 9 -62
5 -51 -8 -53 9 -6 65 19 22 36 46 38 52 3 9 9 9 25 0 40 -21 53 -14 53 29 0
53 -34 141 -68 173 -58 55 -170 75 -246 43 -21 -9 -40 -16 -43 -16 -8 0 9 76
29 129 12 29 21 60 21 67 0 19 115 19 189 -1 62 -16 107 -16 125 1 6 6 23 9
37 7 20 -4 26 -1 26 11 0 10 -4 15 -9 12 -5 -3 -11 8 -13 26 -5 28 -4 29 9 13
12 -18 13 -17 13 5 0 37 -32 128 -52 150 -17 18 -18 22 -4 36 18 17 21 28 6
19 -5 -3 -10 -2 -10 4 0 5 5 13 10 16 6 3 7 17 4 31 -3 13 -2 24 4 24 16 0 30
-23 35 -55 2 -17 4 -7 4 23 0 45 -2 52 -19 52 -11 0 -16 5 -13 11 4 6 13 8 21
5 8 -3 14 -1 14 4 0 17 -46 11 -70 -10 -13 -11 -27 -20 -32 -20 -5 0 -6 -4 -3
-10 3 -5 -3 -10 -13 -10 -24 0 -44 -22 -34 -36 4 -6 17 -16 29 -22 17 -10 21
-20 21 -57 -1 -36 5 -53 30 -84 18 -22 34 -57 38 -80 l7 -41 -49 -1 c-27 -1
-56 -1 -66 0 -9 1 -19 -3 -22 -8 -4 -6 -13 -8 -21 -5 -8 4 -13 10 -10 14 6 10
-69 22 -89 14 -9 -3 -23 -1 -31 6 -12 10 -15 10 -15 -1 0 -9 -3 -10 -11 -2 -8
8 10 45 63 134 106 177 140 243 182 347 21 51 51 115 68 143 17 27 29 51 26
54 -2 3 -13 -12 -24 -33z m-78 -158 c-4 -9 -9 -15 -11 -12 -3 3 -3 13 1 22 4
9 9 15 11 12 3 -3 3 -13 -1 -22z m-86 -174 c-6 -12 -14 -19 -17 -17 -2 3 1 15
7 27 6 12 14 19 17 17 2 -3 -1 -15 -7 -27z m110 -40 c0 -12 -17 -12 -45 0 -17
7 -15 9 13 9 17 1 32 -3 32 -9z m-133 -545 c51 -34 77 -154 37 -169 -13 -5
-16 0 -12 29 2 19 0 35 -4 35 -4 0 -8 13 -8 28 0 59 -105 121 -165 98 -14 -5
-12 -10 12 -32 l28 -26 -27 16 c-15 9 -34 16 -43 16 -18 0 -20 16 -3 26 42 26
128 16 185 -21z m-67 -10 c35 -18 50 -44 49 -82 -1 -17 -3 -21 -6 -10 -2 9 -8
15 -12 12 -5 -2 -13 13 -19 34 -7 22 -21 42 -34 49 -13 6 -19 11 -15 11 4 1
21 -6 37 -14z m23 -114 c-4 -3 -14 -18 -20 -33 -9 -20 -17 -25 -32 -21 -12 3
-21 10 -21 17 0 6 -4 6 -9 -3 -6 -9 -11 -10 -15 -2 -7 10 5 15 29 12 6 0 22
10 35 23 14 13 29 21 34 18 4 -2 4 -7 -1 -11z m35 -111 c-15 -24 -22 -19 -13
9 3 12 11 19 16 16 5 -4 3 -14 -3 -25z m-268 -252 c0 -6 -7 -5 -15 2 -8 7 -15
17 -15 22 0 6 7 5 15 -2 8 -7 15 -17 15 -22z m475 22 c-3 -6 -11 -8 -16 -5 -5
4 -9 1 -9 -5 0 -6 -4 -9 -10 -5 -11 7 -40 -46 -40 -75 0 -12 -4 -18 -10 -15
-16 10 -12 35 12 68 l23 32 -34 -24 c-31 -23 -32 -23 -20 -2 8 11 19 21 26 21
7 0 13 4 13 8 0 4 16 9 36 10 23 2 33 -1 29 -8z m-664 -153 c12 -23 33 -58 47
-77 16 -21 19 -29 8 -20 -20 16 -96 129 -96 143 0 17 21 -6 41 -46z m356 37
c-3 -3 -12 -4 -19 -1 -8 3 -5 6 6 6 11 1 17 -2 13 -5z m-309 -39 c-3 -3 -9 2
-12 12 -6 14 -5 15 5 6 7 -7 10 -15 7 -18z m134 -199 c38 -42 74 -76 80 -76 5
0 -20 32 -56 71 -37 40 -65 74 -62 76 2 2 28 -22 59 -54 169 -179 195 -210
173 -210 -19 0 -247 223 -284 278 -17 25 -34 59 -37 75 -4 21 3 12 25 -28 18
-31 64 -91 102 -132z"/>
<path d="M540 7444 c0 -5 23 -31 52 -59 49 -47 50 -48 21 -10 -36 47 -73 82
-73 69z"/>
<path d="M743 9279 c-18 -5 -35 -14 -38 -19 -5 -8 83 17 94 26 7 7 -23 3 -56
-7z"/>
<path d="M531 9254 c0 -11 3 -14 6 -6 3 7 2 16 -1 19 -3 4 -6 -2 -5 -13z"/>
<path d="M76 9245 c3 -11 7 -26 7 -32 0 -7 4 -13 9 -13 12 0 9 11 -8 40 -10
17 -13 18 -8 5z"/>
<path d="M102 9170 c0 -14 2 -19 5 -12 2 6 2 18 0 25 -3 6 -5 1 -5 -13z"/>
<path d="M186 9165 c17 -25 26 -30 37 -19 6 6 -35 44 -47 44 -4 0 1 -11 10
-25z"/>
<path d="M511 9174 c0 -11 3 -14 6 -6 3 7 2 16 -1 19 -3 4 -6 -2 -5 -13z"/>
<path d="M505 9140 c-3 -5 -1 -10 4 -10 6 0 11 5 11 10 0 6 -2 10 -4 10 -3 0
-8 -4 -11 -10z"/>
<path d="M108 9083 c-1 -27 -2 -65 -4 -85 -1 -21 2 -38 8 -38 5 0 7 -4 4 -9
-9 -15 28 -38 57 -36 31 2 47 19 47 50 -1 17 -3 16 -18 -7 -20 -33 -35 -35
-62 -8 -21 21 -23 30 -20 123 1 31 -1 57 -4 57 -3 0 -7 -21 -8 -47z"/>
<path d="M216 9047 c3 -10 9 -15 12 -12 3 3 0 11 -7 18 -10 9 -11 8 -5 -6z"/>
<path d="M615 8990 c4 -6 11 -8 16 -5 14 9 11 15 -7 15 -8 0 -12 -5 -9 -10z"/>
<path d="M334 8894 c23 -22 38 -53 31 -64 -3 -5 -1 -11 5 -15 17 -11 11 28
-10 63 -11 17 -25 32 -31 32 -6 0 -3 -7 5 -16z"/>
<path d="M936 8797 c3 -10 9 -15 12 -12 3 3 0 11 -7 18 -10 9 -11 8 -5 -6z"/>
<path d="M81 8783 c-18 -35 -30 -96 -24 -124 9 -45 23 -23 22 34 -1 29 4 64
10 80 12 30 7 37 -8 10z"/>
<path d="M492 8775 c0 -16 2 -22 5 -12 2 9 2 23 0 30 -3 6 -5 -1 -5 -18z"/>
<path d="M173 8728 c-22 -24 -48 -57 -58 -75 -10 -18 -22 -30 -26 -28 -4 3
-12 -2 -19 -10 -9 -10 -9 -15 -1 -15 6 0 11 -9 11 -19 0 -11 10 -32 23 -46
l22 -26 0 69 c0 68 1 71 47 131 27 33 47 61 45 61 -2 0 -21 -19 -44 -42z"/>
<path d="M430 8729 c0 -3 5 -21 11 -39 10 -28 13 -30 22 -15 7 13 4 22 -12 38
-11 12 -21 19 -21 16z"/>
<path d="M491 8718 c0 -9 -4 -25 -7 -35 -5 -17 -5 -17 6 0 6 10 9 25 7 35 -4
15 -5 15 -6 0z"/>
<path d="M845 8550 c3 -5 11 -10 16 -10 6 0 7 5 4 10 -3 6 -11 10 -16 10 -6 0
-7 -4 -4 -10z"/>
<path d="M890 8531 c0 -9 30 -24 36 -18 2 1 -6 8 -16 15 -11 7 -20 8 -20 3z"/>
<path d="M941 8484 c0 -11 3 -14 6 -6 3 7 2 16 -1 19 -3 4 -6 -2 -5 -13z"/>
<path d="M800 8420 c0 -5 5 -10 11 -10 5 0 7 5 4 10 -3 6 -8 10 -11 10 -2 0
-4 -4 -4 -10z"/>
<path d="M470 8370 c0 -11 4 -20 9 -20 5 0 7 9 4 20 -3 11 -7 20 -9 20 -2 0
-4 -9 -4 -20z"/>
<path d="M417 8298 c-31 -42 -57 -93 -57 -113 0 -17 -16 -20 -25 -5 -3 6 -16
10 -28 10 -19 -1 -19 -2 6 -13 16 -7 28 -15 27 -20 -4 -18 13 -87 20 -87 5 0
12 -17 15 -37 8 -48 14 -67 20 -61 9 8 -21 139 -29 131 -5 -5 -6 0 -3 10 4 10
7 21 7 23 0 3 4 3 8 0 4 -2 14 14 21 38 6 23 23 55 36 71 21 26 26 28 36 15 9
-13 10 -12 5 3 -3 10 -6 30 -6 43 0 34 -24 30 -53 -8z"/>
<path d="M198 8219 c-21 -12 -23 -40 -6 -57 19 -19 30 -14 17 7 -14 22 -5 56
12 45 8 -4 9 -3 5 4 -8 14 -7 14 -28 1z"/>
<path d="M566 8082 c-3 -5 1 -9 9 -9 8 0 12 4 9 9 -3 4 -7 8 -9 8 -2 0 -6 -4
-9 -8z"/>
<path d="M326 8055 c24 -39 24 -40 24 -28 0 6 -9 21 -21 34 l-20 24 17 -30z"/>
<path d="M461 7994 c0 -11 3 -14 6 -6 3 7 2 16 -1 19 -3 4 -6 -2 -5 -13z"/>
<path d="M360 7971 c0 -5 5 -13 10 -16 6 -3 10 -2 10 4 0 5 -4 13 -10 16 -5 3
-10 2 -10 -4z"/>
<path d="M463 7925 c0 -22 2 -30 4 -17 2 12 2 30 0 40 -3 9 -5 -1 -4 -23z"/>
<path d="M651 7933 c7 -10 15 -20 16 -22 2 -2 3 3 3 11 0 9 -7 19 -16 22 -15
6 -15 4 -3 -11z"/>
<path d="M746 7768 c3 -4 11 -5 19 -1 21 7 19 12 -4 10 -11 0 -18 -5 -15 -9z"/>
<path d="M463 7680 c0 -25 2 -35 4 -22 2 12 2 32 0 45 -2 12 -4 2 -4 -23z"/>
<path d="M862 7688 c6 -18 28 -21 28 -4 0 9 -7 16 -16 16 -9 0 -14 -5 -12 -12z"/>
<path d="M780 7586 c0 -8 4 -17 9 -20 5 -4 7 3 4 14 -6 23 -13 26 -13 6z"/>
<path d="M133 7368 c-18 -24 -22 -46 -10 -62 11 -13 19 -13 72 -1 33 8 94 15
135 16 l75 2 -92 7 c-66 6 -103 14 -129 29 -41 25 -39 24 -51 9z"/>
<path d="M900 7320 c-8 -15 -6 -24 10 -40 11 -11 25 -20 31 -20 7 0 0 9 -14
20 -29 23 -26 55 4 47 11 -3 19 -1 19 4 0 17 -39 9 -50 -11z"/>
<path d="M690 7281 c0 -5 5 -13 10 -16 6 -3 10 -2 10 4 0 5 -4 13 -10 16 -5 3
-10 2 -10 -4z"/>
<path d="M75 7240 c-3 -5 -1 -10 4 -10 6 0 11 5 11 10 0 6 -2 10 -4 10 -3 0
-8 -4 -11 -10z"/>
<path d="M914 7239 c-17 -5 -38 -17 -45 -26 -13 -16 -13 -16 11 0 13 9 32 17
42 17 9 0 20 5 23 10 3 6 5 10 3 9 -2 0 -17 -5 -34 -10z"/>
<path d="M54 7140 c4 -38 -13 -62 -35 -50 -10 6 -14 2 -15 -16 -2 -19 4 -26
25 -30 14 -3 34 -8 44 -11 19 -5 117 24 117 35 0 4 -20 7 -45 8 -37 1 -42 -1
-28 -11 13 -10 9 -12 -26 -11 -22 1 -41 4 -41 9 0 4 0 11 0 16 0 5 10 7 23 3
20 -5 21 -4 8 11 -7 10 -17 32 -22 50 l-8 32 3 -35z"/>
<path d="M442 7135 c-1 -19 2 -35 6 -35 8 0 8 58 0 66 -3 2 -5 -12 -6 -31z"/>
<path d="M898 7126 c-39 -45 -39 -46 11 -106 16 -19 33 -31 38 -26 4 5 3 11
-4 13 -22 8 -63 71 -57 87 9 25 25 19 19 -7 -4 -15 1 -30 15 -45 11 -12 23
-22 25 -22 2 0 4 25 4 55 0 51 -2 54 -20 45 -26 -15 -25 5 2 23 11 8 17 17 12
20 -4 2 -24 -14 -45 -37z"/>
<path d="M215 7100 c-10 -11 -16 -20 -13 -20 3 0 15 9 28 20 13 11 19 20 13
20 -5 0 -18 -9 -28 -20z"/>
<path d="M418 7023 c6 -2 18 -2 25 0 6 3 1 5 -13 5 -14 0 -19 -2 -12 -5z"/>
<path d="M285 7010 c-3 -6 1 -7 9 -4 18 7 21 14 7 14 -6 0 -13 -4 -16 -10z"/>
<path d="M340 7010 c-12 -8 -12 -10 5 -9 11 0 29 4 40 9 18 8 18 9 -5 9 -14 0
-32 -4 -40 -9z"/>
<path d="M442 6980 c0 -19 2 -27 5 -17 2 9 2 25 0 35 -3 9 -5 1 -5 -18z"/>
<path d="M261 6980 c-24 -11 -49 -20 -55 -19 -26 3 -41 -1 -29 -9 7 -4 -14
-28 -59 -66 -38 -32 -67 -60 -64 -63 3 -3 25 13 49 36 56 53 77 68 157 108 71
36 72 45 1 13z"/>
<path d="M630 6996 c0 -2 18 -13 40 -24 48 -24 52 -19 8 8 -32 19 -48 25 -48
16z"/>
<path d="M525 6961 c-15 -20 -15 -23 -2 -12 21 17 22 2 2 -25 -8 -10 -15 -23
-15 -28 0 -11 35 34 42 55 11 30 -7 37 -27 10z"/>
<path d="M724 6961 c0 -11 20 -36 42 -55 49 -42 109 -129 135 -195 10 -25 18
-39 19 -31 0 25 -65 152 -94 182 -14 15 -26 33 -26 40 0 7 19 -7 41 -32 29
-32 35 -36 20 -13 -21 31 -119 123 -132 123 -3 0 -6 -9 -5 -19z m51 -27 l30
-25 -35 15 c-19 8 -36 19 -38 25 -6 18 11 12 43 -15z"/>
<path d="M244 6917 c3 -10 14 -47 23 -82 9 -35 20 -62 24 -59 4 2 11 -1 15 -7
4 -8 3 -9 -4 -5 -8 5 -12 0 -12 -14 0 -13 9 -24 25 -30 38 -14 30 -21 -15 -14
-35 6 -40 4 -41 -12 0 -11 -3 -14 -6 -6 -2 6 -9 10 -13 7 -5 -3 -27 19 -50 49
-22 31 -49 60 -59 65 -16 9 -15 2 11 -60 l29 -70 -21 -36 c-15 -25 -18 -39
-11 -46 16 -16 13 -23 -7 -24 -15 -1 -17 4 -14 28 4 26 1 29 -21 29 -14 0 -28
-6 -30 -12 -4 -10 -6 -10 -6 -1 -1 16 -61 48 -61 33 0 -35 89 -114 116 -103 9
3 14 -1 14 -12 0 -10 -5 -13 -12 -9 -8 5 -9 2 -5 -10 4 -10 7 -22 7 -27 0 -4
12 -4 28 2 24 9 25 9 12 -5 -8 -8 -26 -17 -40 -18 -22 -3 -25 0 -22 26 3 27 2
28 -15 15 -62 -49 -108 -122 -66 -104 73 32 136 49 140 38 2 -7 12 -9 21 -6
11 3 13 2 6 -4 -17 -12 -65 -93 -74 -122 -4 -14 -11 -34 -15 -44 -4 -10 18 7
48 37 59 57 123 88 137 66 4 -6 10 -11 14 -11 22 3 27 -2 24 -24 -4 -31 -68
-79 -68 -51 0 9 6 16 14 16 8 0 14 10 14 25 0 62 -32 1 -62 -117 -8 -32 -11
-58 -7 -58 4 0 22 21 38 48 17 26 42 57 56 70 l24 23 36 -36 c19 -19 42 -35
51 -35 13 0 16 -13 16 -72 0 -39 3 -69 6 -66 3 4 5 31 5 62 0 31 4 58 8 61 5
2 7 -19 7 -47 -2 -50 -2 -51 10 -22 7 16 10 39 8 50 -4 15 5 33 26 57 40 46
40 104 1 124 -22 10 -27 9 -39 -8 -10 -15 -17 -18 -25 -10 -16 16 -10 84 8 94
8 4 13 13 9 19 -4 6 2 8 17 3 19 -5 21 -4 9 4 -13 9 -13 11 3 11 9 0 17 -4 17
-9 0 -6 9 -8 19 -6 11 2 25 -2 31 -9 8 -11 4 -13 -20 -10 -19 2 -29 0 -25 -6
3 -6 -1 -10 -9 -10 -9 0 -16 5 -16 10 0 7 -6 7 -20 0 -27 -15 -26 -40 3 -39
17 1 18 2 4 6 -9 2 -15 9 -12 13 3 5 16 5 30 0 18 -7 28 -5 41 7 13 13 17 14
24 3 12 -19 25 34 14 57 -11 26 -13 53 -2 53 5 0 4 9 -2 20 -7 14 -7 20 0 20
5 0 9 15 9 33 -2 31 -2 31 -6 4 -3 -17 -14 -32 -28 -39 -14 -6 -22 -14 -20
-19 3 -4 -2 -14 -10 -22 -13 -14 -13 -16 1 -19 10 -2 -1 -12 -29 -25 l-45 -22
1 35 c1 36 -21 70 -30 47 -6 -17 -21 -16 -39 1 -17 18 -18 36 -1 37 6 0 26 3
42 5 17 3 37 6 46 5 11 0 15 8 13 27 -4 36 31 70 56 54 25 -15 60 24 60 65 0
35 -38 73 -72 73 -17 0 -19 5 -13 33 l6 32 -15 -32 c-22 -48 -35 -40 -39 25
l-3 57 -2 -60 c-2 -54 -5 -63 -33 -88 -37 -32 -45 -29 -95 48 -44 66 -78 106
-70 82z m228 -147 c3 -16 1 -30 -4 -30 -4 0 -17 -9 -28 -20 -22 -22 -27 -69
-8 -88 6 -6 10 -13 7 -15 -7 -7 -79 5 -79 12 0 4 13 6 30 3 l30 -4 -13 38
c-15 45 -10 85 15 114 25 29 45 25 50 -10z m23 10 c3 -5 1 -10 -4 -10 -6 0
-11 5 -11 10 0 6 2 10 4 10 3 0 8 -4 11 -10z m-120 -70 c3 -5 1 -10 -4 -10 -6
0 -11 5 -11 10 0 6 2 10 4 10 3 0 8 -4 11 -10z m-60 -50 c-5 -8 -11 -8 -17 -2
-6 6 -7 16 -3 22 5 8 11 8 17 2 6 -6 7 -16 3 -22z m59 15 c-4 -8 -10 -15 -15
-15 -5 0 -9 7 -9 15 0 8 7 15 15 15 9 0 12 -6 9 -15z m-146 -4 c10 -6 9 -10
-7 -14 -14 -3 -21 0 -21 9 0 16 9 18 28 5z m-44 -26 c-6 -16 -24 -21 -24 -7 0
11 11 22 21 22 5 0 6 -7 3 -15z m75 -14 c-15 -5 -22 6 -14 19 6 9 10 9 16 -1
5 -8 4 -15 -2 -18z m-33 -17 c-3 -9 -6 -18 -6 -20 0 -2 -7 -4 -15 -4 -13 0
-14 4 -5 20 13 24 35 27 26 4z m113 3 c-9 -7 -19 -23 -24 -37 -4 -14 -13 -35
-21 -47 -8 -13 -10 -23 -5 -23 5 0 11 -7 15 -15 4 -12 2 -13 -14 -3 -20 13
-32 49 -27 82 5 25 44 56 71 56 19 -1 19 -2 5 -13z m-134 -57 c4 -6 1 -18 -6
-26 -11 -14 -13 -14 -21 0 -15 26 12 51 27 26z m341 -16 c-3 -9 -6 -21 -6 -27
0 -7 -5 -4 -11 6 -11 18 -5 37 13 37 5 0 7 -7 4 -16z m-327 -66 c1 -5 -6 -8
-14 -8 -15 0 -21 31 -8 44 7 6 20 -17 22 -36z m187 -50 c-19 -27 -20 -58 -4
-93 9 -21 9 -28 -1 -35 -11 -6 -9 -10 5 -19 11 -7 12 -10 4 -7 -8 3 -23 9 -32
12 -9 3 -22 21 -28 39 -12 38 1 79 34 107 29 24 40 22 22 -4z m-161 2 c3 -5
-1 -10 -9 -10 -9 0 -16 5 -16 10 0 6 4 10 9 10 6 0 13 -4 16 -10z m49 -15 c-4
-8 -10 -15 -15 -15 -5 0 -9 7 -9 15 0 8 7 15 15 15 9 0 12 -6 9 -15z m40 -10
c-4 -8 -10 -12 -15 -9 -14 8 -10 24 6 24 9 0 12 -6 9 -15z m-114 -26 c0 -6
-62 -19 -67 -15 -2 1 5 12 14 23 14 17 20 19 35 9 10 -6 18 -14 18 -17z"/>
<path d="M683 6800 c0 -25 2 -35 4 -22 2 12 2 32 0 45 -2 12 -4 2 -4 -23z"/>
<path d="M611 6804 c0 -11 3 -14 6 -6 3 7 2 16 -1 19 -3 4 -6 -2 -5 -13z"/>
<path d="M30 6799 c0 -5 5 -7 10 -4 6 3 10 8 10 11 0 2 -4 4 -10 4 -5 0 -10
-5 -10 -11z"/>
<path d="M7 6773 c-4 -3 -7 -11 -7 -17 0 -6 5 -5 12 2 6 6 9 14 7 17 -3 3 -9
2 -12 -2z"/>
<path d="M637 6741 c-4 -17 -3 -21 5 -13 5 5 8 16 6 23 -3 8 -7 3 -11 -10z"/>
<path d="M661 6700 c0 -19 4 -42 9 -50 7 -11 10 -8 9 15 0 17 -4 39 -9 50 -7
16 -9 14 -9 -15z"/>
<path d="M630 6695 c0 -8 4 -15 10 -15 5 0 7 7 4 15 -4 8 -8 15 -10 15 -2 0
-4 -7 -4 -15z"/>
<path d="M710 6694 c0 -13 18 -39 24 -34 2 3 -2 14 -10 24 -8 11 -14 16 -14
10z"/>
<path d="M800 6681 c0 -5 5 -13 10 -16 6 -3 10 -2 10 4 0 5 -4 13 -10 16 -5 3
-10 2 -10 -4z"/>
<path d="M641 6644 c0 -11 3 -14 6 -6 3 7 2 16 -1 19 -3 4 -6 -2 -5 -13z"/>
<path d="M746 6637 c3 -10 9 -15 12 -12 3 3 0 11 -7 18 -10 9 -11 8 -5 -6z"/>
<path d="M763 6603 c4 -3 2 -12 -4 -20 -9 -9 -8 -13 0 -13 6 0 11 2 11 4 0 2
3 11 6 20 4 10 1 16 -7 16 -7 0 -9 -3 -6 -7z"/>
<path d="M665 6591 c-3 -6 -2 -18 3 -27 7 -13 10 -13 20 -1 10 11 9 17 -2 26
-10 8 -16 9 -21 2z"/>
<path d="M804 6589 c-3 -6 -2 -15 3 -20 5 -5 9 -1 10 11 2 22 -2 25 -13 9z"/>
<path d="M711 6551 c-8 -5 -11 -16 -8 -25 4 -9 1 -16 -6 -16 -9 0 -9 -2 1 -8
8 -5 10 -16 6 -27 -5 -13 -4 -16 4 -11 8 5 10 1 5 -10 -5 -13 -3 -15 7 -9 10
6 12 4 8 -7 -4 -8 -2 -21 3 -29 5 -9 8 13 8 61 0 41 -3 69 -6 62 -2 -6 -9 -9
-14 -6 -6 3 -5 11 2 20 13 16 10 18 -10 5z"/>
<path d="M801 6542 c-1 -7 -5 -11 -10 -8 -5 3 -15 -20 -24 -52 -26 -98 -28
-112 -16 -112 8 0 8 -4 0 -14 -7 -8 -9 -25 -5 -40 4 -16 2 -26 -5 -26 -6 0
-11 17 -11 39 0 24 -7 46 -17 57 -10 10 -17 19 -15 21 1 2 2 4 1 6 0 1 -2 10
-4 20 -4 20 -52 87 -63 88 -4 0 -20 2 -37 4 -30 4 -30 3 7 -16 42 -21 88 -82
88 -115 0 -12 7 -24 15 -28 10 -3 15 -19 15 -45 0 -28 5 -40 16 -43 13 -2 11
-8 -10 -33 -14 -16 -26 -35 -26 -42 0 -6 -5 -15 -11 -19 -8 -4 -9 1 -4 17 9
28 3 24 -15 -10 -8 -15 -8 -21 -1 -17 6 4 11 3 11 -2 0 -14 -26 -33 -34 -25
-4 4 -4 0 0 -10 5 -13 2 -16 -10 -11 -11 4 -16 2 -14 -6 2 -7 -5 -14 -15 -15
-24 -4 -48 -25 -42 -36 8 -12 -54 -42 -76 -36 -18 5 -29 -11 -29 -42 0 -10
-11 -27 -25 -39 -14 -12 -25 -17 -25 -11 0 5 -6 7 -12 4 -7 -4 -3 2 9 13 15
13 24 35 27 65 4 42 2 46 -22 52 -13 3 -30 1 -35 -4 -14 -14 -18 -41 -6 -41 5
0 9 7 9 15 0 8 5 15 10 15 6 0 10 -11 10 -24 0 -22 -4 -24 -42 -23 -46 2 -43
6 -47 -69 -1 -11 -7 -21 -15 -21 -8 0 -11 8 -8 19 6 23 -16 24 -25 1 -4 -10 3
-24 21 -40 29 -25 67 -33 48 -10 -6 6 -10 33 -10 59 l1 47 38 -1 c37 0 37 0
27 -31 -9 -25 -8 -32 6 -42 12 -9 15 -20 10 -39 -4 -16 -2 -26 5 -26 6 0 11
-6 11 -14 0 -8 5 -16 12 -18 8 -3 13 -47 14 -146 2 -118 0 -142 -12 -142 -8 0
-14 -8 -14 -17 0 -15 2 -16 10 -3 7 12 10 8 11 -15 0 -16 2 -41 3 -55 1 -14 3
-40 4 -59 1 -19 5 -32 8 -28 3 3 6 114 5 247 -1 241 -1 241 21 238 22 -3 30
-14 45 -63 8 -30 44 -49 42 -23 -1 30 -45 103 -64 106 -32 6 -39 19 -20 38 16
17 16 18 0 30 -11 8 -15 23 -13 45 3 29 8 33 49 45 61 18 138 87 197 178 45
68 47 73 46 143 -1 44 3 70 9 66 5 -3 6 3 2 16 -8 28 3 63 18 55 9 -5 9 -3 0
6 -10 11 -9 16 4 25 9 6 13 18 10 26 -4 10 -6 11 -6 1z m-150 -49 c13 -16 12
-17 -3 -4 -17 13 -22 21 -14 21 2 0 10 -8 17 -17z m-41 -398 c0 -2 -10 -9 -22
-15 -22 -11 -22 -10 -4 4 21 17 26 19 26 11z m-163 -200 c0 -8 -4 -15 -9 -15
-10 0 -11 14 -1 23 9 10 10 9 10 -8z"/>
<path d="M890 6480 c0 -5 5 -10 11 -10 5 0 7 5 4 10 -3 6 -8 10 -11 10 -2 0
-4 -4 -4 -10z"/>
<path d="M922 6370 c0 -14 2 -19 5 -12 2 6 2 18 0 25 -3 6 -5 1 -5 -13z"/>
<path d="M926 6293 c-10 -40 -22 -73 -26 -73 -5 0 -6 10 -3 23 10 39 -4 14
-16 -28 -9 -36 -9 -38 4 -21 12 15 15 16 15 5 0 -14 -72 -172 -102 -224 -7
-11 -20 -36 -29 -55 -9 -19 -27 -44 -39 -55 -17 -15 -11 3 23 68 25 48 51 95
58 103 14 17 11 21 -16 26 -15 2 -20 -3 -21 -22 -2 -59 -4 -66 -14 -50 -5 8
-10 31 -11 50 -1 19 -5 -4 -9 -51 -5 -65 -12 -94 -28 -117 -25 -34 -28 -47 -9
-36 7 4 9 3 4 -2 -5 -5 -12 -9 -15 -10 -4 0 -15 -4 -25 -9 -10 -4 -32 -5 -50
-1 -23 4 -28 3 -17 -4 8 -5 27 -10 41 -10 90 0 189 -45 189 -85 0 -15 -41 -47
-119 -94 -49 -30 -114 -92 -105 -100 4 -3 9 0 11 7 3 6 8 10 12 7 5 -2 13 6
20 18 7 12 44 43 83 67 40 25 87 60 105 78 18 18 33 30 33 25 0 -24 -45 -69
-111 -112 -99 -66 -124 -93 -125 -141 0 -32 2 -36 14 -24 7 8 19 14 25 14 7 0
4 5 -5 11 -10 5 -18 14 -18 18 0 16 55 64 130 113 91 61 139 113 140 151 0 33
-17 70 -30 62 -5 -3 -11 -1 -15 5 -3 5 -11 10 -17 10 -6 0 -3 -9 7 -20 9 -10
22 -18 27 -17 18 4 19 -20 2 -37 -18 -19 -24 -17 -28 11 -1 10 -12 22 -24 28
-13 6 -20 16 -17 24 4 9 0 11 -12 5 -24 -10 -93 -18 -93 -10 0 3 16 28 35 54
84 118 203 410 193 476 -2 12 -12 -12 -22 -51z m-93 -527 c4 -10 1 -13 -8 -9
-8 3 -12 9 -9 14 7 12 11 11 17 -5z"/>
<path d="M703 6305 c0 -27 2 -38 4 -22 2 15 2 37 0 50 -2 12 -4 0 -4 -28z"/>
<path d="M5 6240 c4 -8 13 -21 18 -28 18 -23 19 -92 2 -118 -17 -26 -5 -33 18
-9 13 13 17 12 29 -2 11 -15 11 -16 -4 -10 -10 3 -20 2 -23 -2 -12 -20 29 -20
51 0 21 20 23 20 55 4 19 -10 48 -28 65 -40 18 -14 36 -20 43 -15 9 5 10 10 2
14 -6 4 -11 2 -11 -5 0 -7 -12 -1 -27 13 -16 14 -44 33 -64 42 -43 20 -119 83
-119 98 0 6 18 -6 39 -25 22 -19 50 -40 63 -46 21 -11 21 -10 -2 6 -14 9 -52
44 -84 77 -33 34 -56 54 -51 46z m105 -144 c0 -11 -19 -15 -25 -6 -3 5 1 10 9
10 9 0 16 -2 16 -4z"/>
<path d="M690 6239 c0 -5 5 -7 10 -4 6 3 10 8 10 11 0 2 -4 4 -10 4 -5 0 -10
-5 -10 -11z"/>
<path d="M545 6230 c-3 -5 -4 -14 0 -19 3 -5 1 -12 -5 -16 -6 -4 -8 -10 -5
-15 3 -5 -1 -15 -9 -23 -8 -8 -12 -17 -9 -21 4 -3 -1 -6 -9 -6 -9 0 -24 -12
-34 -27 -17 -27 -17 -27 1 -13 16 14 17 13 11 -8 -11 -34 -2 -27 33 28 18 28
35 69 38 90 5 39 1 50 -12 30z m-35 -114 c0 -3 -4 -8 -10 -11 -5 -3 -10 -1
-10 4 0 6 5 11 10 11 6 0 10 -2 10 -4z"/>
<path d="M766 6184 c-3 -9 -2 -23 2 -31 7 -11 9 -6 10 16 1 34 -3 39 -12 15z"/>
<path d="M749 6140 c-7 -21 16 -86 25 -71 4 7 3 17 -2 24 -6 7 -12 23 -14 37
-2 17 -5 20 -9 10z"/>
<path d="M842 6115 c-7 -14 -12 -31 -12 -38 1 -7 7 3 16 22 17 39 13 54 -4 16z"/>
<path d="M785 6108 c4 -13 11 -27 16 -33 5 -5 4 5 -2 23 -12 36 -24 44 -14 10z"/>
<path d="M915 6030 c-3 -4 1 -11 7 -13 10 -4 10 -6 1 -6 -7 -1 -13 -5 -13 -11
0 -5 7 -7 15 -4 8 4 15 2 15 -3 0 -6 -14 -9 -32 -9 -39 1 -46 -16 -14 -33 15
-9 22 -19 19 -28 -4 -11 0 -14 13 -11 16 3 20 13 22 59 2 43 -1 58 -12 62 -9
4 -18 2 -21 -3z m5 -64 c0 -11 -19 -15 -25 -6 -3 5 1 10 9 10 9 0 16 -2 16 -4z"/>
<path d="M250 5980 c0 -5 5 -10 11 -10 5 0 7 5 4 10 -3 6 -8 10 -11 10 -2 0
-4 -4 -4 -10z"/>
<path d="M110 5949 c0 -5 5 -7 10 -4 6 3 10 8 10 11 0 2 -4 4 -10 4 -5 0 -10
-5 -10 -11z"/>
<path d="M148 5938 c4 -17 2 -20 -11 -15 -11 4 -14 2 -10 -9 4 -11 9 -12 19
-3 16 13 18 35 5 43 -5 4 -7 -4 -3 -16z"/>
<path d="M0 5785 c0 -73 3 -91 25 -124 13 -22 29 -42 35 -46 16 -10 12 -23
-11 -30 -19 -6 -21 -13 -17 -66 2 -32 7 -61 10 -65 4 -3 18 2 32 11 34 23 58
5 54 -39 -4 -40 -54 -69 -99 -56 -29 8 -29 8 -29 -31 0 -26 7 -47 20 -61 13
-14 18 -29 14 -42 -4 -17 -3 -18 5 -6 8 12 13 8 24 -20 22 -52 20 -134 -3
-183 -30 -60 -23 -80 7 -22 14 28 29 52 34 55 5 3 6 18 3 34 -4 24 -2 27 16
21 15 -5 19 -3 14 9 -3 9 -1 16 5 16 6 0 11 -9 11 -19 0 -11 4 -22 9 -26 5 -3
12 -19 16 -35 4 -17 10 -28 15 -25 5 3 11 1 15 -5 8 -13 -12 -12 -58 4 -32 12
-36 12 -26 0 6 -8 7 -14 2 -14 -5 0 -15 -22 -22 -50 -7 -27 -16 -51 -19 -51
-23 -5 -62 -4 -62 1 0 3 4 10 10 16 6 6 3 10 -10 11 -19 2 -20 -5 -20 -127 0
-75 4 -131 10 -135 6 -3 10 -3 10 2 2 68 24 143 59 203 23 38 41 78 41 89 0
18 6 21 38 21 21 0 47 7 58 15 18 15 18 15 1 26 -20 12 -59 88 -51 101 3 4 25
5 49 1 42 -5 47 -3 79 30 19 21 35 50 39 71 10 65 -35 136 -96 150 -22 5 -27
11 -22 24 4 9 11 51 15 92 5 41 11 92 15 112 9 46 1 60 -27 49 -17 -6 -32 3
-83 53 -33 34 -71 76 -84 94 -12 18 -27 30 -32 27 -5 -4 -6 1 -3 9 3 9 1 16
-5 16 -7 0 -11 -30 -11 -85z m30 35 c0 -5 -5 -10 -11 -10 -5 0 -7 5 -4 10 3 6
8 10 11 10 2 0 4 -4 4 -10z m62 -74 c77 -72 88 -93 86 -151 -1 -48 -2 -48 -5
-9 -3 34 -13 49 -53 87 -28 26 -57 64 -66 84 -9 21 -18 33 -21 26 -4 -12 89
-207 108 -227 20 -22 7 -24 -17 -3 -35 30 -96 116 -89 126 3 5 -2 12 -10 15
-20 7 -19 103 1 103 8 0 37 -23 66 -51z m138 -122 c-5 -16 -14 -49 -19 -74
l-10 -45 4 57 c3 51 21 106 31 96 2 -3 -1 -18 -6 -34z m-99 -87 c32 -28 47
-62 23 -53 -8 3 -28 6 -42 6 -20 0 -32 9 -44 31 -27 46 -24 60 10 48 15 -5 39
-20 53 -32z m76 -153 c-3 -3 -12 -4 -19 -1 -8 3 -5 6 6 6 11 1 17 -2 13 -5z
m62 -18 c7 -8 8 -17 3 -19 -4 -3 -13 3 -20 14 -14 22 0 26 17 5z m-35 -12 c9
-3 16 -13 16 -21 0 -12 -3 -11 -17 2 -13 14 -29 16 -82 12 -43 -4 -56 -3 -36
2 37 11 98 13 119 5z m-7 -47 c13 -12 14 -19 4 -30 -6 -8 -9 -21 -6 -29 4 -9
0 -18 -9 -21 -9 -4 -13 -1 -10 7 5 14 -23 29 -86 46 -23 6 -40 14 -37 17 3 3
21 0 39 -6 62 -20 98 -22 98 -7 0 19 -22 26 -86 26 -30 0 -54 4 -54 9 0 16
129 6 147 -12z"/>
<path d="M290 5830 c0 -5 5 -10 11 -10 5 0 7 5 4 10 -3 6 -8 10 -11 10 -2 0
-4 -4 -4 -10z"/>
<path d="M370 5833 c0 -6 5 -15 10 -18 13 -8 13 -72 0 -80 -6 -4 -8 -11 -5
-16 4 -5 1 -9 -5 -9 -21 0 -5 -172 22 -223 5 -10 10 -64 10 -120 1 -84 -4
-117 -26 -189 -15 -48 -31 -90 -35 -93 -5 -2 -12 -16 -15 -30 -8 -30 -36 -66
-48 -59 -4 3 -5 -3 -1 -12 5 -13 3 -15 -7 -9 -9 5 -11 4 -6 -3 6 -10 -12 -56
-45 -112 -5 -8 -19 -34 -31 -56 l-21 -42 -33 14 c-44 19 -51 18 -25 -3 l21
-18 -55 -84 c-50 -77 -63 -101 -51 -101 3 0 24 34 47 75 24 41 47 75 51 75 5
0 3 -10 -4 -22 -7 -13 -12 -26 -13 -30 0 -3 -3 -10 -8 -14 -17 -17 -5 -23 18
-8 14 9 22 21 18 27 -3 5 -2 7 3 4 6 -3 16 -2 24 3 19 12 34 -6 87 -102 25
-46 63 -107 85 -136 l39 -53 -31 -29 c-19 -18 -30 -36 -26 -45 3 -8 1 -14 -5
-12 -6 1 -15 -8 -20 -21 -8 -22 -8 -22 22 -7 32 17 120 17 118 0 -1 -15 43
-27 52 -14 4 6 12 8 18 5 6 -4 8 -12 5 -18 -4 -7 0 -7 12 -1 11 5 35 6 54 3
35 -7 35 -7 -16 -14 -33 -5 -51 -13 -51 -22 0 -8 4 -14 9 -14 4 0 8 -5 8 -11
0 -23 -229 17 -276 47 -24 16 -24 16 -24 -22 0 -22 8 -53 19 -69 l18 -31 -66
-13 c-36 -8 -74 -14 -84 -14 -28 -2 -16 -28 30 -63 l43 -33 -46 -22 c-56 -29
-64 -39 -27 -38 15 0 22 3 15 6 -17 7 50 41 116 59 29 7 63 20 75 29 15 9 27
11 37 5 9 -6 10 -10 3 -10 -7 0 -27 -13 -45 -29 -18 -15 -46 -33 -63 -40 -29
-11 -29 -11 -2 -6 38 7 34 1 -21 -32 -60 -36 -82 -45 -82 -33 0 6 6 10 14 10
16 0 31 18 23 27 -10 10 -54 -32 -50 -47 4 -12 3 -13 -5 -1 -5 7 -14 11 -20 7
-6 -4 -12 5 -14 20 l-3 26 -42 -36 -42 -37 0 -75 0 -74 35 35 c36 36 132 91
142 81 3 -3 0 -6 -6 -6 -28 0 -7 -22 54 -56 47 -26 62 -40 55 -47 -6 -6 -11
-25 -11 -42 0 -17 -5 -36 -11 -42 -8 -8 -4 -17 12 -32 13 -11 26 -21 30 -21 4
0 10 -7 13 -16 4 -10 2 -13 -7 -8 -7 5 -7 1 2 -10 8 -9 26 -16 40 -16 73 5 80
2 84 -37 2 -23 4 -9 5 32 1 39 7 77 12 85 5 8 10 11 11 5 4 -48 3 -65 -4 -65
-8 0 1 -147 10 -162 2 -5 1 -13 -3 -20 -4 -6 -7 -52 -6 -102 0 -50 1 -156 1
-236 0 -80 0 -158 0 -175 0 -16 0 -64 1 -105 1 -41 0 -91 0 -110 -2 -33 -3
-33 -10 -10 -7 22 -8 20 -7 -12 1 -21 5 -38 10 -38 4 0 6 -4 2 -9 -3 -5 -2
-12 3 -15 5 -3 7 -19 4 -37 l-5 -31 -26 31 c-82 97 -298 501 -316 591 -15 77
-15 120 -1 160 8 24 12 48 9 54 -3 6 -3 8 2 4 4 -4 23 6 41 22 59 51 149 52
196 2 50 -52 46 -146 -8 -171 -31 -14 -30 -14 -48 5 -11 10 -16 34 -16 68 0
29 -6 61 -14 72 -18 24 -25 17 -28 -25 -1 -18 -7 -35 -12 -38 -5 -3 -6 -1 -2
5 4 7 3 12 -3 12 -6 0 -15 -9 -21 -20 -26 -49 32 -120 98 -120 43 0 102 33
109 61 3 10 9 19 14 19 5 0 9 16 9 36 0 20 -4 33 -10 29 -5 -3 -7 0 -5 8 7 16
-31 74 -66 100 -68 49 -208 17 -242 -56 -10 -20 -22 -39 -27 -42 -6 -4 -8 -11
-4 -16 3 -5 0 -17 -8 -26 -10 -12 -10 -17 -1 -20 10 -4 10 -9 0 -24 -10 -16
-9 -21 2 -28 9 -6 10 -11 2 -15 -6 -4 -11 -17 -10 -29 0 -12 3 -16 6 -9 2 6 9
9 14 6 6 -3 6 -11 -2 -20 -12 -15 -5 -79 11 -89 6 -4 7 2 3 12 -8 23 1 15 17
-16 11 -21 10 -23 -3 -18 -14 5 -15 1 -10 -26 3 -18 9 -36 13 -42 4 -5 28 -63
54 -127 25 -65 93 -210 151 -322 82 -160 105 -213 105 -245 0 -32 3 -39 16
-34 13 5 15 -3 11 -56 -3 -34 -7 -65 -11 -68 -3 -4 -6 -1 -6 5 0 7 -4 12 -9
12 -5 0 -7 -8 -4 -18 4 -15 14 -17 76 -15 40 1 73 3 75 3 2 0 -6 13 -17 28
-17 25 -61 139 -61 159 1 16 66 -114 79 -156 16 -55 7 -62 -69 -56 l-55 4 44
-20 c24 -11 41 -22 38 -25 -3 -3 -38 10 -78 30 -74 36 -100 42 -54 12 19 -13
25 -25 25 -54 0 -21 4 -42 9 -47 11 -12 19 -125 9 -125 -5 0 -9 19 -10 43 -1
32 -3 27 -7 -23 -3 -36 -5 -66 -5 -68 1 -2 29 -3 63 -4 l62 -1 -20 -21 c-10
-12 -21 -30 -23 -40 -1 -10 -16 -28 -31 -40 -24 -18 -29 -19 -37 -6 -8 13 -10
13 -10 -1 0 -13 -57 -49 -77 -49 -3 0 16 20 42 45 36 33 55 44 72 41 13 -3 23
0 23 6 0 5 -7 7 -16 4 -12 -5 -15 -2 -10 9 3 9 2 14 -3 11 -11 -7 -63 33 -56
44 3 4 -2 13 -10 20 -28 24 -8 -28 26 -65 18 -20 17 -21 -15 -43 -18 -12 -47
-42 -64 -65 l-30 -43 60 4 60 5 -3 -167 c-3 -106 0 -166 6 -166 6 -1 -1 -7
-14 -14 -18 -10 -20 -15 -10 -19 12 -5 12 -7 -1 -16 -13 -9 -12 -11 6 -11 24
0 48 43 39 71 -4 11 -2 19 3 19 9 0 11 -8 15 -55 1 -14 5 -25 10 -25 4 0 7 -5
7 -11 0 -5 -4 -7 -10 -4 -5 3 -10 2 -10 -4 0 -5 5 -13 10 -16 6 -3 8 -17 6
-30 -3 -14 -1 -27 4 -30 5 -3 4 -18 -1 -35 -7 -20 -7 -35 0 -49 8 -14 8 -26 2
-38 -6 -10 -13 -44 -16 -77 -4 -33 -10 -55 -15 -50 -10 10 -33 271 -25 284 3
4 14 6 25 3 11 -3 20 0 20 6 0 6 -10 11 -22 11 -13 0 -47 11 -75 25 -54 25
-71 41 -30 30 15 -5 12 0 -11 14 -18 12 -38 19 -43 15 -5 -3 -8 -2 -7 3 2 5
-17 26 -41 48 -24 22 -57 58 -73 79 -15 21 -28 35 -28 30 0 -17 32 -58 78
-102 25 -23 41 -42 35 -42 -6 0 -41 32 -76 72 -55 60 -70 85 -93 153 -15 44
-29 86 -32 93 -2 6 3 12 12 12 9 0 16 -3 17 -7 4 -61 10 -85 28 -126 12 -26
26 -45 30 -42 5 2 14 -1 19 -8 12 -14 82 -22 82 -10 -1 4 -7 19 -15 33 -19 34
-18 50 3 51 27 1 -39 28 -71 29 -24 0 -32 8 -50 48 -30 67 -27 156 11 265 44
128 127 224 260 298 23 13 40 29 38 35 -3 6 1 17 7 23 14 14 2 14 -25 0 -17
-9 -18 -13 -7 -20 10 -7 7 -8 -11 -7 -16 2 -25 -2 -25 -11 0 -8 -5 -16 -10
-18 -7 -2 -10 20 -9 62 2 47 -1 68 -11 71 -7 3 -11 13 -8 23 2 10 -2 24 -10
32 -8 8 -22 32 -33 54 -10 22 -24 46 -31 53 -17 17 -8 31 15 25 10 -2 24 3 31
11 11 13 11 22 -3 50 -25 53 -80 63 -121 21 -47 -46 -30 -132 45 -232 22 -29
40 -58 40 -64 0 -7 -13 7 -29 32 -45 67 -67 87 -109 99 -44 11 -64 29 -97 85
l-23 40 0 -82 c0 -71 2 -81 17 -76 14 6 14 4 -2 -14 -9 -11 -17 -27 -17 -36 0
-14 4 -15 26 -6 31 11 29 13 37 -27 5 -26 2 -33 -13 -37 -12 -3 -24 3 -34 17
-15 21 -15 21 -15 -6 -1 -14 5 -29 11 -31 10 -4 10 -6 1 -6 -7 -1 -13 -5 -13
-10 0 -6 23 -7 53 -4 44 4 55 2 60 -11 5 -12 -1 -19 -18 -26 -14 -5 -25 -16
-25 -24 0 -14 38 -49 74 -71 16 -9 16 -15 -8 -79 -14 -37 -23 -72 -20 -78 3
-5 3 -21 -1 -36 -5 -21 -8 -23 -16 -11 -7 10 -8 5 -3 -15 5 -22 4 -27 -6 -21
-9 6 -11 4 -5 -5 4 -7 3 -15 -4 -19 -11 -7 -32 -98 -30 -135 1 -18 2 -18 8 4
l7 25 7 -24 c7 -29 0 -44 -17 -38 -9 4 -11 -6 -6 -41 9 -59 3 -82 -28 -109
-19 -16 -23 -26 -16 -33 8 -8 15 -6 24 5 7 8 18 15 24 15 6 0 -4 -13 -22 -29
-17 -16 -32 -36 -32 -45 0 -22 6 -20 38 9 15 14 31 25 36 25 14 0 -35 -49 -56
-56 -10 -3 -18 -14 -18 -25 0 -17 5 -16 50 12 27 17 50 35 50 40 0 5 7 9 15 9
8 0 15 -4 15 -9 0 -25 106 -121 184 -166 47 -28 86 -56 86 -62 0 -7 5 -13 10
-13 6 0 10 -9 10 -20 0 -11 -6 -20 -12 -20 -9 0 -9 -3 1 -9 11 -7 13 -28 9
-98 -3 -48 -3 -74 1 -58 7 28 8 27 15 -19 10 -61 16 -77 27 -70 5 3 9 -2 9
-10 0 -34 35 -11 37 24 0 14 6 63 12 110 7 47 10 104 6 127 l-6 41 59 1 c32 0
110 12 173 26 76 18 128 25 157 21 41 -5 42 -5 42 23 0 16 -7 34 -15 41 -13
11 -13 15 -2 29 8 9 14 33 14 54 l1 38 -17 -33 c-9 -18 -22 -32 -30 -30 -7 1
-9 -2 -6 -8 5 -8 12 -7 24 2 9 7 6 3 -7 -9 -13 -13 -21 -23 -18 -23 3 0 -3 -9
-14 -20 -27 -27 -38 -25 -14 3 l19 22 -26 -22 c-14 -13 -31 -23 -38 -23 -7 0
-9 -4 -6 -10 3 -5 0 -8 -7 -5 -7 3 -31 -2 -53 -11 l-40 -15 35 5 c42 7 20 -8
-25 -17 -16 -4 -25 -4 -18 -1 8 4 9 13 3 30 -9 24 2 35 15 14 3 -5 12 -10 18
-10 8 1 6 5 -3 13 -9 7 -17 27 -18 45 -3 38 -29 108 -38 99 -3 -3 -1 -14 4
-24 5 -10 12 -35 15 -55 7 -43 -9 -54 -44 -31 -15 9 -11 2 10 -17 19 -18 30
-35 25 -40 -5 -5 -34 -10 -64 -12 -30 -1 -58 -7 -61 -12 -4 -5 -18 -6 -31 -3
-21 6 -27 17 -41 79 -17 72 -23 189 -10 201 8 8 32 -23 33 -43 0 -8 4 -22 10
-30 14 -23 53 16 40 41 -7 12 -7 20 0 24 5 3 10 15 10 25 0 10 5 20 11 22 6 2
2 14 -10 30 -22 27 -19 58 4 58 7 0 23 15 34 33 11 18 29 41 40 51 29 26 65 9
129 -59 43 -45 51 -59 47 -84 -2 -17 -6 -35 -9 -40 -4 -5 -2 -12 3 -15 5 -3
11 2 13 12 3 10 12 19 21 19 9 0 14 -4 11 -9 -3 -4 -2 -8 3 -8 12 1 46 51 38
58 -3 3 -11 0 -16 -8 -9 -12 -10 -12 -5 3 3 9 1 17 -5 17 -6 0 -13 -9 -16 -20
-3 -11 -9 -20 -13 -20 -12 0 0 38 16 51 12 10 21 8 44 -10 30 -22 44 -9 18 17
-9 9 -9 15 0 24 17 17 15 56 -8 116 -26 68 -26 108 0 124 27 17 26 32 -1 18
-11 -7 -23 -9 -26 -6 -3 3 6 10 21 15 19 8 26 18 26 37 0 22 -2 25 -15 14 -8
-7 -15 -10 -15 -6 0 10 -37 -30 -50 -54 -17 -32 -21 -20 -9 25 7 23 27 54 50
76 21 20 39 46 39 58 0 23 -19 28 -39 9 -11 -11 -12 -4 -8 37 3 28 8 60 11 72
6 29 -5 30 -22 2 -8 -12 -9 -18 -3 -15 6 4 9 1 6 -6 -3 -8 -14 -14 -25 -14
-10 0 -16 4 -14 8 3 4 -2 8 -11 8 -11 0 -15 -5 -11 -15 4 -12 0 -14 -20 -9
-17 4 -29 2 -35 -7 -7 -11 -13 -9 -29 11 -14 18 -20 41 -20 84 l0 59 39 -6
c22 -3 42 -2 46 1 9 9 35 11 35 3 0 -5 11 -6 25 -3 15 2 25 0 25 -7 0 -6 5
-11 11 -11 5 0 7 4 4 10 -3 6 3 10 14 10 12 0 21 5 21 11 0 6 -12 10 -27 9
-16 -1 -65 -2 -111 -1 -79 1 -82 2 -72 21 6 11 9 20 8 21 -24 6 -38 5 -38 -3
0 -5 -12 -8 -27 -6 -16 2 -28 -2 -31 -11 -2 -8 0 -11 5 -8 5 3 15 2 22 -2 9
-6 5 -10 -13 -13 -24 -5 -35 5 -106 100 l-80 106 2 196 c2 204 9 239 48 260
29 15 48 12 60 -11 9 -15 8 -24 -1 -37 -8 -9 -9 -14 -5 -10 5 5 18 -6 28 -23
17 -27 38 -32 38 -8 0 6 7 17 15 26 14 14 13 17 -9 38 -14 13 -35 26 -46 30
-11 3 -20 11 -20 16 0 6 7 6 17 0 10 -5 25 -12 34 -14 23 -7 65 -67 47 -67 -9
0 -10 -3 -2 -8 6 -4 15 -18 19 -31 6 -20 4 -23 -9 -18 -10 4 -20 -1 -26 -13
-5 -10 -18 -21 -27 -25 -10 -3 -26 -16 -35 -29 -17 -23 -17 -24 5 -19 22 5 22
5 2 -10 -11 -8 -23 -13 -26 -11 -10 6 -17 -54 -8 -68 4 -6 3 -20 -2 -29 -6
-12 -5 -20 1 -24 6 -4 8 -11 4 -16 -3 -6 3 -13 15 -16 11 -3 19 -8 17 -12 -3
-4 0 -13 5 -21 7 -12 11 -13 18 -2 6 11 9 9 14 -7 2 -11 1 -21 -4 -23 -5 -2
19 -4 53 -5 84 -3 140 22 167 76 26 51 27 111 1 161 -18 35 -71 83 -95 86 -5
0 -16 2 -22 2 -17 2 -17 44 -1 62 11 12 10 12 -3 2 -14 -10 -18 -8 -29 18 -7
16 -16 28 -20 25 -4 -2 -5 7 -2 21 3 16 10 23 18 20 7 -3 16 -1 19 5 4 5 3 9
-2 8 -18 -3 -33 2 -33 11 0 6 8 10 18 10 9 0 32 9 50 20 18 11 38 17 44 14 6
-4 8 -3 5 3 -4 6 7 24 24 41 l30 30 -35 -1 c-19 -1 -34 -6 -33 -11 1 -6 -4
-10 -11 -11 -7 0 -17 -7 -22 -15 -7 -11 -10 -12 -10 -2 0 8 -9 12 -22 11 -42
-6 -47 7 -22 58 13 25 24 52 24 58 0 7 14 15 32 19 17 3 40 14 51 24 10 9 21
15 24 12 3 -3 16 15 29 40 17 31 24 59 23 90 -2 52 -25 104 -41 94 -7 -4 -8
-3 -4 4 4 7 0 22 -8 34 -9 12 -16 19 -16 15 0 -4 -10 -2 -22 5 -24 13 -30 15
-53 17 -8 0 -13 7 -11 14 1 6 1 9 -1 4 -3 -4 -10 -4 -15 -1 -6 4 -9 3 -6 -2 3
-5 -2 -17 -12 -27 -16 -16 -18 -16 -45 9 -16 15 -25 19 -22 10 4 -10 -6 -25
-28 -43 -19 -16 -35 -32 -35 -37 0 -5 8 -2 18 5 15 12 16 12 5 -2 -7 -9 -9
-19 -5 -24 4 -4 0 -6 -8 -3 -8 3 -20 -2 -26 -11 -9 -12 -8 -18 5 -29 9 -7 10
-11 4 -7 -8 4 -13 0 -13 -9 0 -8 -3 -16 -7 -19 -5 -2 -3 -2 4 -1 7 2 10 -7 9
-23 -6 -52 60 -128 120 -139 30 -5 32 -8 23 -31 -11 -30 -78 -113 -91 -113 -9
0 -13 8 -22 53 -4 15 -11 27 -17 27 -6 0 -6 -7 1 -21 9 -17 8 -23 -6 -34 -15
-11 -21 -9 -36 10 -10 13 -18 30 -18 39 0 9 -4 16 -9 16 -4 0 -6 -11 -3 -25 2
-14 8 -25 12 -25 10 0 24 -36 24 -61 1 -21 -36 -89 -47 -89 -4 0 -6 -4 -2 -9
3 -5 1 -12 -4 -15 -14 -9 -14 400 0 426 8 14 8 18 0 14 -17 -11 -10 67 7 80
12 9 12 13 2 19 -9 5 -11 4 -6 -3 4 -7 2 -12 -3 -12 -7 0 -11 23 -11 55 0 30
3 54 8 53 4 -2 7 2 7 7 0 6 -3 9 -7 8 -4 -2 -7 24 -7 56 1 40 5 58 13 56 58
-18 158 -36 212 -39 52 -2 70 -6 81 -22 14 -19 15 -19 11 1 -2 16 2 20 27 19
52 -2 56 -4 50 -14 -3 -5 -1 -10 4 -10 6 0 11 5 11 10 0 6 14 10 30 10 50 0
34 20 -17 22 l-48 1 50 6 c39 5 18 8 -90 14 -77 4 -178 14 -225 21 -59 9 -87
10 -92 3 -4 -7 -19 -6 -48 3 -55 18 -62 32 -7 15 l42 -13 -3 102 c-3 94 -2
105 26 167 34 76 46 87 68 65 8 -9 20 -16 27 -16 6 0 3 6 -7 13 -12 9 -16 20
-12 33 9 25 45 68 52 61 3 -3 -3 -14 -13 -24 -25 -25 -35 -51 -22 -58 5 -4 13
4 19 17 7 17 8 11 5 -28 -5 -56 -14 -86 -24 -80 -7 5 -2 -116 5 -124 3 -2 8 0
12 6 7 11 87 64 97 64 3 0 5 -7 5 -16 0 -45 76 -116 166 -154 56 -24 58 -24
49 -2 -4 9 -20 53 -36 97 -16 43 -36 89 -45 102 -13 21 -13 24 3 29 41 14 73
29 73 35 0 17 -64 90 -90 104 -38 20 -70 70 -70 111 0 28 2 30 29 26 20 -3 34
2 49 18 l20 21 21 -27 c12 -15 24 -25 27 -22 3 3 5 33 5 67 1 46 4 61 15 61
18 0 19 71 2 88 -14 14 -15 22 -28 177 -18 235 -21 261 -36 307 -8 26 -14 66
-12 90 l3 43 22 -45 22 -45 1 55 c1 38 4 49 9 35 5 -11 6 -25 4 -32 -3 -6 3
-24 12 -40 16 -27 16 -26 11 52 -3 44 -11 98 -19 120 -8 22 -17 83 -20 135
-10 156 -37 255 -79 284 -31 22 -52 20 -73 -8 -10 -13 -31 -27 -47 -30 -15 -3
-28 -10 -28 -16 0 -7 9 -9 23 -5 18 6 20 5 10 -6 -31 -32 -1 -145 84 -317 42
-85 53 -116 44 -125 -6 -6 -11 -18 -10 -26 0 -12 3 -10 9 4 6 13 8 -7 6 -57
-2 -44 0 -76 5 -72 5 3 6 -9 2 -27 -4 -23 -3 -30 5 -25 8 5 10 -2 6 -24 -4
-16 -2 -30 3 -30 10 0 9 3 17 -135 l6 -100 -28 33 c-16 17 -31 32 -34 32 -3 0
-36 30 -73 66 -75 74 -145 110 -230 120 l-55 7 -2 86 c-5 173 1 347 13 411 26
139 88 294 168 418 23 34 41 65 41 67 0 3 -9 5 -19 5 -22 0 -88 -94 -140 -197
-32 -65 -41 -96 -15 -53 8 14 13 17 10 8 -3 -9 -10 -36 -16 -60 -6 -24 -20
-69 -31 -100 -11 -32 -18 -61 -15 -66 2 -4 -1 -37 -9 -72 -8 -41 -12 -121 -10
-217 2 -94 -1 -151 -7 -147 -5 3 -8 13 -7 22 1 10 0 37 -1 62 -2 41 -3 42 -9
15 -10 -38 -2 -94 16 -122 16 -24 14 -58 -2 -58 -34 -2 -115 -31 -111 -40 4
-11 -72 -50 -81 -41 -3 3 11 13 32 23 33 16 36 21 31 47 -3 16 -11 35 -17 43
-13 15 -53 18 -44 3 4 -6 10 -8 15 -5 4 3 14 -3 21 -13 13 -15 12 -16 -3 -3
-10 7 -18 10 -18 6 0 -4 -7 -2 -15 5 -13 11 -9 22 26 84 109 192 150 317 150
457 1 48 -3 95 -9 105 -18 36 -34 142 -28 185 17 126 18 144 2 164 -8 11 -16
15 -16 8z m275 -83 c-10 -11 -14 -20 -10 -20 5 0 -1 -10 -13 -23 -12 -13 -19
-27 -15 -30 3 -4 1 -7 -5 -7 -7 0 -12 -7 -12 -15 0 -8 -4 -15 -8 -15 -4 0 -14
-16 -21 -35 -7 -19 -17 -35 -23 -35 -5 0 7 30 27 68 38 70 82 132 92 132 3 0
-2 -9 -12 -20z m153 -232 c17 -17 15 -48 -5 -70 -16 -18 -15 -18 17 -16 19 2
35 -2 37 -9 3 -7 -1 -13 -7 -13 -6 0 -19 -7 -27 -16 -15 -14 -14 -15 2 -12 10
2 20 -3 22 -9 3 -7 -3 -13 -13 -13 -23 0 -5 -20 22 -24 11 -2 21 -11 22 -20 3
-15 1 -16 -18 -6 -13 7 -20 8 -16 2 3 -6 1 -14 -6 -18 -8 -5 -4 -10 11 -16 12
-4 20 -12 16 -18 -3 -6 1 -7 9 -4 11 4 16 0 16 -11 0 -9 -4 -13 -10 -10 -15 9
-12 -6 4 -24 9 -10 11 -23 6 -36 -6 -14 -9 -15 -9 -4 -1 8 -8 24 -15 35 -13
17 -13 11 -1 -41 8 -33 14 -71 14 -85 l0 -25 -10 25 c-6 14 -15 48 -21 75 -10
43 -12 46 -18 25 -5 -22 -7 -23 -13 -7 -4 10 -7 30 -7 44 0 18 -4 24 -15 19
-10 -3 -15 1 -15 12 0 9 -9 34 -20 55 -24 44 -24 42 -4 61 14 14 14 16 0 16
-17 0 -33 27 -31 50 1 8 3 21 3 28 1 6 9 12 17 12 9 0 15 9 15 23 0 37 24 49
48 25z m101 -415 c-1 -34 -2 -35 -9 -13 -11 36 -11 50 0 50 6 0 10 -17 9 -37z
m-647 -286 c18 -15 18 -42 0 -57 -9 -7 -9 -7 -2 2 6 7 5 18 -1 30 -10 19 -29
16 -29 -5 0 -7 4 -6 11 3 8 11 9 9 4 -10 -10 -36 -18 -41 -40 -23 -20 15 -20
15 3 8 22 -6 33 10 11 17 -9 3 -9 10 0 26 13 25 19 26 43 9z m215 -38 c-24 -6
-45 -5 -55 1 -12 7 -2 9 38 9 55 -1 55 -1 17 -10z m-87 -9 c-8 -5 -24 -9 -35
-9 -16 1 -16 2 5 9 35 11 48 11 30 0z m176 2 c-5 -9 62 -37 70 -29 3 3 -9 9
-25 15 -17 6 -31 13 -31 17 0 3 15 -1 33 -8 17 -7 32 -19 32 -25 0 -12 57 -52
73 -52 4 0 -6 12 -23 26 -47 40 -6 15 48 -29 26 -21 47 -44 47 -50 0 -6 -13 3
-29 21 -38 41 -51 42 -17 2 43 -51 61 -99 47 -121 -9 -16 -9 -21 4 -25 19 -8
19 -55 0 -109 -10 -29 -11 -41 -3 -46 9 -6 8 -12 -1 -23 -8 -9 -10 -16 -7 -16
4 0 2 -9 -4 -20 -6 -11 -14 -19 -19 -17 -8 2 -96 -74 -96 -83 0 -3 -6 -4 -13
-2 -8 2 -11 -1 -8 -6 3 -5 -2 -9 -12 -8 -11 1 -16 -5 -14 -16 1 -9 -3 -20 -10
-24 -17 -11 -48 -12 -42 -2 3 4 14 8 25 8 11 0 17 4 14 10 -3 5 -20 3 -41 -8
-20 -9 -31 -18 -25 -20 5 -2 7 -11 4 -20 -6 -15 -5 -15 10 -3 10 8 20 12 23 9
7 -8 -55 -58 -72 -58 -8 0 -14 -6 -15 -12 0 -10 -2 -10 -6 0 -2 6 -9 12 -14
12 -6 0 -8 -4 -5 -9 3 -5 -1 -12 -10 -15 -22 -9 -24 -8 -24 10 0 8 5 12 10 9
6 -3 10 -1 10 4 0 6 8 11 18 11 14 0 15 2 2 10 -13 9 -13 10 0 10 9 0 22 -6
29 -12 11 -11 12 -10 6 1 -6 10 -4 13 7 9 9 -4 15 0 15 8 0 8 -4 14 -9 14 -5
0 -6 6 -2 13 4 7 3 9 -2 4 -5 -5 -9 -14 -9 -20 0 -7 -9 -11 -19 -9 -26 5 -66
-25 -66 -50 0 -16 -3 -19 -11 -11 -7 7 -8 19 -4 30 5 10 8 21 7 24 0 3 56 34
125 68 99 49 139 75 185 121 61 62 70 80 39 77 -11 0 -17 -5 -15 -9 9 -13 -47
-21 -72 -9 -33 15 -42 44 -32 105 4 28 6 58 4 66 -2 8 -7 27 -10 43 -6 27 -26
38 -26 15 0 -12 -80 -103 -84 -96 0 2 -9 13 -20 25 -15 18 -19 45 -23 147 l-5
125 43 4 c24 2 45 4 47 5 2 1 1 -2 -2 -6z m-123 -148 c4 -4 5 18 1 49 -4 37
-3 57 4 57 5 0 11 -24 12 -52 0 -29 2 -70 3 -90 2 -28 0 -34 -10 -27 -6 6 -9
18 -6 27 4 14 3 14 -5 3 -8 -11 -14 -10 -33 9 -13 12 -50 42 -82 66 l-58 43
33 17 c18 10 53 22 78 29 l45 11 5 -67 c3 -37 9 -71 13 -75z m-269 87 c3 -5
-1 -11 -9 -14 -9 -4 -12 -1 -8 9 6 16 10 17 17 5z m131 -50 c-3 -2 -11 1 -17
7 -20 20 -29 14 -10 -6 9 -10 24 -16 32 -14 8 3 12 2 8 -3 -4 -4 -21 -9 -38
-11 -24 -3 -30 0 -30 16 0 11 -6 20 -14 20 -8 0 -17 4 -20 9 -3 4 6 6 21 3 19
-4 24 -2 18 8 -5 7 5 5 23 -6 17 -10 29 -20 27 -23z m5 -63 c0 -5 -9 -4 -20 2
-11 6 -20 12 -20 14 0 2 9 2 20 -1 11 -3 20 -9 20 -15z m66 -14 c-3 -8 0 -14
6 -14 6 0 8 -3 5 -6 -4 -4 -13 -2 -20 4 -8 7 -17 9 -20 5 -4 -3 -7 -1 -7 6 0
8 6 11 16 7 12 -5 15 -2 10 9 -3 10 -2 13 5 10 6 -4 8 -13 5 -21z m17 -92 c-1
-4 3 -12 8 -19 7 -7 6 -14 -1 -18 -5 -3 -10 1 -10 9 0 9 -5 16 -11 16 -5 0 -8
4 -5 9 6 9 -41 61 -55 61 -5 0 -9 7 -9 15 0 9 16 0 43 -25 23 -22 41 -43 40
-48z m54 31 c0 -9 -8 -8 -28 4 -15 9 -26 20 -23 24 6 11 51 -13 51 -28z m453
2 c0 -8 -4 -15 -8 -15 -5 0 -9 7 -9 15 0 8 4 15 9 15 4 0 8 -7 8 -15z m-406
-44 c-7 -9 -34 10 -34 24 0 13 3 12 18 -2 10 -10 17 -20 16 -22z m134 11 c-5
-27 -28 -26 -28 2 0 19 4 24 15 19 9 -3 15 -12 13 -21z m-261 -4 c0 -7 2 -18
4 -24 2 -7 0 -13 -5 -13 -6 -1 -11 10 -13 24 -2 14 0 25 5 25 5 0 9 -6 9 -12z
m546 -18 c6 -23 -3 -26 -21 -8 -16 16 -15 28 2 28 7 0 16 -9 19 -20z m-327
-109 c12 -15 34 -33 48 -40 14 -8 23 -18 20 -22 -3 -5 -13 -5 -22 0 -9 5 -25
12 -35 15 -10 3 -16 9 -14 13 6 10 -59 10 -69 1 -4 -5 1 -8 11 -8 15 0 16 -3
7 -12 -10 -10 -18 -7 -37 14 -28 31 -31 40 -11 32 7 -3 20 1 28 9 13 13 16 13
26 -4 7 -10 17 -19 22 -19 18 0 10 19 -15 36 -24 16 -27 16 -40 -2 -14 -19
-14 -18 -15 1 -1 11 -4 14 -7 7 -2 -6 -9 -10 -14 -6 -5 3 1 14 13 24 21 16 25
17 52 3 16 -8 39 -27 52 -42z m223 15 c-9 -8 -10 -7 -5 7 3 10 7 24 7 30 1 7
3 4 6 -7 3 -10 -1 -23 -8 -30z m-389 14 c0 -5 -5 -10 -11 -10 -5 0 -7 5 -4 10
3 6 8 10 11 10 2 0 4 -4 4 -10z m455 -50 c5 -34 4 -42 -5 -34 -13 13 -30 80
-22 89 10 10 20 -9 27 -55z m-455 10 c0 -3 -5 -12 -10 -20 -9 -13 -11 -13 -20
0 -7 11 -10 12 -10 2 0 -9 -7 -11 -22 -7 -16 4 -19 3 -9 -3 8 -6 9 -12 3 -16
-16 -10 -21 17 -5 35 12 14 73 22 73 9z m306 -45 c-22 -17 -60 -20 -51 -5 4 6
9 9 13 6 4 -2 16 0 27 5 30 11 32 10 11 -6z m-146 -16 c0 -4 -7 -6 -15 -3 -8
4 -15 10 -15 15 0 4 7 6 15 3 8 -4 15 -10 15 -15z m37 5 c-3 -3 -12 -4 -19 -1
-8 3 -5 6 6 6 11 1 17 -2 13 -5z m201 -17 c-1 -13 -9 -30 -17 -37 -13 -13 -14
-12 -7 5 5 11 11 28 13 38 7 24 13 21 11 -6z m-63 -25 c-6 -4 -12 -14 -14 -22
-17 -69 -20 -95 -18 -148 4 -89 -20 -76 -28 15 -4 58 44 187 63 168 4 -3 2 -9
-3 -13z m99 -17 c-4 -8 -8 -15 -10 -15 -2 0 -4 7 -4 15 0 8 4 15 10 15 5 0 7
-7 4 -15z m-289 -25 c-3 -5 -13 -10 -21 -10 -8 0 -14 5 -14 10 0 6 9 10 21 10
11 0 17 -4 14 -10z m-229 -19 c-3 -4 5 -6 18 -4 18 4 26 0 31 -16 3 -12 11
-21 16 -21 10 0 9 -31 -1 -40 -3 -3 -16 -18 -29 -35 -13 -16 -21 -22 -18 -12
6 15 4 16 -14 7 -11 -6 -18 -14 -15 -18 2 -4 -3 -14 -12 -21 -14 -13 -15 -12
-10 7 3 12 3 21 -1 20 -33 -4 -71 4 -65 14 5 8 2 9 -9 5 -9 -3 -19 -1 -23 5
-5 7 5 9 29 6 20 -2 33 0 30 5 -3 5 5 6 18 2 33 -10 30 -10 67 -2 17 3 32 12
32 18 0 8 -4 8 -15 -1 -11 -9 -18 -9 -35 3 -11 7 -17 17 -13 20 3 4 -4 7 -16
7 -12 0 -19 4 -16 10 3 6 0 10 -7 11 -10 0 -10 2 0 6 6 2 12 11 12 19 0 8 10
14 26 14 14 0 23 -4 20 -9z m411 -88 c-4 -3 1 -11 9 -18 18 -13 11 -55 -9 -55
-8 0 -8 3 1 12 7 7 12 19 12 27 0 12 -2 12 -12 -2 -12 -15 -13 -14 -14 13 -1
16 3 30 9 30 6 0 7 -3 4 -7z m-547 -48 c0 -8 -6 -12 -14 -9 -8 3 -12 12 -9 20
6 17 23 9 23 -11z m50 -9 c0 -2 -7 -6 -15 -10 -8 -3 -15 -1 -15 4 0 6 7 10 15
10 8 0 15 -2 15 -4z m40 -6 c0 -5 -7 -10 -15 -10 -8 0 -15 5 -15 10 0 6 7 10
15 10 8 0 15 -4 15 -10z m574 -5 c11 -9 14 -15 7 -15 -8 0 -11 -11 -9 -32 2
-25 -1 -34 -14 -36 -20 -4 -24 18 -7 35 8 8 8 17 0 31 -19 36 -10 42 23 17z
m-474 -40 c11 -13 10 -14 -4 -9 -9 3 -16 1 -16 -5 0 -6 -7 -8 -15 -5 -11 5
-12 9 -2 20 16 17 22 17 37 -1z m110 11 c0 -2 -7 -7 -16 -10 -8 -3 -12 -2 -9
4 6 10 25 14 25 6z m-183 -41 c-23 -22 -33 -18 -12 5 10 11 20 18 23 16 2 -3
-3 -12 -11 -21z m353 14 c0 -6 9 -22 20 -36 11 -14 17 -29 14 -34 -9 -15 -22
-10 -29 12 -4 11 -12 18 -19 16 -8 -3 -11 4 -8 24 4 27 22 42 22 18z m-320
-28 c0 -5 -16 -32 -36 -61 l-36 -53 16 -35 c10 -20 21 -31 25 -26 17 18 61
109 61 126 0 20 34 58 51 58 6 0 8 -7 5 -16 -3 -9 -6 -20 -6 -26 0 -6 -6 -6
-15 2 -13 11 -15 7 -15 -26 1 -36 27 -115 29 -86 1 6 5 12 9 12 5 0 7 -26 6
-57 -2 -41 -1 -49 4 -28 l8 30 7 -25 c4 -14 7 -28 7 -32 0 -17 -43 -7 -101 23
-34 17 -63 28 -66 26 -2 -3 18 -16 46 -30 28 -13 47 -27 44 -30 -8 -8 -158 70
-175 90 -11 15 -11 16 7 10 18 -6 18 -5 -2 12 l-22 19 57 36 c31 20 55 39 53
42 -4 6 28 54 35 54 2 0 4 -4 4 -9z m481 -54 c-15 -15 -14 -30 2 -21 7 4 8 3
4 -2 -5 -5 -27 -9 -50 -10 -40 -1 -57 8 -57 31 0 6 5 3 10 -5 6 -10 10 -11 10
-2 0 6 6 12 13 12 8 0 24 9 37 20 22 19 25 19 33 4 6 -10 5 -20 -2 -27z m-741
-37 c0 -5 -5 -10 -11 -10 -5 0 -7 5 -4 10 3 6 8 10 11 10 2 0 4 -4 4 -10z m10
-30 c0 -5 -2 -10 -4 -10 -3 0 -8 5 -11 10 -3 6 -1 10 4 10 6 0 11 -4 11 -10z
m380 -52 c0 -5 -4 -8 -10 -8 -5 0 -10 10 -10 23 0 18 2 19 10 7 5 -8 10 -18
10 -22z m440 -59 c0 -5 -4 -9 -10 -9 -5 0 -10 7 -10 16 0 8 5 12 10 9 6 -3 10
-10 10 -16z m-565 -34 l30 -15 -35 6 c-19 4 -42 10 -50 15 -27 15 22 10 55 -6z
m19 -29 c4 2 3 0 -1 -5 -5 -5 -26 -11 -48 -14 -27 -5 -35 -3 -25 3 13 9 13 10
0 10 -12 0 -13 2 -1 9 7 5 26 5 42 1 15 -5 30 -6 33 -4z m183 -2 c-3 -3 -12
-4 -19 -1 -8 3 -5 6 6 6 11 1 17 -2 13 -5z m-189 -46 c-9 -13 -23 -22 -32 -22
-9 1 -23 2 -31 3 -8 0 -15 6 -15 12 0 7 10 9 26 5 15 -4 23 -3 20 3 -5 8 9 16
38 20 5 0 2 -9 -6 -21z m389 16 c-3 -3 -12 -4 -19 -1 -8 3 -5 6 6 6 11 1 17
-2 13 -5z m86 -1 c-13 -2 -35 -2 -50 0 -16 2 -5 4 22 4 28 0 40 -2 28 -4z
m-442 -30 c-4 -16 -6 -34 -4 -40 3 -7 0 -13 -6 -13 -6 0 -11 5 -11 11 0 5 -4
7 -10 4 -16 -10 -12 4 12 35 27 37 29 37 19 3z m26 -15 c-3 -7 -5 -2 -5 12 0
14 2 19 5 13 2 -7 2 -19 0 -25z m3 -33 c0 -8 -2 -15 -4 -15 -2 0 -6 7 -10 15
-3 8 -1 15 4 15 6 0 10 -7 10 -15z m330 -59 c0 -3 -4 -8 -10 -11 -5 -3 -10 -1
-10 4 0 6 5 11 10 11 6 0 10 -2 10 -4z m-60 -36 c0 -5 -8 -10 -17 -10 -15 0
-16 2 -3 10 19 12 20 12 20 0z m105 0 c-3 -5 -11 -10 -16 -10 -6 0 -7 5 -4 10
3 6 11 10 16 10 6 0 7 -4 4 -10z m33 -19 c2 -27 -22 -61 -35 -48 -5 5 23 77
30 77 2 0 4 -13 5 -29z m-188 -37 c0 -8 -4 -12 -10 -9 -5 3 -10 13 -10 21 0 8
5 12 10 9 6 -3 10 -13 10 -21z m149 -58 c-2 -20 -2 -20 -6 2 -5 23 -36 31 -48
12 -3 -5 -1 -10 4 -10 6 0 11 -4 11 -10 0 -5 -6 -10 -14 -10 -9 0 -13 7 -11
20 2 13 -2 20 -11 20 -8 0 -14 -5 -14 -11 0 -5 -5 -7 -10 -4 -18 11 1 27 26
22 12 -2 28 0 36 4 17 11 38 -9 37 -35z m91 34 c-20 -13 -53 -13 -45 0 3 6 18
10 33 10 21 0 24 -2 12 -10z m-260 -38 c0 -5 -7 -17 -15 -28 -14 -19 -14 -19
-15 2 0 11 3 24 7 27 9 10 23 9 23 -1z m244 -23 c18 -30 18 -30 -3 -36 -18 -5
-19 -8 -9 -21 10 -12 5 -11 -19 3 -39 23 -42 33 -10 31 34 -2 39 16 9 36 -24
16 -25 18 -7 18 12 0 28 -12 39 -31z m-136 2 c22 5 41 4 46 -1 7 -7 3 -10 -8
-10 -13 0 -16 -5 -12 -16 5 -14 4 -15 -9 -4 -12 10 -15 10 -15 -1 0 -9 -3 -10
-8 -3 -4 6 -15 13 -24 17 -10 3 -17 14 -17 24 1 15 2 16 6 2 3 -14 11 -15 41
-8z m-79 -37 c30 -6 31 -7 12 -20 -15 -11 -25 -12 -45 -3 -14 7 -23 16 -20 20
6 11 12 11 53 3z m-377 -36 c-7 -7 -12 -8 -12 -2 0 14 12 26 19 19 2 -3 -1
-11 -7 -17z m523 -48 c-3 -6 -11 -10 -17 -10 -7 0 -6 6 2 15 15 18 -1 20 -18
3 -16 -16 -16 5 -1 34 11 21 12 21 26 -5 8 -15 11 -32 8 -37z m50 21 c5 -11 2
-11 -17 1 -12 8 -24 20 -26 27 -6 18 36 -9 43 -28z m-603 4 c3 -13 2 -22 -2
-20 -11 7 -20 45 -10 45 4 0 10 -11 12 -25z m482 9 c8 -22 8 -24 -8 -24 -18 0
-29 16 -21 30 9 15 22 12 29 -6z m-49 -18 c0 -15 -5 -22 -12 -19 -14 6 -17 25
-6 36 12 13 18 7 18 -17z m-84 -183 c12 -14 12 -15 0 -9 -8 5 -17 3 -22 -5 -7
-11 -9 -11 -9 2 0 13 8 29 15 29 2 0 9 -8 16 -17z m229 -8 c0 -8 -106 -55
-123 -55 -20 0 -22 -11 -4 -29 10 -11 7 -12 -13 -5 -14 4 -43 11 -65 14 -32 5
-36 8 -20 14 11 4 30 12 42 18 11 6 26 7 32 4 6 -4 11 -3 11 3 0 6 7 7 17 4
11 -4 14 -3 9 5 -5 8 4 11 27 10 18 -1 42 4 53 10 20 12 34 15 34 7z m-682
-57 c10 -12 10 -18 1 -24 -7 -4 -9 -3 -5 4 3 6 2 13 -4 17 -5 3 -10 11 -10 17
0 6 1 9 3 7 1 -2 8 -11 15 -21z m527 -48 c3 -6 -1 -7 -9 -4 -18 7 -21 14 -7
14 6 0 13 -4 16 -10z m-495 -26 c0 -8 -4 -12 -10 -9 -5 3 -10 10 -10 16 0 5 5
9 10 9 6 0 10 -7 10 -16z m39 -78 c10 -12 8 -13 -8 -9 -12 3 -21 9 -21 14 0
14 16 11 29 -5z m18 -32 c-3 -3 -12 -4 -19 -1 -8 3 -5 6 6 6 11 1 17 -2 13 -5z
m30 -50 c15 -14 23 -23 16 -20 -6 4 -14 2 -18 -4 -11 -18 -27 -11 -22 10 3 12
-1 24 -11 30 -10 5 -12 10 -5 10 7 0 25 -12 40 -26z m444 13 c19 -15 14 -37
-9 -37 -14 0 -14 2 -3 9 14 9 7 31 -10 31 -6 0 -7 -5 -3 -12 5 -7 3 -8 -6 -3
-10 6 -12 4 -7 -8 4 -11 1 -17 -9 -17 -15 0 -13 10 9 38 12 15 18 15 38 -1z
m71 -32 c-2 -14 -8 -28 -13 -31 -5 -3 -6 3 -2 12 4 12 3 15 -5 10 -7 -4 -12
-3 -12 3 0 7 23 27 36 31 1 0 -1 -11 -4 -25z m68 -4 c0 -4 -9 -7 -20 -7 -20 0
-25 7 -14 19 7 7 34 -2 34 -12z m-570 -32 c0 -5 5 -7 11 -4 6 4 5 -2 -2 -13
-7 -12 -17 -18 -21 -16 -12 7 -10 44 2 44 6 0 10 -5 10 -11z m380 -9 c0 -5 -2
-10 -4 -10 -3 0 -8 5 -11 10 -3 6 -1 10 4 10 6 0 11 -4 11 -10z m97 -16 c-3
-3 -12 -4 -19 -1 -8 3 -5 6 6 6 11 1 17 -2 13 -5z m-423 -20 c4 -9 4 -19 1
-22 -3 -3 -5 0 -5 6 0 7 -7 12 -16 12 -8 0 -12 5 -9 10 9 15 22 12 29 -6z
m338 -17 c4 -7 7 -16 7 -22 0 -5 -3 -4 -6 3 -2 6 -17 12 -31 12 -20 0 -23 3
-13 9 12 8 12 10 0 14 -8 2 -3 2 11 0 14 -3 28 -10 32 -16z m93 13 c3 -5 -1
-10 -10 -10 -9 0 -13 5 -10 10 3 6 8 10 10 10 2 0 7 -4 10 -10z m95 -4 c0 -11
-19 -15 -25 -6 -3 5 1 10 9 10 9 0 16 -2 16 -4z m-120 -25 c0 -6 -4 -12 -8
-15 -5 -3 -9 1 -9 9 0 8 4 15 9 15 4 0 8 -4 8 -9z m-403 -29 c1 -12 -2 -22 -7
-22 -6 0 -9 3 -9 8 3 20 -2 32 -13 26 -7 -4 -8 -3 -4 5 11 18 29 8 33 -17z
m539 -9 c-10 -10 -19 5 -10 18 6 11 8 11 12 0 2 -7 1 -15 -2 -18z m-246 7 c0
-5 -5 -10 -11 -10 -5 0 -7 5 -4 10 3 6 8 10 11 10 2 0 4 -4 4 -10z m-254 -15
c17 -16 14 -18 -10 -9 -9 3 -16 10 -16 15 0 13 9 11 26 -6z m289 5 c-3 -5 -12
-10 -18 -10 -7 0 -6 4 3 10 19 12 23 12 15 0z m165 -20 c0 -13 -5 -18 -15 -14
-8 4 -15 12 -15 20 0 8 7 14 15 14 8 0 15 -9 15 -20z m-114 -33 c-2 -22 -9
-33 -22 -35 -16 -3 -17 -1 -4 8 12 9 12 13 2 17 -10 4 -9 10 5 26 16 19 16 20
1 8 -11 -8 -18 -9 -18 -3 0 12 21 22 32 15 4 -2 6 -18 4 -36z m-335 13 c11 6
19 7 18 3 -3 -20 2 -33 12 -30 6 1 14 -4 16 -10 3 -7 -2 -13 -10 -13 -18 0
-39 24 -30 33 3 4 2 7 -4 7 -6 0 -14 -8 -18 -17 -6 -16 -8 -15 -20 7 -19 33
-19 45 1 26 12 -12 20 -13 35 -6z m419 -10 c0 -5 -8 -8 -18 -7 -10 0 -18 9
-18 18 0 14 4 15 18 8 10 -5 18 -14 18 -19z m60 20 c0 -5 -5 -10 -11 -10 -5 0
-7 5 -4 10 3 6 8 10 11 10 2 0 4 -4 4 -10z m-643 -6 c-3 -4 -2 -15 3 -24 7
-14 5 -19 -9 -23 -15 -4 -19 0 -16 14 5 23 14 39 22 39 4 0 3 -3 0 -6z m40 -1
c-4 -3 -1 -13 6 -22 11 -14 10 -14 -5 -2 -16 12 -16 31 -1 31 4 0 3 -3 0 -7z
m141 -79 c28 -2 32 -5 32 -19 0 -13 11 -19 31 -17 3 1 6 -6 6 -13 0 -10 -4
-12 -12 -5 -7 5 -15 7 -18 3 -4 -3 -7 -2 -7 3 0 6 -7 19 -16 30 -13 16 -15 16
-10 2 3 -10 4 -18 1 -18 -9 0 -35 32 -35 43 0 8 3 8 8 2 4 -5 13 -10 20 -11z
m-188 -4 c-20 -13 -33 -13 -25 0 3 6 14 10 23 10 15 0 15 -2 2 -10z m25 -52
c3 4 5 3 4 -3 -2 -5 5 -25 14 -42 14 -27 15 -31 2 -27 -8 3 -14 9 -13 12 3 15
-15 42 -23 36 -8 -5 -13 9 -10 29 0 4 -3 7 -9 7 -5 0 -10 6 -10 13 1 6 9 2 19
-10 10 -12 22 -19 26 -15z m-176 -41 c0 -8 -2 -7 -6 2 -4 10 -7 10 -13 1 -5
-8 -9 -5 -13 9 -4 18 -2 19 14 10 10 -5 19 -15 18 -22z m396 15 c9 -6 10 -17
6 -47 -1 -5 -10 1 -21 14 -25 29 -14 54 15 33z m55 -18 c0 -8 -4 -12 -10 -9
-5 3 -10 10 -10 16 0 5 5 9 10 9 6 0 10 -7 10 -16z m-455 -34 c-10 -11 -22
-20 -28 -20 -5 0 1 9 14 20 31 25 37 25 14 0z m75 10 c14 -8 18 -19 16 -45 -3
-49 -12 -52 -27 -8 -23 67 -22 71 11 53z m464 -129 c14 -27 36 -57 48 -65 22
-15 23 -15 29 6 4 13 12 37 19 53 l13 30 7 -25 c12 -38 11 -63 -4 -82 -33 -44
-113 29 -189 172 l-19 35 36 -37 c19 -21 47 -60 60 -87z m-277 18 c-1 -52 -22
-45 -22 7 0 21 -6 50 -13 64 -12 23 -11 22 11 -4 17 -20 24 -40 24 -67z m173
51 c6 -11 8 -20 6 -20 -3 0 -10 9 -16 20 -6 11 -8 20 -6 20 3 0 10 -9 16 -20z
m-390 -20 c0 -5 -2 -10 -4 -10 -3 0 -8 5 -11 10 -3 6 -1 10 4 10 6 0 11 -4 11
-10z m50 -35 c0 -10 -9 -15 -27 -14 -17 1 -21 3 -10 6 9 2 17 9 17 14 0 5 5 9
10 9 6 0 10 -7 10 -15z m540 5 c0 -5 -4 -10 -9 -10 -6 0 -13 5 -16 10 -3 6 1
10 9 10 9 0 16 -4 16 -10z m-490 -20 c-8 -5 -17 -7 -19 -4 -3 3 1 9 9 14 8 5
17 7 19 4 3 -3 -1 -9 -9 -14z m113 -72 c-9 -16 -20 -7 -18 15 4 32 6 34 14 12
5 -11 7 -23 4 -27z m202 -1 c15 -36 14 -37 -5 -37 -17 0 -20 7 -20 42 0 47 3
47 25 -5z m-272 3 c4 0 7 -4 7 -10 0 -9 -24 -7 -89 6 -18 4 -21 8 -12 13 7 5
29 5 50 0 20 -5 39 -9 44 -9z m-88 -40 c3 -6 -1 -7 -9 -4 -18 7 -21 14 -7 14
6 0 13 -4 16 -10z m90 -50 c-21 -22 -41 -38 -43 -35 -6 6 60 75 72 75 6 0 -7
-18 -29 -40z m460 -45 c20 -35 33 -70 29 -76 -4 -7 -3 -10 2 -6 5 3 26 -26 46
-65 20 -39 33 -67 28 -62 -32 36 -140 176 -158 207 -27 47 -28 67 -2 67 13 0
30 -20 55 -65z m-248 -7 c-3 -7 -5 -2 -5 12 0 14 2 19 5 13 2 -7 2 -19 0 -25z
m68 0 c-8 -5 -15 -17 -14 -26 0 -14 2 -14 6 -2 16 41 45 38 66 -5 16 -33 16
-35 -2 -35 -30 0 -37 -13 -54 -110 -3 -15 -9 -20 -27 -20 -6 0 -10 45 -10 115
l0 115 25 -12 c22 -10 23 -13 10 -20z m60 12 c3 -6 -1 -7 -9 -4 -18 7 -21 14
-7 14 6 0 13 -4 16 -10z m35 -150 c0 -5 -6 -10 -14 -10 -8 0 -18 5 -21 10 -3
6 3 10 14 10 12 0 21 -4 21 -10z m-150 -34 c0 -3 -4 -8 -10 -11 -5 -3 -10 -1
-10 4 0 6 5 11 10 11 6 0 10 -2 10 -4z m293 -43 c3 -5 -8 -9 -24 -10 -16 -1
-39 -8 -51 -15 -13 -7 -29 -11 -36 -10 -6 2 -20 -2 -30 -8 -14 -9 -13 -10 8
-4 l25 6 -25 -21 c-31 -28 -64 -24 -68 9 -4 39 38 59 125 60 39 0 74 -3 76 -7z
m144 -26 c3 -48 14 -102 21 -107 13 -9 8 -32 -10 -43 -12 -8 -24 -5 -51 13
-20 14 -33 28 -31 32 3 5 -1 21 -9 37 -14 27 -13 29 9 29 13 0 24 -4 24 -9 0
-5 -5 -9 -11 -9 -5 0 -7 -5 -4 -10 4 -6 11 -7 17 -4 6 4 18 -2 26 -12 14 -18
14 -18 7 1 -8 21 -9 42 -7 89 2 32 16 27 19 -7z m-112 -47 c3 -5 1 -10 -4 -10
-6 0 -11 5 -11 10 0 6 2 10 4 10 3 0 8 -4 11 -10z m-151 -41 c-16 -17 -46 -40
-66 -50 l-38 -19 0 25 c0 17 4 24 12 19 6 -4 8 -3 5 3 -7 11 -68 -4 -83 -20
-4 -4 -26 -7 -48 -6 -40 0 -39 1 34 28 41 15 80 24 85 20 30 -19 62 -17 90 6
41 33 44 31 9 -6z m156 -11 c0 -5 -11 -1 -25 8 -14 9 -22 20 -19 26 6 10 44
-19 44 -34z m66 -56 c10 -6 16 -13 12 -17 -7 -7 -68 43 -68 57 0 4 8 0 19 -11
10 -10 27 -23 37 -29z m-337 11 c-1 -5 -1 -28 0 -52 1 -35 4 -42 13 -33 29 29
44 -6 26 -65 -14 -47 -28 -57 -28 -19 0 14 -5 28 -12 32 -7 5 -8 2 -3 -7 4 -8
-2 -5 -13 6 -28 27 -37 121 -13 135 20 12 31 12 30 3z m-72 -70 c-3 -10 -5 -4
-5 12 0 17 2 24 5 18 2 -7 2 -21 0 -30z m0 -60 c-3 -10 -5 -4 -5 12 0 17 2 24
5 18 2 -7 2 -21 0 -30z m-257 7 c0 -5 -6 -10 -14 -10 -8 0 -18 5 -21 10 -3 6
3 10 14 10 12 0 21 -4 21 -10z m257 -52 c-3 -8 -6 -5 -6 6 -1 11 2 17 5 13 3
-3 4 -12 1 -19z m8 -27 c3 -5 1 -12 -5 -16 -5 -3 -10 1 -10 9 0 18 6 21 15 7z
m-8 -93 c-3 -7 -5 -2 -5 12 0 14 2 19 5 13 2 -7 2 -19 0 -25z m236 -139 c-6
-6 -42 -13 -80 -15 -76 -3 -68 2 22 15 33 5 62 9 65 10 2 0 -1 -4 -7 -10z
m-173 -108 c0 -6 -4 -12 -8 -15 -5 -3 -9 1 -9 9 0 8 4 15 9 15 4 0 8 -4 8 -9z"/>
<path d="M756 5321 c9 -9 34 -9 34 -1 0 5 -9 8 -20 7 -10 -1 -17 -3 -14 -6z"/>
<path d="M578 4703 c6 -2 18 -2 25 0 6 3 1 5 -13 5 -14 0 -19 -2 -12 -5z"/>
<path d="M670 4659 c0 -5 5 -7 10 -4 6 3 10 8 10 11 0 2 -4 4 -10 4 -5 0 -10
-5 -10 -11z"/>
<path d="M495 4579 c-11 -16 -1 -19 13 -3 7 8 8 14 3 14 -5 0 -13 -5 -16 -11z"/>
<path d="M684 4559 c-5 -9 -2 -10 9 -6 9 3 18 2 21 -4 2 -5 3 -4 2 3 -3 17
-23 21 -32 7z"/>
<path d="M306 4712 c-2 -4 4 -8 14 -8 10 0 16 4 14 8 -3 4 -9 8 -14 8 -5 0
-11 -4 -14 -8z"/>
<path d="M240 3780 c0 -5 5 -10 11 -10 5 0 7 5 4 10 -3 6 -8 10 -11 10 -2 0
-4 -4 -4 -10z"/>
<path d="M110 2290 c0 -5 5 -10 10 -10 6 0 10 5 10 10 0 6 -4 10 -10 10 -5 0
-10 -4 -10 -10z"/>
<path d="M525 1900 c-26 -28 -15 -31 12 -3 12 13 19 23 14 23 -4 0 -16 -9 -26
-20z"/>
<path d="M560 1706 c0 -3 9 -10 20 -16 11 -6 20 -8 20 -6 0 3 -9 10 -20 16
-11 6 -20 8 -20 6z"/>
<path d="M850 1630 c0 -5 5 -10 11 -10 5 0 7 5 4 10 -3 6 -8 10 -11 10 -2 0
-4 -4 -4 -10z"/>
<path d="M876 1599 c3 -5 12 -9 21 -9 19 0 9 13 -12 16 -8 1 -13 -2 -9 -7z"/>
<path d="M256 5805 c-14 -38 -6 -83 18 -99 40 -26 51 -24 48 7 -2 17 4 37 14
48 17 19 17 19 0 13 -11 -4 -26 2 -45 20 -24 23 -29 25 -35 11z m24 -46 c0 -5
-4 -9 -10 -9 -5 0 -10 7 -10 16 0 8 5 12 10 9 6 -3 10 -10 10 -16z"/>
<path d="M423 5645 c0 -38 2 -53 4 -32 2 20 2 52 0 70 -2 17 -4 1 -4 -38z"/>
<path d="M890 5655 c-11 -13 -10 -14 4 -9 9 3 16 10 16 15 0 13 -6 11 -20 -6z"/>
<path d="M300 5631 c5 -11 15 -23 21 -27 6 -3 3 5 -6 20 -20 30 -30 35 -15 7z"/>
<path d="M926 5597 c3 -10 9 -15 12 -12 3 3 0 11 -7 18 -10 9 -11 8 -5 -6z"/>
<path d="M361 5494 c0 -11 3 -14 6 -6 3 7 2 16 -1 19 -3 4 -6 -2 -5 -13z"/>
<path d="M574 5473 c-19 -43 -7 -98 26 -128 11 -10 17 -22 14 -27 -3 -4 0 -7
6 -6 11 3 39 -33 57 -72 3 -8 15 -26 25 -39 10 -13 18 -33 18 -45 0 -14 3 -17
8 -9 5 8 12 3 19 -17 6 -17 7 -30 2 -30 -5 0 -9 5 -9 12 0 6 -2 9 -5 6 -3 -3
13 -38 35 -78 22 -40 39 -75 37 -77 -4 -3 -8 2 -112 122 -69 81 -84 94 -105
95 -13 0 -13 -1 0 -10 13 -8 13 -10 -2 -10 -18 0 -28 -22 -25 -60 2 -27 23
-36 47 -20 12 7 12 12 2 22 -6 6 -12 18 -12 25 0 33 36 5 115 -92 72 -87 125
-139 125 -122 0 6 -48 140 -69 196 -12 28 -21 67 -21 86 0 19 -4 35 -8 35 -17
0 -21 -13 -11 -34 8 -17 6 -16 -11 4 -29 35 -42 60 -32 60 6 0 12 -10 15 -22
5 -18 8 -19 22 -8 15 12 14 15 -5 25 -11 6 -17 14 -13 19 4 4 0 4 -8 1 -10 -4
-22 3 -33 19 -15 25 -15 26 1 26 15 0 15 2 3 9 -8 6 -18 7 -24 4 -5 -3 -6 -1
-2 5 3 6 2 13 -4 17 -5 3 -10 16 -10 27 0 12 -3 19 -6 15 -10 -9 -44 26 -44
46 0 10 4 16 9 13 5 -4 7 3 4 14 -3 11 0 20 6 20 6 0 11 5 11 10 0 24 -22 7
-36 -27z m200 -399 c3 -8 2 -12 -4 -9 -6 3 -10 10 -10 16 0 14 7 11 14 -7z"/>
<path d="M481 5474 c0 -11 3 -14 6 -6 3 7 2 16 -1 19 -3 4 -6 -2 -5 -13z"/>
<path d="M906 5471 c-4 -5 3 -7 14 -4 23 6 26 13 6 13 -8 0 -17 -4 -20 -9z"/>
<path d="M371 5454 c0 -11 3 -14 6 -6 3 7 2 16 -1 19 -3 4 -6 -2 -5 -13z"/>
<path d="M935 5450 c-3 -5 -1 -10 4 -10 6 0 11 5 11 10 0 6 -2 10 -4 10 -3 0
-8 -4 -11 -10z"/>
<path d="M939 5428 c-6 -21 -5 -38 2 -38 5 0 9 9 9 20 0 16 -7 28 -11 18z"/>
<path d="M441 5314 c0 -11 3 -14 6 -6 3 7 2 16 -1 19 -3 4 -6 -2 -5 -13z"/>
<path d="M685 5300 c3 -5 11 -10 16 -10 6 0 7 5 4 10 -3 6 -11 10 -16 10 -6 0
-7 -4 -4 -10z"/>
<path d="M371 5244 c0 -11 3 -14 6 -6 3 7 2 16 -1 19 -3 4 -6 -2 -5 -13z"/>
<path d="M421 5214 c0 -11 3 -14 6 -6 3 7 2 16 -1 19 -3 4 -6 -2 -5 -13z"/>
<path d="M355 5179 c-4 -6 -5 -12 -2 -15 2 -3 7 2 10 11 7 17 1 20 -8 4z"/>
<path d="M421 5118 c-1 -42 2 -79 7 -82 7 -4 5 128 -3 149 -2 6 -4 -25 -4 -67z"/>
<path d="M5 5150 c-3 -5 -1 -10 4 -10 6 0 11 5 11 10 0 6 -2 10 -4 10 -3 0 -8
-4 -11 -10z"/>
<path d="M35 5150 c3 -5 8 -10 11 -10 2 0 4 5 4 10 0 6 -5 10 -11 10 -5 0 -7
-4 -4 -10z"/>
<path d="M326 5115 c-9 -26 -7 -32 5 -12 6 10 9 21 6 23 -2 3 -7 -2 -11 -11z"/>
<path d="M31 5104 c0 -11 3 -14 6 -6 3 7 2 16 -1 19 -3 4 -6 -2 -5 -13z"/>
<path d="M296 5054 c-4 -9 -4 -19 -1 -22 2 -3 7 3 11 12 4 9 4 19 1 22 -2 3
-7 -3 -11 -12z"/>
<path d="M823 5055 c0 -8 4 -12 9 -9 5 3 6 10 3 15 -9 13 -12 11 -12 -6z"/>
<path d="M658 5013 c7 -3 16 -2 19 1 4 3 -2 6 -13 5 -11 0 -14 -3 -6 -6z"/>
<path d="M675 4970 c-3 -6 1 -7 9 -4 18 7 21 14 7 14 -6 0 -13 -4 -16 -10z"/>
<path d="M710 4976 c0 -2 7 -7 16 -10 8 -3 12 -2 9 4 -6 10 -25 14 -25 6z"/>
<path d="M65 4950 c3 -5 8 -10 11 -10 2 0 4 5 4 10 0 6 -5 10 -11 10 -5 0 -7
-4 -4 -10z"/>
<path d="M525 4940 c-3 -5 -1 -10 4 -10 6 0 11 5 11 10 0 6 -2 10 -4 10 -3 0
-8 -4 -11 -10z"/>
<path d="M570 4936 c-14 -18 -10 -61 7 -61 6 0 15 -4 20 -9 4 -5 3 -6 -4 -2
-7 4 -11 0 -10 -12 1 -20 22 -20 65 1 27 13 30 57 4 80 -23 21 -65 22 -82 3z"/>
<path d="M916 4908 c-8 -30 -7 -38 2 -38 4 0 8 14 9 30 3 36 -2 39 -11 8z"/>
<path d="M760 4883 c0 -14 2 -15 9 -4 5 8 14 10 21 6 9 -5 11 -4 6 3 -11 18
-36 14 -36 -5z"/>
<path d="M322 4856 c7 -8 15 -12 17 -11 5 6 -10 25 -20 25 -5 0 -4 -6 3 -14z"/>
<path d="M526 4862 c-3 -5 1 -9 9 -9 8 0 12 4 9 9 -3 4 -7 8 -9 8 -2 0 -6 -4
-9 -8z"/>
<path d="M930 4845 c-12 -22 -12 -28 3 -42 16 -16 17 -15 17 25 0 23 -1 42 -3
42 -2 0 -10 -11 -17 -25z"/>
<path d="M180 4840 c-6 -11 -8 -20 -6 -20 3 0 10 9 16 20 6 11 8 20 6 20 -3 0
-10 -9 -16 -20z"/>
<path d="M421 4844 c0 -11 3 -14 6 -6 3 7 2 16 -1 19 -3 4 -6 -2 -5 -13z"/>
<path d="M601 4804 c0 -11 3 -14 6 -6 3 7 2 16 -1 19 -3 4 -6 -2 -5 -13z"/>
<path d="M750 4816 c0 -3 9 -10 20 -16 11 -6 20 -8 20 -6 0 3 -9 10 -20 16
-11 6 -20 8 -20 6z"/>
<path d="M155 4799 c-4 -6 -5 -12 -2 -15 2 -3 7 2 10 11 7 17 1 20 -8 4z"/>
<path d="M822 4778 c6 -18 28 -21 28 -4 0 9 -7 16 -16 16 -9 0 -14 -5 -12 -12z"/>
<path d="M140 4645 c-13 -14 -34 -25 -46 -25 -18 0 -30 -14 -58 -73 -20 -40
-36 -81 -36 -91 0 -10 16 13 35 50 19 38 35 74 35 80 0 7 10 14 23 18 25 6 98
65 81 66 -6 0 -21 -11 -34 -25z"/>
<path d="M178 4623 c7 -3 16 -2 19 1 4 3 -2 6 -13 5 -11 0 -14 -3 -6 -6z"/>
<path d="M925 4610 c3 -5 8 -10 11 -10 2 0 4 5 4 10 0 6 -5 10 -11 10 -5 0 -7
-4 -4 -10z"/>
<path d="M5 4549 c-4 -6 -5 -12 -2 -15 2 -3 7 2 10 11 7 17 1 20 -8 4z"/>
<path d="M286 4457 c3 -10 9 -15 12 -12 3 3 0 11 -7 18 -10 9 -11 8 -5 -6z"/>
<path d="M147 4368 c21 -10 35 -49 24 -66 -11 -16 -42 -22 -62 -11 -11 5 -17
14 -15 18 3 4 -1 8 -8 8 -22 0 -6 -27 21 -38 34 -13 49 -11 67 6 27 28 4 96
-33 94 -12 0 -10 -3 6 -11z"/>
<path d="M471 4204 c0 -11 3 -14 6 -6 3 7 2 16 -1 19 -3 4 -6 -2 -5 -13z"/>
<path d="M855 4120 c-3 -5 -1 -10 4 -10 6 0 11 5 11 10 0 6 -2 10 -4 10 -3 0
-8 -4 -11 -10z"/>
<path d="M0 4050 c0 -8 6 -26 14 -40 7 -14 20 -38 29 -53 8 -16 17 -25 20 -20
3 5 -10 35 -29 68 -18 33 -34 53 -34 45z"/>
<path d="M529 3923 c-13 -16 -12 -17 4 -4 9 7 17 15 17 17 0 8 -8 3 -21 -13z"/>
<path d="M666 3763 c-6 -14 -5 -15 5 -6 7 7 10 15 7 18 -3 3 -9 -2 -12 -12z"/>
<path d="M517 3749 c7 -7 15 -10 18 -7 3 3 -2 9 -12 12 -14 6 -15 5 -6 -5z"/>
<path d="M200 3730 c0 -5 5 -10 10 -10 6 0 10 5 10 10 0 6 -4 10 -10 10 -5 0
-10 -4 -10 -10z"/>
<path d="M190 3685 c0 -16 16 -20 24 -6 3 5 -1 11 -9 15 -9 3 -15 0 -15 -9z"/>
<path d="M800 3689 c0 -5 5 -7 10 -4 6 3 10 8 10 11 0 2 -4 4 -10 4 -5 0 -10
-5 -10 -11z"/>
<path d="M186 3633 c-11 -11 -6 -23 9 -23 8 0 15 4 15 9 0 13 -16 22 -24 14z"/>
<path d="M590 3594 c0 -8 5 -12 10 -9 6 4 8 11 5 16 -9 14 -15 11 -15 -7z"/>
<path d="M543 3585 c0 -8 4 -12 9 -9 5 3 6 10 3 15 -9 13 -12 11 -12 -6z"/>
<path d="M119 3588 c0 -2 -2 -14 -3 -27 -3 -24 -30 -51 -52 -51 -6 0 -23 9
-38 21 l-26 20 0 -21 c0 -37 83 -48 120 -15 21 19 27 59 10 70 -5 3 -10 5 -11
3z"/>
<path d="M196 3572 c-3 -6 -1 -14 5 -17 15 -10 25 3 12 16 -7 7 -13 7 -17 1z"/>
<path d="M675 3563 c12 -14 17 -15 27 -4 11 11 10 13 -3 8 -9 -3 -22 -1 -28 4
-6 5 -4 1 4 -8z"/>
<path d="M730 3569 c0 -5 5 -7 10 -4 6 3 10 8 10 11 0 2 -4 4 -10 4 -5 0 -10
-5 -10 -11z"/>
<path d="M635 3560 c-3 -5 -1 -10 4 -10 6 0 11 5 11 10 0 6 -2 10 -4 10 -3 0
-8 -4 -11 -10z"/>
<path d="M915 3561 c-6 -11 13 -26 22 -17 4 3 1 6 -6 6 -7 0 -9 5 -6 10 3 6 4
10 1 10 -3 0 -7 -4 -11 -9z"/>
<path d="M826 3541 c-4 -5 -2 -12 3 -15 5 -4 12 -2 15 3 4 5 2 12 -3 15 -5 4
-12 2 -15 -3z"/>
<path d="M237 3514 c-8 -8 1 -24 14 -24 5 0 9 7 9 15 0 15 -12 20 -23 9z"/>
<path d="M684 3505 c4 -24 16 -30 16 -7 0 12 -4 22 -9 22 -5 0 -8 -7 -7 -15z"/>
<path d="M925 3500 c4 -6 11 -8 16 -5 14 9 11 15 -7 15 -8 0 -12 -5 -9 -10z"/>
<path d="M590 3485 c0 -8 2 -15 4 -15 2 0 6 7 10 15 3 8 1 15 -4 15 -6 0 -10
-7 -10 -15z"/>
<path d="M545 3480 c3 -5 8 -10 11 -10 2 0 4 5 4 10 0 6 -5 10 -11 10 -5 0 -7
-4 -4 -10z"/>
<path d="M290 3465 c0 -8 7 -15 15 -15 8 0 15 7 15 15 0 8 -7 15 -15 15 -8 0
-15 -7 -15 -15z"/>
<path d="M360 3460 c0 -5 7 -10 15 -10 8 0 15 5 15 10 0 6 -7 10 -15 10 -8 0
-15 -4 -15 -10z"/>
<path d="M927 3234 c-3 -5 1 -15 9 -22 16 -14 18 -5 5 17 -5 7 -11 9 -14 5z"/>
<path d="M335 3220 c-3 -5 -1 -10 4 -10 6 0 11 5 11 10 0 6 -2 10 -4 10 -3 0
-8 -4 -11 -10z"/>
<path d="M503 3215 c0 -8 4 -12 9 -9 5 3 6 10 3 15 -9 13 -12 11 -12 -6z"/>
<path d="M346 3195 c-11 -8 -15 -15 -9 -15 6 0 16 7 23 15 16 19 11 19 -14 0z"/>
<path d="M520 3165 c-7 -8 -10 -19 -6 -22 4 -4 12 -1 17 7 9 13 10 12 5 -2 -3
-10 -1 -20 5 -24 18 -11 21 3 7 31 -13 24 -16 25 -28 10z"/>
<path d="M885 3171 c-3 -5 -2 -12 3 -15 5 -3 9 1 9 9 0 17 -3 19 -12 6z"/>
<path d="M840 3149 c0 -5 5 -7 10 -4 6 3 10 8 10 11 0 2 -4 4 -10 4 -5 0 -10
-5 -10 -11z"/>
<path d="M780 3145 c0 -7 30 -13 34 -7 3 4 -4 9 -15 9 -10 1 -19 0 -19 -2z"/>
<path d="M590 3132 c0 -4 10 -9 22 -9 18 -2 20 0 8 7 -18 12 -30 13 -30 2z"/>
<path d="M937 3125 c-4 -8 -3 -16 1 -19 4 -3 9 4 9 15 2 23 -3 25 -10 4z"/>
<path d="M836 3117 c3 -10 9 -15 12 -12 3 3 0 11 -7 18 -10 9 -11 8 -5 -6z"/>
<path d="M616 3097 c3 -10 9 -15 12 -12 3 3 0 11 -7 18 -10 9 -11 8 -5 -6z"/>
<path d="M746 3092 c-3 -4 4 -9 15 -9 23 -2 25 3 4 10 -8 4 -16 3 -19 -1z"/>
<path d="M300 3078 c0 -9 6 -19 13 -22 6 -3 0 -3 -15 0 -31 7 -34 -2 -13 -30
20 -26 2 -50 -26 -35 -21 11 -43 3 -34 -12 4 -5 -2 -9 -11 -9 -15 0 -14 -4 6
-25 15 -16 27 -22 35 -15 13 10 56 10 49 -1 -2 -4 3 -14 11 -23 9 -9 11 -17 5
-21 -5 -3 -10 -1 -10 4 0 6 -7 11 -15 11 -8 0 -15 5 -15 10 0 6 -4 10 -10 10
-18 0 -9 -14 27 -44 34 -29 36 -29 46 -10 7 10 12 33 12 49 0 27 3 30 30 30
23 0 30 4 29 18 -2 15 1 16 14 5 11 -9 10 -4 -3 14 -11 15 -27 26 -35 25 -8
-1 -14 4 -12 11 1 6 -2 12 -8 12 -15 0 -12 -16 5 -30 26 -21 8 -24 -19 -3 -19
15 -22 23 -13 32 8 8 5 18 -16 38 -21 21 -27 24 -27 11z m25 -48 c-3 -5 -12
-10 -18 -10 -7 0 -6 4 3 10 19 12 23 12 15 0z m-70 -82 c-21 -12 -39 0 -26 16
6 7 7 17 3 22 -4 5 3 0 16 -10 20 -17 21 -21 7 -28z m70 31 c10 -15 -1 -23
-20 -15 -9 3 -13 10 -10 16 8 13 22 13 30 -1z m70 -19 c3 -6 -1 -7 -9 -4 -18
7 -21 14 -7 14 6 0 13 -4 16 -10z"/>
<path d="M725 3060 c-2 -3 5 -7 16 -7 10 -1 19 2 19 6 0 9 -29 10 -35 1z"/>
<path d="M255 3010 c3 -5 8 -10 11 -10 2 0 4 5 4 10 0 6 -5 10 -11 10 -5 0 -7
-4 -4 -10z"/>
<path d="M846 3003 c-6 -14 -5 -15 5 -6 7 7 10 15 7 18 -3 3 -9 -2 -12 -12z"/>
<path d="M895 3011 c-3 -5 -1 -12 5 -16 5 -3 10 1 10 9 0 18 -6 21 -15 7z"/>
<path d="M894 2958 c-4 -6 -3 -8 4 -4 5 3 12 1 14 -6 3 -8 6 -9 11 -1 4 6 0
13 -8 17 -8 3 -17 0 -21 -6z"/>
<path d="M431 2894 c0 -11 3 -14 6 -6 3 7 2 16 -1 19 -3 4 -6 -2 -5 -13z"/>
<path d="M856 2902 c-3 -5 1 -9 9 -9 8 0 12 4 9 9 -3 4 -7 8 -9 8 -2 0 -6 -4
-9 -8z"/>
<path d="M765 2889 c-6 -8 -4 -10 5 -4 10 6 12 4 6 -11 -6 -15 -5 -17 5 -6 9
9 10 15 2 23 -8 8 -13 7 -18 -2z"/>
<path d="M906 2861 c-4 -5 -2 -12 3 -15 5 -4 12 -2 15 3 4 5 2 12 -3 15 -5 4
-12 2 -15 -3z"/>
<path d="M20 2800 c-19 -6 -20 -8 -6 -9 17 -1 17 -2 2 -26 -14 -21 -14 -24 -1
-19 19 8 19 -3 0 -22 -33 -33 -1 -57 40 -30 33 22 36 85 5 93 -11 3 -17 9 -14
14 3 5 4 9 2 8 -2 -1 -14 -5 -28 -9z m45 -29 c3 -5 1 -12 -5 -16 -5 -3 -10
-12 -10 -18 0 -7 4 -6 10 3 13 20 13 4 0 -21 -17 -30 -27 -22 -27 21 0 38 17
55 32 31z"/>
<path d="M580 2800 c0 -5 5 -10 11 -10 5 0 7 5 4 10 -3 6 -8 10 -11 10 -2 0
-4 -4 -4 -10z"/>
<path d="M866 2801 c-4 -5 -2 -12 3 -15 5 -4 12 -2 15 3 4 5 2 12 -3 15 -5 4
-12 2 -15 -3z"/>
<path d="M525 2791 c-3 -5 -2 -12 3 -15 5 -3 9 1 9 9 0 17 -3 19 -12 6z"/>
<path d="M765 2790 c-3 -6 1 -7 9 -4 18 7 21 14 7 14 -6 0 -13 -4 -16 -10z"/>
<path d="M431 2764 c0 -11 3 -14 6 -6 3 7 2 16 -1 19 -3 4 -6 -2 -5 -13z"/>
<path d="M924 2750 c0 -13 4 -16 10 -10 7 7 7 13 0 20 -6 6 -10 3 -10 -10z"/>
<path d="M543 2679 c-2 -23 3 -25 10 -4 4 8 3 16 -1 19 -4 3 -9 -4 -9 -15z"/>
<path d="M926 2542 c-3 -5 1 -9 9 -9 8 0 12 4 9 9 -3 4 -7 8 -9 8 -2 0 -6 -4
-9 -8z"/>
<path d="M905 2401 c-6 -11 9 -23 19 -14 9 9 7 23 -3 23 -6 0 -12 -4 -16 -9z"/>
<path d="M760 2370 c0 -5 5 -10 11 -10 5 0 7 5 4 10 -3 6 -8 10 -11 10 -2 0
-4 -4 -4 -10z"/>
<path d="M612 2357 c10 -8 14 -18 10 -22 -4 -5 -1 -5 6 -1 17 10 15 14 -10 26
-21 10 -21 10 -6 -3z"/>
<path d="M918 2343 c7 -3 16 -2 19 1 4 3 -2 6 -13 5 -11 0 -14 -3 -6 -6z"/>
<path d="M815 2330 c4 -6 11 -8 16 -5 14 9 11 15 -7 15 -8 0 -12 -5 -9 -10z"/>
<path d="M766 2322 c-3 -5 1 -9 9 -9 8 0 12 4 9 9 -3 4 -7 8 -9 8 -2 0 -6 -4
-9 -8z"/>
<path d="M720 2309 c0 -5 5 -7 10 -4 6 3 10 8 10 11 0 2 -4 4 -10 4 -5 0 -10
-5 -10 -11z"/>
<path d="M918 2308 c-7 -17 15 -19 29 -3 4 4 3 5 -4 2 -6 -4 -13 -2 -15 5 -3
8 -6 6 -10 -4z"/>
<path d="M832 2270 c-9 -15 -9 -21 1 -26 6 -4 9 -4 5 1 -4 4 -3 14 4 22 6 7 9
15 7 18 -3 2 -10 -4 -17 -15z"/>
<path d="M911 2262 c-1 -9 -8 -11 -22 -7 -15 5 -19 4 -15 -4 9 -14 76 -14 76
0 0 6 -6 9 -14 6 -8 -3 -17 -1 -20 6 -3 9 -5 8 -5 -1z"/>
<path d="M840 2180 c0 -5 5 -10 10 -10 6 0 10 5 10 10 0 6 -4 10 -10 10 -5 0
-10 -4 -10 -10z"/>
<path d="M923 2135 c1 -11 9 -29 16 -40 11 -18 12 -17 6 10 -7 34 -27 61 -22
30z"/>
<path d="M378 1973 c6 -2 9 -10 6 -15 -4 -7 -2 -8 5 -4 13 9 5 26 -12 25 -9 0
-8 -2 1 -6z"/>
<path d="M15 1779 c-4 -6 -5 -12 -2 -15 2 -3 7 2 10 11 7 17 1 20 -8 4z"/>
<path d="M340 1756 c0 -2 9 -6 20 -9 11 -3 18 -1 14 4 -5 9 -34 13 -34 5z"/>
<path d="M480 1720 c0 -5 5 -10 10 -10 6 0 10 5 10 10 0 6 -4 10 -10 10 -5 0
-10 -4 -10 -10z"/>
<path d="M254 1690 c0 -13 4 -16 10 -10 7 7 7 13 0 20 -6 6 -10 3 -10 -10z"/>
<path d="M297 1684 c6 -15 23 -19 23 -5 0 5 -7 11 -14 14 -10 4 -13 1 -9 -9z"/>
<path d="M634 1539 c14 -11 26 -27 26 -35 0 -8 11 -32 25 -54 14 -22 25 -48
25 -57 0 -15 2 -15 9 -4 6 9 4 23 -6 38 -10 14 -11 23 -4 23 6 0 11 -5 11 -12
0 -6 3 -8 6 -5 11 11 -87 127 -107 127 -6 0 0 -9 15 -21z"/>
<path d="M600 1532 c0 -5 7 -13 16 -16 10 -4 14 -1 12 6 -5 15 -28 23 -28 10z"/>
<path d="M733 1515 c0 -8 4 -12 9 -9 5 3 6 10 3 15 -9 13 -12 11 -12 -6z"/>
<path d="M751 1466 c-15 -18 -6 -36 17 -35 15 1 15 2 0 6 -21 5 -24 19 -5 26
6 2 9 7 6 11 -3 4 -12 0 -18 -8z"/>
<path d="M920 1476 c0 -2 7 -6 15 -10 8 -3 15 -1 15 4 0 6 -7 10 -15 10 -8 0
-15 -2 -15 -4z"/>
<path d="M646 1459 c-4 -8 2 -35 13 -60 24 -51 26 -44 7 26 -9 33 -16 45 -20
34z"/>
<path d="M325 1419 c-4 -6 -5 -12 -2 -15 2 -3 7 2 10 11 7 17 1 20 -8 4z"/>
<path d="M879 1403 c-8 -9 -9 -14 -2 -10 6 4 19 0 27 -9 9 -8 16 -10 16 -4 0
6 -7 13 -15 16 -8 4 -12 10 -9 15 9 15 -3 10 -17 -8z"/>
<path d="M770 1360 c-49 -26 -52 -29 -27 -30 16 0 26 4 22 10 -3 6 2 10 13 10
10 0 27 9 37 20 22 25 22 25 -45 -10z"/>
<path d="M841 1357 c-13 -21 -12 -21 5 -5 10 10 16 20 13 22 -3 3 -11 -5 -18
-17z"/>
<path d="M880 1370 c0 -5 5 -10 11 -10 5 0 7 5 4 10 -3 6 -8 10 -11 10 -2 0
-4 -4 -4 -10z"/>
<path d="M596 1353 c-18 -3 -30 -12 -34 -25 -5 -20 -5 -20 -19 -2 -14 19 -15
18 -11 -1 2 -12 13 -21 26 -23 20 -3 22 -8 17 -32 -5 -25 -4 -28 13 -23 12 3
22 -2 26 -13 9 -24 0 -29 -21 -13 -16 12 -17 12 -6 -2 10 -12 10 -18 1 -27 -9
-9 -8 -12 5 -12 9 0 20 7 25 16 6 11 11 13 16 5 4 -6 12 -11 17 -11 6 0 -1 15
-15 33 -27 36 -34 67 -14 67 6 0 8 3 5 6 -4 4 -13 2 -21 -5 -11 -9 -15 -6 -19
15 -3 20 0 27 19 34 13 5 24 12 24 15 0 3 -1 4 -2 4 -2 -1 -16 -4 -32 -6z"/>
<path d="M780 1326 c0 -8 5 -18 10 -21 6 -3 10 1 10 9 0 8 -4 18 -10 21 -5 3
-10 -1 -10 -9z"/>
<path d="M874 1329 c-4 -7 -3 -9 4 -5 6 3 15 -2 21 -11 6 -10 11 -13 11 -7 0
20 -27 37 -36 23z"/>
<path d="M770 1271 c0 -25 6 -27 13 -6 4 8 2 17 -3 20 -6 4 -10 -3 -10 -14z"/>
<path d="M809 1263 c-13 -16 -12 -17 4 -4 9 7 17 15 17 17 0 8 -8 3 -21 -13z"/>
<path d="M95 1239 c-4 -6 -5 -12 -2 -15 2 -3 7 2 10 11 7 17 1 20 -8 4z"/>
<path d="M175 1241 c-3 -5 0 -13 6 -17 7 -4 9 -3 5 4 -3 5 0 13 6 15 9 4 10 6
1 6 -6 1 -14 -3 -18 -8z"/>
<path d="M0 1189 c0 -5 5 -7 10 -4 5 3 10 8 10 11 0 2 -4 4 -10 4 -5 0 -10 -5
-10 -11z"/>
<path d="M105 1146 c-30 -31 -58 -69 -61 -84 -4 -15 -12 -34 -19 -42 -30 -37
-22 -97 9 -71 9 8 16 20 16 28 0 8 5 11 10 8 16 -10 12 -37 -8 -59 -34 -39
-52 -107 -52 -201 0 -70 4 -93 17 -109 17 -20 17 -20 1 -7 -17 13 -18 8 -18
-67 0 -83 9 -99 45 -85 9 3 22 -2 29 -12 13 -18 16 -17 87 5 41 13 89 33 107
43 37 22 40 50 5 55 -30 4 -35 32 -39 210 -3 132 -6 160 -24 193 -24 47 -26
93 -5 142 17 42 19 61 5 52 -5 -3 -10 0 -10 8 0 8 -9 22 -20 32 -19 17 -21 16
-75 -39z m60 24 c-3 -5 -11 -10 -16 -10 -6 0 -7 5 -4 10 3 6 11 10 16 10 6 0
7 -4 4 -10z m-50 -89 c3 -5 2 -12 -3 -15 -5 -3 -9 1 -9 9 0 17 3 19 12 6z m72
-223 c-3 -8 -6 -5 -6 6 -1 11 2 17 5 13 3 -3 4 -12 1 -19z m-120 -140 c-3 -8
-6 -5 -6 6 -1 11 2 17 5 13 3 -3 4 -12 1 -19z m73 -74 c-66 -45 -73 -43 -22 6
23 23 42 46 42 53 0 7 7 4 15 -7 13 -17 10 -21 -35 -52z m-11 -37 c-13 -13
-26 -21 -29 -19 -5 4 38 42 48 42 3 0 -6 -10 -19 -23z m79 -8 c1 -45 21 -89
41 -89 14 -1 13 -3 -3 -15 -16 -12 -20 -12 -33 1 -8 7 -21 14 -30 14 -10 0
-13 5 -8 18 7 17 8 22 20 75 7 36 12 34 13 -4z m-118 -16 c0 -3 -7 -3 -15 1
-8 3 -15 1 -15 -5 0 -6 -5 -7 -11 -3 -8 4 -7 9 2 14 12 8 39 3 39 -7z m0 -17
c0 -2 -7 -7 -16 -10 -8 -3 -12 -2 -9 4 6 10 25 14 25 6z m54 -30 c-9 -15 -19
-25 -21 -22 -5 5 30 56 35 51 2 -2 -4 -15 -14 -29z m-94 20 c0 -3 -4 -8 -10
-11 -5 -3 -10 -1 -10 4 0 6 5 11 10 11 6 0 10 -2 10 -4z m10 -36 c0 -5 -5 -10
-11 -10 -5 0 -7 5 -4 10 3 6 8 10 11 10 2 0 4 -4 4 -10z m36 -48 c-18 -16 -18
-16 -6 6 6 13 14 21 18 18 3 -4 -2 -14 -12 -24z"/>
<path d="M50 1171 c0 -6 4 -13 10 -16 6 -3 7 1 4 9 -7 18 -14 21 -14 7z"/>
<path d="M340 1093 l-35 -36 40 29 c22 15 41 29 43 30 2 1 0 4 -5 7 -4 2 -24
-11 -43 -30z"/>
<path d="M237 1093 c-4 -3 -7 -11 -7 -17 0 -6 5 -5 12 2 6 6 9 14 7 17 -3 3
-9 2 -12 -2z"/>
<path d="M641 1073 c7 -12 15 -20 18 -17 3 2 -3 12 -13 22 -17 16 -18 16 -5
-5z"/>
<path d="M786 1078 c7 -11 34 -10 34 1 0 6 -9 9 -19 8 -11 0 -17 -5 -15 -9z"/>
<path d="M586 1050 c6 -8 13 -22 16 -30 3 -9 7 -10 11 -3 4 6 -3 19 -16 29
-12 11 -17 12 -11 4z"/>
<path d="M905 1050 c-3 -6 1 -7 9 -4 18 7 21 14 7 14 -6 0 -13 -4 -16 -10z"/>
<path d="M215 1040 c-3 -6 1 -7 9 -4 18 7 21 14 7 14 -6 0 -13 -4 -16 -10z"/>
<path d="M665 1030 c-3 -5 1 -10 10 -10 9 0 13 5 10 10 -3 6 -8 10 -10 10 -2
0 -7 -4 -10 -10z"/>
<path d="M716 1018 c-9 -12 -16 -34 -16 -47 0 -19 -3 -22 -12 -13 -17 17 -48
15 -85 -8 -41 -24 -55 -80 -28 -110 25 -28 44 -25 42 6 -4 49 25 53 85 12 29
-20 74 -43 101 -50 38 -10 46 -16 41 -30 -4 -14 0 -18 21 -18 22 0 24 -2 15
-20 -15 -27 5 -151 35 -217 13 -29 26 -53 29 -53 2 0 3 15 2 33 -1 19 -6 31
-13 30 -7 -2 -10 3 -7 11 3 8 0 33 -6 57 -17 63 -14 166 5 219 17 44 30 140
19 140 -3 0 -19 -7 -35 -16 -57 -29 -125 8 -99 56 21 40 -67 57 -94 18z m67
-15 c-7 -3 -9 -11 -6 -19 3 -8 1 -14 -5 -14 -6 0 -13 6 -15 13 -3 6 -4 -1 -3
-18 2 -19 7 -29 15 -27 8 2 20 -6 28 -17 8 -12 28 -25 46 -30 l32 -9 -28 -1
c-18 -1 -37 8 -54 27 -17 17 -24 21 -20 10 8 -23 -1 -23 -27 -1 l-21 17 20
-22 c11 -12 45 -31 75 -42 l55 -19 -38 -1 c-31 0 -107 30 -127 50 -3 3 -18 14
-34 24 -28 18 -29 18 -22 0 6 -15 4 -16 -5 -7 -9 9 -17 8 -35 -4 -13 -8 -24
-11 -24 -5 0 14 25 33 33 25 4 -3 7 -2 7 4 0 15 63 10 68 -5 2 -7 8 -12 13
-12 6 0 7 5 4 10 -3 6 -1 10 5 10 7 0 9 8 5 20 -4 13 -2 20 6 20 7 0 9 3 5 7
-9 9 36 33 48 25 6 -3 5 -7 -1 -9z m137 -159 c-18 -43 -20 -45 -14 -14 7 38
23 74 30 67 3 -2 -5 -26 -16 -53z m-23 -206 c-3 -8 -6 -5 -6 6 -1 11 2 17 5
13 3 -3 4 -12 1 -19z"/>
<path d="M907 1010 c-3 -11 -1 -20 4 -20 5 0 9 9 9 20 0 11 -2 20 -4 20 -2 0
-6 -9 -9 -20z"/>
<path d="M557 985 c-4 -8 -3 -16 1 -19 4 -3 9 4 9 15 2 23 -3 25 -10 4z"/>
<path d="M231 974 c0 -11 3 -14 6 -6 3 7 2 16 -1 19 -3 4 -6 -2 -5 -13z"/>
<path d="M335 940 c-3 -5 -1 -10 4 -10 6 0 11 5 11 10 0 6 -2 10 -4 10 -3 0
-8 -4 -11 -10z"/>
<path d="M393 802 c-29 -25 -52 -92 -31 -92 4 0 8 12 8 28 0 21 2 24 10 12 6
-9 10 -11 10 -3 0 7 6 10 14 7 8 -3 17 0 21 6 5 8 11 8 21 -1 16 -13 19 -44 4
-34 -5 3 -10 1 -10 -4 0 -6 7 -11 16 -11 9 0 13 -5 9 -12 -4 -7 2 -3 13 10 20
22 39 31 27 12 -4 -6 1 -7 11 -3 14 5 14 7 -5 17 -18 10 -19 14 -8 30 12 17
14 17 28 0 7 -9 13 -19 12 -21 -8 -10 -1 -23 12 -23 8 0 15 5 15 11 0 5 -4 8
-9 5 -5 -3 -8 6 -8 20 0 34 -28 63 -45 46 -7 -7 -30 -12 -52 -12 -23 0 -36 4
-29 8 7 4 9 13 5 19 -5 8 -17 3 -39 -15z"/>
<path d="M305 780 c-3 -5 -1 -10 4 -10 6 0 11 5 11 10 0 6 -2 10 -4 10 -3 0
-8 -4 -11 -10z"/>
<path d="M935 770 c3 -5 8 -10 11 -10 2 0 4 5 4 10 0 6 -5 10 -11 10 -5 0 -7
-4 -4 -10z"/>
<path d="M650 745 c0 -16 29 -50 51 -58 11 -4 11 -8 -3 -22 -15 -17 -18 -16
-48 5 -25 18 -34 20 -43 10 -9 -10 -8 -12 5 -7 9 3 22 -1 30 -10 11 -14 10
-15 -7 -9 -16 4 -25 -1 -38 -23 -9 -16 -17 -36 -17 -45 0 -33 -20 -14 -51 49
-25 51 -35 63 -45 54 -20 -16 -51 -2 -63 29 l-9 27 -1 -26 c-1 -25 -45 -102
-85 -149 l-21 -25 28 24 c15 14 27 19 27 13 0 -6 -4 -14 -10 -17 -5 -3 -10
-12 -10 -18 0 -7 10 3 21 21 12 18 24 30 27 28 8 -8 -48 -87 -57 -81 -5 2 -15
-3 -22 -13 -13 -15 -12 -16 4 -3 21 17 22 9 2 -29 -9 -17 -13 -30 -11 -30 3 0
-4 -21 -16 -47 -14 -32 -17 -48 -9 -51 6 -2 11 -8 11 -13 0 -4 -6 -6 -14 -3
-9 3 -15 -5 -20 -27 -8 -42 -8 -59 2 -59 7 0 24 43 45 118 7 24 16 40 20 36 6
-7 11 13 10 44 -1 17 -1 16 39 -22 25 -24 33 -38 26 -49 -5 -10 -3 -21 8 -32
19 -19 40 -15 38 8 -1 9 2 14 8 11 5 -3 8 -14 6 -23 -2 -10 2 -24 8 -32 7 -8
14 -23 17 -34 3 -15 5 -13 6 8 0 15 8 30 16 33 8 4 12 10 9 15 -3 5 4 9 15 9
20 0 37 32 26 50 -3 5 2 21 12 35 19 25 33 32 33 15 0 -5 10 -20 23 -32 67
-71 147 -162 147 -170 0 -4 5 -8 10 -8 27 0 58 -45 62 -87 1 -6 8 -9 16 -5 10
3 13 1 8 -6 -6 -10 10 -26 26 -27 13 0 21 -15 8 -15 -10 0 -10 -3 -1 -14 10
-12 9 -13 -7 -9 -11 2 -19 12 -18 20 0 9 -5 17 -12 19 -7 1 -8 0 -2 -3 5 -2
10 -9 10 -14 0 -6 -6 -7 -12 -3 -10 6 -10 5 -1 -7 6 -8 25 -22 41 -31 l29 -17
-7 37 c-10 49 -20 73 -30 67 -4 -3 -7 3 -6 12 0 9 -5 18 -13 21 -10 3 -11 0
-5 -9 7 -12 5 -12 -9 0 -31 25 -7 31 43 11 l50 -20 0 25 c0 14 -5 25 -12 25
-9 0 -9 3 0 12 9 9 6 19 -14 45 -14 18 -21 33 -15 33 5 0 13 -5 16 -10 3 -6
11 -10 16 -10 16 0 -13 25 -49 44 -18 9 -32 23 -32 30 0 14 -28 42 -35 35 -6
-7 16 -43 59 -93 21 -26 36 -49 33 -52 -6 -6 -65 40 -124 94 -14 13 -27 21
-30 18 -7 -6 25 -35 81 -74 27 -18 46 -36 43 -39 -10 -9 -90 53 -160 123 -37
38 -63 70 -58 72 6 2 11 10 11 18 0 7 -6 11 -13 9 -12 -5 -54 113 -50 144 1 9
-2 10 -9 3 -7 -7 -4 -30 11 -73 11 -34 19 -64 17 -67 -2 -2 -15 16 -29 40 -26
45 -26 89 0 133 11 19 12 19 32 1 11 -10 19 -22 16 -25 -2 -4 5 -8 16 -8 14
-1 19 5 19 24 0 14 10 35 23 46 14 13 18 21 10 24 -28 10 -64 46 -59 59 3 8 1
14 -4 14 -6 0 -10 -7 -10 -15z m-35 -285 c50 -71 143 -168 210 -218 29 -22 29
-23 5 -16 -14 3 -36 17 -50 30 -14 13 -36 34 -50 47 -35 32 -130 143 -130 153
0 4 -6 15 -14 23 -20 24 -96 168 -96 183 0 7 17 -18 36 -57 20 -38 60 -104 89
-145z m-195 196 c0 -16 -22 -58 -27 -52 -3 3 -12 1 -20 -5 -19 -17 -16 -1 8
32 17 25 39 38 39 25z m-4 -92 c-30 -65 -31 -68 -13 -58 6 4 4 -2 -5 -13 -21
-23 -23 -46 -5 -61 6 -5 46 -9 87 -9 70 2 75 4 78 25 2 12 8 22 13 22 16 0 10
-29 -10 -49 -27 -27 -155 -27 -182 0 -19 19 -27 75 -9 64 6 -3 10 0 10 7 0 18
52 139 58 134 2 -3 -8 -30 -22 -62z m114 -38 c0 -6 -7 -1 -15 10 -8 10 -15 23
-15 28 0 6 7 1 15 -10 8 -10 15 -23 15 -28z m-49 -49 c-10 -9 -11 -8 -5 6 3
10 9 15 12 12 3 -3 0 -11 -7 -18z m454 -305 c-7 -7 -65 19 -65 29 0 5 16 1 35
-8 19 -9 33 -19 30 -21z"/>
<path d="M778 671 c23 -17 42 -37 42 -44 0 -7 7 -22 15 -33 14 -19 14 -18 15
4 0 27 -56 88 -90 97 -19 6 -15 0 18 -24z"/>
<path d="M847 563 c-17 -17 -5 -67 23 -100 17 -18 30 -38 30 -44 0 -6 5 -7 11
-4 6 4 17 -1 25 -11 14 -18 14 -18 4 4 -6 12 -14 22 -18 22 -10 0 -72 80 -72
92 0 5 4 7 9 4 4 -3 6 6 3 19 -5 27 -6 28 -15 18z"/>
<path d="M643 544 c-3 -8 0 -21 6 -27 9 -9 11 -8 6 6 -5 12 -2 17 13 17 15 0
23 -13 36 -57 26 -85 37 -111 52 -124 11 -9 14 -8 14 3 0 8 -4 18 -9 24 -10 9
-41 109 -41 129 0 7 10 17 23 23 21 11 21 11 -5 6 -15 -3 -41 -1 -58 5 -25 8
-32 7 -37 -5z"/>
<path d="M800 513 c27 -89 61 -136 83 -114 9 9 7 13 -8 17 -21 5 -65 72 -65
98 0 8 -4 17 -9 21 -6 3 -6 -5 -1 -22z"/>
<path d="M257 465 c-15 -14 -25 -25 -21 -25 4 0 16 7 26 17 36 33 27 6 -12
-35 -51 -53 -94 -75 -147 -76 -22 -1 -36 -4 -30 -8 8 -5 7 -11 -5 -20 -32 -24
-68 -132 -68 -203 l0 -66 72 38 c67 34 168 120 168 141 0 5 -7 9 -15 9 -8 0
-12 -4 -9 -9 3 -4 2 -8 -3 -9 -4 0 -21 -2 -38 -4 -21 -3 -26 -2 -15 5 11 7 12
10 2 10 -16 0 -30 -14 -56 -54 -16 -25 -20 -27 -28 -12 -5 9 -14 13 -20 10 -7
-4 -8 -2 -4 4 4 7 15 12 25 12 10 0 26 11 35 25 9 14 23 25 31 25 17 0 21 19
5 21 -5 1 -14 2 -19 3 -20 2 -19 12 1 25 19 12 20 11 14 -5 -6 -15 -2 -13 18
5 15 14 26 30 26 36 0 6 11 22 24 34 14 13 23 17 23 9 -1 -7 1 -14 6 -15 4 -2
7 0 8 5 0 4 5 12 11 19 5 7 7 17 3 23 -3 5 3 22 14 36 11 14 17 32 14 40 -6
17 -2 18 -36 -11z m-87 -135 c0 -5 -3 -9 -7 -9 -23 4 -43 -2 -38 -11 3 -6 -1
-7 -9 -4 -21 8 -20 13 7 24 30 12 47 12 47 0z"/>
<path d="M4 409 c-6 -10 56 -17 126 -16 35 1 65 7 67 12 3 11 -186 15 -193 4z"/>
<path d="M920 347 c0 -8 7 -17 15 -21 8 -3 15 -2 15 3 0 5 -7 14 -15 21 -12
10 -15 10 -15 -3z"/>
<path d="M331 314 c0 -11 3 -14 6 -6 3 7 2 16 -1 19 -3 4 -6 -2 -5 -13z"/>
<path d="M226 305 c-3 -8 -1 -15 4 -15 6 0 10 7 10 15 0 8 -2 15 -4 15 -2 0
-6 -7 -10 -15z"/>
<path d="M185 300 c-3 -5 1 -10 9 -10 9 0 16 5 16 10 0 6 -4 10 -9 10 -6 0
-13 -4 -16 -10z"/>
<path d="M316 228 c1 -29 3 -66 3 -82 1 -39 20 -22 22 19 2 27 -17 115 -25
115 -2 0 -2 -24 0 -52z"/>
<path d="M194 258 c-4 -5 -3 -12 0 -15 3 -4 6 -1 6 6 0 7 4 10 9 6 5 -3 12 -2
15 3 3 5 -2 9 -10 9 -8 0 -17 -4 -20 -9z"/>
<path d="M362 193 c-1 -23 -5 -50 -8 -60 -5 -17 -5 -17 6 0 6 9 9 36 7 60 l-4
42 -1 -42z"/>
<path d="M261 194 c0 -11 3 -14 6 -6 3 7 2 16 -1 19 -3 4 -6 -2 -5 -13z"/>
<path d="M771 136 c-10 -57 -11 -78 -1 -95 10 -19 14 -20 28 -9 12 10 14 10 8
1 -4 -7 -2 -13 4 -13 6 0 8 10 4 24 -3 13 -1 27 5 30 14 9 14 26 1 26 -5 0
-10 -7 -10 -15 0 -8 -6 -15 -14 -15 -9 0 -12 8 -8 25 3 21 9 24 26 19 20 -6
20 -5 2 8 -10 8 -19 29 -21 46 -4 54 -10 45 -24 -32z"/>
<path d="M576 185 c-11 -8 -15 -15 -9 -15 6 0 16 7 23 15 16 19 11 19 -14 0z"/>
<path d="M668 183 c7 -3 16 -2 19 1 4 3 -2 6 -13 5 -11 0 -14 -3 -6 -6z"/>
<path d="M806 182 c-7 -11 4 -52 13 -52 4 0 6 14 3 30 -4 31 -7 35 -16 22z"/>
<path d="M295 109 c0 -21 1 -39 2 -39 1 0 14 5 28 12 30 13 34 32 5 23 -15 -5
-20 -2 -20 14 0 11 -4 22 -8 25 -4 2 -8 -13 -7 -35z"/>
<path d="M570 85 c13 -14 26 -25 28 -25 3 0 -5 11 -18 25 -13 14 -26 25 -28
25 -3 0 5 -11 18 -25z"/>
<path d="M428 73 c7 -3 16 -2 19 1 4 3 -2 6 -13 5 -11 0 -14 -3 -6 -6z"/>
<path d="M520 55 c0 -8 4 -15 10 -15 5 0 7 7 4 15 -4 8 -8 15 -10 15 -2 0 -4
-7 -4 -15z"/>
</g>
</svg>
