<svg id="Livello_1" data-name="Livello 1" xmlns="http://www.w3.org/2000/svg" viewBox="0 0 991 448.48">
  <title>pizza_incunabula</title>
  <g>
    <path d="M981.3,46.5c-5.4.2-10.2.4-10.8.5a3.75,3.75,0,0,1-1.5,0c-.3-.2-6.3-.4-13.5-.6s-19.7-.5-28-.9-34.7-.7-58.7-1c-29.5-.3-44.4-.8-45.8-1.5-1.6-.9-2.5-.8-3.6,0-.9.9-3.4,1-7.8.5-5.54-.56-6.41-.86-7.4-3a13.65,13.65,0,0,1-1.9-2.11c-.29-.38-.47-.64-.65-.86l-.87-.78-.54-.46a15.89,15.89,0,0,0-2.72-1.32c-.25,0-.5,0-.74-.06a1.67,1.67,0,0,1-1.38.14c-2.72-1-6-4.54-8.48-6.14-5.38-1.64-8.82-4.24-13.92-2.07-.37.66-3.64,1.42-4.4,2.31-1.7,2-2.2,3.5-1.8,5.1.9,3.1,4.4,8.8,5.4,8.8.4,0,.8.7.8,1.6,0,1.3-.7,1.5-3.9.9-7.6-1.3-11.7-1.6-25.9-2-7.9-.2-14.7-.7-15.2-1a2,2,0,0,0-2.2.2c-1.9,1.1-9.1,1.4-9.7.4a7.72,7.72,0,0,0-2.8-1.5c-1.8-.6-2.3-.3-2.3.9s-.6,1.5-2,1a4.9,4.9,0,0,0-3.2.1,5.12,5.12,0,0,1-7-1c-1.6-2-1.7-2-3.1-.2-1,1.4-1.8,1.6-3.3.9a6.76,6.76,0,0,0-5.1-.4c-.5.1-10.9.2-23.3.2-19.1,0-22.6-.2-23.6-1.6-1.4-1.9-2.5-2-1.8-.1.4,1.1,0,1.3-1.5.9a5.17,5.17,0,0,1-2.7-1.4c-.8-1.4-2.4-1.1-2.4.5s-4.5,3-6.1,2.1c-.5-.4-13.1-.8-28.1-1s-27.4-.7-27.7-1.2c-.5-.7-4.9-1-6.1-.3s-28.1.6-28.5,0c-.2-.3-4.8-.5-10.2-.4-8.7.2-22,.3-29.3.3-1.4,0-5.3.2-8.6.5-6.4.5-7.3,0-7.8-5-.4-3.2-6.3-11.9-10.8-15.6-2.7-2.4-6.6-5.7-8.5-7.5a19.32,19.32,0,0,0-6.6-3.9,11,11,0,0,1-4.6-1.8c-1.7-1.3-2.7-1.4-15.1-2-9.3-.4-14.8.7-22.2,4.5a9.11,9.11,0,0,1-3.3.9c-.8,0-1.5.3-1.5.8s-1.5,1.6-3.4,2.6C397,17.9,383,32.9,383,36.4c0,3.2-.8,3.6-3.8,2.3-2-.9-2.6-.9-3,.1s-.9.9-2.4.1c-2-1.1-35.6-.7-37.5.4a57,57,0,0,1-9.3.1c-4.7-.2-10.8-.4-13.7-.4s-5.5-.5-5.8-1c-.5-.8-2.9-.7-9.2.6-1.9.4-2.3,0-2.3-2.2,0-1.9-.4-2.5-1.7-2.2-1.1.2-1.8,1.3-1.8,2.8v2.4l-14.5.1c-8,0-18.8-.1-24-.3s-13.8,0-19,.3-15.5.6-22.7.6-13.5.4-13.8.9-1.8.5-3.5,0-8-.6-14.2-.4c-30.4,1.3-121.6,2.3-127,1.5-2.7-.5-5-.5-5.3-.1s-11.2.6-24.4.6L0,42.5v2.2c0,2.2.4,2.3,9.8,2.5H21c2.3-.3,72.4-.2,99.3.1,13.2.1,24.1-.1,24.3-.5s1.7-.3,3.2,0,6.8.7,11.7.6c20.2-.4,111.3-.5,115.7-.1,2.6.1,5,.6,5.3.9s2.1.2,3.8-.2c3.1-.8,16.1-1.5,49.1-2.6,8.8-.2,16.3-.7,16.8-1,.9-.6,23.9-.6,27.2,0,2.9.4,3,2.1.7,6a12.67,12.67,0,0,0-2.1,5c0,1.2-.9,1.6-3.3,1.6a18.15,18.15,0,0,0-6.5,1.5,18,18,0,0,1-6.4,1.8,9.61,9.61,0,0,0-4.6,1.4,4.8,4.8,0,0,1-2.9,1.3c-1.9,0-10.7,3.8-17,7.4-5.3,3-9.3,8.4-9.3,12.6,0,1.1,1.1,3.8,2.5,6a26,26,0,0,1,2.5,4.5c0,.9-4.9.5-5.5-.5-.3-.5-1.8-.9-3.3-1-7.5-.1-19.3-2-20.9-3.2s-3.3-.1-3.3,2.5c0,2.1,3.7,5.6,12.5,11.7,2,1.4,5.6,4.1,8,6.2a133.52,133.52,0,0,0,11,7.9c3.6,2.4,6.5,4.7,6.5,5.1s.9.8,1.9.8a3,3,0,0,1,2.5,1.5,2.39,2.39,0,0,0,2,1.5,3.32,3.32,0,0,1,2.5,1.7c.7,1.5,2.2,1.8,8.3,1.7a93,93,0,0,1,13.3.7c3.3.5,10.5,1.1,16,1.4,11.8.6,26.4,2.3,32,3.8,2.2.6,4.5.9,5,.7,1.2-.3,1.2-.3,10.5.5,12.1,1,24.1,1.6,30,1.4,7.1-.2,6.3-.2,15,.5,4.1.4,10.2.9,13.5,1.1s10.3.7,15.5,1,12.4.8,16,1.2,7.4.7,8.5.8a17.92,17.92,0,0,1,4.8,1.4,18.53,18.53,0,0,0,5.5,1.1h2.7l-3.5-3.4c-4.3-4.1-7-7.6-7-9.1,0-.7-2.7-2.3-6-3.8s-6-3.1-6-3.7,1.2-2.2,2.6-3.5c2.2-2.1,2.5-2.7,1.4-4a6.14,6.14,0,0,0-4.1-1.5c-3.8,0-4.7-1.9-1.8-4.1,1.3-1,2.2-1.9,1.9-2s-3.2-.2-6.5-.4c-44.9-2.8-46.8-3-47.3-5.7-.4-2.1,2.1-2.6,16.3-3.4,14.8-.8,29.4-2.9,32-4.6a53.64,53.64,0,0,1,5.4-1.8,22.46,22.46,0,0,0,6.7-2.8c3.2-2.3,3.2-7.3,0-10.8-1.3-1.4-3-3.4-3.8-4.3s-3.7-3.4-6.3-5.6-5.8-4.9-6.9-6c-4.4-4-11.6-8.4-15-9.1-5-.9-12.8-6-12.4-8.1.4-1.9,5.7-2.1,28.3-.9,11.7.7,24.2,1.1,63.5,2.2,22.9.6,32.3,1.4,33.6,2.7.7.6,4.3.1,7.4-1,2.5-.9,9.4-1.2,10.5-.4s8.8.7,20.5-.4a81.78,81.78,0,0,1,10-.4c3.6.4,12.2.4,14.5-.1,1.1-.2,5.9-.2,10.8-.2l8.7.2v2.8a9.4,9.4,0,0,0,1.5,4.8,7.26,7.26,0,0,1,1.5,3.8c0,1,1.4,3.4,3,5.3s3,4,3,4.8a1.45,1.45,0,0,0,1.4,1.5c.7,0,1.6.9,1.9,2,.3,1.3,1.4,2,3,2,1.3,0,3.8,1.3,5.5,3,3,2.9,6,4.1,4.7,2-.8-1.4,1.8-1.3,3.2.1a2.65,2.65,0,0,1,.7,2.3c-.6,1.6,3.6,4,4.8,2.8.6-.6,2-.4,3.9.5,2.4,1.2,2.8,1.8,1.8,2.9s-.7,1.4,1,1.4c1.4,0,2,.4,1.5,1.2s-.2.9.8.6c1.9-.8,2.9,0,4.7,3.4a9.11,9.11,0,0,0,4.4,3.8c3.9,1.3,9.7,5.7,9.7,7.4,0,.7,1.1,1.8,2.5,2.4,3.3,1.5,3.5,4.7.3,3.7-3.5-1.1-12.4-2.5-22.3-3.4-4.9-.4-10.3-1.3-11.9-2s-3.6-.9-4.4-.6a3,3,0,0,1-2.6-.4c-1.9-1.6-14.2-4.5-16.1-3.8-1.4.6-1.6,1.4-1,4.4.4,2.1,1.5,4.3,2.6,5.1a4.54,4.54,0,0,1,1.9,3.1c0,1,1.4,3.7,3,5.9s3,4.6,3,5.2a1.08,1.08,0,0,0,1,1c.6,0,1,.8,1,1.9a4.8,4.8,0,0,0,1.5,3.1,4.22,4.22,0,0,1,1.5,2.5,4.41,4.41,0,0,0,1.6,2.6,3.65,3.65,0,0,1,1.1,3.1,2.38,2.38,0,0,0,1.4,2.8,3.87,3.87,0,0,1,1.9,2.6c0,1.5,4.4,8,6.7,9.9a9,9,0,0,1,2.2,3.7c1.1,3,2.6,3.4,8,1.8,2.8-.8,3.6-.6,4.7.8,1.3,1.6,1.3,1.6,1.4-.1s1.1-2.2,2.4-1a8.26,8.26,0,0,0,3.8.9c1.7.1,3.4.7,3.8,1.4s1.8,1,3.6.6c1.6-.4,5-.2,7.6.2,3.2.6,5,.6,5.8-.2s1.4-.7,2,.5,1.9,1.5,5.3.9a19.93,19.93,0,0,1,7.8.5c2.5.9,3.9.9,5.2.1s2.2-.7,3.8.2c1.1.7,4.9,1.6,8.5,1.9s6.9,1.2,7.5,1.9c1.5,1.8,4.9,1.8,4.9,0,0-1.1.8-1.1,5.1,0a33.8,33.8,0,0,0,11.2.7,85.47,85.47,0,0,1,17,1.1,99.32,99.32,0,0,0,14.5,1.5,21.68,21.68,0,0,1,6,.5c1.3.4,8,1,15,1.2,15.5.5,15.5.5,16.7,1.5.6.4,4.8,1,9.5,1.3,20.5,1.5,20.5,1.5,31.5,5.2,5,1.7,8.2,1.8,8.7.2.4-1,3.1-1,12.9.1,23,2.4,26.9,2.5,26.9.9a3.79,3.79,0,0,0-1.4-2.7c-2-1.7-12.6-19.3-12.6-21a19.28,19.28,0,0,0-1.9-5c-2.7-5.1-5.1-10.7-5.1-11.9a4,4,0,0,0-1.4-2.2,6.78,6.78,0,0,1-1.8-3.8c-.3-2.9.2-2.8-11.3-1.9a49.58,49.58,0,0,1-9.5-.5,83.13,83.13,0,0,0-11.3-1c-3.7,0-7-.5-7.4-1.1s.7-2.1,2.3-3.5,5.1-4.5,7.9-6.9l5-4.4.3-7.9a36.08,36.08,0,0,0-1.4-13.6c-.9-3.3-1.8-6.5-2-7.1a21.69,21.69,0,0,0-2.6-5c-1.2-2.1-2.8-4.7-3.3-5.8a8,8,0,0,0-3.3-3,5.28,5.28,0,0,1-2.7-2.6c-.6-1.9-5.2-4.1-16.3-8-10.6-3.8-18.6-3.8-29.2-.1-4.4,1.6-10.6,3-11.2,2.5-.5-.2-.8-1-.8-1.8,0-1.5-6.9-4.5-10.6-4.5-4.3,0-10.2,3.7-12,7.5-.9,1.9-2,3.8-2.5,4.1s-2.6-.7-4.8-2.1a29.27,29.27,0,0,0-4.6-2.5c-.3,0-4.3-1.8-9-4s-8.9-4-9.5-4-1-.9-1-2-.6-2-1.3-2-1.7-1.7-2.4-3.7c-1.5-4.8-.4-5.6,5.7-4.8a42.61,42.61,0,0,0,7.5.5c7.8-.6,34.9-.4,43,.3,5,.4,9.5.7,10,.8,3.8.2,22.4-.9,23.3-1.5a2.49,2.49,0,0,1,2.5.1c.6.4,3.9.9,7.2.9,4.9.1,19.9,1,31.5,1.8a7.94,7.94,0,0,0,3.4-.3c.7-.3,26.8-1,45.9-1.2,2,0,2.7-.5,2.7-1.8C991,46.4,990.2,46.2,981.3,46.5ZM520.6,131.8c.3-.4.7-.8.9-.8s.6.4.9.8-.1.9-.9.9S520.3,132.3,520.6,131.8ZM490.4,124c.3,0,.8.4,1.1,1s.1,1-.4,1a1.1,1.1,0,0,1-1.1-1C490,124.4,490.2,124,490.4,124ZM466.6,63.5c.9,1.4,2.1,2.5,2.8,2.5,1.2,0,4,3.9,3.3,4.6-.5.5-9.6-3.3-11.4-4.8-.9-.7-1-1.5-.2-2.9C462.5,60.3,464.6,60.5,466.6,63.5ZM424,14.5c.5.3.6,1.3.3,2.1q-.6,1.5-1.5.6C421.6,16,422.7,13.7,424,14.5ZM404.4,38.2c.8-9.8,2.4-17.2,3.7-17.2.5,0,.7,2.5.5,5.5-.4,5.5.5,7.7,2.1,5.3.4-.7,1-4.1,1.3-7.6s1-6.2,1.5-6.2.8,2.2.6,5.2c-.3,4.7-.2,5.1,1.3,3.9a5.65,5.65,0,0,0,1.6-4c0-4.8,1.2-10.1,2.2-9.5.5.4.8,2.8.6,5.5-.3,4.7,1.3,7.4,2,3.4.6-3.4,2.2-4.2,2.2-1.1,0,4.3,2.5,2.6,2.8-2,.6-9.9,3.1-11.8,2.8-2.2-.1,4.1.3,6.3,1.2,6.5s1.2-1,1.2-4.6c0-2.7.4-5.3,1-5.6,1.3-.8,2.4,3.9,1.7,7.5-.4,1.6-.3,3.2.2,3.4s1.2-1.3,1.6-3.7.9-4.7,1-5.2a22,22,0,0,0,.3-3.3c.1-1.2.6-2.2,1.1-2.2s.7,3.6.4,8.2c-.4,7.7-.3,8.1,1.1,6.4.9-1.2,1.6-3.9,1.6-6.5s.5-5.3,1-6.1c.7-1,1,1.1,1,6.7,0,4.6.4,8.3.9,8.3s1.2-3.4,1.6-7.5,1.1-7.5,1.7-7.5.8,2.6.3,7.6c-.5,5.5-.4,7.4.4,7,.6-.4,1.1-2.2,1.1-4.1,0-4,.8-6.5,2.2-6.5.7,0,.9,2.6.6,7-.3,3.8-.1,7,.3,7s.9-1.7.9-3.8c0-4.6,1.5-7.5,2.6-4.9.6,1.7.4,3.8-1.2,10.1-.5,2.2-.4,2.8.7,2.4.8-.3,1.6-1.8,1.9-3.4l.6-2.9.7,2.8A7.4,7.4,0,0,1,459,35c-.7,1.4-.7,2.1.3,2.7,2.4,1.4,2.8,6.6.7,9.8a21,21,0,0,0-2.5,6.9,37.86,37.86,0,0,1-2.6,8.3,26.16,26.16,0,0,0-1.9,5.8,2.59,2.59,0,0,1-1.7,2.2,52.65,52.65,0,0,0-6.8,4.3,47,47,0,0,1-9.1,5.3c-4.1,1.6-4.2,1.6-8.8-1.4C424,77.3,421.5,76,421,76c-1.9,0-9.3-7.7-12.2-12.8-2.4-4.2-2.8-5.8-2.1-7.5s.5-3-1-5.5C404,47.3,403.8,45.8,404.4,38.2ZM434,85.5c0,.8-.4,1.5-1,1.5s-1-.7-1-1.5.5-1.5,1-1.5S434,84.7,434,85.5ZM399.5,34.6c.9-4.8,2.9-4.8,2.2,0a12.65,12.65,0,0,1-1.2,4.2C399.4,40,398.9,38,399.5,34.6Zm-3.7,5.9c.3.3.5,2.3.4,4.6a15.1,15.1,0,0,0,.9,6.1,5.16,5.16,0,0,1,.4,3.6c-.6,1.4-1,1.1-2.1-1.3C393.4,48.9,393.7,38.4,395.8,40.5ZM361.1,64.6a31.43,31.43,0,0,1,6.7-.9c3.5-.3,6.6-.8,7-1.1,1.3-1.4,2.2-.5,1.3,1.3-.8,1.4-2.5,2-7.3,2.3C363.3,66.7,359.7,65.9,361.1,64.6Zm-16,5.8c.7-.8,1.7-1.3,2.2-1.1s2.7-.5,4.6-1.4c4-2,7.1-2.4,7.1-1,0,.9-6.3,3.5-8.6,3.6a5.37,5.37,0,0,0-2.7,1.4C345.6,73.6,343.4,72.4,345.1,70.4Zm23,26.6c-3.1,0-4.2-1.4-1.8-2.3,1.9-.8,4-.3,4.5,1C371,96.6,370.1,97,368.1,97ZM358,92.2c-11.9,2.5-17.9,2.5-20.2-.2-.9-1.1-2-2-2.5-2-.7,0-3.6-5.1-3-5.6.1-.1,2.9-1.4,6.2-2.9s8.2-3.8,10.9-5.2a26.5,26.5,0,0,1,9-2.8,23.66,23.66,0,0,0,5.9-1,7.23,7.23,0,0,1,3.9-.2,2.9,2.9,0,0,0,3.3-1c1.5-2.1,5.5-.1,5.5,2.8,0,2.4,1.7,5.9,2.9,5.9.5,0,.6-2,.3-4.5-.3-3-.1-4.5.7-4.5.6,0,1.1.8,1.1,1.7.1,2.1,2.7,5.9,3.6,5.1s-1.6-12.7-3.2-15.7c-1.5-2.8-.9-6.7,1.7-11.9A17.56,17.56,0,0,0,386,43a15.56,15.56,0,0,1,2.7-7.8c2.8-4.3,4.3-5.3,4.3-2.8a9.48,9.48,0,0,1-2,3.9c-1.8,2.2-2,3.5-1.4,9.4.8,9.5.8,9.3,0,14.1-.7,4.1-.6,4.4,3,7.7,2.1,1.9,4.4,3.5,5.1,3.5s2.1-1.7,3-3.7c1.4-3.5,1.6-3.6,2.9-1.8,2.1,2.8,1.7,4.3-1.4,5.9a20.94,20.94,0,0,0-4.7,3.6,18.7,18.7,0,0,1-4,3.2,35.8,35.8,0,0,0-8.4,5.2,29.23,29.23,0,0,1-13.6,6.2C369.3,89.9,363.2,91.1,358,92.2ZM454,122a10.63,10.63,0,0,0-3.4,3.8c-1.3,2.5-1.9,2.7-8.6,3-5.5.2-7.9-.1-9.9-1.5-2.8-1.8-8.5-2.8-11-1.7s-38.2.4-40.3-.7-2.5-4.4-.4-3.6c3,1.2,10.7,1.9,12.3,1.2,1.4-.6.5-1.2-3.6-2.4-5.9-1.8-8.3-4.4-3.4-3.7,9.6,1.5,12.9,1.5,22.3.3,5.8-.8,11-1.5,11.6-1.6a2.79,2.79,0,0,1,1.8.6,4.92,4.92,0,0,0,2.9,1c3.7.3,10,1.3,14.7,2.2a52.17,52.17,0,0,0,10.8.5C456.1,118.9,457.8,120,454,122Zm66-34.6c0,1.4-5,4.8-6.7,4.5a2.77,2.77,0,0,0-1.3.1,94,94,0,0,1-17.5,3.3,16.38,16.38,0,0,0-5.3,1,4.57,4.57,0,0,1-3.5.1c-3.5-1.2-5.9-1.3-10.2-.4-2.3.5-4.4.5-5,0-.8-.6-2.8-.2-5.8,1.3-4.8,2.3-5.7,4.3-3.8,9.1,1.1,2.9-.2,9.1-1.9,9.1a28.79,28.79,0,0,0-4.5.8c-1.6.4-6.1.2-10-.4a152.92,152.92,0,0,0-16.2-1.8c-4-.2-2.4-2.1,1.7-2.1,2.2,0,4-.5,4-1a.92.92,0,0,0-.9-1c-.5,0-.3-1.2.4-2.8a23.32,23.32,0,0,0,1.7-5.7c.3-2.6,0-3-2.5-3.3-3.6-.4-2.9-2.8.7-2.5,2.1.1,2.6-.2,2.6-2.3s-.5-2.4-4-2.6c-8.8-.4-8.5-.4-8.3,2a8.88,8.88,0,0,1-.7,4.3,3.7,3.7,0,0,0-.5,2.9c.4.6.8,3.7.9,7,.2,5.1,0,5.9-1.3,5.6-4.8-1.4-11.1-1.7-13.1-.6-1.2.7-6.7,1.3-12.2,1.4-9.8.2-10,.2-11.9-2.5a10.84,10.84,0,0,1-1.9-4.3,3.87,3.87,0,0,0-1.9-2.6c-2.1-1.1-2.6-2.2-3.6-8.2-.7-3.6-.7-3.7,3.5-4.8a18.24,18.24,0,0,0,6.4-3.2c1.1-1.1,5-3.4,8.6-5.1a69.27,69.27,0,0,0,10.2-5.9l3.6-2.8,8,5.5c5.1,3.5,7.9,6.1,7.8,7.2-.2,2.4,10.5,3.1,12.4.8,1-1.3.9-1.5-.9-1.5-4.5,0-1-2.8,4.4-3.4,2.5-.4,8.4-4.5,12.5-8.8,2.5-2.7,4.8-4.8,5.2-4.8a33.71,33.71,0,0,1,5.5,2.8,38.58,38.58,0,0,0,7.8,3.6,82.18,82.18,0,0,1,11,4.5c14.4,7,16.6,7.7,23.5,7.6a68.5,68.5,0,0,0,9.8-.9C519.4,86,520,86.2,520,87.4ZM481.8,54.2a25.91,25.91,0,0,1,4.8,3,7.42,7.42,0,0,0,4.2,1.8,4.81,4.81,0,0,1,3.4,1.8,7.29,7.29,0,0,0,3.8,2.5c1.4.4,4.6,2.5,7,4.7a75.35,75.35,0,0,0,7.3,5.8c1.5.9,2.7,1.9,2.7,2.3a13.91,13.91,0,0,0,2.7,3.9c2,2.4,2.3,3.4,1.3,4-2.1,1.3-14.5.3-17.8-1.4a14,14,0,0,0-4.4-1.6c-4.1-.1-15.8-8.4-15.8-11.2a2.92,2.92,0,0,0-1.9-2.3,4.09,4.09,0,0,1-2.5-2.3c-.3-1-3.3-3.2-6.6-5s-6.2-3.7-6.5-4.3-.2-2.4.4-4.2a53.92,53.92,0,0,0,1.6-6c.8-3.7,3.1-2.9,2.7,1a5.45,5.45,0,0,0,1.8,4.8c1.9,1.8,2,1.8,2-.1a62.4,62.4,0,0,0-1-7.8c-.5-3.2-.7-6.3-.4-6.7,1-1.7,3.4.4,4.4,3.9,1.3,4.9,1.3,12.9-.1,13.8-.8.4-.8.9,0,1.7s1.5.5,2.6-1.1C478.9,53.3,479.4,53.2,481.8,54.2ZM960.5,140c.9.7,1.3,1.5,1.1,1.7-.7.7-2.6-.7-2.6-1.9C959,139.2,959.6,139.2,960.5,140Zm-3.3,3.8c1.5-.9,4.2,2.1,7.5,8.4,1.2,2.4,3.8,7.7,5.8,11.8s4.6,9.4,5.9,11.7c1.7,3,2,4.3,1.1,4.6-2,.8-3.1-.5-7.9-9.6-2.5-4.8-6.7-12.6-9.2-17.4C956.9,146.7,956.2,144.5,957.2,143.8Zm-.4,11.8c1.2-1.3,1.9-.2,6.9,10.1,5.4,11.1,5.9,13,3.3,12.5-.8-.2-3.3-.7-5.5-1-3.9-.7-4-.8-4.3-5-.2-2.5.1-4.2.8-4.2s.8-.6.2-1.8C957,164,956,156.3,956.8,155.6Zm-7.3,4.3c.9-1.4,1.5-1.1,1.5.7,0,.8-.5,1.2-1,.9A1.22,1.22,0,0,1,949.5,159.9ZM796.4,38c.9,0,1.6.4,1.6,1a1,1,0,0,1-.9,1,2.14,2.14,0,0,1-1.6-1C795.2,38.4,795.6,38,796.4,38ZM748.2,48.5c4,.4,11.8.6,17.4.6,9.8-.2,10.2-.1,11.8,2.3a11.24,11.24,0,0,1,1.6,5v2.5l-4.5-2.3c-6.4-3.5-11.5-4.1-14.2-1.7C759,56,758,57.3,758,57.8c0,1,5.9,4.6,16.5,10.1a33.38,33.38,0,0,0,11,3.2c10.2,1.1,13.5,2.5,18.4,7.3,2.6,2.5,5,4.6,5.5,4.6s2,1.3,3.5,2.8c2.9,2.8,6.7,5.5,22.4,15.6a113.79,113.79,0,0,1,11.6,8.4c2.5,2.5,5.9,10.8,4.7,11.9-.2.3-2,0-3.8-.5a52,52,0,0,0-9.2-1.6,34.39,34.39,0,0,1-8-1.8,5.55,5.55,0,0,0-3.5-.9,2.18,2.18,0,0,1-2.1-1c-.5-.8-1.5-.9-2.6-.4a22.46,22.46,0,0,1-6.4,1c-5.2.1-19.3-3.1-19.8-4.5-.2-.5-2.6-2.2-5.3-3.6-4.1-2.3-4.9-3.2-4.9-5.6s-.4-2.8-2.3-2.8c-1.3,0-3.6-1.4-5.2-3s-3.5-3-4.3-3-3-1.7-5-3.7c-3.9-4-4-4-12.1-8.8-4-2.4-5.1-3.5-5.1-5.6a6.21,6.21,0,0,0-.7-3.3c-.4-.3-.8-2.7-.9-5.1s-.8-5.3-1.6-6.3a36.39,36.39,0,0,1-2.8-4.7,15.22,15.22,0,0,0-2.6-4,9,9,0,0,1-1.8-2.9C741,47.8,741.4,47.8,748.2,48.5Zm97.5,55.1c1-1,2.1-.7,2.7.9.3.9,0,1.5-.9,1.5C845.9,106,844.8,104.6,845.7,103.6Zm-22.1,22.1c-.8.8-2.6-.8-2.6-2.3,0-1.9,1.6-1.8,2.4.2A2.71,2.71,0,0,1,823.6,125.7ZM721.5,50c8.2,0,9.6.2,10.4,1.9,1.5,2.7-.8,3.3-8.3,2.5-5.5-.6-11.6-2.7-11.6-3.9C712,50.2,716.3,50,721.5,50Zm44.3,88.1a1.35,1.35,0,0,1-2.6,0c-.2-.6.4-1.1,1.3-1.1S766,137.5,765.8,138.1Zm129,30.5c-3.5-.4-11.2-.8-17.2-1.1-8-.3-11.1-.8-12-1.9-.9-1.3-2.5-1.4-8.9-.8-5.9.6-8,.5-8.9-.5-1.5-1.9-.2-4.7,2-3.8a39.82,39.82,0,0,0,6.9,1.4c4.8.7,5.4.5,9-2.5,4.7-3.9,4-5.3-1-1.9-4.5,3.1-4.7,3.1-4.7,0,0-2.2-.3-2.4-1.8-1.6-2.9,1.5-9.8.7-19.2-2.3-13.9-4.5-20-7-22.3-9.1-2.5-2.3-11.3-6.6-12.1-5.8-.2.3-1.1.1-1.8-.3a9,9,0,0,0-2.7-1.1,3,3,0,0,1-2-1c-.3-.4-1.9-.9-3.6-1.1s-3.3-.8-3.6-1.4a1.4,1.4,0,0,0-1.8-.4c-.6.4-1.1.2-1.1-.3s-.7-1.1-1.5-1.1-1.5-.5-1.5-1a1,1,0,0,0-1.1-1c-.6,0-3.1-1.7-5.7-3.9a59.71,59.71,0,0,0-6.9-5c-1.3-.7-2.3-1.7-2.3-2.4s-1.3-2.1-3-3-3-2.4-3-3.1-1.1-2.1-2.5-3-2.5-2.2-2.5-2.9-3-4-6.6-7.1-7.7-7.5-9-9.6c-2.1-3.1-3.6-4.1-8.2-5.4a37.49,37.49,0,0,1-9.7-4.3,91,91,0,0,0-9.6-5.5c-5.7-2.9-9.7-6.3-8.6-7.4.4-.4,1.2-.2,1.9.3a13.68,13.68,0,0,0,4.3,1.7,13.78,13.78,0,0,1,5.3,2.9c1.6,1.5,2.5,1.8,3.3,1,1.5-1.5.4-4.3-1.6-4.3-2.2,0-19.5-9-19.5-10.1s2.7-1.2,3.4,0c1,1.6,13.7,7.1,16.9,7.4,3.9.3,4.6-1.8,1-3-6.6-2.4-13.3-5.9-13.3-7.1,0-1.5.5-1.4,11.3,2.3,3.9,1.3,6.9,1.9,7.3,1.4,1-1.7,4.8.1,8.2,3.9,3.1,3.4,3.3,3.5,2.9,1.2-.3-1.4-.9-5.1-1.2-8.3-.9-6.7.4-7.5,3.1-2a33.35,33.35,0,0,1,2,4.8A15.46,15.46,0,0,0,742,61c.1.3.3,2,.6,3.8a14.86,14.86,0,0,0,1.8,5.5,20.84,20.84,0,0,1,2.1,6.4c.4,2.4,1.1,4.3,1.6,4.3s3.4,1.8,6.4,4c5.1,3.7,5.9,5.1,6.7,10.4.4,2.7,2.8,3.3,2.8.6,0-1.2.5-1.8,1-1.5s1,2.1,1,3.8c.1,2.9.2,3,1.4,1.4,2.1-2.7,2.9-2,2.3,1.9-.5,2.9-.3,3.5.8,3s1.5.2,1.5,1.9c0,1.4.5,2.5,1,2.5a1,1,0,0,0,1-1,.94.94,0,0,1,1-1c.5,0,.9.8.7,1.7a2.59,2.59,0,0,0,.8,2.3c.6.3,1.1-.7,1.3-2.3.3-2.6,1.6-3.6,2.6-1.9a14.24,14.24,0,0,1-.4,5c-.8,4.7,0,5.4,2.3,1.9,1.5-2.2,1.6-2.1,1.5,1.6-.2,4.9,1,5.8,2.4,1.9s2.5-4.1,3.1-.5c.4,2.7.4,2.7,1.2.5.4-1.2,1.2-2.2,1.7-2.2s.9,1,.8,2.2c-.7,8.6,1.1,13.3,2.4,6.3,1.2-6.4,2.7-5.5,4.1,2.8.9,5.4,2.5,3.6,2.1-2.3-.2-2.8,0-5,.4-5,.8,0,2.3,3.8,3.3,8.5.3,1.4.5,1.1.7-1a39.72,39.72,0,0,0,0-4.9c-.1-1.1.3-1.7,1.2-1.4a2.41,2.41,0,0,1,1,2.6,2.88,2.88,0,0,0,.8,2.7c.5.3,1,1.7,1,3.1s.5,2.4,1,2.4,1-1.4,1-3,.5-3,1-3,1,1.4,1,3.1c0,3.1,2.3,3.8,2.6.8.1-.8.2-2,.3-2.7.2-2.6,2.1-1.1,2.1,1.7,0,1.7.5,3.3,1,3.6s1-.3,1-1.4.7-2.1,1.5-2.1a1.54,1.54,0,0,1,1.5,1.5,1.54,1.54,0,0,0,1.5,1.5c1.1,0,1.5-1.2,1.5-4.5,0-2.5.4-4.5.9-4.5,1,0,3.1,5.4,3.1,8.1,0,1.1.5,1.9,1.1,1.9.8,0,1-1.5.7-4.5-.3-2.5-.2-4.5.3-4.5s1.9,2.4,3.3,5.2l2.4,5.3.1-5.3c.1-3.7.5-5.2,1.3-5,1.2.4,2,2.6,3.2,8.1,1,4.2,2.9,2.1,2.3-2.4-.7-5.1.9-5,2.4.1.7,2.2,1.9,4.6,2.7,5.2,1.2,1,1.3.5.7-3.8l-.7-4.9,6.5,6.7a66,66,0,0,1,6.8,7.6c.6,1.5,5.9,2.7,5.9,1.3,0-.6-1.6-2.5-3.5-4.2-4-3.7-4.6-6.9-1.3-6.9,1.3,0,4.8,2.8,9.5,7.5,6.5,6.7,9.3,8.7,9.3,6.9,0-1.2-3.4-6.4-4.2-6.4-.5,0-2.3-1.7-4.2-3.8-3.3-3.5-5.6-5-13.6-8.5-3.9-1.7-7-6.2-7-10,0-3.6,1.8-4.3,4.4-1.8a46.87,46.87,0,0,0,4.6,4.2c2,1.7,2.2,2.2,1,2.9s-1.2,1.1.5,2.4c1.1.8,2.3,1.2,2.7,1s2.6.9,4.7,2.7c3.4,2.7,11.8,5.5,12.9,4.4s-6.6-6.4-9-6.5c-2.9,0-8.8-4.4-8.8-6.5,0-.7,1.1-1.6,2.5-1.9,2.7-.7,3.4-2.5,1-2.7-3.8-.3-5.2-.6-7.5-1.6a12.65,12.65,0,0,1-3.8-2.6,8.37,8.37,0,0,0-3.7-2.1c-1.8-.5-2.5-1.3-2.5-3.1a3,3,0,0,0-1.9-3c-3.1-1-4.2-3-4.6-8.9-.4-5.4-.3-5.6,2.3-6.2a12.63,12.63,0,0,0,4.2-1.9c2.2-1.8,9.9-5.1,14.5-6.3,15.3-3.9,15.5-4,15.5-2.6a13.4,13.4,0,0,1-1.1,3.8c-.9,2-.9,2.9.1,4.1,2.3,2.8-.3,3.3-6.7,1.2-6.8-2.1-9.9-1.8-8.8,1.1a42.53,42.53,0,0,1,1.5,7.7c.9,6,2.7,8.5,6,8.5.9,0,2.1-1,2.7-2.3.9-1.9,1.6-2.2,6.2-1.9l5.2.4-.5,5.5c-.5,4.8-.3,5.4,1.1,4.9,1-.4,3.1.5,5.4,2.4,4.6,3.7,7.3,3.8,9.5.5,1.2-1.8,1.5-3.6,1-6.9-1.1-7.2-3.4-8.4-17.6-9.1-7.7-.3-9.7-.1-11.2,1.2s-1.8,1.4-2.8-1.1a21.11,21.11,0,0,1-1-3.7,7.65,7.65,0,0,0-1.2-2.9c-1.8-2.8-.5-3.3,3.8-1.5,5.6,2.4,17.3,2.1,21.8-.6,3.7-2.2,5-5.2,3.5-8.1-1.8-3.3-.1-3.3,4,0,2.2,1.8,4.4,3.2,5,3.2a21.24,21.24,0,0,1,4.7,1.7l3.6,1.8-.6,7a81.32,81.32,0,0,1-1.2,8.7c-.3,1-.1,1.8.4,1.8,1.4,0,3.2-5.7,3.2-10.1,0-2.1.5-4.1,1.1-4.4,1.3-.9,1.1,8.8-.3,16.4-.9,4.7-1.8,6.2-6.5,10.8-3,2.9-6.3,5.3-7.3,5.3s-3.9,2.3-6.5,5.2c-4.2,4.7-4.6,5.5-4,8.7a18.09,18.09,0,0,0,3.1,6.4c1.3,1.6,2.4,3.3,2.4,3.8,0,1.2-5.3,8.8-6.2,8.9-1.4,0-.8-3.5,1.1-7l1.9-3.5-2.4-3.1a20.3,20.3,0,0,1-3-7.1c-.5-3.5-.3-4.2,3.9-8.3a85.38,85.38,0,0,1,9.6-8.3c3-2.2,4.9-4.2,4.5-4.9s-1-.6-1.8.4c-1.1,1.5-11.1,8.8-12.1,8.8-.3,0-2.3,1.9-4.6,4.2-4.3,4.4-4.5,6.1-1.4,11.8,3.9,7.1,3.8,6.7,1.6,8.9-2.6,2.6-2.3,9.1.6,12.4,1,1.2,3.2,4.2,4.7,6.5l2.7,4.4Zm7.8-60.1c.5,1.3.3,1.6-.7,1.3-.8-.2-1.5-1.9-1.7-3.6s-.7-3.2-1.1-3.2-1.1-.9-1.4-2.1c-.8-2.9,2.1-2.1,4.7,1.4,1.6,2.1,1.8,3,.8,3.6A2.14,2.14,0,0,0,902.6,108.5Zm-4.8-3.5a8.78,8.78,0,0,0,1.3,3.6c1.5,1.9-.2,2.4-2.7.7-3-1.9-3.5-7.7-.6-7.1A3.15,3.15,0,0,1,897.8,105ZM885,81.4c0-1.6,3.6-1.9,4.5-.4a6.28,6.28,0,0,1-.1,3.6l-.7,2.7-1.9-2.2A8.21,8.21,0,0,1,885,81.4Zm22.6-4.5c.7-1.3,1.7-1.1,4,.5,1,.8,1.6,1.7,1.3,2.1C912,80.3,907,77.9,907.6,76.9Zm5.3,95.5c-6.1-1-6.6-1.5-3.4-3,4-1.8,9.5-1.8,9.5,0C919,171.8,916.4,173,912.9,172.4ZM926.8,126c-1.2,0-1-2.4.4-3.8,1.6-1.6,2.8-1.5,2.8.1C930,123.7,928,126,926.8,126Zm7.8-12.8a25.13,25.13,0,0,0-.6,3c0,.5-.6.8-1.3.8-2.1,0-8.1,4.7-9.8,7.8a18.08,18.08,0,0,1-5.2,5.1c-2,1.3-3.7,3.1-3.7,3.9s1.6.1,4.6-2.3c5.9-4.8,7.2-3.5,1.5,1.6-5.1,4.6-8.1,5.1-8.1,1.4a4.16,4.16,0,0,1,1.3-3.2,45.13,45.13,0,0,0,4.6-4.8C929.2,113.2,936.1,107.6,934.6,113.2ZM923.7,94.4c-.3-10.3,1-12.5,3.3-5.5,1.2,3.7.4,12.4-1.6,18.8-.3,1,.4.4,1.6-1.4,1.7-2.5,2.1-4.7,2.2-10.5a53.08,53.08,0,0,0-.7-9.8c-1.5-4.8,2.2.1,3.9,5.3,2.3,7,2,11.5-1.3,17.2-3,5.2-20.7,23.4-21.9,22.5s-.1-2.4,6.7-9c7.5-7.1,10.9-12,8.3-12-.5,0-1.6,1.6-2.5,3.5a21.32,21.32,0,0,1-6.2,6.7c-2.5,1.8-4.5,3.5-4.5,4s-2,1.9-4.5,3.4-4.6,3.1-4.6,3.7c-.3,3,.5,5.6,3.1,9.9,3.2,5.2,3.1,7.6-.7,12.1-1.2,1.6-2.3,3.9-2.3,5.3,0,2.7,4.1,5.9,6.5,5s1.8-5.1-.7-7c-2.2-1.5-2.2-1.6-.5-2.9,2.4-2,2.3-8.3-.3-14-1.2-2.7-1.9-5.1-1.7-5.4,1.1-1.1,4.8,2.4,6.2,6,1.5,3.8,1.1,11.6-.7,12.8-.5.3.1,1.4,1.2,2.4,2,1.8,2,1.8,2-1.3,0-4,2.5-4.3,3.3-.5.4,1.8.1,3.2-.9,3.9a4.64,4.64,0,0,0-1.2,4c.4,3.3-2.7,5.4-8.3,5.4-3.8,0-5.4-1.3-7.9-6.3-1.5-2.9-.9-4.6,4-12.3l2.1-3.2-2.6-3.1c-4.2-4.9-4.8-8.6-2.2-12.7,1.2-1.9,3.1-3.7,4.2-4a7,7,0,0,0,2.5-1.3c.3-.3,3-2.7,6.1-5.3a38.34,38.34,0,0,0,8.3-9.8C923.8,104.3,924,103.1,923.7,94.4ZM906.5,159c.8,0,1.5.4,1.5,1s-.7,1-1.5,1-1.5-.5-1.5-1S905.7,159,906.5,159Zm.6-90.5c6.4,2.3,16,8.7,15.6,10.5-.4,2.1-3.3,1.4-8.7-2-2.5-1.6-6.9-4-9.7-5.4C895.9,67.6,898,65.3,907.1,68.5Zm-9.3,10.1c-.5,2.8-2.8,2.9-2.8.1a5.64,5.64,0,0,1,.7-3.1C896.7,74.6,898.2,76.6,897.8,78.6Zm-1.5-12.1c.1.5-.6,1.1-1.5,1.3-1.1.2-1.8-.3-1.8-1.3C893,64.8,896,64.7,896.3,66.5ZM893.5,79c.7,5,.2,7-1.7,7-.6,0-.8-1-.4-2.5a8.78,8.78,0,0,0-.8-5.4c-1.5-2.9-1.3-4.1,1-4.1C892.3,74,893.1,76,893.5,79ZM859.9,65.7c2,1.2,3.1,2.6,3.1,4,0,2.9-1.1,2.9-4.8-.2-1.7-1.4-3.9-2.5-5-2.5a3.33,3.33,0,0,1-2.6-.9C849,63.5,855.5,63.2,859.9,65.7Zm-12.5,4.9c4.5-2.1,6.8-2,9.5.5s2,3.7-1.3,1.9c-2.7-1.4-7.6-.6-7.6,1.2a6.07,6.07,0,0,0,1.6,2.9c1.3,1.5,2,1.5,5.7.4a47.32,47.32,0,0,0,8-3.5c6.5-3.8,14.6-6,20.7-5.4,3,.2,5.9.9,6.4,1.4,1.5,1.5-.2,2.4-4.2,2.2-4.5-.3-21,3.8-29.2,7.3-7.9,3.3-9.4,3.2-11.4-.9C843.3,73.7,843.6,72.4,847.4,70.6ZM841,93.9c1.5-8.8,1.9-9.9,3.6-9.9.8,0,1.4.2,1.4.4s-.7,2-1.5,4a13.73,13.73,0,0,0-1.4,4.9,51.15,51.15,0,0,1,0,5.7c-.1,4-.2,4.3-1.7,2.9C840.1,100.5,840,99.4,841,93.9ZM839.6,79a2.76,2.76,0,0,1,.8,2.9c-.6,1.5-.8,3.2-1.2,11.1-.3,4.6-1.4,6.2-3.6,5.4-1.3-.5-1.6-1.4-1.3-3.3C837.5,77.6,837.6,77.4,839.6,79Zm-9.2,6c.9-4.9,1.6-9.5,1.6-10,0-1.5,2-1.2,2.6.4.8,2.1-1.3,14.8-3,18C829.3,98,828.8,94.6,830.4,85Zm-3.9-12c1-1.6,2.3-1.2,2.7.7.2,1.3-1.3,14.1-2.1,18-.2.9-2,.1-2.4-1C824.1,89.1,825.6,74.4,826.5,73Zm-5.2-2.7a1.65,1.65,0,0,1,.9,2,2.34,2.34,0,0,0,.6,2.1c.5.3.6,2.7.2,5.3s-.6,5.3-.3,5.9c.6,1.5-1.7,3-2.6,1.6C819,85.3,820.1,69.8,821.3,70.3ZM816.6,67c1.3,0,1.9,2,1.5,4.4-.1.5-.2,3.5-.2,6.8s-.4,5.8-.8,5.8c-.9,0-5.3-3.3-9.1-6.8-6.7-6.1-12.3-8.9-19.5-9.5-8.4-.7-15-3-19.6-6.9-2.7-2.2-3.1-3-2-3.7.9-.6,2.5-.1,4.9,1.5,1.9,1.3,4,2.4,4.7,2.4a4.22,4.22,0,0,1,2.5,1.5c1.7,2,5.6,1.9,6.4-.1a3.56,3.56,0,0,0-.9-3.4,6.12,6.12,0,0,1-1.5-3.3,2.6,2.6,0,0,0-.9-2.1,7.38,7.38,0,0,1-1.4-3.3c-.3-1.6-3.1-5.7-6.1-9.2-5-5.8-6.5-8.1-5.1-8.1,1.2,0,5.5,2.4,5.5,3.1,0,.4,2.1,3.1,4.8,5.9a66.29,66.29,0,0,1,5.5,6.6c.5.8,1.2,1.2,1.7.9,1.7-1.1-2.3-8.1-8.1-13.8-3.2-3.3-5.9-6.1-5.9-6.3,0-1.4,4,.1,6.6,2.4,3.7,3.3,8,9.1,9.4,12.6.5,1.4,1.4,2.6,1.9,2.6,1.8,0,2.3-2.1.8-3.8-3.5-4.1-8.8-12.4-8.5-13.4.5-1.5,10.7,9.2,11.4,11.9.6,2.2,1.5,2.7,4.1,2.4,1.5-.2,5.3,7.8,5.3,11.3a10.76,10.76,0,0,0,1,4.6C806.1,62,814.4,67,816.6,67Z" transform="translate(0 -5.52)"/>
    <path d="M411.9,38.3c-2.7,6,5.3,14,11.1,11a12.09,12.09,0,0,1,3.8-1.3c2.1,0,1.3,3.3-1.4,5.5l-2.6,2.1,2.8,1.9c2.1,1.4,4.4,1.8,8.4,1.7,7-.3,8-1.3,5.1-5.3-2-2.6-2.1-3.5-1.2-5.6l1.1-2.4,4.4,3.2c5,3.5,7.1,3.3,8.6-.7.9-2.2.7-7.4-.2-7.8a35.58,35.58,0,0,1-3.3-1.7,16.07,16.07,0,0,0-5.9-1.5c-2.5.1-3.4.8-5.4,4.8a26.12,26.12,0,0,0-2.6,9.3c-.1,4-.4,4.5-2.4,4.5s-2.1-.4-1.6-2.4c1.1-4.7-3.6-16.1-7-17a33,33,0,0,0-6.4-.6C413.7,36,412.8,36.4,411.9,38.3ZM446,46a1,1,0,0,1-1,1,1.08,1.08,0,0,1-1-1,1,1,0,0,1,1-1A.94.94,0,0,1,446,46Z" transform="translate(0 -5.52)"/>
    <path d="M423.3,64.8c-.8.5-1,2.1-.6,4.5.6,3.7.6,3.7,2.5,2s2-1.7,2.9,0a3.59,3.59,0,0,0,5.9.2c1.1-1.4,1.5-1.4,3.7.1,3,1.9,3.7,1.4,2.9-2.3a6.44,6.44,0,0,0-3.3-4.1C434.3,63.9,425.2,63.6,423.3,64.8Z" transform="translate(0 -5.52)"/>
    <path d="M857.8,86.1a12.91,12.91,0,0,0-1.8,5.2c.1,2.1.1,2.1,1.4.4s1.4-1.6,1.8.7a6.13,6.13,0,0,1-.3,3.7c-1.2,2-.1,2.9,2.4,2s3.8-6.8,2.3-11.9C862.4,82.1,860,82.1,857.8,86.1Z" transform="translate(0 -5.52)"/>
    <path d="M914.1,107.6c-1.2,2.8-.9,4,.7,3,1.2-.7,2.2-5.6,1.2-5.6C915.6,105,914.8,106.2,914.1,107.6Z" transform="translate(0 -5.52)"/>
    <path d="M871.4,161.5c-1.7,1.3-1.7,1.4-.2,1.5a2.84,2.84,0,0,0,2.3-1.1C874.6,160.2,873.5,159.9,871.4,161.5Z" transform="translate(0 -5.52)"/>
    <path d="M390.2,104.3c-1.2,1.3-2.2,2.8-2.2,3.4,0,1.9,3.2,2.4,5.6.8,1.8-1.2,2.2-2,1.5-3.7C394,101.7,392.7,101.6,390.2,104.3Z" transform="translate(0 -5.52)"/>
    <path d="M450.1,107.1c-2.1,1.9-2.1,2.3-.7,3.7s1.9,1.4,4.1.2c2.7-1.5,3.1-3,1.3-4.8C453.2,104.6,452.7,104.7,450.1,107.1Z" transform="translate(0 -5.52)"/>
    <path d="M421.5,120c-.8,1.4,2.1,2.4,7,2.5,4.5,0,6.1-1.9,1.7-2.1a33.14,33.14,0,0,1-5.5-.8C423.3,119.3,421.8,119.4,421.5,120Z" transform="translate(0 -5.52)"/>
    <path d="M198,18c0,.5.7,1,1.6,1s1.2-.5.9-1a1.9,1.9,0,0,0-1.6-1A.92.92,0,0,0,198,18Z" transform="translate(0 -5.52)"/>
    <path d="M299,74.4c0,.9.5,1.6,1,1.6a.92.92,0,0,0,1-.9,1.9,1.9,0,0,0-1-1.6C299.5,73.2,299,73.6,299,74.4Z" transform="translate(0 -5.52)"/>
    <path d="M297.5,82c-.3.5-.1,1,.4,1a1.1,1.1,0,0,0,1.1-1c0-.6-.2-1-.4-1S297.8,81.4,297.5,82Z" transform="translate(0 -5.52)"/>
    <path d="M685,92.7a14.14,14.14,0,0,0,2,3.3c1.4,2,2.6,2.7,4,2.3,2.3-.6,2.5-1.3.8-3.5C690.6,93.4,685,91.7,685,92.7Z" transform="translate(0 -5.52)"/>
    <path d="M124.5,94c-.3.5-.3,2.6.1,4.6.7,3.6.6,3.7-2.1,3s-2.7-.6-2.1,2.8.5,3.6-1.6,3.3-2.3.2-2.4,4.8c-.1,2.7.3,5.3.8,5.6s1.1,2.3,1.4,4.5a34,34,0,0,0,2.5,8.1,38.42,38.42,0,0,1,1.9,5,15.27,15.27,0,0,0,1.5,3.7c1.8,3.4,1.5,4.1-3.6,6.6-2.1,1.1-3.9,2.4-3.9,2.8,0,1.3-14.2,15.2-15.5,15.2-.6,0-2.6,2-4.4,4.5s-3.6,4.5-4,4.5-1.6,1.6-2.5,3.5a13.4,13.4,0,0,1-2.6,4c-.6.3-1,2.5-1,4.8a10.68,10.68,0,0,0,2.8,7.7,59.71,59.71,0,0,1,5.7,8.5A99.77,99.77,0,0,0,102,211a60.3,60.3,0,0,1,5.3,7.5,23.82,23.82,0,0,0,3.9,5.5,66.07,66.07,0,0,1,5.5,7.2l3.1,4.6-2.4,2.3c-1.3,1.2-2.4,2.7-2.4,3.3a15.49,15.49,0,0,1-2.4,4.7c-1.5,2.1-2.3,4.4-2,5.6a3.2,3.2,0,0,1-1,3.2,5.48,5.48,0,0,0-1.6,3.7,10.13,10.13,0,0,1-5,9.1c-3.4,1.9-7.2,8.7-9.1,15.8-1.6,5.9-6.4,15.7-8.8,17.9C84,302.5,83,304,83,304.9a4.21,4.21,0,0,1-2,2.9,8.13,8.13,0,0,0-3,3.8c-.9,2.3-1.3,2.4-6.2,1.9-2.9-.4-6.4-.9-7.8-1.2a111,111,0,0,0-13.4-.6c-9.1-.1-11,.1-12.1,1.6-.7.9-1.5,1.7-1.8,1.7a15.29,15.29,0,0,0-3.4,2.7c-1.5,1.6-4.8,4.5-7.3,6.6C17,332,5,344.2,5,345.7c0,1.1.4,1.3,1.3.6.6-.5,2.8-.8,4.7-.7s10.9.8,20,1.4,18.3,1.6,20.5,2.2a46.85,46.85,0,0,0,8.6,1.3,29.34,29.34,0,0,1,7,1.1,31.91,31.91,0,0,0,6.4,1c3.9.2,9,.6,22.5,1.9,3.5.3,6.7,1,7,1.6s5.1,1.2,10.6,1.5a90.17,90.17,0,0,1,11.4,1.1,4.21,4.21,0,0,0,2.2.5,41.63,41.63,0,0,1,6,.8,111.27,111.27,0,0,0,14.1,1.4c4.8.2,9.3.9,10,1.4s6.8,1.4,13.7,1.8a178.52,178.52,0,0,1,19.4,1.9c3.8.7,7.5,1.1,8.1.8a1.79,1.79,0,0,1,1.9.5c.3.5,2.6.7,5,.5s5.3-.2,6.3.3c2,.9,5.8,1.3,12.3,1.3a27.72,27.72,0,0,1,7.3,1.2c2.2.9,3.3.9,5.4-.2s2.7-1.1,3-.2,2.4,1.3,5.8,1.3c3,0,5.6.4,5.9.9s3,.9,5.9.9c4.8,0,5.8-.4,9.3-3.5,2.1-1.9,6.8-5.9,10.4-8.8a90.37,90.37,0,0,0,8.4-7.4c1.1-1.1,2.4-2.1,2.9-2.1s2.9-1.7,5.2-3.8c5.3-4.6,12.5-9.9,14.8-10.8a2.46,2.46,0,0,0,1.7-2c0-1.1-2.1-1.4-9.7-1.4-5.4,0-11.8-.3-14.3-.6s-8.5-.7-13.5-.9c-10.2-.2-28.3-2.3-30.4-3.4-.7-.5-3-.5-5.2-.1s-4.1.5-4.3.2a27.58,27.58,0,0,0-5.8-.6c-2.9-.1-5.8-.5-6.5-.9s-2.3-.2-3.7.4c-3.7,1.7-5.2.6-5.4-3.7-.1-2.1-.6-4-1.1-4.3-1.8-1.2-3.3-6.4-2-7.1.8-.6.8-1.3-.1-2.9-2.1-4.1-1.2-12.1,2.3-19.8.5-1.2.7-4.7.4-7.8-.5-5.2-.4-5.5,1.6-5.5,1.2,0,5.1-1.1,8.7-2.3,5.9-2.1,6.7-2.7,8.7-6.7a26.73,26.73,0,0,0,2.4-8.5c.3-8.5,1.1-9.9,5.6-11,2.3-.6,4.8-1.6,5.4-2.2a2.76,2.76,0,0,1,2.4-.7,1.5,1.5,0,0,0,1.9-.5c.4-.6,1.6-.6,3.7.1,2.9,1,3.5.9,11.4-2.2,1.1-.4,4.5-1.3,7.5-2a29.74,29.74,0,0,0,6.7-2.2,10.36,10.36,0,0,1,4.5-1.4c7.4-.9,8.5-1.2,12.6-3.4,4.3-2.2,8.2-6.3,8.2-8.4,0-.7-1.4-3.4-3.2-6.2a58.48,58.48,0,0,1-5-10.4,36.78,36.78,0,0,0-2.9-6.5,4.45,4.45,0,0,1-.9-2.8c0-1-1.8-5.6-4-10.2a75.24,75.24,0,0,1-4-9.3,6.18,6.18,0,0,0-2-2.7,5.77,5.77,0,0,1-2-3.2c0-.7-.4-1.3-.8-1.3s-1.5-1.3-2.5-2.9c-1.7-2.9-1.7-3,1.3-6.2,1.6-1.9,3-3.9,3-4.5s1.1-2.5,2.4-4.1A36.64,36.64,0,0,0,286,147a39.09,39.09,0,0,1,3.7-7.1c2.5-3,1.3-22.9-1.4-22.9-1.1,0-1.4-.8-1.1-3.1s-.1-3.4-1.9-4.9c-3.3-2.6-4.5-1.8-6.8,4-1.1,2.8-2.3,5-2.7,5s-1.1-1.8-1.4-4l-.7-4-3.1,2.7a29.65,29.65,0,0,0-5,5.7,15.33,15.33,0,0,1-2.8,3.7c-1,.6-2.2,2.7-5.4,8.7-.9,1.9-2.3,3.6-3.1,3.9a7.76,7.76,0,0,0-2.7,3.1l-1.3,2.5-2.3-4.7c-3.2-6.3-5-7.7-10.4-7.9-6.1-.3-8.4,1.9-6.6,6.2a19.71,19.71,0,0,0,3.7,5.5,22.6,22.6,0,0,1,4.1,7.3c1.7,4.6,4.9,10.5,7.1,13a4.27,4.27,0,0,1,1.1,1.9c0,.4,1.5,2.5,3.3,4.8,2.3,2.9,4,6.7,5.6,12.6,3.1,11.6,4.1,15.2,5,17.5,2.1,5.2,2.9,8.8,2.5,10-.3.7-2.9,1.8-5.7,2.3-8.2,1.6-13.9,3.1-18.1,4.8-2.1.8-4.1,1.3-4.3,1-.7-.6,6.7-9.6,7.8-9.6.5,0,.9-.6.9-1.4s1.1-2.7,2.4-4.3c5.6-6.7,6.1-20,1.1-30.3-5.9-12.4-7.2-14.2-14.5-19.6-6.2-4.6-7.7-5.3-14-6.7-7.2-1.5-13.5-1.1-16.7,1.2A24.68,24.68,0,0,1,195,147a26.9,26.9,0,0,0-8.1,4.1c-2,1.6-4.1,2.9-4.7,2.9s-2.4,1.6-4.3,3.5-4,3.5-4.6,3.5a1.35,1.35,0,0,0-1.3,1.4c0,.8-2.2,3.1-5,5.1s-5,4.3-5,5.1-2.5,3.8-5.5,6.8-5.7,6.7-6.1,8.3c-.9,3.4-3.6,7.6-8.7,13.2L138,205l-3-2.2c-1.7-1.2-3-2.6-3-3,0-1.1-7.1-10.4-10.7-14.1l-2.8-2.9L122,180c11.8-9.7,22.3-20,24.5-24.2a16.49,16.49,0,0,1,5.2-4.9c6.2-3.8,8.9-7.3,11.9-15.1a79.28,79.28,0,0,1,4.6-10.3c2.5-4.1,2.3-8.1-.3-9.6s-6.5,1.2-9.4,6.4c-1.1,2-2.2,3.7-2.5,3.7-.7-.1-6-8.5-6-9.6,0-1.5-4.1-9.2-5.6-10.4a4.68,4.68,0,0,1-1.4-2.4c0-.6-1.8-3.1-3.9-5.6-3.5-4-4.1-4.3-5.6-3s-1.9,1.2-3-.3C129.2,92.9,125.5,92.4,124.5,94Zm7.5,8.5c0,1.5,5.2,12.7,8.5,18.2,2.3,3.6,1.7,4.8-1.9,3.9a4.17,4.17,0,0,1-3.2-3.4c-.4-1.5-1.5-4.5-2.4-6.7-4.1-9.2-4.9-13.5-2.5-13.5A1.54,1.54,0,0,1,132,102.5Zm-4.5,6.7c1,2.4,3.1,7.1,4.6,10.6,2.7,5.9,3,8.2,1,8.2-1.1,0-9.1-18.6-9.1-21.1C124,103.7,125.6,104.8,127.5,109.2Zm16,4c2,3.5,4.5,7.8,5.6,9.5,2.1,3.3,1.2,4.4-1.7,2.5-1.4-.9-6.4-10-6.4-11.7,0-.7-.9-2-2-3-2.3-2.1-2.6-3.5-.6-3.5C139.2,107,141.5,109.8,143.5,113.2Zm-20.1,3c.6,3,.2,4.7-.9,3.6s-1.7-6.8-.7-6.8C122.3,113,123,114.4,123.4,116.2Zm157.2,5.2c.3.8-.9,3.6-2.8,6.2-4.3,6-4.4,6.2-6.4,10.6-1.6,3.8-5.4,5.4-5.4,2.4,0-1.3,5.4-10.4,7.8-13.2a24.48,24.48,0,0,0,2.6-4.2C278.2,119.8,279.7,119.1,280.6,121.4Zm-151.7,7.7,1.2,4,3-2.5a15.73,15.73,0,0,1,14.2-3.5c5,1.3,4,2.3-1.9,2-3.5-.1-5.5.4-8.9,2.6-2.4,1.5-4.4,3.1-4.5,3.5,0,1.4,3.3.8,5.1-.8,1-.9,3.9-1.9,6.5-2.2l4.7-.5-2.1,3.1a11.79,11.79,0,0,0-2.2,4.1c0,2,1.8,1.2,3.9-1.8a15.7,15.7,0,0,1,5.6-4.5c1.9-.9,3.5-2.2,3.5-2.9.1-1.6,4.6-6.7,6-6.7s1.2,1.8-1.2,8.3c-2.1,5.4-5.2,9.4-12.4,15.7-1.6,1.4-3.2,2.4-3.6,2.3s-.8.6-.8,1.7-.6,2-1.2,2-2.2,1.9-3.3,4.3-3,4.6-4.2,5.2-2.3,1.5-2.3,2.2a1.44,1.44,0,0,1-1.5,1.3c-.8,0-1.5.4-1.5.8s-2.9,3.1-6.5,6l-6.5,5.1-4.7-1.4c-5.7-1.8-5.3-1.7-5.3-.6,0,.5.9,1.3,2,1.6,2.8.9,2.5,3.2-.5,3.9-4.5,1.1-2.3,4.3,2.6,3.8a4,4,0,0,1,4.2,2.2,36,36,0,0,0,4.1,4.8c1.3,1.3,4.2,4.5,6.5,7.1,3.8,4.5,4.1,5.3,4.2,11l.1,6.2,1.5-4.8c.9-3,2-4.7,3-4.7s1.4.6.8,2.2c-1.8,6-2.2,8.9-1.4,9.3.4.3,1.5-1,2.3-2.8,2.5-6.2,7.6-7.7,14-4.5,1.5.8,1.6,1.2.5,1.9-.7.4-1,1.1-.7,1.4s1.3.3,2-.1c2.3-1.5,4.9-1.4,5.4.1a3,3,0,0,0,2.5,1.5c1,0,1.9.4,1.9,1s.9,1,2,1c1.4,0,2-.7,2-2.2,0-1.1,1.1-4.4,2.4-7.2s2.8-6,3.2-7.1c.5-1.6.9-.9,1.8,3a46,46,0,0,0,2.8,8,22.93,22.93,0,0,1,2.2,6.2c.8,3.7,2.5,5.3,7.5,7,4.1,1.4,12.3.8,19.1-1.4,4.1-1.3,4.5-1.3,5.7.3a8.7,8.7,0,0,1,1.3,4.3c0,1.9,1.1,3.2,4,5,3.4,2.1,3.8,2.8,3.3,5.3-.4,2-.2,2.8.8,2.8,1.7,0,4.6,4.3,3.2,4.7-.9.3-.2,8.2,1.2,13,1.1,3.5-6.5,11-11.8,11.8-5.5.8-11.2-1.7-16-7.1-4.3-4.8-6.5-9.7-4-8.7,1.2.5,1.4.2.7-1.8a31.15,31.15,0,0,1-.9-8.1v-5.6l-4.2-.7c-6-.9-6.4-2.5-.6-2.5,5.2,0,7.3-1.2,7.3-4.2,0-2.1-.8-2.5-7-3.2a46.29,46.29,0,0,1-6.7-1.2c-1.9-.5-2.3-.2-2.3,1.5,0,1.1.5,2.2,1,2.2s1.5.3,2,.4,1.9.3,3,.4,2,.6,2,1.2c0,.8-1.4,1-4,.6l-4.1-.5.8,3.6a85.47,85.47,0,0,1,.8,12.2c0,8.3-.1,8.5-2.7,9.8-1.6.7-2.8,1.7-2.8,2.2,0,1.6-6.4,7-8.2,7-1,0-1.8.5-1.8,1s-1.2,1.5-2.6,2.1c-2.1.7-3.1.6-4.4-.6a5.92,5.92,0,0,0-3.1-1.5c-.8,0-3-1.5-5-3.3-3.2-2.8-3.7-3.9-4.2-9-.3-3.1-.2-5.7.1-5.7s.7-3.8.7-8.5-.2-8.5-.6-8.5c-3,0-5.9,2.2-5.9,4.5,0,4.2-2.3,11.5-3.7,11.5-1.7,0-1.6-2.5.2-7.5,1.8-4.8,1.7-4.5.5-4.5-.6,0-1.5,1.2-2.1,2.7-1.6,4.2-3,5.7-4,4.1-1.3-1.9-1.1-2.4,1.7-5.8,1.5-1.7,2.3-3.4,1.9-3.8s-2,.9-3.6,2.8c-2.5,2.9-3.1,3.2-3.9,2-1.5-2.3-1.3-2.9,2.2-6,4-3.7,3.1-5-1-1.5-3.2,2.7-4.7,3.1-5.7,1.5s1.3-4.7,4.1-5.4c2.1-.6,2.4-.9,1.4-2.1-1.3-1.5-2-1.3-6.9,2.2-2.4,1.7-2.4,1.7-1.9-1,.4-1.8.1-2.7-.8-2.7-2.9,0-2.6-2.4.6-5,3.8-3.1,2.5-5.2-1.5-2.6-3.3,2.2-4.8,2-4.2-.4.4-1.7.2-2-1.4-1.5-2.9.9-2.4-2.1.6-4.1s3.4-4,.5-2.2c-1.6,1-2.2,1-3.2,0s-.9-1.6.6-2.8c2.8-2,1.1-3-1.9-1-1.4.9-3,1.4-3.5,1.1-1.8-1.1-1-3.5,1.5-4.5,3.9-1.5,3-2-2.1-1.3-3.7.5-4.6.3-4.2-.7.2-.8,1.9-1.8,3.7-2.2l3.2-.9-2.3-2.4c-1.3-1.4-2.8-2.5-3.4-2.5-2,0-6.5-2.7-8-4.8-2.1-3-.7-7.4,3.2-10.7,1.9-1.6,3.4-3.4,3.4-4,0-1.6,15.1-16.8,21.6-21.7,3-2.2,5.4-4.5,5.4-5s.7-.7,1.6-.4,2.8.9,4.2,1.2l2.7.6-2.7-2.6a13.16,13.16,0,0,1-3.3-5.4c-.6-2.8-.9-3.4-3.7-7.3a20.49,20.49,0,0,1-2.4-6.9c-.7-4.4-.7-4.5,1.3-2.7C126.8,124.2,128.2,126.8,128.9,129.1Zm153,3.6a86.13,86.13,0,0,1-5.8,10.3c-1.4,1.9-2.7,3.7-2.8,3.9s-.8,0-1.4-.6c-.8-.8.3-3.5,3.7-9.4C283.7,122.6,288.1,119.7,281.9,132.7ZM269,127c0,2-5.1,9-6.5,9-.8,0-1.5.4-1.5,1a1,1,0,0,1-1,1c-1.7,0-1.1-2.2,2.1-7.2,1.9-3,3.8-4.8,5-4.8C268.1,126,269,126.5,269,127Zm-26.4,8.5a23.22,23.22,0,0,1,5.4,7c1.2,2.5,2.5,4.5,3,4.5s1,1.5,1.4,3.2c1,4.9,3.7,11.8,4.8,11.8.4,0,.6-1,.4-2.3a70.15,70.15,0,0,1-1.1-7c-.5-3.9-.3-4.7,1-4.7.8,0,2,1.1,2.5,2.4a6.82,6.82,0,0,0,2.9,3.5c2.7,1.5,6.8,1.4,7.4-.2.3-.7.6-.5.6.5A1.93,1.93,0,0,0,273,156c4.4,0,1,5.1-4.3,6.4-4,.9-4.3,3-1,6.3,2.8,2.7,9.3,12.3,9.3,13.6a59.55,59.55,0,0,0,3,7c1.7,3.5,3,7.3,3,8.3a22.2,22.2,0,0,0,2,6.2c1,2.3,2,4.6,2.1,5a43.52,43.52,0,0,0,2.6,4.5c7.1,11.3,5.4,15.1-8.1,17.8-2.8.6-6,1.3-7.1,1.5s-5.1.9-9,1.5a58.53,58.53,0,0,0-9,1.9,28.56,28.56,0,0,1-6.5,1.5,50.57,50.57,0,0,0-10,3c-9.4,4-9.8,4.1-11.6.3a10.47,10.47,0,0,0-4.6-4.7c-2-.9-3.7-2.8-5-5.8-2.4-5.4-1.8-8,.8-3.5,3.1,5.5,4.2,6.7,5,5.9.5-.4-.4-3-1.9-5.7s-2.7-5.5-2.7-6.4c0-3.3,2-1.4,4.7,4.4,1.5,3.3,3.3,6,4.1,6,1.6,0,.9-2.9-1.9-7.9-1.1-1.8-1.7-3.6-1.5-3.9.8-.7,3.6,1.8,3.6,3.3a4.22,4.22,0,0,0,1.5,2.5,4.8,4.8,0,0,1,1.5,3.1c0,1.1.4,1.9.9,1.9,2.1,0,2.2-2.3.2-6.1a19,19,0,0,1-2.1-5.1c0-1.8,4,2.3,5.7,5.9.8,1.8,2.3,3.3,3.2,3.3,2.4-.1,6.6-3.6,5.2-4.4a3.82,3.82,0,0,1-1.1-2.8c0-2,.3-1.9,3.3,1.1,3.7,3.9,4.9,2.4,2.2-2.8-2.1-4.2-.3-3.9,2.6.4,2.6,3.8,5,4.7,4.2,1.5-.7-2.5,2.2-2.8,3.1-.3.5,1.2,1,1.3,1.8.5s.7-1.8-.5-3.6c-2.4-3.6-.6-4,2.7-.5,4.3,4.5,6.3,3.8,2.5-.9-3.3-4.3,0-4.1,3.7.1s4.7,4.6,3.8,1.2c-.7-2.8.7-3.3,2.6-1a4.29,4.29,0,0,0,2.2,1.5c.5,0-1.2-2.7-3.7-6s-4.3-6-3.8-6-.3-.7-1.5-1.6-2.1-2.2-1.8-3a1.61,1.61,0,0,0-.4-1.9c-1.4-.8-4-6.6-3.5-7.6.3-.4.1-1-.5-1.4a4.13,4.13,0,0,1-1-2.9,20.37,20.37,0,0,0-1.5-5.9,65,65,0,0,1-2.5-8.1c-.7-3-2.7-6.7-6-10.8a41.37,41.37,0,0,1-7.1-12.7,85.8,85.8,0,0,0-4.5-11C236.7,132.3,237.2,131.4,242.6,135.5Zm39.3,9c-4.1,6.7-7.9,10.7-7.9,8.3,0-1.5,4.5-8.1,8.8-13.1C285.7,136.4,285.2,139,281.9,144.5Zm-15.8,1.9c4.2,2.1,6.3,4.6,3.7,4.6-.7,0-3.2-1.3-5.4-2.8s-5-3.2-6-3.9c-1.7-1-1.7-1.3-.4-2.2,1.1-.8,1.8-.6,2.7.5A21,21,0,0,0,266.1,146.4Zm-48.6-.1c1.2.9,1.4,1.6.7,2.1-1.7,1-6.2-.4-6.2-2C212,144.6,215.1,144.6,217.5,146.3ZM206,148c0,1.2-3.5,3.1-4.4,2.3s1.4-3.3,3-3.3C205.4,147,206,147.4,206,148Zm24.8,2.7c3.2,2.1,4.3,3.4,3.6,4.5-.3.5-1.7-.1-3.1-1.2a9.48,9.48,0,0,0-3.9-2c-1.5,0-1.8-1.2-.7-2.3C227.6,148.7,227.7,148.8,230.8,150.7Zm-6.3,3.3c2.8,1.2,6.1,2.6,7.4,3.1,1.7.7,2.1,1.3,1.4,2s-3.3.3-8.3-1.5c-7-2.5-15.6-3.5-20.8-2.2-3.3.7-2.5-2.6.8-3.6C209.1,150.6,219.2,151.7,224.5,154ZM198,155.4c0,1.9-3.6,4-10.3,6.2-4.2,1.3-6,1.5-6.8.7-1.4-1.4,2.6-3.7,9.5-5.4,2.5-.6,4.9-1.5,5.2-2C196.4,153.5,198,153.8,198,155.4Zm19.9,2.5c2.1,1.4.1,1.9-7.9,2.2-6.3.2-8.6.8-14.3,3.6-6.6,3.3-10,3.6-7.6.7a3.62,3.62,0,0,1,2.3-1.4,14.07,14.07,0,0,0,4.1-1.7C201.2,157.7,214.4,155.7,217.9,157.9Zm23.6,13.8c2.5,7.8,2.7,9.7,2.1,17.3-.5,6.7-1.1,8.9-2.7,10.5l-2,2,.7-4a26.5,26.5,0,0,1,1.5-5.7c1.6-3.1.9-11.5-1.6-19.2-2.6-8.1-3.1-11.1-1.6-10.2C238.4,162.8,240,166.9,241.5,171.7Zm2.4-5.6c1.2,2.3,2,4.3,1.7,4.6s.2,2,1,3.8c1.6,3.9,1.8,7.5.5,7.5-.5,0-1.2-1.9-1.6-4.3a38.66,38.66,0,0,0-2.6-8.4c-1.8-4-2.5-7.3-1.5-7.3A17.75,17.75,0,0,1,243.9,166.1ZM227,165c4.7,1.4,9,6.2,9,10a3.22,3.22,0,0,0,1,2.5c.5.3.9,1.8.9,3.3a43.17,43.17,0,0,0,.5,6.7c.4,2.2.2,4.7-.3,5.5-.9,1.2-1.6,1-4.4-1.8-1.8-1.7-3.7-3.2-4.2-3.2a35,35,0,0,0-6,2.6c-5.3,2.7-11.6,10.3-12.9,15.6-.8,3.4-2.6,3.5-5.5.4-2.3-2.4-2.1-4.6.3-4.6,3.1,0,11.9-13.9,13.1-20.8.9-5.7-2.9-14.3-5.7-12.6-.4.3-.2,1.5.6,2.7,1.6,2.5,3,10.7,1.9,10.7-.5,0-1.5-1.3-2.4-2.9-1.2-2-2.9-3.1-6-3.9-5.4-1.4-6.2-.7-6.4,5.3-.3,6.2,1.3,8,6.9,8,2.5,0,4.6.4,4.6.9a35,35,0,0,1-2.2,5.6c-1.9,4.3-2.6,4.9-6,5.4-4.8.8-5.6,2.6-2.8,6.3,2.3,3.2,7.5,6.7,8.8,5.9.4-.2,1.8-2.5,3-5,2.4-4.8,4.2-6.6,4.2-4.4,0,.7,1.1,3,2.5,5,2.3,3.3,2.3,3.7.7,5a18.66,18.66,0,0,1-4.2,2.5c-1.4.6-4.1,1.8-6,2.7-3.2,1.4-3.6,1.4-4.8-.2-.7-.9-3.1-3.8-5.3-6.5-3.6-4.1-4.5-4.7-8.1-4.7-4.3,0-5,2.2-.9,2.8,1.9.3,2.1.8,1.5,3.8-.5,2.8-.3,3.4,1.1,3.4,1.2,0,1.5-.5,1-2-.9-2.9.7-2.5,4.1,1.1,2.8,3,2.9,3.1.9,4.5-2.7,2-9,3.8-10.9,3.1-2.3-.9-5-5.7-5.1-9.1-.4-10.5-.6-11.7-1.5-11.1-.5.3-1,1.8-1,3.1,0,3.3-2.1,2.7-3.3-1-1.7-5.1,0-12.8,3.8-17.1,1.9-2.1,3.5-4.6,3.5-5.4s1.3-2.3,2.9-3.2c2.8-1.6,6.1-6.8,6.1-9.6,0-.7,1.1-1.8,2.5-2.3s2.5-1.3,2.5-1.8C199,163.4,219,162.5,227,165Zm-43.1,2.1c-1.8,1.1-5.9,1.2-5.9.1,0-1.5,1-1.9,4.1-1.4C184.3,166.1,184.8,166.5,183.9,167.1Zm-7.9,1.8c0,1.1-6.5,6.1-7.9,6.1a1.23,1.23,0,0,0-1.1,1.3c0,.7-.9,1.8-2,2.5-5.2,3.2,1.2-5,7-9C174.8,167.8,176,167.6,176,168.9Zm12.5.1c.6,1-2,2.3-7.7,4-4.7,1.4-3.4-1.6,1.5-3.3C187.5,167.8,187.7,167.8,188.5,169ZM176,174.1c0,.6-2,2.9-4.4,5a42.94,42.94,0,0,0-6.9,8.2c-2.8,4.7-7.4,9.4-8.3,8.4s6.4-11.4,11.3-16c2.5-2.3,5-4.7,5.6-5.4C174.8,172.7,176,172.7,176,174.1Zm7,1.9c0,1.1-3.3,3-5.1,3-.8,0-.5-.7.6-2C180.4,174.9,183,174.3,183,176Zm-3.2,8.2c-1.8,2.2-4.2,4.7-5.2,5.7a52.9,52.9,0,0,0-4,4.1c-7,8.2-12.1,13-13.7,13-3,0-2.2-1.4,3.3-5.9a48,48,0,0,0,7.5-7.6c1.3-1.9,2.8-3.5,3.3-3.5s1-.6,1-1.4c0-1.7,9.1-9.7,10.2-9C182.6,179.9,181.5,181.9,179.8,184.2Zm30.9-3.7c.8,2.2-.6,3.3-1.7,1.5-1.3-2-1.2-3,0-3C209.6,179,210.3,179.7,210.7,180.5Zm-37.1,2.2c-.9,2.6-7.4,9.9-8.1,9.1-.9-.9,1.2-4.8,4.8-8.5C173.5,179.8,174.6,179.7,173.6,182.7ZM163,181.4c0,.3-.4.8-1,1.1s-1,.1-1-.4a1.1,1.1,0,0,1,1-1.1C162.6,181,163,181.2,163,181.4Zm44.2,2.1a1.6,1.6,0,0,1-1.1,1.3c-.6.2-1.1-.4-1.1-1.3s.5-1.5,1.1-1.3A1.6,1.6,0,0,1,207.2,183.5ZM159,185.1c0,2.6-8.2,13.9-10.1,13.9-.5,0,.1-2.1,1.4-4.7C153.6,187.3,159,181.6,159,185.1Zm72.6,8c3.5,2.1,4.3,4.6,2.2,6.7-1.7,1.7-2.5,1.5-3.1-.8-.3-1.1-1.8-2.5-3.4-3.2-3.9-1.7-3.9-1.6-1.7-3.3C228,190.7,227.7,190.6,231.6,193.1Zm-70.2,4.4c-.7,1.6-2.4,2.1-2.4.6,0-.8.7-1.3,2.7-2C161.8,196,161.7,196.7,161.4,197.5Zm65.6,1.7c3.6,3.9,1.8,6.7-2.2,3.1-1.9-1.7-2.5-5.3-.8-5.3C224.5,197,225.8,198,227,199.2Zm-56-.2a1,1,0,0,1-1,1c-.5,0-1,.9-1,2.1,0,2.3-3.6,7.9-5.1,7.9-2.5,0-1.8-3.4,1.6-7.5C169,198.2,171,196.9,171,199Zm-17.4,4.5c-2.8,2.6-4.6,3.2-4.6,1.5,0-.6.6-1,1.3-1a5.16,5.16,0,0,0,3-2.1c1-1.1,2.1-1.8,2.4-1.5S155.1,202.1,153.6,203.5Zm67.8-.9c.8,2.9.3,3.9-1.3,2.9-1.3-.8-1.5-5.5-.2-5.5C220.4,200,221.1,201.2,221.4,202.6Zm17.9,16a2.26,2.26,0,0,1,0,2c-.4,1.1-.9,1.2-1.9.3-.8-.6-1.1-1.5-.8-2A1.64,1.64,0,0,1,239.3,218.6Zm2.5,6.2c.2.7-.3,1.2-1.2,1.2a1.58,1.58,0,0,1-1.6-1.6C239,222.7,241.2,223,241.8,224.8ZM122,240.2c0,1.6-.3,1.9-1.1,1.1a2.09,2.09,0,0,1-.5-2.2C121.5,237.4,122,237.8,122,240.2Zm23.4.5c-.4,1.6-1.1,3.8-1.5,5.1a17.16,17.16,0,0,0-.9,5.2c0,3-1.4,4.8-2.5,3.1-.5-1,1.9-13.4,3.1-15.2C144.8,236.9,146,238.2,145.4,240.7Zm-21.1,5.9a27.43,27.43,0,0,1-2.5,4.5c-.4.3-1.5,3.6-2.4,7.5a71.55,71.55,0,0,1-6.1,16.3c-.1.1-.6,0-1.2-.4s-.4-1.9.9-4.5a18.84,18.84,0,0,0,2-6.2c.1-6.4,8.2-24,10.2-22C125.8,242.4,125.4,244.1,124.3,246.6Zm65.5-2.8c.3.9-.3,1.3-1.9,1a3.51,3.51,0,0,1-2.7-1.6c-.3-.9.3-1.3,1.9-1A3.51,3.51,0,0,1,189.8,243.8Zm-60,6.9c-7.3,14.6-7.9,16.5-5.9,17.8.6.3,1.3-1.1,1.7-3.2.7-4.1,4-10.3,5.5-10.3.5,0,.2,1.7-.6,3.7s-1.8,7.4-2,11.8c-.8,14.2-1.5,17.7-3.6,18.2-1,.3-1.9.9-1.9,1.4s-1.3,2.3-2.9,4.1c-3.1,3.6-5.5,10.7-7.5,22.5-.9,4.9-2.2,8.3-3.9,10.7-1.5,1.9-2.7,3.9-2.7,4.4a8.16,8.16,0,0,1-2.3,3,32.59,32.59,0,0,0-4.7,7.7c-2.2,4.9-5,7.4-5,4.4,0-1.6,6.3-12.9,7.2-12.9.4,0,2.3-2.8,4.3-6.2,3-5,4.1-8.4,5.6-17.5,2-11.8,4.2-17,8.8-21.3,3.5-3.3,6.6-11,5.7-14.5-.8-3.1-2.6-2.4-2.6.9,0,3.7-4,11.8-8.1,16.4-6.4,7.1-6.9,8.6-7,18.7,0,5.2-.5,9.7-1,10a2.88,2.88,0,0,0-.9,2c0,1.6-6.5,11.3-11.1,16.5a17,17,0,0,0-3.6,6.2c-.3,1.5-1.2,2.8-1.9,2.8-1.5,0-1.1-3.5.9-7.5,1.2-2.6,9.9-13.9,11-14.4,1.9-.8,3-6.2,3.1-16.3.2-9.8.4-10.9,3-14.8,1.5-2.3,3.5-4.4,4.5-4.7s3.4-3.1,5.4-6.4c3.3-5.3,3.7-6.6,3.7-12.6.1-9.2,1.6-15.3,4.7-18.6C128.2,250.2,130.7,249,129.8,250.7ZM114,259.5c0,.8-.4,1.5-1,1.5s-1-.7-1-1.5.5-1.5,1-1.5S114,258.7,114,259.5Zm76,0c0,.8-.9,1.5-2,1.5s-2-.7-2-1.5.9-1.5,2-1.5S190,258.7,190,259.5Zm-52,2.7c0,2.7,13.4,16.8,14.7,15.5.5-.5-1.9-3.3-9.9-11.9a6.17,6.17,0,0,1-1.8-3.6c0-1.4.4-1.2,2.3.9,9.3,10.9,12.3,12.9,18.8,12.9,2.9,0,11.8-3.7,13.2-5.5.4-.6,1-.6,1.5.2,1.2,1.8,13.2,2.4,13.2.6,0-.9-.8-1.2-2.2-.8-2.7.6-7.7-.6-8-2-.2-.6,2.2-1.3,5.2-1.6,5.2-.5,5.3-.6,2.3-1.3-4.5-1.1-4.2-3.1.3-3,2.5.1,4,.7,4.7,2a8,8,0,0,0,2.4,2.7,3,3,0,0,1,1.3,2.3c0,.8,1.8,2.1,4,3,6.2,2.5,6.6,4.7,3.5,15.9-.9,3.3-2.2,8.4-2.8,11.2-1.2,5.8-2,6.4-4.6,3.1-1.9-2.3-5.7-3.1-21.2-4.4-8.1-.7-16.9.1-16.9,1.6,0,.5,3.5,1,7.8,1.2,11,.4,9.3,2.3-2.1,2.3-9.1,0-9.2,0-8.9-2.4.2-2,0-2.2-1.3-1.1s-1.9,1-3.4-.4a32.29,32.29,0,0,0-4.9-3.4,41.54,41.54,0,0,1-5.3-3.7c-3-2.5-8.4-9.5-7.3-9.5.4,0,3.3,2,6.4,4.4,6.7,5.3,15,10.1,15,8.7,0-.6-1-1.6-2.2-2.2-5.4-2.7-16.9-12.2-18.4-15-2.5-5-.8-4.6,5.3,1.3a101.26,101.26,0,0,0,8.8,7.4,27,27,0,0,1,4.3,3.1,2.16,2.16,0,0,0,2.4.6c.7-.4.4-1.2-1-2.2-1.1-.9-4.9-3.8-8.4-6.5-8.3-6.4-15.1-14.6-12-14.6.4,0,4.7,3.8,9.6,8.5s9.6,8.5,10.5,8.5c1.1,0,.5-1.1-1.9-3.1-8.6-7.6-12.4-11.7-14.6-16.2-2.5-4.9-2.4-7.8.2-5.6A3.51,3.51,0,0,1,138,262.2Zm-25,1.5c0,2.3-1.7,4.9-2.6,4.1-.9-1,.4-5.8,1.6-5.8C112.6,262,113,262.8,113,263.7Zm-7,10.8c0,.8-.4,1.5-1,1.5s-1-.7-1-1.5.5-1.5,1-1.5S106,273.7,106,274.5Zm4.2,2a1.6,1.6,0,0,1-1.1,1.3c-.6.2-1.1-.4-1.1-1.3s.5-1.5,1.1-1.3A1.6,1.6,0,0,1,110.2,276.5Zm3.3,4.7a62.81,62.81,0,0,0-5.1,8.4c-1.5,3.1-4.4,4.7-4.4,2.5,0-3.9,10.2-17.7,12.2-16.5C116.6,275.9,115.4,278.4,113.5,281.2Zm-10.7-4a3.19,3.19,0,0,1-2.1,1.6c-1.2.2-1.5-.1-1.1-1.2C100.3,275.7,103.4,275.4,102.8,277.2ZM106,282a1.1,1.1,0,0,1-1.1,1c-.5,0-.7-.5-.4-1s.8-1,1.1-1S106,281.4,106,282Zm-9,12.3c-2.2,6.9-6.2,13.7-8.1,13.7-1.6,0-.9-2.9.9-4.2,1.1-.7,2.4-3,3.1-5s1.7-4,2.2-4.3.9-2.8.9-5.4c0-5.5,1-7.2,2.4-4.1C99.1,286.5,98.7,289.1,97,294.3Zm41.3-.8a47,47,0,0,0,7.9,6.1,42.32,42.32,0,0,1,6.7,4.6c2.6,2.3,4.1,2.9,6.9,2.6,2.2-.2,3.7.2,3.9.9.3.9-.6,1.3-2.6,1.3-1.7,0-3,.4-2.8.9.4,1.5-1.5,1-5.7-1.3-2.1-1.1-5-2.7-6.3-3.4-3.8-2.1-14.3-12.8-14.3-14.6C132,288.1,133.3,288.7,138.3,293.5Zm-11.9,1.2c-5.8,8.7-6.4,10.3-7.6,19.3a58.72,58.72,0,0,1-2.5,11.6c-1.5,4.1-10.7,14.3-11.9,13.2-.8-.9,2.5-6.8,4.2-7.5,2.7-1,5.8-8.6,6.4-15.8s4.2-15.7,9.2-22.6C127,289.1,129,290.7,126.4,294.7Zm-25,2.5c-1.5,4.9-4.6,10.7-7,12.8-3.1,3-3.4.5-.4-3.3a36.13,36.13,0,0,0,4.1-7.2C100.1,294.9,102.7,293.1,101.4,297.2Zm29.6-.8a49.71,49.71,0,0,1-2.5,5.3,30.94,30.94,0,0,0-3.1,11.8c-.6,7.4-2,11.4-6.4,18-2.7,4-3.8,6.9-6,15.4-1.7,6.6-3.1,3.7-1.9-3.9a23.49,23.49,0,0,1,4-10.7c4.1-5.8,5.6-9.7,6.4-17.3.8-7.3,5.8-19,8.1-19C130.3,296,131,296.2,131,296.4Zm10,6.8c4.9,3.3,6.4,5.8,3.4,5.8-1.4,0-9.4-7.2-9.4-8.5C135,299.5,136,300,141,303.2Zm53.4,1.3c2,.8,3.6,2,3.6,2.5s.9,1,2,1c2,0,2.7,1.4,1.3,2.3-.5.3-3.5-.8-6.8-2.3-4.1-1.9-7.2-2.7-9.7-2.4-2.8.2-3.8,0-3.8-1.1C181,302.5,189.5,302.5,194.4,304.5Zm-62.4.1a26.89,26.89,0,0,1-1,4.3c-.5,2-1.2,4.9-1.5,6.4-.7,3.6-2.4,2.7-1.8-1,.7-4.7,2.6-10.3,3.5-10.3C131.6,304,132,304.3,132,304.6Zm43.3,1.9c-.2,1.2-8.2,2.7-9.6,1.8-.6-.4-.3-1.1.8-1.9C168.5,304.9,175.6,305,175.3,306.5Zm-36.6.9a9.93,9.93,0,0,0,3.2,2.6,26.24,26.24,0,0,1,3.5,2.1c2.5,2.1,8.6,5.8,10.5,6.4,3.9,1.2,2.1-1-3.4-4.3s-6.9-5.2-3.9-5.2c.8,0,2.9,1.3,4.6,3s3.3,3,3.7,3a26.34,26.34,0,0,0,5.1-2.1c4.7-2.3,10.4-2.7,21.3-1.4,5.9.7,6.7.6,6.7-.9,0-2,.3-2,4.3.1,6.9,3.5,10.7,7.3,7.3,7.3-1.1,0-1.2.5-.3,2.5.7,1.4,1.5,2.5,1.9,2.5s1.5,1.7,2.5,3.7c1.3,2.8,1.4,3.8.5,4.1s-1,.7,0,1.9c.6.8,1.5,4.1,1.9,7.4.6,4.8.2,7.3-1.7,13.2l-2.3,7.2-.1-5c0-5.7-.9-9.5-2-9.5-1.5,0-1.8,2.7-.8,7.9.5,2.9.6,5.6.3,5.9-1.1,1.1-2.4-2.1-3.1-7.5-.9-7.4-2.5-6.7-1.7.7.3,3.3.3,6,0,6-1.2,0-3.7-5.9-3.7-8.8a7.81,7.81,0,0,0-1.9-4.8c-1.3-1.4-1.8-3.2-1.6-5.7.3-3.4.1-3.7-3.2-4.3-2.1-.4-3-1-2.3-1.4a4.93,4.93,0,0,1,3-.3,2.12,2.12,0,0,0,2.4-.6c.5-.7-.2-1.1-1.6-1.2a45.71,45.71,0,0,1-5-.4c-2.1-.3-2.9.2-3.4,1.8-1.2,3.6-.5,11.1,1,11.9s6.6,11,6.6,12.9c0,1.5-2.7,1-4-.6-1.1-1.3-1.5-1.3-2.1-.3s-2.1.1-5.6-3.3c-7.9-7.7-10.7-10-13.5-11.5-1.6-.8-2.8-1.9-2.8-2.3,0-1-21-11.4-21.7-10.8-.2.3,4.8,3.5,11.1,7.1s12,7.4,12.7,8.2c2.4,2.9-.1,2.5-5.8-.9-3.2-1.9-8.2-4.7-11.1-6.1-6.4-3.2-15.2-9.4-15.2-10.7s1.3-1.1,3.6.6c2.1,1.6,3.4,1.9,3.4.7,0-.4-1.3-1.6-3-2.5s-3-2.5-3-3.3c0-1.9.1-1.9,5.8,1.7a32.14,32.14,0,0,0,6.3,3.3,55.55,55.55,0,0,1,6.2,2.5c7.7,3.6,6.6,1.6-1.2-2.2-9.6-4.8-16.1-8.9-16.1-10.5,0-2,2.4-1.4,6.6,1.6s15.3,9.2,16.6,9.2c2.5,0,0-2.2-5.8-5.2-6.6-3.5-15.3-9.7-15.4-11.1s2.8-.7,5.6,1.5c3.8,3,16.8,10.7,17.3,10.2s-2-3.4-3-3.4c-1.3,0-12.1-7-15.1-9.8-1.5-1.4-2.5-2.9-2.2-3.4C136.4,305.6,137.8,305.8,138.7,307.4Zm-41.2,5.7A28.1,28.1,0,0,1,94,318a16.26,16.26,0,0,0-3,6.2c-1.1,4.1-3.6,11.1-6.7,19-1.5,3.6-1.6,3.6-4.6,2.3-3.8-1.6-4.5-3.1-1.9-3.9,2-.7,2.7-2.7,3.7-12.1.6-5.1,3.8-12.7,6.2-14.7,1.9-1.5,1.6-.2-1.7,8.6-1.6,4.4-2.7,8.2-2.5,8.5.7.6.7.5,4-7.4C90.2,318,96.1,310,98.1,310,98.6,310,98.3,311.4,97.5,313.1ZM86,312a1,1,0,0,1-.8,1c-2.1,0-7.2,16.8-7.2,23.7a3.9,3.9,0,0,1-1.1,2.9c-.9.5-1-1.8-.5-8.5.7-10.4,4.5-20.1,7.8-20.1C85.2,311,86,311.4,86,312Zm-46,9.9c0,1.2-2.4,3.6-6.6,6.6-5.8,4.2-6.8,4.6-8.1,3.3s-1-1.8,2.2-3.7a31,31,0,0,1,4.1-2.1,18,18,0,0,0,3.4-3C38.4,319.5,40,319.2,40,321.9Zm-.7,6.5c.8,1.9-3.2,5.7-9.2,8.9-4.6,2.4-6.1,2.5-6.1.6,0-.5,2.4-2.4,5.3-4.2a53.53,53.53,0,0,0,6.6-5C37.6,326.6,38.6,326.6,39.3,328.4Zm95.3,6.1c2.5,1.9,5.2,3.5,6,3.5s1.4.3,1.4.7c0,.9,4.8,3.3,6.6,3.3.7,0,2.6,1.1,4.2,2.5s3.4,2.5,3.9,2.5,2.4,1.3,4.3,3a16,16,0,0,0,4.8,3c1.9,0,1.4,2.7-.7,3.3-1.2.3-3.2-.6-5.3-2.2a114.29,114.29,0,0,0-12.1-7.6c-9.4-5.3-18.6-12.2-18.6-14.3C129,330.4,129.5,330.6,134.6,334.5ZM24,334.6a1.45,1.45,0,0,1-1.5,1.4c-1.5,0-2.1-2.1-.9-3.3C22.6,331.8,24,332.9,24,334.6Zm97.3,2.6a22.07,22.07,0,0,1-1.1,3.8,49.85,49.85,0,0,0-1.6,5.8c-.6,2.4-1.5,4.2-2.1,4-1.4-.4-1.1-2.5,2.1-14.6C119.2,333.9,121.8,334.9,121.3,337.2Zm9.4.1c1.7,2.7,19.8,14.7,22.2,14.7a4.12,4.12,0,0,1,2.1,1.5c1.1,1.3.6,1.5-3.8,1.5-3.9,0-5.4-.4-6.1-1.8-.5-1-3.6-3.5-6.8-5.7-6.3-4.2-12.3-9.4-12.3-10.7S129.8,335.9,130.7,337.3ZM37,340.6c0,1.7-.6,2.4-1.9,2.4-2.6,0-3.2-2.1-1.3-4.2S37,337.4,37,340.6Zm-20-1.1c0,.8-.4,1.5-.9,1.5-1.3,0-2.2-1.6-1.4-2.4C15.8,337.5,17,338,17,339.5Zm113.6,5.2c3.8,3.1,4.3,4.3,1.7,4.3s-7.8-4.4-6.9-5.8C126.4,341.6,126.6,341.6,130.6,344.7Zm86.2,1.2c.3.8-.1,1.2-.9.9a2.86,2.86,0,0,1-1.7-1.7c-.3-.8.1-1.2.9-.9A2.86,2.86,0,0,1,216.8,345.9Zm-28.1.9c.7.5,1.6,3,1.9,5.7.5,3.5.4,4.6-.4,4.1a2.37,2.37,0,0,1-1.2-1.8c0-.5-1.1-2.3-2.5-4s-2.5-3.4-2.5-3.9C184,345.8,187,345.7,188.7,346.8Zm-88.7.6c0,.3-.4.8-1,1.1s-1,.1-1-.4a1.1,1.1,0,0,1,1-1.1C99.6,347,100,347.2,100,347.4Zm27.8,2.5c2.7,2.3,2.8,3,.5,2.6a20.8,20.8,0,0,0-3-.4A2,2,0,0,1,124,350C124,347.5,124.8,347.5,127.8,349.9Zm11.6.8c3.5,1.6,3.9,3.3.9,3.3-1.8,0-5.3-2.8-5.3-4.2C135,348.7,135.4,348.8,139.4,350.7Z" transform="translate(0 -5.52)"/>
    <path d="M117,214c-1.3.8-1.3,1,.2,1a3.11,3.11,0,0,0,2.3-1C120.3,212.7,119,212.7,117,214Z" transform="translate(0 -5.52)"/>
    <path d="M123.5,223c-.3.5.1,1,.9,1s1.6-.5,1.6-1a.92.92,0,0,0-.9-1A1.9,1.9,0,0,0,123.5,223Z" transform="translate(0 -5.52)"/>
    <path d="M157.8,258.1c-1.6,1.1-2.8,2.6-2.8,3.3,0,1.7,4.3,5.6,6.2,5.6,2.4,0,4.1-5.1,2.9-8.3S161.4,255.4,157.8,258.1Z" transform="translate(0 -5.52)"/>
    <path d="M208,262.7c-2.4,3.1-2.5,3.7-.5,5.3s6.2.5,7.3-1.8-.7-5.7-3.1-5.8C210.8,260.3,209.1,261.4,208,262.7Z" transform="translate(0 -5.52)"/>
    <path d="M178,276c0,.4,2.1,1,4.6,1.4,6.5.9,7.4.8,7.4-.7,0-.8-1.9-1.3-6-1.4C180.7,275.3,178,275.5,178,276Z" transform="translate(0 -5.52)"/>
    <path d="M179,280.4c0,2.1,1.4,2.7,6.6,3,3.6.2,4.4,0,4.2-1.3-.2-.9-1.5-1.6-3.4-1.7a33.61,33.61,0,0,1-5.2-.8C179.6,279.1,179,279.3,179,280.4Z" transform="translate(0 -5.52)"/>
    <path d="M179,286c0,.5,1.1,1.2,2.4,1.6,3,.7,7.7.2,7.6-1S179,284.8,179,286Z" transform="translate(0 -5.52)"/>
    <path d="M180.4,291.5a5.5,5.5,0,0,0,.4,3.9c.8,1.7,1.9,2.3,4.7,2.4,3.9.2,4.6-2,.9-2.6-3.5-.7-3.9-2.2-.5-2.2,4.6,0,3.5-2.4-1.2-2.8C182,290,180.8,290.3,180.4,291.5Z" transform="translate(0 -5.52)"/>
    <path d="M180.2,316.2c.5,1.5,7.2,2.3,9.7,1.2,1.2-.6.9-.9-1.4-1.4C183.5,314.7,179.8,314.9,180.2,316.2Z" transform="translate(0 -5.52)"/>
    <path d="M177,324l-2.5,2.4,6,1.3c11.9,2.6,14.3,1.9,12.4-3.5-1.1-3.2-1.1-3.2-7.2-3C180.7,321.4,179,322,177,324Z" transform="translate(0 -5.52)"/>
    <path d="M174,345.7c0,1.1,5.2,7.5,5.7,7s-4-7.7-4.9-7.7A.71.71,0,0,0,174,345.7Z" transform="translate(0 -5.52)"/>
    <path d="M81.5,340c-1.8,2-1.6,3.8.3,2.6.8-.5,2.4-4.6,1.8-4.6A10.14,10.14,0,0,0,81.5,340Z" transform="translate(0 -5.52)"/>
    <path d="M541,140a1.08,1.08,0,0,0,1,1,1,1,0,0,0,1-1,.94.94,0,0,0-1-1A1,1,0,0,0,541,140Z" transform="translate(0 -5.52)"/>
    <path d="M321,146.1c0,.5.5.7,1,.4s1-.8,1-1.1-.4-.4-1-.4A1.1,1.1,0,0,0,321,146.1Z" transform="translate(0 -5.52)"/>
    <path d="M730.7,167.7c-.4.3-.7,1.9-.7,3.5,0,3.6,2.5,3.8,3.4.3S732.7,165.7,730.7,167.7Z" transform="translate(0 -5.52)"/>
    <path d="M888.3,240.2c-2.5.7-4.3,1.7-4.6,2.8-.5,1.9-11.8,10-13.9,10-1.3,0-2.3.9-10.6,9.1-4.1,4-7.3,9.6-12.2,21.8-1.6,4-2,6.3-1.5,9.5.9,5,2.5,7,8.1,9.8,3.5,1.7,4.7,3,6.1,6.7a47.09,47.09,0,0,0,3.1,6.9c.8,1.2,1.3,2.4,1.1,2.6a62.08,62.08,0,0,1-5.9,2.1,48.9,48.9,0,0,0-17.9,10c-3.5,3.2-3.8,3.3-5.8,1.7s-2-2.3-1.3-6.6a25.57,25.57,0,0,0-.2-8.4c-.6-2.1-.6-3.8,0-4.4,1.8-1.8-1.2-10.6-7.3-20.7-.5-1-4.3-4.9-8.2-8.9-5.7-5.6-7.9-7.2-10.2-7.2s-3.1.6-4.1,3c-.7,1.6-1.9,3-2.7,3-1.2,0-1.4.8-.9,3.9.6,3.7.3,4.3-3.9,8.4a33.46,33.46,0,0,0-4.6,5.3,22.78,22.78,0,0,1-.5,3.4,62.24,62.24,0,0,0-.4,17.2c.3,3.2.2,6.5-.3,7.4a1.89,1.89,0,0,0,.7,2.9,4.09,4.09,0,0,1,1.6,2.8,3.71,3.71,0,0,0,2,2.7,2.24,2.24,0,0,1,1.4,2.5c-.4.8-.1,1.5.5,1.5s1.5,1.9,2.2,4.2a31,31,0,0,0,2.7,7c.9,1.5,1.4,3,1.1,3.3-.5.4-7.2-.2-22.9-2-9.8-1.1-14-1.8-14-2.4,0-.4-1.9-.7-4.2-.8-5.7-.1-10.9-.8-13.1-1.8a3,3,0,0,0-2.8.2c-1,1-2.5.8-11.4-1.7a44,44,0,0,0-9.8-.5c-3.7.1-7-.2-7.3-.6a2.83,2.83,0,0,0-2.2-.9,14.17,14.17,0,0,1-4.6-1.5c-1.8-1-3.3-1.2-4-.6s-2.6.3-5.1-.9a21.72,21.72,0,0,0-6.6-2h-2.7l1.5,4.2a16.71,16.71,0,0,0,2.2,4.8,9.13,9.13,0,0,1,2,2.8c.7,1.2,1.6,2,2.2,1.7s.9.1.9,1a2.53,2.53,0,0,0,1.5,2.1,2.53,2.53,0,0,1,1.5,2,1.37,1.37,0,0,0,1.4,1.4c.8,0,1.7.9,2.1,1.9a4,4,0,0,0,2,2.5,2.74,2.74,0,0,1,1.5,2.4c0,1,1.1,2.9,2.5,4.2s2.5,2,2.5,1.6,1.4.6,3.1,2.3,2.8,3.5,2.4,4.1,0,1,.9,1c1.5,0,9.6,8.6,9.6,10.2,0,.5,1.3,2.3,3,3.9,2.5,2.6,3.2,2.8,5.1,1.8a4.3,4.3,0,0,1,4.5.1c1.8,1,2.7,1,3.7.2.8-.7,1.7-.9,2.1-.5s7.3.8,15.4,1c13.1.3,19.7.7,19.7,1.3,0,.2,2,.3,4.5.4a19.19,19.19,0,0,1,5.8.9,1.83,1.83,0,0,0,2.1.2c.5-.3,5.6.2,11.3,1.1s15.3,1.7,21.3,2a150.42,150.42,0,0,1,16.5,1.6c3,.6,12.3,1.2,20.5,1.4s16.4.6,18,.9a51.23,51.23,0,0,0,7.3.5,76.6,76.6,0,0,1,11.1.4c8.9.8,15.6,1.8,16.6,2.6.6.5,3.7.8,7,.7,10.7-.2,41.2,2.8,43,4.2.5.5,2.8.9,5,.8s6.6.3,9.8.6,5.7.2,5.7-.2c0-1.4-3.4-8.3-6.2-12.7-1.4-2.2-4.2-7.1-6.1-11s-4.4-7.4-5.5-8.1-2.2-2.7-2.5-5c-1-5.8-3.3-8.6-6.8-7.9-1.5.3-3.1.1-3.4-.4a1.22,1.22,0,0,0-1.6-.5c-.5.4-.9-.3-.9-1.4s-.4-2.1-1-2.1a.81.81,0,0,0-.9.7c.5,3.3-2.4,4.6-4.9,2.1-.8-.8-1.5-.8-2.5.1a3.33,3.33,0,0,1-2.8.6,62.36,62.36,0,0,0-8.9-.8c-7.3-.2-7.5-.3-7.2-2.7a7.65,7.65,0,0,1,1.8-4.1c1.6-1.8,2-10.4.8-16.9-1-5.1-6.7-13.2-10.8-15.4-2-1.1-3.6-2.5-3.6-3.2s-.6-1.1-1.4-.8-3.1-.5-5.3-1.9a38.93,38.93,0,0,0-6.1-3.1c-1.9-.6-2.2-1.3-1.8-3.2.4-1.4.2-2.4-.4-2.4-1.6,0-1.2-4.6.5-6a5.07,5.07,0,0,0,1.5-3.3c0-1.8.5-1.9,5.1-1.4,4.9.6,9-.8,11.1-3.7.3-.5,2-.3,4,.6,2.2,1.1,4.9,1.4,8.5,1.1,5.7-.6,6.2-1.3,6.3-9.8.3-12.9-.9-17.7-7.2-30.3-3.3-6.7-6.5-12.2-7-12.2s-3.5-2-6.6-4.5A35.27,35.27,0,0,0,888.3,240.2ZM902,244c9.2,1.8,16.6,6.4,18.4,11.4.3,1,.9,1.6,1.3,1.3s1.3.7,2.2,2.3c6.3,11.6,7.6,14.9,7.6,17.5a6.68,6.68,0,0,0,1.2,4.3c1.9,1.9,1.7,2.6-1.8,5.1-4,3-5,1.9-1.5-1.6,3.3-3.2,1.5-4.6-1.8-1.5-7.3,7.1-8.6,7.7-8.6,3.7,0-1.4-.5-2.5-1.2-2.5s0-1.3,1.5-2.8,2.7-3.3,2.7-4a1.37,1.37,0,0,1,1.5-1.2,1.54,1.54,0,0,0,1.5-1.5c0-.8-.2-1.5-.5-1.5a68.41,68.41,0,0,0-6.2,5.6c-3.9,3.8-5.7,6.2-5.5,7.5a5.23,5.23,0,0,1-.8,3.5c-1,1.1-1,1.7-.1,2.8s.8,1.7-.9,2.6a3.16,3.16,0,0,0-1.8,3.3c.2,1.4-.3,2.3-1.4,2.5-1.4.3-1.6-.2-1.1-3.2.9-5.5-2.5-4.4-4.2,1.4-1.1,3.8-3.5,6-6.5,6a6.14,6.14,0,0,0-3.5.9c-2,1.8-11,2.9-16.3,2.1-5.6-.9-8.2-2.4-8.2-4.5,0-.8-2.4-1.5-6.7-2-7.7-.8-9.8-2.3-10.8-7.8-.5-2.5-.1-5.2,1.3-8.9,2.7-7.2,8.9-19.3,10.8-21.2s5.4-2.1,5.4-.2c0,.8,1.6,2.8,3.5,4.5s3.5,3.2,3.5,3.5-1.2.6-2.7.9c-8.8,1.7-9.8,2.3-9.5,4.8.3,3,5.9,8.8,9.2,9.6a10.35,10.35,0,0,1,3.8,1.6c.9.7,1.5.2,2.3-2.1a6.45,6.45,0,0,1,3.9-4c2.5-.9,2.8-.8,3.3,1.6.7,3.5,4.2,7.2,6.8,7.2a10.47,10.47,0,0,1,4.1,1.1c1.6.8,2.4.8,3.5-.3,1.8-1.9.3-9.1-2.6-12.2-2.7-2.8-2.6-3.6.2-3.6s5,1.7,6.6,4.7c1.3,2.6,3.1,3,3.1.8,0-1.7.5-1.8,2.9-.6,1.4.8,2.9-.1,7.4-4.8,6-6.1,6.6-7.1,4.2-7.1-.8,0-1.5-.9-1.5-2,0-2.6-.7-2.5-3.6.2-6.2,6.1-7.4,6.9-7.4,4.8,0-1.5,3.3-5,4.7-5a1.23,1.23,0,0,0,1.3-1.1c0-.7-1-.9-2.5-.5-1.9.5-2.3.3-1.9-.9.9-2.1-1.3-1.9-3.8.5-2.7,2.5-3.8,2.5-3.8.2,0-.9,1.8-3,4-4.5s4-3.3,4-3.8c0-1.5-1.1-1.1-4.7,1.7-4.8,3.6-6.2,1.9-1.6-2.1,2.1-1.8,3.5-3.6,3.2-3.9s-2,.4-3.6,1.8a16.82,16.82,0,0,1-5.8,3.2l-2.8.7,1.9-2.6c1-1.5,2.6-2.7,3.5-2.7,1.8,0,4.2-2.4,3.3-3.3-.3-.3-2.2.1-4.1,1-2.9,1.2-3.7,1.2-4.4.1s-1.1-1-2.1,0a4.49,4.49,0,0,1-2.5,1.2c-2.3,0-1.3-2.5,1.7-4.2,1.7-.9,3-2.2,3-2.8s-.4-.8-1-.5-1-.1-1-1c0-1.2.5-1.5,1.8-1C896.7,242.8,899.5,243.5,902,244Zm-11,.6c0,1.3-3.8,2.9-4.7,2a1.87,1.87,0,0,1,0-1.8C886.9,243.1,891,243,891,244.6Zm-5.4,8.4a4.9,4.9,0,0,1,2.5,1.8,26.93,26.93,0,0,0,3.5,3.3,38.19,38.19,0,0,1,5.3,6.4A56.84,56.84,0,0,0,902,271a22.2,22.2,0,0,1,3.5,4.2c2.2,3.6.5,3.7-4,.2-2.8-2.1-4-2.4-6.7-1.9a17.5,17.5,0,0,0-5.7,2.6A7.86,7.86,0,0,1,885,278c-2.8,0-7.9,3-8.5,5-.4,1.1-1.2,2-1.8,2-1.7-.1-5.3-3.1-6.6-5.8-1.1-2.1-.9-2.4,2.3-3.7a20.79,20.79,0,0,1,5-1.5c2.2,0,11.5-6.3,12.2-8.3,1-3-.5-7.3-3.7-10.5-1.8-1.8-2.8-3.6-2.3-4.3.5-.9,1-.8,1.9.4C884.2,252.3,885.1,253,885.6,253Zm-1,8.5c.6,3.5-.1,5.9-1.5,5-.5-.2-1.1-1.8-1.5-3.5-.4-2.1-1.7-3.7-4.1-5.1-4.1-2.5-4.3-3.1-1.2-4.5,1.9-.9,2.6-.6,4.9,1.9A15.89,15.89,0,0,1,884.6,261.5Zm-4.6,2.7a2.07,2.07,0,0,1-.9,1.3c-1.1.6-4.2-5.1-3.3-6C876.4,258.9,879.9,262.9,880,264.2Zm39.5,5.8c.7,1.2-5.3,7-7.2,7-2.2,0-1.4-1.7,2.2-4.9C918.5,268.7,918.6,268.6,919.5,270ZM895,281.1c1.2,1.6,2,3.3,1.7,3.6-.7.7-5.7-4.3-5.7-5.7C891,277.1,892.9,278,895,281.1Zm-81.1,8.8c1.7,2.1,3.1,4.4,3.1,5s1.1,2.9,2.5,5.1,2.5,4.4,2.5,5a1.1,1.1,0,0,0,1.1,1c.6,0,.9-1.4.7-3.2s.2-3.3,1-3.5,1.2.9,1.3,3.9a47.29,47.29,0,0,0,.4,6.3c.2,1.1.6,3.8.8,6a33.62,33.62,0,0,0,1.2,5.8,10.17,10.17,0,0,1,.1,5c-1.4,7.4-1.3,8.3.2,9.9a4.57,4.57,0,0,0,2.7,1.8c2.2,0,6.9,2.8,10.9,6.4a31.23,31.23,0,0,0,4.2,3.6c.7,0,7.1,4.7,9.7,7.2,1.6,1.5,3.5,2.4,4.2,2.2.9-.4,1.2,0,.9,1.3s1,3.6,4.2,7c3.9,4.2,4.8,5.8,4.8,8.9.1,2,.6,3.9,1.3,4.1,1.5.5,2.7-3.8,2.7-9.9-.1-3.9.3-4.9,2.4-5.9a10.67,10.67,0,0,0,3.7-3.9,16.42,16.42,0,0,1,2.9-3.9,4.93,4.93,0,0,0,1.6-3.2c0-1.1.6-1.9,1.4-1.9s2.1-1.1,3-2.5A16.49,16.49,0,0,1,895,343c2.2-1.1,4-2.4,4-2.8s1.6-1.3,3.7-1.8c3.4-.9,6.4-3.6,5.2-4.9-.4-.3-2.8.4-5.4,1.5s-5,1.8-5.3,1.6c-.9-1,4.3-4.5,7.6-5.2,2-.4,2.9-1,2.2-1.4-3.4-2.1-15.2,4.4-18,10a35.59,35.59,0,0,1-5.9,7.8c-2.1,2.3-4.7,5.3-5.8,6.6-1.4,1.9-2.4,2.4-4.5,1.9-2.9-.6-3.9-3.3-1.2-3.3,2.3,0,.8-1.7-2.1-2.3-2-.3-2.5-.1-2,1.1a3.2,3.2,0,0,1-.6,2.8c-1,1.2-1.6,1.2-3.8-.3-5.7-3.7-6.5-6.5-4.6-15.2.3-1.7.2-3.2-.4-3.6s-1.1-1.7-1.1-3.1c0-3.7-2.7-2.9-4.5,1.2a21,21,0,0,0-1.5,5.3c0,3.3-1.5,4.4-4.1,3-6.1-3.2-6.3-5.4-.6-10.3,8.4-7.4,16.5-10,21.6-7,1.7,1,3.1,2.2,3.1,2.6s1.2.8,2.8.7l2.7-.1-3.2-1.4c-1.8-.8-3.3-2.1-3.3-3a10.24,10.24,0,0,0-2-4.4c-1.9-2.7-5-10.2-5-12.1,0-3.3,10.6,2.9,12.8,7.4,1.3,2.6,3.3,3.3,8.5,2.8a1.39,1.39,0,0,1,1.7,1.3c0,1.6.5,1.8,4.5,2,1.4.1,2,.8,2,2.5,0,2.1.5,2.3,6.5,2.8,13.2.9,22.4,8.8,27.4,23.4,1.2,3.3,1.2,4.7,0,8.5a68,68,0,0,0-1.9,9.4c-.7,6.7-2,9.6-5.4,13a38.24,38.24,0,0,0-4.6,6.2c-.9,1.8-2.6,4.9-3.6,6.8a16.44,16.44,0,0,0-1.9,5.7c0,2.4-1.5,3.9-2.5,2.3-.3-.5-2.6-1-5-1-5.8,0-7.9-.8-6.4-2.6.8-.9,2.5-1.2,5.7-.7,3.7.4,4.5.3,3.5-.7-1.4-1.6-13.6-1.7-14.1-.1-.2.6-1.5,1.1-2.8,1.1-2.3,0-2.4-.3-2.4-5.8s.3-5.9,3.7-8.5c3.2-2.3,3.8-2.5,5.2-1.3,2,1.8,10.7,3.3,9.7,1.7a3.21,3.21,0,0,0-2.4-1.1c-1.1,0-1.3-.3-.5-1.1,1.4-1.4,5.3.5,5.3,2.5,0,2.4,2.8,2.6,4.3.2,1.5-2.2,1.4-2.3-2.9-3.4-4.6-1.2-6.4-3.9-1.9-2.8,1.4.3,3.7.9,5.1,1.2,4.7,1.2,2.2-1.9-2.9-3.6-2.6-.8-4.7-1.8-4.7-2.1s2.4-1,5.3-1.3c7.4-1,9.7-1.7,9.7-2.8,0-.7-1.9-.8-5.2-.4l-5.2.7,3.2-2.8c1.7-1.5,5-4.3,7.2-6.2,2.9-2.4,4-4.1,4-6.2,0-1.5.5-3.1,1-3.4,1.2-.7,1.4-4.5.2-4.5-.4,0-2.2,1.3-4,2.9-3,2.8-3.6,4-3.3,6.6,0,.6-1.3,1.6-3,2.2s-3.3,2.1-3.6,3.2a2.63,2.63,0,0,1-2.2,2.1c-.9,0-4.5,2.7-8,6s-6.8,6-7.2,6-1.8,1-2.9,2.2a10.77,10.77,0,0,1-2.8,2.4c-4.5.7-7.6,2-8.5,3.6-1.8,3-13.1,7.3-16.1,6.2-.9-.4-1.6-1.7-1.6-3.4a6.06,6.06,0,0,0-1.5-4c-1.1-.9-1.2-1.7-.4-3.2s.7-2.4-.5-3.7c-1.5-1.5-1.7-1.4-2.2.7-.9,3.2-2.6,2.7-2.2-.7.3-3-1.6-6.1-3.8-6.1-.7,0-1.6-.9-1.9-2s-1.1-2-1.6-2c-1.2,0-5.5-4.3-5.1-5.3.1-.4-.7-.7-1.8-.7a1.77,1.77,0,0,1-2-1.9c0-2.8-2.1-3.7-3.6-1.6-1.9,2.5-4.4,1.2-4.4-2.4,0-2-.6-3-2-3.4s-2-1.4-2-4.1a7.44,7.44,0,0,0-1.9-5.3,11.9,11.9,0,0,1-2.6-4.1,6.42,6.42,0,0,0-3.1-3.4,11.57,11.57,0,0,1-3.9-3.4c-2.2-3.4-6.5-15.7-6.5-18.6a21.26,21.26,0,0,0-1.5-6.2c-.9-2.2-1.1-3.6-.5-3.6s1.9,2,3,4.5,2.4,4.5,2.9,4.5c2.2,0,2.1-2.3-.3-7.6-2.9-6.2-3.2-7.8-1.5-7.2s5.9,8.9,5.9,11.5c0,1.4.6,2.3,1.5,2.3,1.9,0,1.9-4.6,0-8a13,13,0,0,1-1.5-4.6c0-1.1-1.3-3.3-3-4.9-2.9-2.8-3.9-5.5-2.1-5.5C810.4,286,812.2,287.8,813.9,289.9Zm118.1,1c0,1.2-2.6,3.2-3.3,2.5s1.4-3.3,2.6-3.4A.81.81,0,0,1,932,290.9Zm-8.8,1.3c-.9.9-1.5.9-2.4,0s-.7-1.2,1.2-1.2S924.1,291.3,923.2,292.2Zm4.6,3c-.6,1.6-3.6,3.4-4.4,2.5s1.5-3.7,3.3-3.7C927.5,294,928,294.5,927.8,295.2Zm6.2,1.3a1.54,1.54,0,0,1-1.5,1.5c-1.6,0-2-1.2-.8-2.3S934,294.9,934,296.5Zm-110,1.6a.92.92,0,0,1-1,.9c-.5,0-1-.7-1-1.6s.5-1.2,1-.9A1.9,1.9,0,0,1,824,298.1Zm94.8,0c.4,2.1-5.4,4.7-6.9,3.2-.7-.7-.3-1.7,1.2-3.2C915.7,295.7,918.3,295.7,918.8,298.1ZM800,305a14.12,14.12,0,0,1-1.1,4.4,5.73,5.73,0,0,0,0,5.4,18.51,18.51,0,0,1,1.3,6.1c.1,2.6.9,3.8,3.9,5.8a19.41,19.41,0,0,1,5.9,6.8c1.2,2.4,2.8,4.6,3.6,4.9a6.58,6.58,0,0,1,2.6,3.3,28.68,28.68,0,0,0,2.5,4.4c1.7,2,.5,3.1-4.9,4.8-3.3,1.1-3.7,1.5-2.8,3.2,1.3,2.4,2.1,2.4,5.4-.2,2.3-1.8,2.7-1.8,3.2-.5.4.9-.5,2.9-2.1,4.8-3.1,3.6-1.6,5.4,1.6,1.9,2.4-2.6,4.4-2.8,3.4-.4-.5,1.5-.4,1.6.6.5,4.8-4.6,2.9,4-2.3,10.7-1.9,2.5-2.3,4.1-1,4.1.4,0,2-2.1,3.6-4.8,3.1-5,4.8-4.4,2.1.8-1.8,3.4-1.6,4.4.7,3.5.8-.3,2-2.6,2.6-5.2.9-3.2,1.6-4.3,2.3-3.6s.7,1.7-.1,3.3a5.2,5.2,0,0,0-.4,3.8c.6,1.4.8,1.3,1.3-.7,1-3.8,3-3.6,4.6.4,1.9,4.4,1.6,4.9-3.8,7.3a20.14,20.14,0,0,0-5.6,3.5,3.85,3.85,0,0,1-2.4,1.7c-1.4,0-5.7-4.1-5.7-5.4,0-.6-1.8-3.3-4-6s-4-5.4-4-6.1a3.59,3.59,0,0,0-1.4-2.4,9,9,0,0,1-2-4.6,94,94,0,0,0-2.6-9.2c-2.1-6.4-1.8-7.9,1-4.6,2.3,2.9,3.2,1.9,1.4-1.5a11.55,11.55,0,0,1-1.4-3.9c0-.6-1.1-2-2.5-3.1s-2.5-2.5-2.5-3a3.93,3.93,0,0,0-1.9-2.4c-3.5-2.5-5-19.2-2.3-26C798.4,302.7,800,301.8,800,305Zm87.3,8.5c.1.6-1.5,1.1-3.5,1.3-4.3.4-5.2-1.5-1-2.1C886.3,312.2,887.1,312.3,887.3,313.5ZM897,316c0,.5-.7,1-1.5,1s-1.5-.5-1.5-1,.7-1,1.5-1S897,315.4,897,316Zm1,5.1c0,.5-.7.9-1.5.9-1.5,0-2-1.2-.9-2.3C896.4,318.9,898,319.8,898,321.1Zm-54,45.8c0,1.2-2,2.5-2.7,1.8s.6-2.7,1.8-2.7A.9.9,0,0,1,844,366.9Zm-51.2,7c.3.8-.1,1.2-.9.9a2.86,2.86,0,0,1-1.7-1.7c-.3-.8.1-1.2.9-.9A2.86,2.86,0,0,1,792.8,373.9Zm14.2.2a.92.92,0,0,1-1,.9c-.5,0-1-.7-1-1.6s.5-1.2,1-.9A1.9,1.9,0,0,1,807,374.1Zm44,.9c0,1.1-.7,2-1.5,2-1.7,0-1.8-.2-.9-2.4S851,372.6,851,375Zm3,5.5c0,.8-.4,1.5-.9,1.5-1.3,0-2.2-1.6-1.4-2.4C852.8,378.5,854,379,854,380.5Zm113.1,4.4c1.2,2,4.6,7.3,7.6,11.8,4.6,7,6.6,12.3,4.7,12.3-1,0-5.8-6.2-9.4-12.1-1.9-3.1-5-7.8-6.8-10.4-2.7-3.7-3.1-4.9-2.1-6.1C962.6,378.6,964.1,379.7,967.1,384.9Zm-117.5,0a21.28,21.28,0,0,0,6,4.6l3.6,1.7-3.4,2.8c-2.7,2.3-4,2.7-6.8,2.3-4.5-.7-4.6-.8-3.2-4.5.8-2.2.8-3.6.1-5-1-1.9-.6-4.8.6-4.8C846.9,382,848.2,383.3,849.6,384.9Zm113.5,5.6c2.6,4.7,8.9,16.9,8.9,17.2s-.7.3-1.5.3-2.2-1.5-3.1-3.3a39.14,39.14,0,0,0-4-6c-1.3-1.6-2.4-3.6-2.4-4.5a13.78,13.78,0,0,0-2-5c-1.1-1.8-1.8-3.8-1.4-4.4C958.4,383.5,960.2,385.3,963.1,390.5Zm-84.1.3a44.34,44.34,0,0,1-3.5,8c-.3.3-6.9-2.5-7.7-3.3-1.3-1.4.5-3.5,3.1-3.6a13.45,13.45,0,0,0,4.6-.9C878.1,389.9,879,389.8,879,390.8Zm4,2.1c0,.5-.7,1.1-1.5,1.5-1.5.5-2-.5-.8-1.7C881.6,391.7,883,391.8,883,392.9Zm77.3,6.1a39.85,39.85,0,0,1,2.7,7c0,.9-4.1.5-6.2-.6-.9-.6-.9-12.4.1-12.4C957.3,393,958.9,395.7,960.3,399ZM860,397a1,1,0,0,1-1,1,1.08,1.08,0,0,1-1-1,1,1,0,0,1,1-1A.94.94,0,0,1,860,397Zm74.8,3.7c-.4,2.2-2.2,2-2.6-.1a1.2,1.2,0,0,1,1.3-1.6A1.27,1.27,0,0,1,934.8,400.7Z" transform="translate(0 -5.52)"/>
    <path d="M912.5,260a2.14,2.14,0,0,0,1.6,1,1,1,0,0,0,.9-1c0-.6-.7-1-1.6-1S912.2,259.4,912.5,260Z" transform="translate(0 -5.52)"/>
    <path d="M923.2,280.3c-2.4,2.5-2.8,3.7-1.3,3.7,1.1,0,6.1-4.4,6.1-5.4C928,277.2,925.2,278.2,923.2,280.3Z" transform="translate(0 -5.52)"/>
    <path d="M856.6,284.2c-2.2,3.1-2,5.5.5,6.8,2.6,1.5,3.4.7,2-1.8-1.9-3.6-1.2-3.6,1.9-.1,2.1,2.5,2.8,4,2.3,5.7-.9,3.8,2.9,2.4,4-1.4.8-2.8.5-3.4-3.4-7.2-2.3-2.3-4.6-4.2-5-4.2S857.4,283,856.6,284.2Z" transform="translate(0 -5.52)"/>
    <path d="M874.6,318.7a8.06,8.06,0,0,0-.6,3.5c0,2,.5,2.8,1.8,2.8,2.5,0,3.4,1.1,2.2,2.5-.8.9-.5,1.4,1,1.8,1.3.3,2,0,2-.8a11.54,11.54,0,0,1,.6-2.9c.4-1.1,0-1.6-1.2-1.6-2.7,0-4.8-1.6-4-2.9.5-.8,1.3-.8,2.6-.1,2,1,5,.4,5-1.1,0-.4-.7-.6-1.5-.3a8.93,8.93,0,0,1-4.4-.4C876.5,318.6,874.9,318.4,874.6,318.7Z" transform="translate(0 -5.52)"/>
    <path d="M871,330.6c0,1.8,1.1,2.3,5.9,2.9,5.6.7,5.1-.7-.9-2.6C872.1,329.7,871,329.6,871,330.6Z" transform="translate(0 -5.52)"/>
    <path d="M870,335.8c0,1.1,7.9,3.1,8.5,2.2.2-.4-1.3-1.2-3.4-1.9C870.6,334.8,870,334.7,870,335.8Z" transform="translate(0 -5.52)"/>
    <path d="M868.2,342.2c-1.3,4.9-.5,6.2,4.1,7.3,2.7.7,3.9-.8,1.5-1.8-.7-.3-.3-.6,1-.6,2.5-.1,3-1.9.7-2.7-.8-.4-1.5-1.1-1.5-1.6s.6-.8,1.4-.5a2.26,2.26,0,0,0,2,0c.5-.5-6.1-4.3-7.5-4.3C869.5,338,868.8,339.9,868.2,342.2Z" transform="translate(0 -5.52)"/>
    <path d="M828.4,347.2c-.4.6.1,1.5,1,2a3.2,3.2,0,0,1,1.6,2.3c0,1.7,1.6,2,2.5.4.4-.5-.5-2.1-1.9-3.4C830,347,828.8,346.5,828.4,347.2Z" transform="translate(0 -5.52)"/>
    <path d="M892.6,384.8c-.7,1.1,1.8,3.5,2.6,2.6.5-.5,4.8.4,11.2,2.3,1.2.3,1.7.1,1.4-.8-.2-.7-2.9-1.9-5.9-2.5a71.38,71.38,0,0,1-7-1.8C893.9,384.2,892.9,384.3,892.6,384.8Z" transform="translate(0 -5.52)"/>
    <path d="M898.5,391.7c1.5,1.6,7.5,2.7,7.5,1.4,0-.6-1.1-1.1-2.4-1.1a18.59,18.59,0,0,1-4.3-.6C898.1,390.9,897.8,391,898.5,391.7Z" transform="translate(0 -5.52)"/>
    <path d="M817.6,365.6c-1,2.5-.1,2.7,1.9.4,1.5-1.7,1.6-2,.3-2A2.48,2.48,0,0,0,817.6,365.6Z" transform="translate(0 -5.52)"/>
    <path d="M104,263.1c0,.5.5.7,1,.4s1-.8,1-1.1-.4-.4-1-.4A1.1,1.1,0,0,0,104,263.1Z" transform="translate(0 -5.52)"/>
    <path d="M56,280.4c0,1.1.9,1.6,2.6,1.6,3.1,0,2.8-2.3-.4-2.8C56.7,279,56,279.4,56,280.4Z" transform="translate(0 -5.52)"/>
    <path d="M449.4,289.2c-.3.5-2.9.8-5.7.7-4.7-.1-11.6,1.6-13.3,3.4a3.52,3.52,0,0,1-2.1.7c-1.5,0-9.3,7.7-9.3,9.2,0,.5-1.6,1.8-3.5,2.9a16.79,16.79,0,0,0-3.6,2.7,19,19,0,0,1-.7,3.2c-.6,2.5-.6,9.1,0,14,.2,2-.1,2.4-1.8,2.2-3.5-.5-4.8,2.2-4,8.3.5,4.9-.4,7.9-1.8,5.6-.9-1.3-13.7-7.2-14.6-6.6-.4.2-1.6-.4-2.7-1.4-1.4-1.3-3.1-1.8-5.9-1.5-2.5.2-4.5-.3-5.7-1.4-2.2-2-11-2-13-.1A29.83,29.83,0,0,1,358,334c-4.5,2.9-5.8,4.9-6.9,10.2-1.3,6.6-1.8,23.9-.8,25.6.5.7.6,2.6.2,4.3s-.2,3.6.5,4.4a2.45,2.45,0,0,1,.5,2.5,2.2,2.2,0,0,0,.3,2.3c.8,1,2.4,6.9,2.7,10.2a35.89,35.89,0,0,0,2.3,5.2,27.52,27.52,0,0,1,2.2,4.9c0,1.5-25-1.6-29-3.6a10.29,10.29,0,0,0-4.8-.2,6.11,6.11,0,0,1-5-1.1c-2.1-1.9-6.4-2.6-6.9-1.1-.2.6,1.5,2.5,3.7,4.3s4,3.8,4,4.5c0,1.4,7.8,9.6,19.7,20.9l6.2,5.9,9.8.5,9.9.6,1.8,5.8c1.1,3.2,2.8,6.6,4,7.6,3.7,3.2,12.8,6.3,18.4,6.3,4.6,0,5.4-.3,6.4-2.5.6-1.4,1.5-2.5,1.9-2.5s.9-3.1,1.1-6.8l.3-6.8,9.5,1.3c5.2.6,14,1.4,19.5,1.7s11.8.8,14,1.1c4.9.6,16.7,1.2,42.5,2,31.4.9,47.2,1.6,51.5,2,4.9.4,33.3,1.8,36,1.6a77,77,0,0,1,7.8.9c5.1.8,6,.7,7.7-1a15.5,15.5,0,0,0,2-2.3c0-.2-1.7-.9-3.8-1.5-6.7-2-23.5-9.7-24-11-.2-.7.8-2.2,2.3-3.5,10.6-8.8,10.7-8.9,8.9-10.8-1.4-1.6-3.3-1.8-18.3-1.6-9.1.1-16.9.6-17.3,1.1s-1.8.1-3.4-.9c-2.4-1.5-2.9-1.6-3.7-.4s-2.7,1.3-11,.6c-13.4-1.1-14.1-1.2-15.5-2.1-.7-.4-1.2-.2-1.2.3,0,2.8-1.7.6-2.8-3.4a44,44,0,0,0-3.5-8.3c-2.8-4.4-3.9-8-2.6-8.7,1.7-1.1.6-7.4-1.8-9.7-1.2-1.2-2.3-2.6-2.3-3.1a4,4,0,0,0-1.6-2.2c-1.5-1-1.3-1.3,1.3-1.8,2.1-.4,3.7-1.7,5.2-4.2a23.9,23.9,0,0,0,2.1-4.4c0-.4-1.6-2.6-3.5-4.9l-3.5-4.1,2.6-2.6,2.6-2.6-.4-15.8c-.3-12.4-.7-16.3-2-18.3a21.76,21.76,0,0,1-2.3-7.2c-.5-2.9-1.4-5-2.3-5.4s-3-2.1-4.6-4.1c-5.5-6.2-9.1-9.1-11.3-9.1-2.8,0-7.6-1.8-8.4-3.2S450.2,287.9,449.4,289.2Zm-9.4,5.6a7.8,7.8,0,0,1-1.3,2.7c-1.6,2-3.1.7-2.1-1.9C437.2,294,440,293.3,440,294.8Zm15,5.2c0,.5-.7,1-1.5,1s-1.5-.5-1.5-1,.7-1,1.5-1S455,299.4,455,300Zm21,.4a2.22,2.22,0,0,0,1.3,1.9c.6.2.9.7.5,1.1-.7.8-4.8-2.3-4.8-3.6,0-.5.7-.8,1.5-.8A1.45,1.45,0,0,1,476,300.4Zm-29.2.8c-.6,1.8-2.8,2.1-2.8.4a1.58,1.58,0,0,1,1.6-1.6C446.5,300,447,300.5,446.8,301.2Zm15.1,3.7c4,1.1,6.9,2.5,7.5,3.7a9.22,9.22,0,0,0,2.4,2.7,4.52,4.52,0,0,1,1.2,3.2c0,2-.5,2.5-2.4,2.5-3.6,0-8.4,3.1-9.4,6-.5,1.4-.4,5.8.3,10.3.6,4.3.9,8,.6,8.2-.8.9-6,.5-6.5-.4-.3-.5.1-1.4.9-2.1,1.3-1,1.4-2.8,1-8.9-.4-4.2-1.1-8.8-1.7-10.3-1.1-3.1-4.8-5.8-7.7-5.8-3.2,0-3.4,1.9-.4,2.6a11.65,11.65,0,0,1,4,1.7c1.9,1.4.5,2.8-2.2,2.1-1.6-.4-3.7.2-6,1.6-3,1.8-3.5,2.7-3.5,5.9,0,2.8.7,4.3,3,6.3,1.6,1.4,3.2,2.3,3.5,2,.6-.6,6.7-1,7.8-.5.4.3-.6,1.6-2.3,3-3.7,3.1-3.8,4.9-.2,5.8s12.5,1.1,14,.1c.6-.4,1.2-2.5,1.2-4.8,0-3.7.2-4,2.3-3.4,4.4,1.1,6.3-2,5.9-9.5a3.22,3.22,0,0,0-2.2-3.2c-1.1-.3-2-1.2-2-1.9,0-2.4,5.7-1,6.4,1.6,1.1,4.2.6,12.4-.9,14a5.55,5.55,0,0,0-1.5,3.3c-.1,2.6-6.3,14.6-7.8,15.1-1,.3-1.3-.5-1-2.9.3-3.7-1.3-4.6-8.8-4.8-3.4-.1-4.5.4-5.9,2.5-2,3-1.3,6.3.9,4.5,1-.8,1.6-.9,2.1-.1.9,1.5,7.5,1.3,7.5-.3,0-.8.4-.7,1,.3,2.2,3.4.8,4.7-6.1,5.5a14.13,14.13,0,0,0-3.9,1c-.9.6-7-5.1-7-6.5,0-.3-1-1.1-2.1-1.9-1.9-1.1-2.1-1.1-1.6.3.4.9.2,1.6-.3,1.6-1.4,0-5-5.6-5-7.8a3.33,3.33,0,0,0-.9-2.6c-2.5-1.6-1.6-17.9,1.3-23.7a15.1,15.1,0,0,0,1.6-5.5c0-2.9,6.8-8.8,12.4-10.8l4.1-1.5S458.4,303.9,461.9,304.9Zm-33.1,2.8c-.2.5-1.6,3.4-3.2,6.5-3.1,6.5-4.1,7.3-3.2,2.5.8-4.4,3.8-9.7,5.4-9.7C428.6,307,429,307.3,428.8,307.7Zm53.2.3c0,.5-.7,1-1.6,1s-1.2-.5-.9-1a1.9,1.9,0,0,1,1.6-1A.92.92,0,0,1,482,308Zm-45,2.8a4,4,0,0,1-1.2,2c-1.8,1.8-4,8.3-4.5,13.2-.6,6.7-1.2,9-2.5,9-2.9,0,1.3-18.3,5.5-23.8C435.4,309.8,437,309.6,437,310.8Zm42.9,2c2,4.7,3.3,21.2,2,23.8a14.25,14.25,0,0,0-.8,4.4,51.3,51.3,0,0,1-1.9,12.5,71.5,71.5,0,0,0-1.7,9.7c-.8,7.1-2.5,7.6-2.5.8,0-4.6,1-9.9,4.1-22.5,1.9-7.5,1.8-17.2-.2-23.8-2.1-7.1-2.2-7.7-1-7.7C478.4,310,479.3,311.2,479.9,312.8ZM426,323.2c0,1.6-.3,1.9-1.1,1.1a2.09,2.09,0,0,1-.5-2.2C425.5,320.4,426,320.8,426,323.2Zm-3.6,3.6c-.8,5.8-2.6,12.2-3.4,12.2-.4,0-.4-1.7.1-3.8a38.77,38.77,0,0,0,.9-7.8c0-2.2.3-4.4.6-4.7C422,321.3,422.8,323.2,422.4,326.8ZM450,325a1,1,0,0,1-.9,1,11,11,0,0,0-2.5.6c-1.1.4-1.6.1-1.6-1s.9-1.6,2.5-1.6C448.9,324,450,324.4,450,325Zm37.5,2a1,1,0,0,1-1.7.2,1.84,1.84,0,0,1-.3-2.2,1,1,0,0,1,1.7-.2A1.84,1.84,0,0,1,487.5,327Zm-15.9-.6c1,.8,1.6,1.7,1.3,2.1-1.1,1-5.9-.6-5.9-2.1C467,324.6,469.1,324.6,471.6,326.4Zm15.7,7.7c-.3,1.2-.9,1.7-1.5,1.1-1-1,0-4.4,1.2-3.7C487.5,331.8,487.6,332.9,487.3,334.1Zm-72.3-.2c0,1.3-2.6,3.2-3.3,2.4s1.1-3.3,2.4-3.3A.9.9,0,0,1,415,333.9Zm77,1.1a1,1,0,0,1-1,1,1.08,1.08,0,0,1-1-1,1,1,0,0,1,1-1A.94.94,0,0,1,492,335Zm-115.8,3.6a6.45,6.45,0,0,0,4.2.8c.9-.3,1.6-.1,1.6.5s1.2,1.1,2.8,1c3.1-.2,7.7,1.4,8.7,3.1a1.29,1.29,0,0,0,1.6.5c.5-.4,1.2.1,1.5.9s1,1.3,1.6,1,1.9.3,3.1,1.4c3.7,3.2,5.8,4,9.3,3.2,2-.5,3.4-.4,3.4.1s1.1,1.5,2.5,2.1c3.1,1.4,3.5,4.2.4,3.3-1.3-.5-1.9-.3-1.5.3a5.24,5.24,0,0,0,2.6,1.5c1.9.5,2.4-.3,2.1-3.1-.3-1.9,1.6-1.4,3.2.8.8,1.1,1.6,1.8,1.9,1.5.7-.7,8.3,6.5,9.7,9.2s7.1,6,7.1,4.3a36.49,36.49,0,0,0-1.6-6.1c-.9-2.7-1.4-5.2-1.1-5.5s2.1.6,4.1,2c4.1,2.8,10.9,4.1,16.2,3.3s4.9,1-2.2,12.2a1.85,1.85,0,0,1-1.4-.4c-.8-.5-.8-1.1-.1-1.9,1.3-1.5.4-2.6-2.1-2.6-1,0-1.8-.5-1.8-1s.9-1,2-1,2-.5,2-1-1-1-2.2-1a28.18,28.18,0,0,1-4.3-.5c-3-.8-6.5,5.9-6.5,12.3,0,5.3.8,6.2,5.6,6.2,1.6,0,2.4.6,2.4,1.6,0,1.4-.7,1.6-4.2,1.1-4.3-.6-4.3-.6-4.3,2.6,0,2.7.4,3.2,2.8,3.5,1.5.2,2.7.9,2.7,1.8,0,1.6-.9,1.8-4.4.4-1.5-.5-2.8-.6-3.1,0-.8,1.3,2.8,3,6.2,3,2.2,0,3.1-.7,4.1-3.3.7-1.7,1.7-4,2.2-4.9a4.34,4.34,0,0,0,.4-3.3c-.4-.8-.1-1.5.6-1.5s1-.7.6-1.5c-.9-2.5,1.5-6.6,3.5-6,1.4.5,2-.1,2.5-2a3.94,3.94,0,0,1,3.3-3.1c1.4-.3,3.1-.7,3.7-.9s3.1.1,5.5.6c11.4,2.5,13.7,5.9,13.4,19.7-.3,8.9-.2,9.2,2.1,9.8,1.5.4,2.7,1.8,3.4,3.9a21.77,21.77,0,0,0,2.9,5.7c1.7,2.2,5.2,11.4,6.5,16.9.8,3.8-.8,4.7-9.4,5.3-8.1.6-10,.1-7.3-1.9,1.4-1.1,1.6-1.7.7-3.2s-.9-2.5.2-4.4c1.8-3.3,1.7-3.9-.6-3.9s-2.6-1-.8-2.8c.6-.6.8-1.5.3-1.9s-1-.2-1.2.4a2.24,2.24,0,0,1-2,1.3c-1.2,0-1.2-.2.1-1.6,1.6-1.5,2.2-4.4.9-4.4a6.56,6.56,0,0,0-2.5,1.7c-1.6,1.4-1.8,1.5-1.8,0a2.87,2.87,0,0,1,1-2.2,2.48,2.48,0,0,0,.9-2.3c0-1.4-.3-1.3-1.6.5-2,2.9-3.8,3-2.3.2s.2-3.9-1.6-1.5c-.7,1.1-1.7,1.7-2,1.4-.9-.9,1.9-8,3.3-8.5.9-.4.8-1.4-.5-3.9-1.8-3.9-3.1-3.9-5-.1-.7,1.5-1.7,2.7-2.3,2.7-1.2,0-1.2-.1.7-5.5,1.4-4.4,1.4-4.8-.6-9.1-1.2-2.4-2.5-4.6-3-4.9-1.9-1.2-4.9,6.5-5.1,13-.2,5.5.2,7.1,2,9.6,3.5,4.7,2.2,6.3-4.7,5.5-3.1-.3-6.4-.8-7.2-1s-3-.7-4.7-1.1c-4.2-1-4.3-2.5-.1-2.5s2.5-1.9-2.5-2.7c-3.4-.5-3.5-.4-3,1.8.5,2,.4,2.2-.8,1.3-2.7-2-11.3-4.2-17.5-4.3-2.3-.1-4.2-1.2-6.7-3.7-3.9-4-5.4-6.9-10-18.5-1.4-3.4-5.7-8.9-7.1-8.9a7.31,7.31,0,0,1-2.4-1.8c-1-.9-3.6-3.3-5.7-5.2a84.83,84.83,0,0,1-6.7-6.9c-1.6-1.8-2.8-2.7-2.8-2.1s-.4.8-1,.5a3.42,3.42,0,0,1-1-2.5c0-2-6.8-8.2-8.2-7.4s-.9,3,2.2,7.5c2.9,4.3,3.8,6.9,2.3,6.9-.5,0-1.9-1.9-3.3-4.1-3-4.9-4.1-3.1-1.2,2,2.8,4.9,4.1,13.7,4.9,31.4l.6,14.8-2.8-.7-2.9-.7,2.1,2.9a99.9,99.9,0,0,0,7.2,7.9c2.8,2.7,5.1,5.2,5.1,5.6s2.6,3.3,5.7,6.5c5.7,5.7,5.8,5.8,6.1,12.6.3,4.6.1,6.8-.7,6.8-1,0-1.5-1.3-1.2-3.2.5-3.5-6.3-16.8-8.6-16.8-1.7,0-1.6.9.2,4.4s5.5,14.4,5.5,16.3c0,2.4-2,1.3-2.6-1.4-.4-1.6-2-6.1-3.6-10.1-2.2-5.4-3.5-7.2-4.9-7.2-1,0-1.9.2-1.9.4,0,.8,4,10.1,5.6,12.8.8,1.6,1.3,2.8,1,2.8s.1,1.8,1,4c1.8,4.3,1.1,6.7-1,3.8-.7-1-2.5-5.5-4.1-10.1-3-9-5.6-13.4-7.3-12.3-.8.5-.8,1.3,0,3.1.6,1.4.8,2.8.4,3.2-1.7,1.7-5.8-9.3-4.9-12.8.3-1.2.1-2.4-.5-2.8s-1.2-3.4-1.4-6.8c-.1-3.8-.8-6.5-1.5-6.7a1.44,1.44,0,0,1-.7-1.9,2.66,2.66,0,0,0-1.1-2.7c-2-1.7-1.9-2.7.4-3.3,2.9-.7,2.7-7.3-.2-8.2-1.8-.6-1.9-.8-.6-1.2,2.2-.5,2.7-4.7,1.6-12-.4-3.2-.8-7.2-.8-9,0-2.3-.6-3.4-2-3.8-2.8-.9-2.4-2.8.5-2.1s4.6-1.3,2.1-2.6a28.6,28.6,0,0,1-3.6-2.9A6,6,0,0,0,358,353c-.5,0-1-1.9-1-4.3.1-4.5,1.5-6.8,6.5-10.4C366.7,336,371.2,336.1,376.2,338.6Zm52.4,0c-.3.9-.9,2.7-1.2,4-.7,2.6-2.4,3.3-2.4.9,0-2.1,2.2-6.5,3.3-6.5C428.8,337,428.9,337.7,428.6,338.6Zm58.4,1.6c0,4.2-1,7.8-2.1,7.8-.5,0-.7-1-.5-2.3a28.69,28.69,0,0,0,.5-5.5c.1-1.7.6-3.2,1.1-3.2S487,338.5,487,340.2Zm5.6,1c-2,9.6-2.9,12.8-3.8,12.8-.7,0-.8-1.3-.4-3.3.4-1.7.9-5.1,1.3-7.5.3-2.6,1.1-4.2,2-4.2S492.9,339.8,492.6,341.2Zm-60.9,9c-.3.8-.6.5-.6-.6s.2-1.7.5-1.3A2,2,0,0,1,431.7,350.2Zm51.2,9.2c-1.1,7-1,7.8.7,9.7a4,4,0,0,0,4.3,1.4c2.1-.5,2.3-.4,1.2.9-1.7,2-4.1,2-7,0-2.2-1.6-2.3-2-1.6-9.8.6-7.2,2-11.5,3.2-10.2C484,351.6,483.6,355.3,482.9,359.4Zm6.6,3.6c1.1,1.7-.5,3.2-2.1,1.9a3.35,3.35,0,0,1-1.4-2C486,361.7,488.7,361.8,489.5,363Zm-108.2,1.1c3,1.5,11.7,10.7,11.7,12.4,0,.8,1.2,2,2.7,2.7,3.2,1.6,6.1,8.7,4.1,9.9-.9.6-.8,1,.5,1.5.9.3,2.6,2.3,3.8,4.3s4.5,5.3,7.5,7.4c5.2,3.6,7.4,7.4,3.7,6.3a97.63,97.63,0,0,0-11.3-1.1c-17.5-1.1-21-1.4-23-2.5-1.7-.9-1.9-2.2-1.9-15.2,0-7.9-.2-17.1-.5-20.6s-.2-6.2,0-6.2A12.18,12.18,0,0,1,381.3,364.1ZM362,376c.8.5,1.2,1.1.9,1.4-.7.8-4.9-.5-4.9-1.5C358,374.7,360.1,374.8,362,376Zm86,16c0,.5-.6,1-1.4,1a2.82,2.82,0,0,1-2.1-1c-.3-.6.3-1,1.4-1S448,391.4,448,392Zm25,9.4c0,1.5-1.8,3.1-2.6,2.3s.7-3.7,1.7-3.7C472.6,400,473,400.6,473,401.4Zm-40.2,6.9c1,.8,1.3,3.2,1,8.6l-.3,7.6,3.5,1.2c4.3,1.5,7.3,1.6,6.5.4a1.1,1.1,0,0,1,.3-1.5c.5-.3.8-2.9.8-5.8-.1-5.2-.1-5.2-3.8-6.1-2.2-.5-3.8-1.5-3.8-2.3,0-1.1,1-1,5,.6a29.29,29.29,0,0,0,8.5,2c3.8,0,4.6,1.3,1.8,2.6-1.2.6,1.7,1.1,8.1,1.4,6.7.3,10.1.9,10.4,1.7.3,1-2,1.3-9.2,1.3-5.7,0-9.6.4-9.6,1s4.1,1,10.3,1c6.5.1,11.1.5,12.6,1.4,3.9,2.2.9,2.6-10.3,1.6-5.9-.6-11.1-.8-11.7-.5-2.2,1.4-.6,2.3,4.1,2.3a24.19,24.19,0,0,1,6,.7c2.1,1.3-.3,2.5-5.1,2.5-2.7,0-4.9.4-4.9,1s3,1,6.8,1.1c14.8.1,19.2.4,18.9,1.4-.1.6-6,1-15.3,1-12.8,0-15.3-.3-16.8-1.7-1.6-1.6-7.5-3.8-10.3-3.8s-1.1,2,2.2,2.6c5.3,1,3.3,2.1-2.4,1.4a77.08,77.08,0,0,0-9.5-.4c-2.5.2-4.8-.1-5.1-.6s.4-2.6,1.5-4.8c1.9-3.5,2-4.6,1-10.3-1.7-11-1.7-11.2,3.3-10.4C429.6,406.9,432.1,407.7,432.8,408.3ZM468,414c0,.5-2.5,1-5.5,1s-5.5-.5-5.5-1,2.5-1,5.5-1S468,413.4,468,414Zm6.8,14c3.8,0,4.3,1.6.6,2.3-3.4.6-7.6-.5-8.2-2.3-.3-.9.2-1.1,1.9-.7A24,24,0,0,0,474.8,428Zm85.2,6.8a6.18,6.18,0,0,1-2,2.7c-2,1.8-2.5,1.1-1.4-1.9C557.2,433.9,560,433.3,560,434.8Zm4.8,2.3a1.35,1.35,0,0,1-2.6,0c-.2-.6.4-1.1,1.3-1.1S565,436.5,564.8,437.1Zm-187.8,5c0,1.1-.4,1.7-1,1.4a2.82,2.82,0,0,1-1-2.1c0-.8.5-1.4,1-1.4S377,440.9,377,442.1Z" transform="translate(0 -5.52)"/>
    <path d="M404.5,359.9c-.3.5-1.4.7-2.5.4-2.5-.7-7,.4-7,1.7,0,.5,2,2.9,4.4,5.3,4.9,5,12,14.3,12.9,16.9a2.67,2.67,0,0,0,2.2,1.8,1.59,1.59,0,0,1,1.5,1.7c0,1.7,4.6,8.3,5.8,8.3.4,0,1.6-1.6,2.7-3.6,1.5-2.9,1.7-3.9.7-5.5a7.36,7.36,0,0,1-1.2-3.4c0-.9-1-2.6-2.3-3.9s-2.1-2.8-1.9-3.4c.9-2.7-2.6-.9-3.9,2-.8,1.7-2,3.4-2.7,3.6-1.5.5-.6-2.2,2-6,1.9-2.8,2.3-4.8.9-4.8-.5,0-1.1.9-1.4,2.1s-1,1.8-1.7,1.4c-.9-.5-.9-1-.1-1.8,1.6-1.6,1.3-6.4-.4-7.1a1.63,1.63,0,0,1-.9-2.1c.4-.9-.1-1.7-1.2-2.1a19.43,19.43,0,0,1-3.6-1.5C405.8,359.4,404.9,359.4,404.5,359.9ZM419,379.7a4.84,4.84,0,0,1-1,2.3c-1.1,1.8-2.5.7-1.7-1.5C416.9,379,419,378.4,419,379.7Z" transform="translate(0 -5.52)"/>
    <path d="M477.1,404.6c0,1.1.3,1.4.6.6a2,2,0,0,0-.1-1.9C477.3,402.9,477,403.5,477.1,404.6Z" transform="translate(0 -5.52)"/>
    <path d="M726.5,294c-1.6,1.8-1.6,2-.1,2.6,2.2.8,4.6-.2,4.6-2C731,292.3,728.3,292,726.5,294Z" transform="translate(0 -5.52)"/>
    <path d="M16.2,324.6c.4,2.1,2.2,2.3,2.6.1a1.27,1.27,0,0,0-1.3-1.7A1.2,1.2,0,0,0,16.2,324.6Z" transform="translate(0 -5.52)"/>
    <path d="M2.7,334.6a2.75,2.75,0,0,0,3.4,4.3c1.2-.7,1-1.2-.7-2.9C4.3,334.9,3.1,334.3,2.7,334.6Z" transform="translate(0 -5.52)"/>
    <path d="M723,344a1.08,1.08,0,0,0,1,1,1,1,0,0,0,1-1,.94.94,0,0,0-1-1A1,1,0,0,0,723,344Z" transform="translate(0 -5.52)"/>
    <path d="M317,377.1c0,.5.5.7,1,.4s1-.8,1-1.1-.4-.4-1-.4A1.1,1.1,0,0,0,317,377.1Z" transform="translate(0 -5.52)"/>
    <path d="M498.2,383c0,1.4.2,1.9.5,1.2a5.28,5.28,0,0,0,0-2.5C498.4,381.1,498.2,381.6,498.2,383Z" transform="translate(0 -5.52)"/>
    <path d="M571.5,386.9a1.22,1.22,0,0,0,.5,1.6,2,2,0,0,0,3-1.6C575,385.7,572.3,385.7,571.5,386.9Z" transform="translate(0 -5.52)"/>
    <path d="M320,388.9c-2.8.8-4.1,4.1-1.6,4.1.9,0,1.6-.5,1.6-1.1s.7-.9,1.5-.6c1.7.7,3.2-1.1,1.9-2.2C322.9,388.6,321.4,388.6,320,388.9Z" transform="translate(0 -5.52)"/>
  </g>
</svg>
